<?xml version="1.0" encoding="UTF-8" standalone="no"?><!DOCTYPE svg PUBLIC "-//W3C//DTD SVG 1.1//EN" "http://www.w3.org/Graphics/SVG/1.1/DTD/svg11.dtd"><svg width="100%" height="100%" viewBox="0 0 64 48" version="1.1" xmlns="http://www.w3.org/2000/svg" xmlns:xlink="http://www.w3.org/1999/xlink" xml:space="preserve" style="fill-rule:evenodd;clip-rule:evenodd;stroke-linejoin:round;stroke-miterlimit:1.41421;"><rect id="ArtBoard1" x="0" y="0" width="64" height="48" style="fill:none;"/><clipPath id="_clip1"><rect id="ArtBoard11" x="0" y="0" width="64" height="48"/></clipPath><g clip-path="url(#_clip1)"><g><path d="M21.111,6.954l-7.497,0.666l0.257,1.462l30.66,-2.701l1.884,11.301c0.012,0.057 0.024,0.113 0.037,0.17c0.018,0.08 0.037,0.161 0.056,0.241c0.047,0.197 0.095,0.394 0.146,0.59c0.063,0.242 0.129,0.484 0.198,0.725c0.067,0.236 0.138,0.471 0.213,0.705c0.064,0.2 0.131,0.398 0.202,0.596c0.058,0.162 0.118,0.323 0.182,0.482c0.061,0.153 0.125,0.304 0.193,0.453c0.062,0.136 0.128,0.271 0.199,0.404c0.048,0.088 0.097,0.174 0.151,0.259c0.023,0.037 0.047,0.074 0.072,0.11c0.015,0.023 0.03,0.046 0.046,0.069c0.047,0.07 0.095,0.139 0.142,0.209c0.183,0.265 0.371,0.527 0.561,0.787c0.154,0.211 0.31,0.421 0.468,0.63c0.168,0.223 0.337,0.444 0.508,0.665c0.142,0.183 0.285,0.366 0.429,0.549c0.103,0.129 0.206,0.259 0.309,0.387l0.005,0.006l-0.87,0.702c-0.013,-0.016 -0.026,-0.033 -0.039,-0.049c-0.142,-0.177 -0.284,-0.356 -0.424,-0.534c-0.137,-0.175 -0.274,-0.351 -0.41,-0.528c-0.307,-0.398 -0.609,-0.799 -0.906,-1.206c-0.186,-0.256 -0.371,-0.514 -0.551,-0.775c-0.058,-0.084 -0.115,-0.169 -0.173,-0.254c-0.036,-0.054 -0.072,-0.108 -0.107,-0.163c-0.067,-0.106 -0.129,-0.214 -0.189,-0.323c-0.08,-0.15 -0.156,-0.302 -0.227,-0.457c-0.075,-0.165 -0.147,-0.332 -0.214,-0.5c-0.073,-0.181 -0.142,-0.363 -0.207,-0.547c-0.075,-0.209 -0.146,-0.419 -0.214,-0.631c-0.078,-0.245 -0.153,-0.491 -0.224,-0.738c-0.071,-0.25 -0.14,-0.502 -0.205,-0.754c-0.052,-0.203 -0.103,-0.407 -0.151,-0.612c-0.037,-0.152 -0.072,-0.306 -0.105,-0.459l-1.717,-10.306l-30.652,2.7l-0.635,-3.622l0.04,-0.052l8.66,-0.77c0.033,0.371 0.066,0.742 0.099,1.113Z" style="fill:#fff;fill-rule:nonzero;"/><path d="M50.012,4.163l-12.605,1.125l-0.099,-1.113l12.604,-1.125c0.034,0.371 0.067,0.742 0.1,1.113Z" style="fill:#fff;fill-rule:nonzero;"/><path d="M18.736,9.339l-2.386,22.013l-1.111,-0.121l2.386,-22.013c0.37,0.041 0.741,0.081 1.111,0.121Z" style="fill:#fff;fill-rule:nonzero;"/><path d="M49.171,12.006c0.092,0 0.184,0.001 0.276,0.004c0.156,0.004 0.313,0.011 0.47,0.021c0.46,0.031 0.919,0.088 1.373,0.172c0.502,0.093 0.999,0.219 1.486,0.374c0.469,0.149 0.928,0.326 1.376,0.528c0.744,0.337 1.456,0.744 2.125,1.213c0.604,0.423 1.173,0.895 1.7,1.41c0.782,0.764 1.472,1.622 2.048,2.551c0.352,0.567 0.661,1.16 0.924,1.774c0.264,0.616 0.481,1.253 0.647,1.902c0.111,0.434 0.2,0.874 0.265,1.317c0.076,0.515 0.121,1.034 0.135,1.554c0.01,0.387 0.003,0.774 -0.022,1.16c-0.043,0.666 -0.138,1.33 -0.285,1.981c-0.131,0.585 -0.304,1.16 -0.515,1.72c-0.274,0.725 -0.613,1.425 -1.01,2.09c-0.409,0.684 -0.88,1.331 -1.404,1.932c-0.49,0.56 -1.026,1.079 -1.601,1.549c-0.639,0.523 -1.327,0.985 -2.053,1.378c-0.843,0.456 -1.738,0.818 -2.663,1.069c-0.399,0.109 -0.803,0.197 -1.21,0.264c-0.144,0.023 -0.289,0.044 -0.435,0.063c-0.067,0.008 -0.133,0.016 -0.2,0.023l-0.019,0.002l-0.004,0.001l0.006,-0.001c-0.007,0.001 -0.015,0.002 -0.022,0.003c-0.011,0.002 -0.021,0.003 -0.032,0.005c-0.172,0.023 -0.345,0.039 -0.518,0.052c-0.215,0.015 -0.431,0.025 -0.646,0.029c-0.266,0.005 -0.531,0.003 -0.796,-0.007c-0.315,-0.012 -0.63,-0.034 -0.944,-0.066c-0.88,-0.09 -1.753,-0.26 -2.601,-0.515c-0.704,-0.211 -1.391,-0.48 -2.049,-0.808c-0.548,-0.274 -1.076,-0.588 -1.577,-0.94c-0.507,-0.356 -0.986,-0.752 -1.433,-1.181c-0.257,-0.247 -0.503,-0.504 -0.737,-0.772c-0.215,-0.245 -0.42,-0.497 -0.617,-0.757c-0.185,-0.246 -0.361,-0.498 -0.53,-0.755c-0.086,-0.133 -0.171,-0.267 -0.253,-0.403l0.954,-0.581c0.012,0.02 0.025,0.04 0.037,0.06c0.012,0.02 0.024,0.04 0.037,0.06c0.073,0.117 0.147,0.233 0.223,0.347c0.16,0.24 0.328,0.474 0.504,0.703c0.373,0.484 0.783,0.94 1.228,1.36c0.407,0.385 0.844,0.739 1.305,1.057c0.456,0.315 0.935,0.595 1.433,0.839c0.578,0.283 1.18,0.516 1.796,0.701c0.749,0.224 1.519,0.378 2.296,0.463c0.301,0.033 0.603,0.056 0.905,0.069c0.277,0.011 0.554,0.014 0.83,0.008c0.208,-0.005 0.417,-0.015 0.625,-0.031c0.076,-0.006 0.152,-0.013 0.229,-0.022c0.06,-0.006 0.12,-0.013 0.18,-0.022l0.004,-0.001l0.018,-0.002c0.021,-0.003 0.042,-0.005 0.063,-0.007c0.083,-0.009 0.165,-0.02 0.247,-0.031c0.143,-0.019 0.285,-0.041 0.426,-0.065c0.407,-0.072 0.809,-0.166 1.205,-0.283c0.485,-0.143 0.959,-0.318 1.42,-0.525c0.402,-0.179 0.793,-0.382 1.171,-0.605c0.741,-0.438 1.434,-0.957 2.064,-1.542c0.456,-0.423 0.879,-0.88 1.266,-1.367c0.367,-0.464 0.701,-0.954 0.998,-1.466c0.25,-0.433 0.474,-0.881 0.669,-1.342c0.185,-0.439 0.344,-0.889 0.475,-1.347c0.153,-0.536 0.268,-1.083 0.343,-1.636c0.043,-0.319 0.073,-0.639 0.09,-0.961c0.016,-0.305 0.019,-0.611 0.011,-0.917c-0.009,-0.348 -0.033,-0.696 -0.073,-1.042c-0.035,-0.309 -0.083,-0.616 -0.143,-0.921c-0.131,-0.672 -0.321,-1.333 -0.567,-1.973c-0.138,-0.361 -0.294,-0.715 -0.467,-1.062c-0.12,-0.24 -0.248,-0.476 -0.383,-0.708c-0.806,-1.38 -1.882,-2.601 -3.147,-3.577c-0.514,-0.396 -1.058,-0.752 -1.628,-1.062c-0.71,-0.386 -1.46,-0.701 -2.235,-0.932c-0.378,-0.112 -0.761,-0.205 -1.149,-0.277c-0.393,-0.073 -0.791,-0.124 -1.19,-0.152c-0.189,-0.013 -0.378,-0.022 -0.567,-0.025c-0.172,-0.003 -0.345,-0.002 -0.517,0.003c-0.325,0.01 -0.649,0.033 -0.972,0.07c-0.451,0.051 -0.898,0.13 -1.34,0.234c-0.433,0.103 -0.861,0.232 -1.28,0.384c-0.424,0.154 -0.839,0.332 -1.243,0.533c-0.38,0.188 -0.75,0.396 -1.11,0.622c-0.135,0.084 -0.268,0.172 -0.4,0.261c-0.961,0.652 -1.837,1.426 -2.62,2.282c-0.134,0.147 -0.265,0.295 -0.393,0.446c-0.158,0.186 -0.312,0.375 -0.462,0.567c-0.178,0.229 -0.35,0.461 -0.516,0.698c-0.13,0.185 -0.257,0.373 -0.38,0.563c-0.054,0.083 -0.107,0.167 -0.16,0.252c-0.057,0.091 -0.114,0.183 -0.171,0.275c-0.102,0.164 -0.204,0.328 -0.306,0.492c-0.786,1.265 -1.572,2.53 -2.347,3.803c-0.306,0.502 -0.61,1.006 -0.912,1.511c-0.288,0.481 -0.574,0.963 -0.858,1.446c-0.711,1.211 -1.411,2.43 -2.103,3.653c-0.376,0.665 -0.75,1.33 -1.123,1.997c-0.268,0.48 -0.536,0.961 -0.803,1.441c-0.094,0.171 -0.189,0.341 -0.283,0.512c-0.043,0.076 -0.085,0.153 -0.128,0.229c-0.021,0.037 -0.041,0.074 -0.062,0.111c-0.082,0.146 -0.165,0.291 -0.249,0.435c-0.187,0.322 -0.381,0.641 -0.58,0.955c-0.235,0.37 -0.478,0.734 -0.73,1.091c-0.192,0.272 -0.389,0.54 -0.592,0.803c-0.152,0.198 -0.308,0.393 -0.466,0.585c-0.117,0.141 -0.235,0.281 -0.355,0.419c-0.741,0.852 -1.554,1.645 -2.444,2.341c-0.12,0.094 -0.242,0.186 -0.366,0.277c-0.16,0.118 -0.323,0.233 -0.489,0.344c-0.214,0.144 -0.433,0.282 -0.655,0.415c-0.294,0.174 -0.594,0.338 -0.901,0.489c-0.446,0.221 -0.905,0.415 -1.375,0.581c-0.342,0.121 -0.69,0.226 -1.041,0.316c-0.343,0.087 -0.689,0.159 -1.037,0.216c-0.418,0.068 -0.839,0.114 -1.261,0.141c-0.182,0.012 -0.365,0.02 -0.547,0.025c-0.153,0.004 -0.306,0.006 -0.459,0.007c-0.068,0 -0.135,0 -0.202,0c-0.089,0 -0.177,0 -0.265,-0.001c-0.098,-0.001 -0.196,-0.003 -0.294,-0.007c-0.376,-0.013 -0.752,-0.043 -1.126,-0.091c-0.637,-0.08 -1.269,-0.211 -1.886,-0.392c-0.637,-0.186 -1.259,-0.426 -1.858,-0.714c-0.391,-0.188 -0.773,-0.397 -1.142,-0.625c-0.269,-0.167 -0.532,-0.343 -0.788,-0.528c-0.19,-0.138 -0.376,-0.28 -0.558,-0.428c-1.094,-0.886 -2.044,-1.946 -2.823,-3.119c-0.123,-0.185 -0.242,-0.372 -0.356,-0.563c-0.15,-0.251 -0.293,-0.506 -0.428,-0.766c-0.206,-0.395 -0.394,-0.799 -0.562,-1.211c-0.221,-0.543 -0.41,-1.099 -0.562,-1.665c-0.13,-0.484 -0.233,-0.976 -0.307,-1.471c-0.057,-0.379 -0.097,-0.76 -0.118,-1.142c-0.013,-0.237 -0.019,-0.473 -0.018,-0.71c0.003,-0.379 0.027,-0.758 0.068,-1.135c0.048,-0.43 0.12,-0.857 0.213,-1.278c0.161,-0.729 0.386,-1.443 0.667,-2.133c0.348,-0.854 0.783,-1.673 1.295,-2.439c0.296,-0.444 0.619,-0.869 0.965,-1.274c0.341,-0.398 0.705,-0.775 1.091,-1.129c0.374,-0.343 0.768,-0.664 1.181,-0.96c0.405,-0.29 0.828,-0.557 1.265,-0.797c0.514,-0.282 1.047,-0.528 1.596,-0.735c0.529,-0.2 1.072,-0.364 1.622,-0.492c0.501,-0.117 1.008,-0.204 1.519,-0.262c0.52,-0.06 1.043,-0.091 1.566,-0.094c0.425,-0.003 0.85,0.012 1.273,0.047c0.474,0.039 0.945,0.103 1.411,0.193c0.487,0.095 0.969,0.218 1.442,0.37c0.447,0.144 0.885,0.315 1.312,0.511c0.492,0.226 0.969,0.486 1.426,0.776c0.299,0.19 0.59,0.393 0.871,0.609c0.175,0.133 0.347,0.271 0.514,0.414c0.129,0.109 0.255,0.22 0.379,0.334c0.812,0.745 1.53,1.59 2.153,2.499c0.112,0.163 0.221,0.329 0.327,0.497c0.138,0.219 0.271,0.441 0.399,0.666c0.161,0.283 0.313,0.571 0.457,0.862c0.14,0.284 0.271,0.571 0.394,0.862c0.088,0.21 0.172,0.421 0.25,0.635c0.031,0.087 0.062,0.174 0.091,0.261c0.021,0.063 0.041,0.126 0.061,0.19l0.002,0.008l-1.072,0.316c-0.002,-0.008 -0.004,-0.015 -0.006,-0.022c-0.018,-0.057 -0.036,-0.113 -0.056,-0.169c-0.022,-0.068 -0.046,-0.135 -0.07,-0.202c-0.061,-0.167 -0.126,-0.333 -0.195,-0.498c-0.088,-0.214 -0.181,-0.425 -0.28,-0.634c-0.104,-0.221 -0.213,-0.439 -0.327,-0.655c-0.166,-0.313 -0.342,-0.621 -0.529,-0.922c-0.197,-0.317 -0.406,-0.627 -0.627,-0.929c-0.458,-0.627 -0.967,-1.216 -1.527,-1.754c-0.373,-0.357 -0.768,-0.691 -1.184,-0.997c-0.396,-0.291 -0.811,-0.556 -1.241,-0.792c-0.437,-0.239 -0.89,-0.447 -1.355,-0.624c-0.454,-0.172 -0.92,-0.313 -1.392,-0.423c-0.493,-0.115 -0.994,-0.197 -1.497,-0.248c-0.472,-0.047 -0.946,-0.068 -1.419,-0.064c-0.402,0.004 -0.804,0.024 -1.204,0.063c-0.438,0.043 -0.873,0.108 -1.304,0.197c-0.379,0.078 -0.754,0.174 -1.123,0.288c-0.376,0.116 -0.746,0.252 -1.107,0.406c-0.363,0.154 -0.718,0.328 -1.062,0.519c-0.359,0.2 -0.706,0.418 -1.041,0.655c-0.313,0.222 -0.615,0.459 -0.905,0.711c-0.507,0.441 -0.977,0.926 -1.403,1.447c-0.498,0.608 -0.937,1.263 -1.311,1.954c-0.319,0.588 -0.591,1.201 -0.812,1.832c-0.218,0.625 -0.386,1.267 -0.497,1.919c-0.09,0.533 -0.141,1.073 -0.146,1.613c-0.002,0.196 0.003,0.392 0.012,0.588c0.015,0.302 0.043,0.604 0.083,0.903c0.055,0.42 0.133,0.836 0.232,1.247c0.107,0.441 0.238,0.878 0.392,1.306c0.17,0.474 0.368,0.938 0.591,1.39c0.143,0.291 0.297,0.576 0.461,0.855c0.119,0.202 0.243,0.402 0.373,0.598c0.71,1.075 1.576,2.048 2.573,2.864c0.147,0.12 0.297,0.237 0.449,0.35c0.192,0.142 0.388,0.279 0.589,0.41c0.274,0.178 0.555,0.344 0.843,0.499c0.45,0.241 0.917,0.451 1.397,0.628c0.466,0.173 0.944,0.313 1.429,0.42c0.495,0.11 0.997,0.185 1.502,0.226c0.203,0.017 0.406,0.028 0.61,0.034c0.103,0.003 0.206,0.004 0.31,0.005c0.06,0 0.121,0 0.181,0c0.087,-0.001 0.174,-0.001 0.26,-0.002c0.128,-0.001 0.255,-0.003 0.383,-0.007c0.267,-0.009 0.535,-0.025 0.802,-0.05c0.316,-0.029 0.631,-0.071 0.944,-0.127c0.363,-0.064 0.723,-0.147 1.079,-0.248c0.464,-0.132 0.919,-0.295 1.363,-0.486c0.312,-0.134 0.617,-0.283 0.916,-0.444c0.201,-0.108 0.399,-0.222 0.593,-0.341c0.151,-0.092 0.299,-0.187 0.446,-0.286c0.128,-0.085 0.254,-0.173 0.378,-0.263c0.789,-0.569 1.515,-1.221 2.183,-1.927c0.098,-0.103 0.194,-0.207 0.289,-0.312c0.14,-0.155 0.277,-0.312 0.412,-0.471c0.177,-0.209 0.35,-0.422 0.519,-0.638c0.209,-0.269 0.413,-0.542 0.61,-0.82c0.258,-0.363 0.506,-0.733 0.745,-1.11c0.203,-0.319 0.399,-0.643 0.589,-0.97c0.096,-0.166 0.191,-0.334 0.285,-0.502c0.1,-0.182 0.201,-0.363 0.302,-0.545c0.62,-1.117 1.243,-2.232 1.871,-3.345c0.472,-0.835 0.947,-1.668 1.427,-2.499c0.379,-0.658 0.762,-1.313 1.149,-1.967c0.484,-0.818 0.973,-1.633 1.468,-2.444c0.493,-0.81 0.99,-1.617 1.489,-2.422c0.441,-0.713 0.884,-1.424 1.326,-2.135c0.015,-0.024 0.031,-0.049 0.046,-0.073c0.061,-0.098 0.123,-0.195 0.186,-0.291c0.132,-0.201 0.267,-0.4 0.406,-0.596c0.173,-0.243 0.351,-0.482 0.535,-0.717c0.136,-0.174 0.276,-0.346 0.419,-0.515c0.861,-1.019 1.838,-1.944 2.921,-2.725c0.148,-0.107 0.298,-0.211 0.449,-0.312c0.2,-0.133 0.403,-0.261 0.609,-0.384c0.313,-0.187 0.634,-0.362 0.962,-0.524c0.407,-0.201 0.825,-0.381 1.25,-0.539c0.569,-0.211 1.153,-0.382 1.746,-0.51c0.539,-0.115 1.085,-0.196 1.634,-0.24c0.225,-0.018 0.449,-0.029 0.674,-0.035c0.104,-0.003 0.207,-0.005 0.311,-0.005c0.017,0 0.034,0 0.05,0Z" style="fill:#fff;fill-rule:nonzero;"/></g></g></svg>