<?xml version="1.0" encoding="UTF-8" standalone="no"?>
<!DOCTYPE svg PUBLIC "-//W3C//DTD SVG 1.1//EN" "http://www.w3.org/Graphics/SVG/1.1/DTD/svg11.dtd">
<svg width="100%" height="100%" viewBox="0 0 850 850" version="1.1" xmlns="http://www.w3.org/2000/svg" xmlns:xlink="http://www.w3.org/1999/xlink" xml:space="preserve" style="fill-rule:evenodd;clip-rule:evenodd;stroke-linejoin:round;stroke-miterlimit:1.41421;">
    <g transform="matrix(1.75281,0,0,1.75281,35,323.923)">
        <g>
            <g>
                <clipPath id="_clip1">
                    <rect x="0" y="0.836" width="445" height="107.164"/>
                </clipPath>
                <g clip-path="url(#_clip1)">
                    <path d="M107.278,41.091C107.278,47.944 101.627,53.5 94.657,53.5L12.621,53.5C5.65,53.5 0,47.944 0,41.091C0,34.238 5.65,28.682 12.621,28.682L94.657,28.682C101.627,28.682 107.278,34.238 107.278,41.091Z" style="fill:white;fill-rule:nonzero;"/>
                    <path d="M445,39.909C445,46.762 439.348,52.318 432.379,52.318L350.342,52.318C343.374,52.318 337.723,46.762 337.723,39.909C337.723,33.056 343.374,27.5 350.342,27.5L432.379,27.5C439.348,27.5 445,33.056 445,39.909Z" style="fill:white;fill-rule:nonzero;"/>
                    <path d="M108.382,32.69L108.835,32.692L109.289,32.695L109.742,32.698L110.195,32.704L110.648,32.71L111.1,32.717L111.553,32.726L112.005,32.736L112.458,32.748L112.91,32.761L113.362,32.775L113.815,32.791L114.267,32.808L114.72,32.827L115.173,32.847L115.626,32.869L116.079,32.893L116.532,32.918L116.985,32.944L117.439,32.973L117.893,33.003L118.347,33.034L118.802,33.068L119.257,33.103L119.71,33.14L119.94,33.16L120.168,33.179L120.397,33.2L120.625,33.22L120.853,33.242L121.082,33.263L121.31,33.285L121.539,33.308L121.768,33.331L121.996,33.355L122.225,33.379L122.455,33.403L122.684,33.428L122.914,33.454L123.143,33.48L123.373,33.507L123.603,33.534L123.833,33.561L124.064,33.59L124.294,33.618L124.525,33.648L124.755,33.677L124.986,33.708L125.217,33.738L125.449,33.77L125.68,33.802L125.912,33.834L126.143,33.867L126.375,33.901L126.608,33.935L126.84,33.97L127.073,34.005L127.306,34.041L127.539,34.078L127.772,34.115L128.005,34.152L128.239,34.19L128.473,34.229L128.707,34.269L128.941,34.309L129.176,34.349L129.41,34.39L129.645,34.432L129.881,34.474L130.116,34.517L130.352,34.561L130.588,34.605L130.824,34.65L131.06,34.696L131.297,34.742L131.534,34.788L131.771,34.836L132.008,34.884L132.246,34.932L132.484,34.982L132.722,35.032L132.961,35.082L133.2,35.133L133.438,35.185L133.678,35.238L133.917,35.291L134.157,35.345L134.398,35.399L134.638,35.454L134.879,35.51L135.12,35.567L135.361,35.624L135.603,35.682L135.845,35.741L136.087,35.8L136.33,35.86L136.572,35.92L136.816,35.982L137.059,36.044L137.303,36.107L137.548,36.17L137.792,36.234L138.037,36.299L138.282,36.365L138.528,36.431L138.774,36.498L139.02,36.566L139.266,36.634L139.513,36.703L139.761,36.773L140.008,36.844L140.256,36.915L140.505,36.987L140.754,37.06L141.003,37.134L141.252,37.208L141.502,37.283L141.752,37.359L142.003,37.436L142.254,37.513L142.506,37.591L142.757,37.67L143.01,37.75L143.262,37.83L143.515,37.912L143.769,37.993L144.023,38.076L144.277,38.16L144.532,38.244L144.787,38.329L145.042,38.415L145.298,38.502L145.555,38.589L145.812,38.678L146.069,38.767L146.327,38.857L146.585,38.947L146.844,39.039L147.103,39.131L147.363,39.224L147.623,39.318L147.883,39.413L148.144,39.509L148.406,39.605L148.668,39.702L148.93,39.8L149.193,39.899L149.456,39.999L149.72,40.1L149.984,40.201L150.249,40.303L150.515,40.406L150.781,40.51L151.047,40.615L151.314,40.721L151.581,40.827L151.849,40.935L152.118,41.043L152.387,41.152L152.656,41.262L152.927,41.373L153.197,41.485L153.468,41.597L153.74,41.711L154.012,41.825L154.285,41.941L154.559,42.057L154.833,42.174L155.107,42.292L155.382,42.411L155.658,42.531L155.934,42.651L156.211,42.773L156.489,42.895L156.767,43.019L157.045,43.143L157.325,43.268L157.604,43.394L157.885,43.521L158.166,43.649L158.448,43.778L158.73,43.908L159.013,44.039L159.297,44.171L159.581,44.303L159.865,44.437L160.151,44.572L160.437,44.707L160.724,44.844L161.011,44.981L161.3,45.119L161.588,45.259L161.878,45.399L162.168,45.54L162.459,45.682L162.75,45.826L163.042,45.97L163.335,46.115L163.629,46.261L163.923,46.408L164.218,46.556L164.513,46.706L164.81,46.856L165.107,47.007L165.405,47.159L165.703,47.312L166.002,47.466L166.302,47.621L166.603,47.777L166.904,47.934L167.206,48.093L167.51,48.252L167.812,48.411L168.406,48.725L168.994,49.037L170.154,49.653L171.296,50.261L172.419,50.861L173.525,51.452L174.613,52.034L176.738,53.172L177.775,53.727L178.797,54.273L179.804,54.811L180.795,55.339L181.773,55.858L182.255,56.113L182.735,56.367L183.211,56.618L183.684,56.867L184.153,57.113L184.619,57.357L185.082,57.599L185.542,57.838L185.998,58.074L186.452,58.309L186.902,58.54L187.35,58.77L187.794,58.996L188.236,59.221L188.675,59.443L189.111,59.662L189.545,59.879L189.975,60.093L190.404,60.305L190.829,60.515L191.252,60.722L191.673,60.926L192.091,61.128L192.507,61.327L192.921,61.524L193.333,61.718L193.742,61.909L194.149,62.098L194.554,62.285L194.958,62.469L195.359,62.65L195.758,62.829L196.158,63.006L196.354,63.092L196.551,63.179L196.749,63.265L196.945,63.35L197.142,63.434L197.338,63.518L197.534,63.602L197.729,63.684L197.923,63.766L198.118,63.848L198.312,63.928L198.505,64.008L198.699,64.088L198.892,64.167L199.085,64.245L199.277,64.322L199.469,64.399L199.661,64.475L199.852,64.551L200.043,64.626L200.234,64.7L200.424,64.774L200.614,64.847L200.804,64.919L200.994,64.991L201.183,65.062L201.373,65.133L201.561,65.202L201.75,65.271L201.939,65.34L202.127,65.408L202.315,65.475L202.503,65.542L202.69,65.608L202.878,65.673L203.065,65.738L203.253,65.802L203.44,65.866L203.627,65.928L203.813,65.991L204,66.052L204.186,66.113L204.373,66.173L204.559,66.233L204.745,66.292L204.931,66.35L205.117,66.408L205.303,66.465L205.489,66.522L205.675,66.578L205.861,66.633L206.047,66.688L206.232,66.742L206.418,66.795L206.604,66.848L206.79,66.9L206.975,66.952L207.161,67.003L207.347,67.053L207.533,67.102L207.719,67.151L207.905,67.2L208.091,67.248L208.277,67.295L208.464,67.342L208.65,67.387L208.837,67.433L209.023,67.478L209.21,67.522L209.397,67.565L209.584,67.608L209.771,67.65L209.958,67.692L210.146,67.733L210.334,67.773L210.522,67.813L210.71,67.852L210.899,67.891L211.087,67.929L211.276,67.966L211.465,68.003L211.655,68.039L211.844,68.074L212.034,68.109L212.225,68.143L212.415,68.177L212.606,68.21L212.797,68.242L212.989,68.274L213.181,68.305L213.373,68.336L213.566,68.365L213.759,68.395L213.952,68.423L214.146,68.451L214.34,68.479L214.535,68.506L214.73,68.532L214.926,68.557L215.122,68.582L215.318,68.607L215.515,68.63L215.712,68.653L215.91,68.676L216.109,68.697L216.308,68.719L216.507,68.739L216.707,68.759L216.907,68.778L217.108,68.797L217.31,68.815L217.512,68.832L217.715,68.849L217.918,68.865L218.122,68.881L218.327,68.895L218.532,68.91L218.737,68.923L218.944,68.936L219.151,68.948L219.359,68.96L219.567,68.971L219.776,68.981L219.986,68.991L220.196,69L220.408,69.008L220.619,69.016L220.832,69.023L221.045,69.029L221.259,69.035L221.474,69.04L221.69,69.044L221.906,69.048L222.123,69.051L222.341,69.053L222.56,69.055L222.78,69.056L222.998,69.056L223.215,69.056L223.429,69.054L223.643,69.052L223.858,69.049L224.072,69.045L224.285,69.04L224.499,69.035L224.713,69.028L224.926,69.021L225.14,69.013L225.353,69.004L225.566,68.994L225.779,68.983L225.992,68.971L226.204,68.959L226.417,68.946L226.63,68.931L226.842,68.916L227.054,68.901L227.267,68.884L227.479,68.867L227.69,68.848L227.902,68.829L228.114,68.809L228.326,68.789L228.538,68.767L228.749,68.745L228.961,68.721L229.172,68.697L229.383,68.673L229.594,68.647L229.806,68.621L230.017,68.593L230.228,68.565L230.438,68.536L230.649,68.507L230.86,68.476L231.071,68.445L231.282,68.413L231.492,68.38L231.703,68.347L231.913,68.312L232.124,68.277L232.334,68.241L232.545,68.205L232.755,68.167L232.965,68.129L233.176,68.09L233.386,68.05L233.596,68.01L233.806,67.968L234.017,67.926L234.227,67.883L234.437,67.84L234.647,67.795L234.857,67.75L235.067,67.704L235.277,67.658L235.487,67.61L235.697,67.562L235.908,67.513L236.118,67.464L236.328,67.414L236.538,67.362L236.748,67.311L236.958,67.258L237.168,67.205L237.378,67.151L237.588,67.096L237.798,67.04L238.008,66.984L238.218,66.927L238.428,66.87L238.638,66.811L238.848,66.752L239.058,66.692L239.269,66.632L239.479,66.571L239.689,66.509L239.899,66.446L240.109,66.383L240.32,66.319L240.53,66.254L240.74,66.188L240.951,66.122L241.161,66.055L241.371,65.988L241.582,65.92L241.792,65.851L242.003,65.781L242.214,65.711L242.424,65.64L242.635,65.568L242.846,65.496L243.056,65.423L243.267,65.349L243.478,65.275L243.689,65.2L243.9,65.124L244.111,65.048L244.322,64.97L244.533,64.893L244.744,64.815L244.955,64.736L245.166,64.656L245.378,64.576L245.589,64.495L245.801,64.413L246.012,64.331L246.224,64.248L246.435,64.164L246.647,64.08L246.859,63.995L247.07,63.91L247.282,63.824L247.494,63.737L247.706,63.65L247.918,63.562L248.131,63.474L248.343,63.384L248.555,63.295L248.767,63.204L248.98,63.113L249.193,63.022L249.405,62.929L249.618,62.837L249.831,62.743L250.044,62.649L250.256,62.555L250.47,62.459L250.683,62.363L250.896,62.267L251.109,62.17L251.323,62.073L251.536,61.974L251.75,61.876L251.963,61.776L252.177,61.677L252.391,61.576L252.605,61.475L252.819,61.374L253.033,61.271L253.247,61.169L253.461,61.065L253.676,60.962L253.89,60.857L254.105,60.752L254.319,60.647L254.534,60.541L254.749,60.434L254.964,60.327L255.179,60.22L255.394,60.112L255.61,60.003L255.825,59.894L256.041,59.784L256.256,59.674L256.47,59.564L256.904,59.34L257.336,59.115L257.769,58.888L258.202,58.658L258.636,58.427L259.07,58.194L259.505,57.959L259.94,57.722L260.376,57.483L260.812,57.243L261.248,57L261.686,56.756L262.123,56.51L262.562,56.262L263,56.012L263.44,55.761L263.88,55.508L264.32,55.253L264.761,54.997L265.203,54.739L265.645,54.479L266.088,54.218L266.532,53.955L266.976,53.691L267.421,53.425L267.866,53.157L268.312,52.889L268.759,52.618L269.206,52.347L269.654,52.074L270.103,51.799L270.552,51.524L271.002,51.247L271.453,50.968L271.904,50.689L272.356,50.408L272.809,50.126L273.263,49.843L273.717,49.558L274.173,49.273L274.629,48.986L275.085,48.698L275.543,48.409L276.001,48.12L276.459,47.829L277.381,47.244L278.293,46.663L278.578,46.479L278.887,46.281L279.197,46.085L279.506,45.891L279.815,45.699L280.124,45.509L280.432,45.32L280.74,45.134L281.048,44.949L281.356,44.767L281.664,44.586L281.971,44.407L282.278,44.23L282.585,44.055L282.892,43.882L283.198,43.71L283.504,43.54L283.81,43.373L284.115,43.207L284.421,43.042L284.726,42.88L285.031,42.719L285.336,42.56L285.64,42.403L285.944,42.248L286.248,42.095L286.551,41.943L286.854,41.793L287.157,41.644L287.46,41.498L287.762,41.353L288.064,41.21L288.366,41.068L288.667,40.928L288.969,40.79L289.27,40.654L289.57,40.519L289.87,40.386L290.17,40.255L290.47,40.125L290.769,39.997L291.068,39.87L291.367,39.745L291.665,39.622L291.963,39.5L292.261,39.38L292.559,39.261L292.856,39.145L293.152,39.029L293.449,38.915L293.744,38.803L294.04,38.692L294.335,38.583L294.63,38.475L294.925,38.369L295.219,38.264L295.513,38.161L295.806,38.06L296.099,37.959L296.392,37.861L296.684,37.763L296.976,37.667L297.268,37.573L297.559,37.48L297.85,37.389L298.14,37.298L298.43,37.21L298.72,37.122L299.009,37.036L299.298,36.952L299.586,36.869L299.874,36.787L300.161,36.706L300.448,36.627L300.735,36.549L301.021,36.473L301.307,36.398L301.592,36.324L301.877,36.251L302.162,36.18L302.446,36.11L302.729,36.041L303.012,35.974L303.295,35.908L303.577,35.843L303.859,35.779L304.14,35.716L304.421,35.655L304.701,35.595L304.981,35.536L305.26,35.478L305.539,35.421L305.818,35.366L306.096,35.311L306.373,35.258L306.65,35.206L306.927,35.155L307.202,35.105L307.478,35.057L307.753,35.009L308.027,34.962L308.301,34.917L308.575,34.872L308.848,34.829L309.12,34.787L309.392,34.745L309.663,34.705L309.934,34.666L310.204,34.627L310.474,34.59L310.743,34.554L311.012,34.518L311.28,34.484L311.548,34.45L311.815,34.418L312.081,34.386L312.347,34.355L312.613,34.326L312.877,34.297L313.142,34.269L313.405,34.242L313.669,34.215L313.931,34.19L314.193,34.165L314.455,34.142L314.716,34.119L314.976,34.097L315.235,34.075L315.495,34.055L315.753,34.035L316.011,34.016L316.269,33.998L316.526,33.981L316.782,33.964L317.037,33.948L317.293,33.933L317.547,33.918L317.801,33.904L318.054,33.891L318.307,33.879L318.559,33.867L318.81,33.856L319.061,33.845L319.311,33.835L319.561,33.826L319.809,33.818L320.058,33.81L320.306,33.802L320.553,33.796L320.799,33.789L321.045,33.784L321.29,33.779L321.535,33.774L321.778,33.77L322.022,33.766L322.265,33.763L322.507,33.761L322.748,33.759L322.988,33.758L323.229,33.757L323.468,33.756L323.709,33.756L324.182,33.757L324.655,33.76L325.125,33.764L325.593,33.77L326.058,33.778L326.52,33.787L326.979,33.797L327.436,33.808L327.89,33.821L328.341,33.834L328.789,33.849L329.235,33.864L329.677,33.88L330.117,33.897L330.554,33.915L330.988,33.933L331.419,33.952L331.848,33.971L332.274,33.991L333.114,34.031L333.943,34.071L335.566,34.151L336.358,34.19L337.139,34.226L337.522,34.244L337.904,34.26L338.282,34.276L338.656,34.292L339.028,34.306L339.396,34.32L339.76,34.332L340.121,34.343L340.479,34.354L340.833,34.363L341.183,34.371L341.53,34.377L341.873,34.382L342.213,34.386L342.549,34.388L342.895,34.389L342.867,46.275L342.494,46.274L342.106,46.271L341.718,46.267L341.328,46.261L340.938,46.254L340.547,46.245L340.156,46.235L339.763,46.224L339.37,46.211L338.976,46.198L338.581,46.183L338.185,46.168L337.788,46.152L337.39,46.135L336.992,46.117L336.591,46.099L335.791,46.062L334.985,46.023L333.362,45.943L332.544,45.903L331.72,45.864L331.309,45.845L330.895,45.826L330.48,45.808L330.065,45.791L329.648,45.774L329.23,45.758L328.811,45.742L328.391,45.728L327.97,45.714L327.548,45.701L327.125,45.69L326.7,45.679L326.275,45.67L325.849,45.662L325.421,45.655L324.992,45.649L324.563,45.645L324.132,45.643L323.697,45.642L323.484,45.642L323.267,45.642L323.05,45.643L322.833,45.644L322.615,45.646L322.398,45.648L322.18,45.651L321.962,45.654L321.743,45.658L321.524,45.662L321.305,45.666L321.086,45.672L320.866,45.677L320.646,45.683L320.426,45.69L320.206,45.697L319.985,45.704L319.764,45.713L319.543,45.721L319.321,45.731L319.099,45.74L318.877,45.751L318.655,45.762L318.432,45.773L318.209,45.785L317.986,45.798L317.762,45.811L317.539,45.825L317.314,45.84L317.09,45.855L316.866,45.871L316.641,45.888L316.415,45.905L316.19,45.923L315.964,45.941L315.738,45.96L315.512,45.98L315.285,46.001L315.059,46.022L314.832,46.044L314.604,46.067L314.376,46.09L314.149,46.114L313.92,46.139L313.691,46.165L313.463,46.191L313.234,46.219L313.004,46.246L312.775,46.275L312.545,46.305L312.314,46.335L312.084,46.366L311.853,46.398L311.622,46.431L311.391,46.464L311.159,46.499L310.927,46.534L310.694,46.57L310.462,46.607L310.229,46.645L309.996,46.684L309.762,46.724L309.528,46.764L309.294,46.805L309.06,46.848L308.825,46.891L308.59,46.935L308.355,46.98L308.119,47.026L307.884,47.073L307.647,47.121L307.411,47.17L307.174,47.22L306.937,47.271L306.7,47.323L306.462,47.376L306.224,47.43L305.985,47.485L305.747,47.541L305.508,47.598L305.269,47.656L305.029,47.715L304.789,47.775L304.549,47.836L304.308,47.898L304.067,47.962L303.826,48.026L303.585,48.092L303.343,48.158L303.101,48.226L302.858,48.295L302.615,48.365L302.372,48.436L302.129,48.509L301.885,48.582L301.641,48.657L301.396,48.733L301.151,48.81L300.906,48.888L300.661,48.968L300.415,49.048L300.169,49.13L299.922,49.214L299.675,49.298L299.428,49.384L299.18,49.471L298.933,49.559L298.684,49.648L298.436,49.739L298.187,49.831L297.938,49.925L297.688,50.019L297.438,50.115L297.187,50.213L296.937,50.311L296.686,50.411L296.434,50.513L296.182,50.616L295.93,50.72L295.678,50.826L295.425,50.933L295.171,51.041L294.918,51.151L294.664,51.262L294.41,51.375L294.155,51.489L293.9,51.605L293.644,51.722L293.388,51.841L293.132,51.961L292.876,52.082L292.619,52.206L292.361,52.33L292.104,52.456L291.846,52.584L291.587,52.713L291.328,52.844L291.069,52.977L290.809,53.111L290.549,53.246L290.289,53.383L290.028,53.522L289.767,53.663L289.506,53.805L289.244,53.949L288.982,54.094L288.719,54.241L288.456,54.39L288.192,54.54L287.928,54.692L287.664,54.846L287.4,55.001L287.135,55.159L286.869,55.318L286.603,55.478L286.337,55.641L286.071,55.805L285.804,55.971L285.536,56.139L285.269,56.309L285.001,56.48L284.707,56.669L283.76,57.273L282.826,57.866L282.359,58.162L281.892,58.457L281.426,58.751L280.96,59.045L280.494,59.338L280.029,59.63L279.563,59.921L279.098,60.212L278.633,60.501L278.169,60.79L277.704,61.077L277.24,61.364L276.775,61.65L276.311,61.935L275.847,62.219L275.383,62.501L274.919,62.783L274.455,63.064L273.992,63.343L273.528,63.621L273.064,63.898L272.601,64.174L272.137,64.449L271.673,64.723L271.21,64.995L270.746,65.266L270.282,65.535L269.818,65.804L269.354,66.07L268.89,66.336L268.426,66.6L267.962,66.863L267.497,67.124L267.033,67.383L266.568,67.641L266.103,67.898L265.638,68.153L265.173,68.406L264.708,68.658L264.242,68.908L263.776,69.156L263.31,69.403L262.843,69.648L262.377,69.891L261.912,70.131L261.676,70.252L261.442,70.371L261.208,70.49L260.975,70.609L260.74,70.727L260.506,70.845L260.272,70.962L260.038,71.079L259.804,71.195L259.569,71.31L259.335,71.426L259.1,71.54L258.865,71.655L258.63,71.768L258.395,71.881L258.16,71.994L257.925,72.106L257.69,72.218L257.455,72.329L257.219,72.44L256.984,72.55L256.748,72.659L256.512,72.768L256.276,72.877L256.04,72.985L255.804,73.092L255.567,73.199L255.331,73.305L255.095,73.411L254.858,73.516L254.621,73.621L254.384,73.725L254.147,73.828L253.91,73.931L253.672,74.033L253.435,74.135L253.197,74.236L252.959,74.337L252.721,74.437L252.483,74.536L252.245,74.635L252.007,74.733L251.768,74.831L251.529,74.928L251.29,75.024L251.052,75.12L250.812,75.215L250.573,75.309L250.334,75.403L250.094,75.496L249.854,75.589L249.614,75.681L249.374,75.772L249.134,75.863L248.893,75.952L248.652,76.042L248.411,76.13L248.171,76.218L247.929,76.306L247.688,76.392L247.446,76.478L247.205,76.563L246.963,76.648L246.721,76.732L246.479,76.815L246.236,76.898L245.993,76.979L245.751,77.06L245.508,77.141L245.264,77.22L245.021,77.299L244.777,77.378L244.533,77.455L244.29,77.532L244.045,77.608L243.801,77.683L243.556,77.757L243.312,77.831L243.066,77.904L242.821,77.977L242.576,78.048L242.33,78.119L242.084,78.189L241.838,78.258L241.592,78.326L241.345,78.394L241.099,78.461L240.852,78.527L240.605,78.592L240.358,78.657L240.11,78.72L239.862,78.783L239.614,78.845L239.366,78.907L239.118,78.967L238.869,79.027L238.62,79.085L238.371,79.143L238.122,79.2L237.872,79.257L237.623,79.312L237.373,79.367L237.123,79.421L236.872,79.473L236.621,79.525L236.371,79.577L236.119,79.627L235.868,79.676L235.617,79.725L235.365,79.772L235.113,79.819L234.861,79.865L234.608,79.91L234.355,79.954L234.102,79.997L233.849,80.04L233.595,80.081L233.342,80.121L233.088,80.161L232.834,80.199L232.579,80.237L232.325,80.274L232.07,80.31L231.815,80.345L231.56,80.378L231.304,80.411L231.048,80.443L230.792,80.474L230.536,80.505L230.279,80.534L230.023,80.562L229.765,80.589L229.508,80.615L229.251,80.641L228.993,80.665L228.735,80.688L228.477,80.71L228.218,80.732L227.96,80.752L227.701,80.771L227.442,80.789L227.182,80.807L226.923,80.823L226.663,80.838L226.403,80.852L226.142,80.865L225.882,80.878L225.621,80.889L225.36,80.899L225.099,80.908L224.837,80.916L224.576,80.923L224.313,80.928L224.051,80.933L223.789,80.937L223.526,80.94L223.263,80.941L223.002,80.942L222.743,80.941L222.487,80.94L222.231,80.938L221.976,80.936L221.722,80.932L221.468,80.928L221.215,80.923L220.963,80.917L220.711,80.91L220.459,80.902L220.209,80.894L219.958,80.885L219.709,80.875L219.46,80.865L219.212,80.853L218.964,80.841L218.716,80.828L218.47,80.814L218.224,80.8L217.978,80.785L217.733,80.768L217.488,80.751L217.244,80.734L217.001,80.715L216.757,80.696L216.515,80.676L216.273,80.655L216.031,80.634L215.79,80.611L215.55,80.588L215.31,80.564L215.07,80.54L214.831,80.514L214.592,80.488L214.354,80.461L214.116,80.433L213.879,80.405L213.642,80.376L213.406,80.345L213.17,80.315L212.935,80.283L212.699,80.251L212.465,80.218L212.23,80.184L211.997,80.149L211.763,80.114L211.53,80.078L211.298,80.041L211.066,80.003L210.834,79.965L210.602,79.925L210.372,79.885L210.141,79.845L209.91,79.803L209.681,79.761L209.451,79.718L209.222,79.675L208.993,79.63L208.765,79.585L208.536,79.539L208.308,79.493L208.081,79.445L207.854,79.397L207.627,79.349L207.401,79.299L207.175,79.249L206.949,79.198L206.723,79.146L206.498,79.094L206.273,79.041L206.048,78.987L205.824,78.932L205.6,78.877L205.376,78.821L205.153,78.764L204.929,78.707L204.706,78.649L204.484,78.59L204.261,78.531L204.039,78.471L203.817,78.41L203.595,78.348L203.373,78.286L203.152,78.223L202.931,78.16L202.71,78.095L202.489,78.031L202.269,77.965L202.049,77.899L201.828,77.832L201.608,77.764L201.389,77.696L201.169,77.627L200.95,77.557L200.73,77.487L200.511,77.416L200.292,77.345L200.073,77.273L199.855,77.2L199.636,77.126L199.418,77.052L199.199,76.977L198.981,76.902L198.763,76.826L198.545,76.749L198.327,76.672L198.109,76.594L197.892,76.515L197.674,76.436L197.456,76.357L197.238,76.276L197.021,76.195L196.803,76.113L196.586,76.031L196.369,75.948L196.151,75.865L195.934,75.781L195.716,75.696L195.499,75.611L195.281,75.525L195.064,75.439L194.847,75.352L194.629,75.264L194.412,75.176L194.194,75.087L193.977,74.998L193.759,74.908L193.541,74.817L193.324,74.726L193.106,74.634L192.888,74.542L192.67,74.449L192.452,74.356L192.234,74.262L192.015,74.167L191.797,74.072L191.578,73.976L191.357,73.879L190.921,73.686L190.483,73.49L190.043,73.291L189.603,73.09L189.162,72.887L188.72,72.682L188.278,72.475L187.834,72.265L187.389,72.054L186.942,71.84L186.495,71.624L186.046,71.406L185.596,71.186L185.145,70.964L184.692,70.74L184.237,70.514L183.781,70.286L183.323,70.055L182.863,69.823L182.402,69.589L181.938,69.352L181.473,69.114L181.006,68.873L180.536,68.631L180.065,68.386L179.591,68.14L179.115,67.891L178.636,67.641L178.155,67.388L177.671,67.134L177.185,66.878L176.697,66.619L176.204,66.359L175.214,65.833L174.211,65.299L173.196,64.757L172.168,64.207L171.127,63.65L169.003,62.512L167.92,61.932L166.82,61.345L165.705,60.75L164.574,60.147L163.424,59.537L162.844,59.23L162.26,58.921L161.972,58.769L161.686,58.619L161.401,58.469L161.117,58.321L160.834,58.174L160.551,58.028L160.27,57.883L159.989,57.739L159.709,57.596L159.43,57.454L159.152,57.313L158.874,57.173L158.598,57.034L158.322,56.896L158.047,56.759L157.773,56.623L157.499,56.489L157.227,56.355L156.955,56.222L156.684,56.09L156.413,55.959L156.144,55.829L155.875,55.7L155.607,55.571L155.34,55.444L155.074,55.318L154.808,55.193L154.543,55.069L154.279,54.945L154.016,54.823L153.753,54.702L153.491,54.581L153.23,54.462L152.969,54.343L152.71,54.225L152.451,54.109L152.193,53.993L151.935,53.878L151.678,53.764L151.422,53.651L151.166,53.539L150.912,53.427L150.658,53.317L150.404,53.208L150.152,53.099L149.9,52.991L149.648,52.885L149.398,52.779L149.147,52.674L148.898,52.57L148.65,52.466L148.401,52.364L148.154,52.262L147.907,52.162L147.661,52.062L147.416,51.963L147.171,51.865L146.927,51.767L146.683,51.671L146.44,51.575L146.198,51.48L145.956,51.387L145.715,51.294L145.475,51.201L145.235,51.11L144.995,51.019L144.757,50.929L144.518,50.84L144.281,50.752L144.044,50.665L143.807,50.578L143.572,50.492L143.336,50.407L143.102,50.323L142.867,50.24L142.633,50.157L142.4,50.075L142.168,49.994L141.936,49.914L141.704,49.834L141.473,49.755L141.243,49.677L141.013,49.6L140.783,49.523L140.554,49.447L140.326,49.372L140.098,49.298L139.87,49.224L139.643,49.152L139.417,49.08L139.191,49.008L138.965,48.938L138.74,48.867L138.516,48.798L138.292,48.73L138.068,48.662L137.844,48.595L137.622,48.528L137.399,48.463L137.177,48.398L136.956,48.333L136.734,48.27L136.514,48.207L136.293,48.144L136.074,48.083L135.854,48.022L135.635,47.962L135.416,47.902L135.198,47.843L134.98,47.785L134.762,47.727L134.545,47.67L134.328,47.614L134.112,47.558L133.896,47.503L133.68,47.449L133.465,47.395L133.249,47.342L133.034,47.289L132.82,47.237L132.606,47.186L132.392,47.135L132.179,47.085L131.966,47.036L131.753,46.987L131.54,46.939L131.328,46.891L131.116,46.844L130.904,46.798L130.693,46.752L130.482,46.706L130.271,46.662L130.06,46.618L129.85,46.574L129.64,46.531L129.43,46.489L129.22,46.447L129.011,46.405L128.802,46.365L128.593,46.325L128.384,46.285L128.175,46.246L127.967,46.207L127.759,46.169L127.551,46.132L127.343,46.095L127.136,46.058L126.929,46.023L126.721,45.987L126.514,45.952L126.308,45.918L126.101,45.884L125.894,45.851L125.688,45.818L125.482,45.786L125.276,45.754L125.07,45.723L124.864,45.692L124.658,45.662L124.453,45.632L124.247,45.603L124.042,45.574L123.836,45.546L123.631,45.518L123.426,45.491L123.221,45.464L123.016,45.437L122.812,45.411L122.607,45.386L122.402,45.361L122.198,45.336L121.993,45.312L121.789,45.288L121.584,45.265L121.379,45.242L121.175,45.22L120.971,45.198L120.766,45.176L120.562,45.155L120.358,45.135L120.153,45.115L119.949,45.095L119.745,45.075L119.54,45.057L119.336,45.038L119.132,45.02L118.927,45.002L118.726,44.985L118.314,44.952L117.905,44.92L117.495,44.89L117.086,44.861L116.676,44.834L116.266,44.808L115.855,44.784L115.444,44.761L115.033,44.74L114.621,44.72L114.208,44.702L113.795,44.685L113.381,44.669L112.967,44.654L112.552,44.641L112.136,44.629L111.72,44.619L111.303,44.609L110.885,44.601L110.466,44.594L110.046,44.588L109.625,44.584L109.203,44.58L108.781,44.578L108.357,44.576L107.932,44.576L107.506,44.576L107.079,44.578L106.65,44.581L106.221,44.584L105.79,44.589L105.358,44.594L104.925,44.601L104.485,44.608L104.287,32.724L104.739,32.716L105.196,32.71L105.653,32.704L106.108,32.699L106.564,32.695L107.019,32.693L107.473,32.691L107.928,32.69L108.382,32.69Z" style="fill:white;"/>
                    <path d="M430.933,13.27L430.138,13.301L429.182,13.339L427.884,13.391L426.267,13.457L425.348,13.496L424.358,13.538L423.301,13.583L422.18,13.631L420.997,13.683L419.756,13.738L418.461,13.796L417.113,13.857L415.716,13.921L414.273,13.989L412.788,14.059L411.262,14.132L409.699,14.208L408.103,14.287L406.476,14.369L404.821,14.453L403.142,14.54L401.441,14.63L399.721,14.723L398.856,14.77L397.987,14.818L397.114,14.866L396.239,14.915L395.362,14.965L394.482,15.015L393.601,15.066L392.719,15.118L391.836,15.17L390.953,15.222L390.069,15.276L389.186,15.329L388.304,15.384L387.423,15.439L386.543,15.494L385.665,15.55L384.79,15.607L383.917,15.664L383.047,15.721L382.18,15.78L381.318,15.838L380.459,15.897L379.605,15.957L378.756,16.017L377.913,16.078L377.075,16.139L376.244,16.201L375.419,16.263L374.601,16.325L373.79,16.388L372.987,16.452L372.192,16.515L371.406,16.58L370.628,16.644L369.86,16.709L369.102,16.775L368.354,16.841L367.617,16.907L366.89,16.974L366.175,17.04L365.472,17.108L364.781,17.175L364.102,17.243L363.435,17.311L363.11,17.345L362.786,17.38L362.465,17.414L362.148,17.448L361.835,17.483L361.525,17.517L361.219,17.552L360.917,17.586L360.619,17.621L360.325,17.656L360.034,17.69L359.748,17.725L359.466,17.76L359.188,17.795L358.914,17.829L358.645,17.864L358.38,17.899L358.119,17.934L357.863,17.968L357.612,18.003L357.365,18.038L357.123,18.072L356.887,18.107L356.654,18.142L356.427,18.176L356.206,18.211L355.989,18.245L355.778,18.279L355.572,18.313L355.372,18.347L355.177,18.38L354.989,18.414L354.806,18.447L354.629,18.48L354.459,18.512L354.295,18.544L354.137,18.576L353.987,18.607L353.844,18.638L353.707,18.668L353.579,18.697L353.458,18.725L353.345,18.753L353.241,18.779L353.146,18.804L353.06,18.827L352.984,18.848L352.918,18.868L352.854,18.887L352.841,18.891L352.82,18.898L352.804,18.904L352.791,18.908L352.781,18.912L352.778,18.913L352.734,18.929L352.695,18.944L352.655,18.96L352.614,18.977L352.574,18.994L352.533,19.012L352.492,19.031L352.45,19.051L352.407,19.071L352.365,19.092L352.322,19.114L352.279,19.137L352.235,19.16L352.191,19.185L352.147,19.21L352.102,19.236L352.057,19.263L352.011,19.291L351.965,19.319L351.918,19.349L351.871,19.38L351.825,19.411L351.777,19.443L351.729,19.477L351.68,19.511L351.632,19.546L351.583,19.583L351.534,19.619L351.484,19.658L351.434,19.697L351.383,19.737L351.332,19.778L351.281,19.82L351.23,19.863L351.179,19.907L351.127,19.952L351.075,19.998L351.023,20.045L350.97,20.093L350.917,20.142L350.864,20.192L350.811,20.243L350.758,20.295L350.704,20.347L350.651,20.401L350.597,20.456L350.543,20.512L350.489,20.568L350.435,20.626L350.38,20.684L350.326,20.744L350.271,20.804L350.216,20.865L350.162,20.927L350.107,20.99L350.052,21.054L349.997,21.119L349.942,21.185L349.888,21.251L349.833,21.318L349.778,21.387L349.723,21.456L349.668,21.526L349.614,21.596L349.559,21.668L349.503,21.741L349.449,21.813L349.394,21.887L349.34,21.962L349.285,22.037L349.231,22.113L349.177,22.19L349.123,22.266L349.069,22.345L349.014,22.425L348.961,22.504L348.907,22.584L348.853,22.665L348.8,22.746L348.746,22.828L348.693,22.911L348.641,22.994L348.587,23.078L348.535,23.163L348.482,23.247L348.43,23.333L348.378,23.419L348.326,23.506L348.274,23.593L348.223,23.68L348.172,23.768L348.12,23.857L348.069,23.946L348.019,24.035L347.968,24.125L347.918,24.216L347.868,24.305L347.818,24.397L347.768,24.489L347.719,24.58L347.671,24.672L347.622,24.765L347.573,24.858L347.525,24.951L347.477,25.044L347.431,25.133L347.334,25.326L347.241,25.516L347.148,25.706L347.057,25.897L346.966,26.088L346.877,26.28L346.79,26.473L346.703,26.665L346.618,26.859L346.533,27.052L346.45,27.245L346.368,27.439L346.288,27.632L346.209,27.824L346.131,28.017L346.054,28.21L345.979,28.401L345.904,28.592L345.832,28.781L345.76,28.971L345.69,29.159L345.621,29.346L345.554,29.533L345.488,29.717L345.423,29.9L345.36,30.082L345.298,30.262L345.237,30.441L345.177,30.618L345.119,30.793L345.063,30.966L345.007,31.137L344.953,31.306L344.901,31.473L344.85,31.637L344.8,31.798L344.751,31.958L344.704,32.114L344.658,32.269L344.614,32.42L344.571,32.568L344.529,32.713L344.489,32.855L344.45,32.994L344.412,33.129L344.376,33.261L344.342,33.386L344.275,33.636L344.214,33.867L344.159,34.083L344.109,34.281L344.065,34.462L344.026,34.625L343.992,34.77L343.963,34.895L343.939,34.998L343.922,35.077L343.898,35.186L343.892,35.216L332.258,32.782L332.273,32.712L332.312,32.531L332.342,32.395L332.377,32.241L332.418,32.066L332.464,31.87L332.516,31.654L332.574,31.417L332.638,31.161L332.708,30.887L332.785,30.596L332.866,30.291L332.911,30.127L332.956,29.963L333.003,29.794L333.051,29.622L333.101,29.446L333.153,29.267L333.206,29.083L333.261,28.897L333.317,28.707L333.376,28.513L333.435,28.317L333.497,28.117L333.56,27.914L333.625,27.708L333.692,27.499L333.76,27.288L333.831,27.074L333.903,26.857L333.976,26.637L334.052,26.415L334.129,26.19L334.208,25.963L334.289,25.734L334.372,25.503L334.457,25.269L334.543,25.034L334.632,24.797L334.722,24.558L334.814,24.316L334.909,24.073L335.005,23.829L335.103,23.583L335.203,23.336L335.306,23.087L335.41,22.837L335.516,22.585L335.625,22.333L335.735,22.079L335.848,21.825L335.963,21.569L336.08,21.312L336.199,21.055L336.321,20.797L336.444,20.539L336.57,20.279L336.699,20.02L336.827,19.765L336.896,19.63L336.963,19.5L337.031,19.369L337.099,19.239L337.167,19.109L337.237,18.978L337.307,18.847L337.377,18.718L337.448,18.587L337.521,18.456L337.593,18.326L337.666,18.196L337.741,18.065L337.815,17.935L337.89,17.805L337.966,17.674L338.043,17.544L338.12,17.413L338.198,17.284L338.277,17.154L338.356,17.024L338.436,16.894L338.517,16.764L338.598,16.635L338.681,16.505L338.764,16.376L338.848,16.248L338.933,16.119L339.018,15.99L339.104,15.861L339.191,15.733L339.278,15.605L339.367,15.478L339.456,15.35L339.547,15.222L339.638,15.095L339.73,14.968L339.822,14.841L339.915,14.715L340.01,14.589L340.105,14.464L340.201,14.338L340.298,14.213L340.396,14.088L340.495,13.964L340.594,13.84L340.695,13.717L340.797,13.593L340.9,13.471L341.003,13.348L341.107,13.226L341.213,13.105L341.32,12.983L341.427,12.863L341.536,12.743L341.645,12.623L341.756,12.504L341.868,12.386L341.981,12.268L342.095,12.15L342.209,12.033L342.325,11.917L342.443,11.802L342.561,11.686L342.681,11.572L342.801,11.459L342.923,11.346L343.046,11.233L343.17,11.122L343.296,11.011L343.422,10.901L343.55,10.792L343.679,10.683L343.81,10.576L343.941,10.469L344.074,10.363L344.209,10.259L344.344,10.155L344.481,10.051L344.619,9.949L344.759,9.849L344.9,9.749L345.042,9.65L345.185,9.552L345.331,9.455L345.477,9.36L345.625,9.266L345.774,9.173L345.924,9.081L346.076,8.991L346.23,8.902L346.384,8.814L346.54,8.728L346.698,8.643L346.857,8.559L347.018,8.477L347.179,8.397L347.342,8.318L347.506,8.241L347.672,8.166L347.84,8.092L348.009,8.02L348.178,7.95L348.349,7.881L348.522,7.814L348.692,7.751L348.798,7.713L348.899,7.678L348.999,7.643L349.1,7.61L349.199,7.578L349.308,7.543L349.497,7.485L349.694,7.427L349.893,7.371L350.093,7.317L350.293,7.264L350.496,7.213L350.7,7.164L350.906,7.115L351.115,7.068L351.327,7.022L351.541,6.976L351.759,6.931L351.979,6.886L352.202,6.843L352.429,6.799L352.659,6.757L352.892,6.714L353.13,6.672L353.37,6.631L353.614,6.59L353.861,6.549L354.113,6.508L354.367,6.468L354.625,6.428L354.887,6.388L355.152,6.349L355.421,6.309L355.694,6.27L355.97,6.231L356.25,6.193L356.533,6.154L356.82,6.116L357.11,6.078L357.404,6.04L357.702,6.002L358.002,5.965L358.306,5.927L358.614,5.89L358.925,5.853L359.239,5.816L359.556,5.779L359.877,5.742L360.201,5.706L360.528,5.669L360.859,5.633L361.192,5.597L361.529,5.561L361.868,5.525L362.213,5.489L362.905,5.418L363.611,5.347L364.328,5.277L365.056,5.208L365.794,5.138L366.543,5.07L367.302,5.002L368.07,4.934L368.848,4.867L369.634,4.8L370.429,4.734L371.232,4.669L372.043,4.603L372.862,4.539L373.688,4.475L374.52,4.411L375.359,4.348L376.204,4.285L377.054,4.223L377.91,4.162L378.771,4.101L379.636,4.04L380.506,3.98L381.379,3.921L382.256,3.862L383.136,3.804L384.018,3.746L384.903,3.689L385.79,3.632L386.679,3.576L387.569,3.521L388.459,3.466L389.351,3.412L390.242,3.358L391.133,3.305L392.023,3.252L392.912,3.2L393.8,3.149L394.687,3.098L395.571,3.048L396.452,2.999L397.331,2.95L398.206,2.902L399.079,2.854L400.809,2.761L402.521,2.671L404.21,2.583L405.875,2.498L407.511,2.416L409.117,2.337L410.688,2.26L412.222,2.187L413.716,2.116L415.166,2.048L416.57,1.984L417.925,1.922L419.228,1.864L420.475,1.809L421.664,1.757L422.791,1.708L423.854,1.663L424.849,1.621L425.775,1.582L427.401,1.515L428.709,1.463L429.675,1.424L430.475,1.394L430.933,13.27Z" style="fill:white;"/>
                    <path d="M16.861,1.424L17.827,1.463L19.135,1.515L20.761,1.582L21.687,1.621L22.682,1.663L23.745,1.708L24.872,1.757L26.061,1.809L27.308,1.864L28.611,1.922L29.966,1.984L31.37,2.048L32.82,2.116L34.314,2.187L35.848,2.26L37.419,2.337L39.025,2.416L40.661,2.498L42.326,2.583L44.015,2.671L45.727,2.761L47.458,2.854L48.33,2.902L49.205,2.95L50.084,2.999L50.965,3.048L51.849,3.098L52.736,3.149L53.624,3.2L54.513,3.252L55.403,3.305L56.294,3.358L57.185,3.412L58.077,3.466L58.967,3.521L59.857,3.576L60.746,3.632L61.633,3.689L62.518,3.746L63.4,3.804L64.28,3.862L65.157,3.921L66.03,3.98L66.9,4.04L67.765,4.101L68.626,4.162L69.482,4.223L70.332,4.285L71.177,4.348L72.016,4.411L72.848,4.475L73.674,4.539L74.493,4.603L75.304,4.669L76.107,4.734L76.902,4.8L77.688,4.867L78.466,4.934L79.234,5.002L79.993,5.07L80.742,5.138L81.48,5.208L82.208,5.277L82.925,5.347L83.631,5.418L84.323,5.489L84.668,5.525L85.007,5.561L85.344,5.597L85.677,5.633L86.008,5.669L86.335,5.706L86.659,5.742L86.98,5.779L87.297,5.816L87.611,5.853L87.922,5.89L88.23,5.927L88.534,5.965L88.835,6.002L89.132,6.04L89.426,6.078L89.716,6.116L90.003,6.154L90.286,6.193L90.566,6.231L90.842,6.27L91.115,6.309L91.384,6.349L91.649,6.388L91.911,6.428L92.169,6.468L92.423,6.508L92.675,6.549L92.922,6.59L93.166,6.631L93.407,6.672L93.643,6.714L93.877,6.757L94.107,6.799L94.334,6.843L94.557,6.886L94.778,6.931L94.995,6.976L95.209,7.022L95.421,7.068L95.63,7.116L95.836,7.164L96.04,7.213L96.243,7.264L96.443,7.317L96.643,7.371L96.841,7.427L97.039,7.485L97.228,7.543L97.337,7.577L97.436,7.61L97.537,7.643L97.638,7.678L97.738,7.713L97.845,7.752L98.016,7.815L98.189,7.882L98.362,7.952L98.534,8.023L98.704,8.096L98.873,8.17L99.04,8.247L99.205,8.325L99.37,8.405L99.533,8.487L99.694,8.57L99.854,8.655L100.013,8.741L100.17,8.829L100.325,8.918L100.48,9.009L100.633,9.101L100.784,9.195L100.934,9.29L101.082,9.386L101.229,9.484L101.374,9.582L101.518,9.682L101.66,9.783L101.801,9.885L101.94,9.988L102.078,10.093L102.215,10.198L102.35,10.305L102.484,10.412L102.617,10.52L102.747,10.629L102.877,10.739L103.005,10.85L103.132,10.962L103.258,11.075L103.382,11.188L103.505,11.302L103.627,11.417L103.747,11.532L103.866,11.649L103.984,11.766L104.1,11.884L104.216,12.002L104.329,12.121L104.442,12.24L104.554,12.36L104.664,12.481L104.774,12.602L104.882,12.724L104.989,12.846L105.094,12.969L105.199,13.092L105.303,13.216L105.405,13.34L105.507,13.464L105.607,13.589L105.707,13.715L105.805,13.84L105.902,13.967L105.998,14.093L106.093,14.22L106.188,14.347L106.281,14.475L106.373,14.602L106.464,14.73L106.555,14.859L106.644,14.988L106.733,15.117L106.82,15.246L106.907,15.375L106.993,15.505L107.077,15.635L107.162,15.765L107.245,15.895L107.327,16.025L107.408,16.156L107.489,16.287L107.569,16.418L107.648,16.549L107.726,16.681L107.803,16.812L107.88,16.944L107.956,17.075L108.031,17.207L108.105,17.339L108.179,17.471L108.251,17.603L108.323,17.735L108.394,17.867L108.465,17.999L108.535,18.131L108.604,18.263L108.672,18.396L108.74,18.528L108.807,18.66L108.874,18.793L108.939,18.925L109.004,19.057L109.068,19.189L109.132,19.321L109.195,19.453L109.257,19.585L109.319,19.717L109.38,19.849L109.441,19.98L109.5,20.112L109.559,20.243L109.618,20.375L109.678,20.511L109.79,20.768L109.902,21.029L110.011,21.29L110.118,21.55L110.223,21.809L110.326,22.067L110.426,22.324L110.524,22.581L110.62,22.835L110.714,23.089L110.806,23.342L110.896,23.592L110.984,23.842L111.07,24.09L111.154,24.337L111.236,24.581L111.316,24.824L111.394,25.066L111.47,25.305L111.544,25.542L111.617,25.777L111.688,26.01L111.757,26.241L111.824,26.47L111.89,26.696L111.954,26.919L112.016,27.141L112.076,27.359L112.135,27.575L112.192,27.788L112.248,27.998L112.302,28.205L112.354,28.409L112.405,28.61L112.454,28.808L112.502,29.003L112.548,29.194L112.593,29.382L112.637,29.566L112.678,29.747L112.719,29.924L112.758,30.097L112.795,30.267L112.832,30.432L112.867,30.598L112.932,30.904L112.992,31.197L113.047,31.473L113.097,31.73L113.142,31.968L113.183,32.186L113.218,32.384L113.249,32.561L113.275,32.716L113.298,32.853L113.327,33.037L113.338,33.108L101.586,34.89L101.582,34.861L101.565,34.754L101.552,34.677L101.535,34.575L101.513,34.451L101.488,34.309L101.458,34.147L101.424,33.968L101.386,33.771L101.343,33.557L101.296,33.328L101.244,33.08L101.217,32.956L101.188,32.825L101.159,32.691L101.127,32.553L101.095,32.412L101.062,32.268L101.027,32.121L100.992,31.971L100.955,31.818L100.916,31.663L100.877,31.505L100.837,31.345L100.795,31.181L100.752,31.016L100.707,30.849L100.662,30.679L100.615,30.508L100.567,30.334L100.518,30.159L100.467,29.982L100.415,29.803L100.362,29.622L100.308,29.441L100.252,29.258L100.195,29.074L100.137,28.888L100.078,28.702L100.017,28.515L99.955,28.326L99.892,28.138L99.828,27.948L99.762,27.758L99.695,27.568L99.627,27.377L99.557,27.186L99.486,26.995L99.414,26.804L99.341,26.613L99.267,26.423L99.191,26.232L99.114,26.043L99.036,25.853L98.957,25.664L98.877,25.476L98.793,25.284L98.754,25.196L98.713,25.103L98.671,25.01L98.629,24.918L98.587,24.826L98.544,24.734L98.501,24.642L98.458,24.551L98.415,24.46L98.371,24.37L98.327,24.28L98.283,24.19L98.239,24.1L98.194,24.011L98.149,23.923L98.104,23.835L98.059,23.747L98.013,23.66L97.967,23.573L97.922,23.487L97.875,23.402L97.829,23.316L97.782,23.232L97.735,23.148L97.688,23.064L97.641,22.981L97.594,22.899L97.546,22.817L97.498,22.736L97.45,22.655L97.402,22.575L97.354,22.496L97.305,22.417L97.257,22.34L97.208,22.262L97.159,22.185L97.11,22.109L97.061,22.034L97.012,21.96L96.962,21.886L96.913,21.813L96.863,21.741L96.814,21.67L96.764,21.599L96.714,21.529L96.665,21.46L96.615,21.392L96.565,21.325L96.515,21.258L96.465,21.192L96.415,21.127L96.365,21.063L96.315,21.001L96.265,20.938L96.215,20.877L96.165,20.816L96.115,20.757L96.066,20.698L96.016,20.641L95.966,20.584L95.916,20.528L95.867,20.473L95.817,20.419L95.768,20.366L95.719,20.314L95.67,20.263L95.621,20.213L95.573,20.164L95.524,20.115L95.476,20.068L95.427,20.022L95.379,19.976L95.332,19.932L95.284,19.889L95.237,19.846L95.19,19.805L95.143,19.764L95.097,19.725L95.05,19.686L95.004,19.649L94.958,19.612L94.913,19.576L94.868,19.542L94.823,19.508L94.778,19.474L94.734,19.442L94.69,19.411L94.646,19.381L94.603,19.352L94.56,19.323L94.517,19.295L94.475,19.268L94.433,19.243L94.392,19.218L94.35,19.193L94.309,19.169L94.268,19.147L94.228,19.125L94.188,19.103L94.148,19.083L94.108,19.063L94.069,19.044L94.03,19.025L93.991,19.008L93.953,18.991L93.914,18.974L93.876,18.958L93.838,18.943L93.8,18.928L93.757,18.912L93.756,18.912L93.745,18.908L93.732,18.904L93.716,18.898L93.696,18.892L93.681,18.887L93.618,18.868L93.552,18.848L93.476,18.827L93.39,18.804L93.295,18.779L93.191,18.753L93.078,18.725L92.957,18.697L92.829,18.668L92.693,18.638L92.549,18.607L92.398,18.576L92.241,18.544L92.077,18.512L91.907,18.48L91.73,18.447L91.547,18.414L91.359,18.38L91.164,18.347L90.964,18.313L90.758,18.279L90.547,18.245L90.331,18.211L90.109,18.176L89.882,18.142L89.65,18.107L89.413,18.072L89.171,18.038L88.924,18.003L88.673,17.968L88.417,17.934L88.156,17.899L87.891,17.864L87.622,17.829L87.348,17.795L87.07,17.76L86.788,17.725L86.502,17.69L86.212,17.656L85.917,17.621L85.619,17.586L85.317,17.552L85.011,17.517L84.701,17.483L84.388,17.448L84.071,17.414L83.75,17.38L83.426,17.345L83.101,17.311L82.433,17.243L81.755,17.175L81.064,17.108L80.361,17.04L79.646,16.974L78.919,16.907L78.182,16.841L77.434,16.775L76.676,16.709L75.908,16.644L75.13,16.58L74.344,16.515L73.549,16.452L72.746,16.388L71.935,16.325L71.117,16.263L70.292,16.201L69.461,16.139L68.623,16.078L67.78,16.017L66.931,15.957L66.077,15.897L65.218,15.838L64.356,15.78L63.489,15.721L62.619,15.664L61.746,15.607L60.871,15.55L59.993,15.494L59.113,15.439L58.232,15.384L57.35,15.329L56.467,15.276L55.583,15.222L54.7,15.17L53.817,15.118L52.935,15.066L52.054,15.015L51.174,14.965L50.297,14.915L49.422,14.866L48.549,14.818L47.68,14.77L46.815,14.723L45.095,14.63L43.394,14.54L41.715,14.453L40.06,14.369L38.433,14.287L36.837,14.208L35.274,14.132L33.748,14.059L32.263,13.989L30.82,13.921L29.423,13.857L28.075,13.796L26.78,13.738L25.539,13.683L24.356,13.631L23.235,13.583L22.178,13.538L21.188,13.496L20.269,13.457L18.652,13.391L17.354,13.339L16.398,13.301L15.603,13.27L16.061,1.394L16.861,1.424Z" style="fill:white;"/>
                    <rect x="217.057" y="74.999" width="11.886" height="33.001" style="fill:white;"/>
                </g>
            </g>
        </g>
    </g>
</svg>
