<?xml version="1.0" encoding="UTF-8" standalone="no"?>
<!DOCTYPE svg PUBLIC "-//W3C//DTD SVG 1.1//EN" "http://www.w3.org/Graphics/SVG/1.1/DTD/svg11.dtd">
<svg width="100%" height="100%" viewBox="0 0 850 850" version="1.1" xmlns="http://www.w3.org/2000/svg" xmlns:xlink="http://www.w3.org/1999/xlink" xml:space="preserve" style="fill-rule:evenodd;clip-rule:evenodd;stroke-linejoin:round;stroke-miterlimit:1.41421;">
    <g transform="matrix(1.46187,0,0,1.46187,25.4977,62.1672)">
        <path d="M484.749,-0.231L484.944,-0.23L485.14,-0.229L485.335,-0.226L485.531,-0.223L485.726,-0.22L485.922,-0.216L486.118,-0.211L486.314,-0.205L486.511,-0.199L486.707,-0.192L486.904,-0.185L487.101,-0.177L487.298,-0.168L487.495,-0.159L487.692,-0.149L487.889,-0.138L488.087,-0.126L488.284,-0.114L488.482,-0.102L488.68,-0.088L488.878,-0.074L489.076,-0.059L489.274,-0.044L489.473,-0.028L489.671,-0.011L489.869,0.007L490.068,0.025L490.267,0.044L490.466,0.063L490.665,0.084L490.864,0.105L491.063,0.126L491.262,0.149L491.462,0.172L491.662,0.195L491.861,0.22L492.061,0.245L492.26,0.271L492.46,0.297L492.66,0.325L492.86,0.353L493.061,0.382L493.261,0.411L493.461,0.441L493.661,0.472L493.862,0.504L494.062,0.536L494.263,0.569L494.464,0.603L494.665,0.637L494.865,0.673L495.066,0.709L495.267,0.745L495.468,0.783L495.669,0.821L495.87,0.86L496.071,0.9L496.273,0.94L496.474,0.981L496.675,1.023L496.877,1.066L497.078,1.11L497.279,1.154L497.481,1.199L497.682,1.244L497.884,1.291L498.086,1.338L498.287,1.386L498.489,1.435L498.69,1.485L498.892,1.535L499.094,1.586L499.296,1.638L499.498,1.691L499.699,1.744L499.901,1.798L500.103,1.853L500.305,1.909L500.506,1.966L500.708,2.023L500.91,2.081L501.112,2.14L501.314,2.2L501.516,2.26L501.718,2.322L501.92,2.384L502.121,2.447L502.323,2.51L502.525,2.575L502.727,2.64L502.929,2.706L503.13,2.773L503.332,2.841L503.534,2.909L503.736,2.979L503.937,3.049L504.139,3.12L504.34,3.192L504.542,3.265L504.743,3.338L504.945,3.412L505.146,3.487L505.348,3.563L505.549,3.64L505.75,3.718L505.951,3.796L506.153,3.875L506.354,3.955L506.555,4.036L506.756,4.118L506.957,4.2L507.158,4.284L507.359,4.368L507.559,4.453L507.76,4.539L507.96,4.626L508.162,4.714L508.362,4.802L508.562,4.891L508.762,4.981L508.963,5.072L509.163,5.164L509.363,5.257L509.563,5.351L509.763,5.445L509.962,5.54L510.162,5.637L510.362,5.734L510.561,5.831L510.76,5.93L510.959,6.03L511.159,6.13L511.358,6.232L511.557,6.334L511.755,6.437L511.954,6.541L512.153,6.646L512.351,6.751L512.55,6.858L512.748,6.965L512.946,7.074L513.144,7.183L513.342,7.293L513.539,7.404L513.737,7.516L513.934,7.628L514.132,7.742L514.329,7.857L514.525,7.972L514.722,8.088L514.919,8.205L515.115,8.323L515.312,8.442L515.508,8.562L515.704,8.683L515.9,8.805L516.096,8.927L516.291,9.05L516.486,9.175L516.682,9.3L516.877,9.426L517.072,9.553L517.266,9.681L517.461,9.81L517.655,9.94L517.85,10.07L518.043,10.202L518.237,10.334L518.431,10.467L518.624,10.602L518.817,10.737L519.01,10.873L519.203,11.01L519.396,11.148L519.588,11.287L519.781,11.427L519.973,11.567L520.164,11.709L520.356,11.851L520.548,11.995L520.739,12.139L520.93,12.284L521.121,12.43L521.311,12.577L521.501,12.726L521.692,12.874L521.882,13.024L522.071,13.175L522.261,13.327L522.45,13.48L522.639,13.633L522.828,13.788L523.016,13.943L523.205,14.1L523.392,14.257L523.58,14.415L523.768,14.574L523.956,14.735L524.142,14.896L524.329,15.057L524.516,15.221L524.702,15.385L524.888,15.549L525.074,15.715L525.26,15.882L525.445,16.049L525.63,16.218L525.815,16.387L526,16.558L526.184,16.73L526.368,16.902L526.552,17.075L526.735,17.25L526.919,17.425L527.102,17.601L527.285,17.778L527.467,17.957L527.649,18.135L527.831,18.316L528.012,18.496L528.192,18.677L528.371,18.857L528.549,19.038L528.726,19.219L528.902,19.4L529.077,19.582L529.251,19.763L529.424,19.944L529.596,20.126L529.767,20.308L529.937,20.49L530.106,20.672L530.275,20.855L530.442,21.037L530.608,21.22L530.774,21.403L530.938,21.586L531.101,21.769L531.264,21.952L531.425,22.135L531.586,22.319L531.746,22.502L531.904,22.686L532.062,22.87L532.219,23.054L532.375,23.238L532.53,23.423L532.684,23.607L532.837,23.792L532.989,23.976L533.14,24.161L533.29,24.347L533.44,24.532L533.588,24.717L533.736,24.902L533.882,25.087L534.028,25.273L534.172,25.459L534.316,25.645L534.459,25.831L534.601,26.017L534.742,26.203L534.882,26.389L535.022,26.575L535.16,26.762L535.297,26.948L535.434,27.135L535.569,27.322L535.704,27.509L535.838,27.696L535.971,27.883L536.103,28.07L536.234,28.257L536.364,28.444L536.494,28.632L536.622,28.819L536.749,29.007L536.876,29.194L537.002,29.382L537.127,29.569L537.25,29.757L537.374,29.945L537.496,30.133L537.617,30.321L537.738,30.51L537.857,30.697L537.976,30.886L538.094,31.074L538.211,31.263L538.327,31.451L538.443,31.64L538.557,31.828L538.67,32.016L538.783,32.205L538.895,32.394L539.006,32.583L539.116,32.771L539.225,32.96L539.333,33.149L539.441,33.338L539.548,33.527L539.653,33.715L539.758,33.904L539.863,34.094L539.966,34.283L540.069,34.472L540.17,34.661L540.271,34.85L540.371,35.039L540.47,35.228L540.569,35.418L540.666,35.607L540.762,35.795L540.858,35.984L540.953,36.174L541.048,36.363L541.141,36.552L541.234,36.742L541.325,36.931L541.416,37.12L541.506,37.309L541.595,37.498L541.684,37.687L541.772,37.877L541.859,38.066L541.945,38.254L542.03,38.443L542.115,38.633L542.198,38.822L542.281,39.01L542.363,39.2L542.445,39.389L542.525,39.578L542.605,39.767L542.684,39.956L542.762,40.145L542.839,40.333L542.916,40.522L542.992,40.711L543.067,40.899L543.142,41.088L543.215,41.276L543.288,41.465L543.36,41.653L543.431,41.842L543.502,42.03L543.572,42.219L543.64,42.406L543.709,42.595L543.776,42.783L543.843,42.97L543.909,43.159L543.974,43.347L544.039,43.535L544.103,43.722L544.166,43.91L544.228,44.097L544.29,44.285L544.35,44.472L544.411,44.659L544.47,44.846L544.529,45.034L544.587,45.221L544.644,45.407L544.7,45.594L544.756,45.781L544.812,45.968L544.866,46.155L544.919,46.34L544.973,46.527L545.025,46.714L545.077,46.9L545.127,47.085L545.178,47.271L545.227,47.457L545.276,47.643L545.324,47.828L545.372,48.014L545.418,48.199L545.465,48.383L545.51,48.569L545.555,48.754L545.599,48.938L545.642,49.123L545.685,49.307L545.727,49.492L545.769,49.676L545.809,49.86L545.85,50.043L545.889,50.228L545.928,50.411L545.966,50.594L546.004,50.778L546.041,50.961L546.077,51.144L546.112,51.326L546.147,51.509L546.182,51.692L546.215,51.874L546.25,52.062L546.313,52.42L546.375,52.783L546.434,53.145L546.491,53.507L546.546,53.868L546.598,54.229L546.647,54.588L546.695,54.947L546.74,55.304L546.783,55.661L546.823,56.018L546.861,56.373L546.897,56.728L546.931,57.082L546.963,57.435L546.992,57.787L547.019,58.138L547.044,58.487L547.067,58.837L547.088,59.186L547.107,59.533L547.124,59.88L547.139,60.225L547.151,60.569L547.162,60.913L547.171,61.255L547.178,61.597L547.183,61.938L547.186,62.276L547.187,62.615L547.186,62.953L547.184,63.289L547.18,63.624L547.174,63.958L547.166,64.291L547.156,64.623L547.145,64.953L547.132,65.282L547.117,65.611L547.101,65.939L547.083,66.265L547.063,66.589L547.042,66.913L547.019,67.235L546.995,67.557L546.969,67.877L546.942,68.195L546.913,68.513L546.883,68.83L546.851,69.144L546.818,69.458L546.784,69.771L546.748,70.082L546.711,70.392L546.672,70.7L546.632,71.007L546.591,71.313L546.549,71.618L546.505,71.921L546.46,72.223L546.414,72.523L546.367,72.822L546.318,73.12L546.269,73.416L546.218,73.711L546.166,74.005L546.113,74.297L546.059,74.587L546.005,74.876L545.949,75.164L545.892,75.45L545.834,75.735L545.775,76.018L545.715,76.301L545.654,76.581L545.592,76.859L545.53,77.137L545.466,77.412L545.402,77.687L545.337,77.959L545.271,78.23L545.205,78.5L545.137,78.768L545.069,79.035L545,79.299L544.931,79.562L544.861,79.824L544.79,80.084L544.718,80.343L544.646,80.6L544.574,80.854L544.5,81.108L544.427,81.361L544.352,81.61L544.278,81.859L544.202,82.106L544.127,82.351L544.05,82.595L543.973,82.837L543.896,83.077L543.819,83.315L543.741,83.552L543.663,83.786L543.584,84.02L543.505,84.252L543.426,84.481L543.346,84.709L543.267,84.935L543.187,85.159L543.106,85.382L543.026,85.603L542.945,85.822L542.864,86.039L542.783,86.255L542.702,86.468L542.621,86.68L542.54,86.89L542.458,87.098L542.377,87.305L542.296,87.509L542.214,87.711L542.133,87.912L542.051,88.11L541.969,88.307L541.888,88.502L541.807,88.695L541.725,88.887L541.644,89.075L541.563,89.263L541.483,89.448L541.402,89.631L541.321,89.813L541.241,89.992L541.161,90.17L541.08,90.346L541.001,90.519L540.922,90.691L540.84,90.866L540.685,91.194L540.529,91.519L540.374,91.837L540.221,92.146L540.069,92.447L539.919,92.741L539.772,93.026L539.626,93.303L539.482,93.572L539.34,93.833L539.201,94.086L539.063,94.331L538.928,94.568L538.779,94.827L538.681,94.989L538.578,95.152L538.484,95.297L538.395,95.43L538.307,95.56L538.218,95.689L538.128,95.818L538.034,95.951L537.936,96.089L537.831,96.235L537.617,96.53L537.379,96.855L537.12,97.206L536.838,97.584L536.535,97.99L536.208,98.424L535.859,98.887L535.488,99.377L535.093,99.897L534.676,100.444L534.236,101.02L533.774,101.625L533.289,102.257L532.783,102.916L532.254,103.604L531.703,104.318L531.131,105.06L530.537,105.829L529.921,106.625L528.629,108.295L527.252,110.069L525.794,111.945L524.257,113.922L522.641,115.996L520.948,118.166L519.18,120.43L517.339,122.787L515.426,125.233L513.443,127.766L511.392,130.386L509.273,133.09L507.09,135.875L504.842,138.739L502.533,141.682L500.164,144.699L497.736,147.79L495.25,150.952L492.71,154.184L490.116,157.483L487.469,160.847L484.773,164.273L482.027,167.761L479.235,171.308L476.397,174.911L473.515,178.569L470.591,182.28L467.626,186.041L461.583,193.707L455.397,201.55L449.082,209.554L442.651,217.702L436.118,225.977L429.496,234.363L422.797,242.843L416.036,251.401L409.225,260.019L402.378,268.682L395.507,277.372L388.627,286.073L381.75,294.768L374.89,303.442L368.059,312.076L361.272,320.654L354.541,329.161L347.879,337.578L341.3,345.89L334.816,354.08L328.442,362.131L322.191,370.026L310.108,385.284L298.673,399.721L287.993,413.203L278.172,425.598L269.318,436.772L261.535,446.592L254.93,454.925L245.676,466.598L242.442,470.678L242.409,470.721L242.31,470.848L242.188,471.002L242.039,471.188L241.868,471.397L241.766,471.52L241.662,471.644L241.551,471.777L241.434,471.915L241.31,472.06L241.18,472.211L241.043,472.369L240.899,472.532L240.749,472.702L240.592,472.878L240.429,473.059L240.258,473.246L240.082,473.438L239.899,473.636L239.709,473.839L239.512,474.047L239.31,474.26L239.1,474.478L238.884,474.701L238.661,474.927L238.432,475.159L238.196,475.394L237.953,475.634L237.704,475.878L237.448,476.126L237.186,476.377L236.917,476.632L236.641,476.891L236.359,477.152L236.071,477.417L235.779,477.682L235.625,477.82L235.473,477.956L235.32,478.093L235.164,478.23L235.008,478.368L234.85,478.506L234.689,478.645L234.527,478.785L234.364,478.926L234.199,479.066L234.032,479.208L233.864,479.35L233.694,479.492L233.522,479.635L233.349,479.779L233.174,479.923L232.997,480.068L232.819,480.212L232.639,480.358L232.457,480.503L232.274,480.649L232.089,480.796L231.902,480.943L231.714,481.09L231.524,481.237L231.333,481.385L231.139,481.533L230.944,481.682L230.748,481.83L230.549,481.979L230.349,482.128L230.148,482.277L229.945,482.426L229.74,482.576L229.533,482.726L229.325,482.875L229.115,483.026L228.903,483.176L228.69,483.326L228.475,483.476L228.259,483.626L228.041,483.776L227.821,483.926L227.599,484.077L227.376,484.227L227.151,484.377L226.925,484.527L226.696,484.677L226.466,484.827L226.235,484.977L226.001,485.126L225.767,485.275L225.53,485.425L225.292,485.574L225.052,485.722L224.81,485.871L224.567,486.02L224.322,486.168L224.076,486.315L223.828,486.463L223.578,486.61L223.326,486.757L223.073,486.903L222.818,487.05L222.561,487.196L222.303,487.341L222.043,487.485L221.782,487.63L221.519,487.774L221.254,487.917L220.987,488.06L220.719,488.203L220.449,488.345L220.177,488.486L219.904,488.627L219.629,488.767L219.353,488.907L219.075,489.046L218.794,489.184L218.513,489.322L218.23,489.459L217.945,489.595L217.659,489.73L217.37,489.865L217.081,489.999L216.789,490.133L216.496,490.265L216.201,490.397L215.905,490.527L215.606,490.657L215.307,490.786L215.005,490.915L214.702,491.042L214.398,491.168L214.091,491.294L213.783,491.418L213.473,491.542L213.162,491.664L212.849,491.785L212.534,491.906L212.218,492.025L211.9,492.143L211.581,492.26L211.259,492.376L210.937,492.491L210.612,492.605L210.286,492.718L209.958,492.829L209.629,492.939L209.298,493.048L208.965,493.156L208.631,493.262L208.295,493.367L207.957,493.471L207.619,493.573L207.278,493.674L206.935,493.774L206.591,493.873L206.246,493.97L205.899,494.065L205.55,494.159L205.199,494.252L204.847,494.343L204.494,494.433L204.139,494.521L203.782,494.608L203.423,494.693L203.063,494.777L202.702,494.859L202.339,494.939L201.974,495.018L201.607,495.095L201.239,495.17L200.87,495.244L200.499,495.316L200.127,495.386L199.752,495.455L199.377,495.522L198.999,495.587L198.621,495.65L198.24,495.712L197.858,495.771L197.474,495.829L197.09,495.885L196.703,495.939L196.314,495.991L195.925,496.041L195.534,496.09L195.141,496.136L194.747,496.18L194.352,496.223L193.954,496.263L193.555,496.301L193.155,496.338L192.754,496.372L192.35,496.404L191.945,496.434L191.539,496.462L191.132,496.488L190.723,496.511L190.312,496.533L189.904,496.552L189.693,496.561L189.486,496.569L189.279,496.577L189.072,496.584L188.862,496.591L188.654,496.597L188.446,496.602L188.236,496.607L188.027,496.611L187.817,496.615L187.607,496.618L187.396,496.621L187.185,496.623L186.974,496.624L186.762,496.625L186.547,496.626L186.133,496.625L185.718,496.622L185.304,496.617L184.892,496.61L184.482,496.602L184.073,496.591L183.667,496.579L183.262,496.565L182.858,496.549L182.457,496.532L182.057,496.512L181.659,496.491L181.263,496.468L180.868,496.443L180.475,496.417L180.084,496.389L179.695,496.359L179.307,496.327L178.92,496.294L178.537,496.259L178.154,496.223L177.773,496.184L177.394,496.145L177.017,496.103L176.641,496.06L176.267,496.016L175.895,495.969L175.524,495.922L175.155,495.872L174.788,495.822L174.423,495.769L174.06,495.716L173.698,495.66L173.338,495.604L172.979,495.545L172.623,495.486L172.267,495.425L171.914,495.362L171.563,495.298L171.213,495.233L170.865,495.166L170.519,495.098L170.174,495.029L169.832,494.958L169.49,494.886L169.151,494.813L168.813,494.739L168.477,494.663L168.143,494.586L167.811,494.507L167.48,494.428L167.151,494.347L166.824,494.265L166.498,494.182L166.174,494.098L165.852,494.012L165.532,493.926L165.213,493.838L164.896,493.749L164.581,493.66L164.267,493.568L163.956,493.477L163.646,493.384L163.337,493.289L163.031,493.194L162.726,493.098L162.422,493.001L162.121,492.903L161.821,492.804L161.524,492.704L161.228,492.603L160.933,492.501L160.64,492.399L160.349,492.295L160.06,492.191L159.772,492.085L159.486,491.979L159.202,491.873L158.92,491.765L158.639,491.656L158.36,491.547L158.082,491.437L157.807,491.326L157.533,491.214L157.26,491.102L156.991,490.989L156.721,490.876L156.454,490.761L156.189,490.647L155.926,490.531L155.664,490.415L155.403,490.298L155.145,490.181L154.888,490.063L154.633,489.944L154.379,489.825L154.127,489.705L153.878,489.586L153.629,489.465L153.383,489.344L153.137,489.222L152.894,489.1L152.653,488.978L152.413,488.855L152.175,488.732L151.938,488.608L151.703,488.484L151.471,488.36L151.239,488.235L151.009,488.11L150.781,487.984L150.555,487.859L150.33,487.733L150.107,487.607L149.886,487.48L149.666,487.353L149.448,487.226L149.231,487.099L149.017,486.972L148.804,486.845L148.592,486.717L148.383,486.589L148.175,486.461L147.968,486.333L147.763,486.205L147.561,486.077L147.359,485.948L147.159,485.82L146.961,485.692L146.764,485.563L146.57,485.435L146.377,485.307L146.185,485.178L145.995,485.05L145.807,484.922L145.62,484.793L145.435,484.665L145.252,484.537L145.07,484.409L144.889,484.281L144.711,484.154L144.534,484.026L144.359,483.899L144.185,483.772L144.013,483.645L143.842,483.518L143.673,483.392L143.506,483.265L143.34,483.139L143.176,483.013L143.014,482.888L142.853,482.763L142.693,482.638L142.536,482.514L142.38,482.39L142.225,482.266L142.072,482.143L141.921,482.02L141.771,481.897L141.623,481.776L141.476,481.654L141.331,481.532L141.187,481.412L141.045,481.291L140.905,481.172L140.766,481.053L140.629,480.934L140.493,480.816L140.359,480.698L140.222,480.577L139.965,480.349L139.711,480.119L139.462,479.892L139.22,479.668L138.984,479.446L138.754,479.228L138.53,479.012L138.312,478.799L138.1,478.59L137.894,478.385L137.694,478.182L137.5,477.984L137.311,477.789L137.129,477.598L136.953,477.411L136.782,477.228L136.617,477.049L136.459,476.875L136.305,476.705L136.158,476.539L136.017,476.379L135.881,476.223L135.75,476.072L135.626,475.926L135.507,475.785L135.393,475.649L135.286,475.519L135.184,475.394L135.088,475.275L134.996,475.161L134.906,475.047L134.757,474.856L134.625,474.683L134.514,474.536L134.421,474.409L134.452,474.452L133.196,472.859L131.565,470.791L129.357,467.989L126.614,464.508L123.379,460.401L119.695,455.721L115.604,450.523L111.15,444.861L106.375,438.788L103.881,435.614L101.322,432.357L98.705,429.025L96.034,425.624L93.316,422.16L90.554,418.641L87.756,415.073L84.925,411.462L82.067,407.816L79.189,404.142L76.294,400.445L73.389,396.733L70.478,393.013L67.568,389.291L64.663,385.573L61.768,381.867L58.89,378.18L56.034,374.517L53.204,370.887L50.406,367.294L47.646,363.747L46.282,361.992L44.929,360.252L43.588,358.525L42.26,356.815L40.945,355.12L39.644,353.443L38.358,351.784L37.087,350.143L35.833,348.523L34.595,346.922L33.374,345.344L32.172,343.787L30.988,342.253L29.823,340.743L28.679,339.258L27.555,337.798L26.453,336.364L25.372,334.958L24.315,333.579L23.28,332.23L22.27,330.909L21.284,329.62L20.323,328.361L19.388,327.135L18.48,325.941L17.599,324.782L16.746,323.656L15.922,322.566L15.126,321.512L14.36,320.494L13.624,319.514L12.919,318.572L12.247,317.67L11.921,317.233L11.605,316.806L11.296,316.389L10.996,315.983L10.704,315.586L10.42,315.2L10.144,314.824L9.877,314.458L9.619,314.103L9.368,313.759L9.126,313.424L8.893,313.1L8.668,312.787L8.452,312.483L8.244,312.19L8.044,311.907L7.853,311.634L7.67,311.371L7.495,311.117L7.327,310.872L7.167,310.636L7.014,310.407L6.867,310.184L6.726,309.966L6.59,309.751L6.463,309.547L6.351,309.362L6.246,309.186L6.141,309.009L6.037,308.83L5.933,308.649L5.831,308.468L5.728,308.285L5.627,308.101L5.526,307.915L5.426,307.728L5.326,307.54L5.227,307.35L5.129,307.159L5.031,306.967L4.934,306.773L4.838,306.578L4.742,306.382L4.647,306.184L4.552,305.985L4.458,305.785L4.365,305.583L4.272,305.38L4.18,305.175L4.089,304.97L3.998,304.763L3.908,304.554L3.819,304.344L3.73,304.133L3.642,303.921L3.554,303.707L3.468,303.492L3.382,303.276L3.296,303.058L3.212,302.839L3.127,302.619L3.044,302.397L2.962,302.175L2.88,301.951L2.799,301.725L2.718,301.498L2.638,301.27L2.559,301.041L2.481,300.811L2.404,300.579L2.327,300.346L2.251,300.112L2.176,299.876L2.101,299.639L2.028,299.401L1.955,299.162L1.883,298.921L1.812,298.68L1.741,298.437L1.672,298.193L1.603,297.947L1.535,297.701L1.468,297.453L1.402,297.204L1.337,296.954L1.272,296.702L1.209,296.45L1.146,296.196L1.084,295.941L1.024,295.685L0.964,295.428L0.905,295.17L0.847,294.911L0.79,294.65L0.734,294.388L0.679,294.126L0.625,293.862L0.572,293.597L0.519,293.331L0.468,293.063L0.418,292.795L0.369,292.526L0.321,292.255L0.274,291.984L0.229,291.711L0.184,291.437L0.14,291.163L0.097,290.887L0.056,290.61L0.016,290.333L-0.024,290.054L-0.062,289.774L-0.099,289.493L-0.135,289.211L-0.169,288.929L-0.203,288.645L-0.235,288.36L-0.266,288.074L-0.296,287.788L-0.325,287.5L-0.352,287.212L-0.378,286.922L-0.403,286.632L-0.427,286.34L-0.449,286.048L-0.47,285.755L-0.49,285.461L-0.509,285.166L-0.526,284.87L-0.542,284.573L-0.556,284.276L-0.57,283.977L-0.581,283.678L-0.592,283.378L-0.601,283.077L-0.609,282.775L-0.615,282.472L-0.62,282.169L-0.623,281.865L-0.625,281.56L-0.625,281.254L-0.625,280.947L-0.622,280.64L-0.618,280.332L-0.613,280.023L-0.606,279.713L-0.597,279.403L-0.587,279.092L-0.576,278.78L-0.563,278.467L-0.548,278.154L-0.532,277.84L-0.514,277.525L-0.495,277.21L-0.474,276.894L-0.451,276.578L-0.427,276.26L-0.401,275.943L-0.374,275.624L-0.344,275.305L-0.313,274.985L-0.281,274.665L-0.246,274.344L-0.21,274.022L-0.173,273.7L-0.133,273.378L-0.092,273.054L-0.049,272.731L-0.004,272.406L0.042,272.082L0.091,271.756L0.141,271.431L0.193,271.104L0.247,270.777L0.302,270.45L0.36,270.122L0.419,269.794L0.481,269.466L0.544,269.137L0.609,268.807L0.676,268.477L0.744,268.147L0.815,267.816L0.888,267.485L0.963,267.154L1.039,266.822L1.118,266.49L1.199,266.157L1.281,265.825L1.366,265.491L1.453,265.158L1.541,264.824L1.632,264.49L1.725,264.156L1.82,263.821L1.917,263.487L2.016,263.152L2.117,262.816L2.22,262.481L2.325,262.145L2.433,261.809L2.543,261.473L2.654,261.137L2.768,260.801L2.884,260.464L3.003,260.128L3.123,259.791L3.246,259.454L3.371,259.117L3.498,258.78L3.628,258.443L3.759,258.105L3.893,257.768L4.029,257.431L4.168,257.093L4.308,256.756L4.451,256.418L4.597,256.081L4.744,255.744L4.894,255.406L5.047,255.069L5.201,254.732L5.358,254.394L5.518,254.057L5.679,253.72L5.844,253.384L6.01,253.047L6.179,252.71L6.35,252.373L6.524,252.037L6.7,251.701L6.879,251.365L7.06,251.029L7.244,250.693L7.43,250.358L7.618,250.022L7.809,249.687L8.002,249.353L8.196,249.022L8.297,248.851L8.397,248.684L8.497,248.517L8.598,248.35L8.699,248.183L8.801,248.016L8.904,247.849L9.007,247.683L9.111,247.516L9.216,247.35L9.321,247.183L9.427,247.017L9.534,246.851L9.641,246.684L9.748,246.518L9.857,246.352L9.966,246.187L10.076,246.021L10.186,245.855L10.297,245.69L10.409,245.524L10.521,245.359L10.634,245.193L10.748,245.028L10.862,244.863L10.977,244.698L11.092,244.533L11.209,244.368L11.326,244.204L11.443,244.039L11.561,243.875L11.68,243.71L11.8,243.546L11.92,243.382L12.04,243.218L12.162,243.054L12.284,242.89L12.407,242.727L12.53,242.563L12.655,242.4L12.779,242.237L12.905,242.074L13.031,241.911L13.158,241.748L13.285,241.585L13.413,241.422L13.542,241.26L13.672,241.098L13.802,240.935L13.933,240.773L14.064,240.612L14.196,240.45L14.329,240.288L14.463,240.127L14.597,239.965L14.732,239.804L14.868,239.643L15.004,239.482L15.141,239.321L15.278,239.161L15.417,239L15.556,238.84L15.695,238.68L15.836,238.52L15.977,238.36L16.118,238.201L16.261,238.041L16.404,237.882L16.548,237.723L16.692,237.564L16.838,237.405L16.983,237.246L17.13,237.088L17.278,236.929L17.425,236.771L17.574,236.613L17.723,236.456L17.873,236.298L18.024,236.141L18.176,235.983L18.328,235.826L18.481,235.669L18.634,235.513L18.789,235.356L18.944,235.2L19.1,235.043L19.259,234.885L19.419,234.727L19.579,234.569L19.739,234.413L19.9,234.257L20.061,234.102L20.222,233.948L20.384,233.794L20.546,233.641L20.709,233.489L20.872,233.338L21.035,233.188L21.198,233.038L21.362,232.889L21.526,232.741L21.691,232.593L21.856,232.446L22.021,232.3L22.186,232.155L22.352,232.011L22.518,231.867L22.684,231.724L22.851,231.582L23.018,231.44L23.185,231.3L23.353,231.16L23.521,231.02L23.69,230.882L23.858,230.744L24.027,230.607L24.196,230.471L24.365,230.335L24.535,230.201L24.705,230.067L24.875,229.934L25.046,229.801L25.217,229.669L25.388,229.538L25.56,229.408L25.732,229.279L25.904,229.15L26.076,229.022L26.248,228.895L26.421,228.768L26.595,228.642L26.768,228.517L26.942,228.393L27.116,228.269L27.29,228.147L27.464,228.024L27.639,227.903L27.814,227.783L27.989,227.663L28.165,227.544L28.341,227.425L28.516,227.308L28.693,227.191L28.869,227.075L29.046,226.959L29.223,226.845L29.4,226.731L29.578,226.618L29.755,226.505L29.933,226.393L30.111,226.282L30.29,226.172L30.469,226.063L30.647,225.954L30.826,225.846L31.006,225.738L31.185,225.632L31.365,225.526L31.545,225.421L31.725,225.317L31.905,225.213L32.086,225.11L32.267,225.008L32.448,224.906L32.629,224.806L32.81,224.706L32.992,224.606L33.174,224.508L33.356,224.41L33.538,224.313L33.72,224.216L33.903,224.121L34.086,224.026L34.268,223.932L34.452,223.838L34.635,223.745L34.818,223.653L35.002,223.562L35.186,223.472L35.37,223.381L35.554,223.292L35.738,223.204L35.923,223.116L36.108,223.029L36.293,222.943L36.478,222.857L36.663,222.772L36.848,222.688L37.033,222.605L37.219,222.522L37.405,222.44L37.591,222.359L37.777,222.278L37.963,222.198L38.149,222.119L38.336,222.041L38.523,221.963L38.709,221.886L38.896,221.809L39.083,221.734L39.271,221.659L39.458,221.584L39.646,221.511L39.833,221.438L40.021,221.366L40.209,221.295L40.396,221.224L40.584,221.154L40.773,221.084L40.961,221.016L41.149,220.948L41.338,220.881L41.526,220.814L41.715,220.748L41.904,220.683L42.093,220.619L42.282,220.555L42.471,220.492L42.66,220.429L42.85,220.367L43.039,220.306L43.228,220.246L43.418,220.187L43.608,220.127L43.797,220.069L43.987,220.012L44.177,219.955L44.367,219.898L44.557,219.843L44.748,219.788L44.937,219.734L45.128,219.68L45.318,219.627L45.508,219.575L45.699,219.524L45.889,219.473L46.08,219.423L46.271,219.373L46.461,219.325L46.653,219.276L46.843,219.229L47.034,219.182L47.225,219.136L47.416,219.091L47.607,219.046L47.798,219.002L47.989,218.958L48.18,218.915L48.372,218.873L48.563,218.832L48.755,218.791L48.945,218.751L49.137,218.711L49.328,218.672L49.52,218.634L49.712,218.597L49.903,218.56L50.094,218.524L50.286,218.488L50.478,218.453L50.669,218.419L50.86,218.385L51.052,218.352L51.244,218.32L51.435,218.288L51.627,218.257L51.819,218.227L52.01,218.197L52.202,218.168L52.394,218.14L52.585,218.112L52.777,218.085L52.968,218.058L53.16,218.032L53.352,218.007L53.543,217.982L53.735,217.958L53.926,217.935L54.118,217.912L54.31,217.89L54.501,217.869L54.693,217.848L54.885,217.828L55.076,217.808L55.267,217.789L55.459,217.771L55.65,217.753L55.842,217.736L56.033,217.72L56.225,217.704L56.416,217.689L56.607,217.674L56.798,217.66L56.99,217.647L57.181,217.634L57.372,217.622L57.563,217.61L57.754,217.6L57.945,217.589L58.136,217.58L58.327,217.571L58.517,217.562L58.709,217.554L58.9,217.547L59.09,217.541L59.28,217.535L59.471,217.529L59.662,217.524L59.852,217.52L60.043,217.517L60.233,217.514L60.423,217.511L60.613,217.51L60.803,217.508L60.994,217.508L61.183,217.508L61.374,217.509L61.563,217.51L61.753,217.512L61.943,217.514L62.132,217.517L62.322,217.521L62.511,217.525L62.701,217.529L62.89,217.535L63.079,217.541L63.268,217.547L63.458,217.554L63.646,217.562L63.835,217.57L64.024,217.579L64.212,217.589L64.401,217.599L64.589,217.609L64.777,217.62L64.966,217.632L65.154,217.645L65.347,217.658L65.717,217.685L66.093,217.715L66.468,217.747L66.842,217.781L67.216,217.818L67.589,217.857L67.962,217.898L68.334,217.942L68.706,217.987L69.078,218.035L69.448,218.085L69.819,218.138L70.188,218.192L70.558,218.249L70.926,218.308L71.294,218.369L71.661,218.432L72.028,218.498L72.394,218.566L72.759,218.635L73.123,218.707L73.488,218.782L73.851,218.858L74.214,218.936L74.575,219.017L74.937,219.099L75.297,219.184L75.657,219.271L76.016,219.36L76.374,219.451L76.732,219.544L77.088,219.64L77.444,219.737L77.799,219.836L78.153,219.938L78.507,220.041L78.859,220.147L79.211,220.254L79.562,220.364L79.912,220.476L80.261,220.589L80.609,220.705L80.957,220.823L81.303,220.942L81.648,221.064L81.993,221.188L82.337,221.314L82.679,221.441L83.021,221.571L83.361,221.703L83.701,221.836L84.04,221.972L84.377,222.109L84.714,222.249L85.05,222.39L85.384,222.534L85.717,222.679L86.05,222.826L86.381,222.975L86.711,223.126L87.041,223.279L87.368,223.434L87.695,223.591L88.021,223.75L88.346,223.91L88.669,224.073L88.991,224.237L89.312,224.403L89.632,224.571L89.95,224.741L90.268,224.913L90.584,225.087L90.899,225.262L91.213,225.44L91.525,225.619L91.836,225.8L92.146,225.983L92.454,226.167L92.761,226.354L93.067,226.542L93.372,226.732L93.675,226.924L93.977,227.118L94.277,227.314L94.576,227.511L94.874,227.71L95.17,227.911L95.464,228.114L95.758,228.318L96.05,228.525L96.34,228.733L96.629,228.943L96.916,229.154L97.202,229.368L97.487,229.583L97.769,229.8L98.051,230.018L98.331,230.239L98.609,230.461L98.885,230.685L99.161,230.91L99.434,231.137L99.701,231.362L99.841,231.482L99.976,231.597L100.11,231.713L100.244,231.83L100.378,231.947L100.511,232.064L100.644,232.181L100.777,232.3L100.908,232.418L101.04,232.537L101.171,232.657L101.302,232.776L101.432,232.897L101.562,233.017L101.691,233.139L101.82,233.26L101.948,233.382L102.077,233.504L102.204,233.627L102.331,233.75L102.458,233.874L102.585,233.998L102.711,234.123L102.836,234.248L102.961,234.373L103.085,234.499L103.21,234.625L103.333,234.752L103.456,234.878L103.579,235.006L103.701,235.134L103.823,235.262L103.944,235.39L104.065,235.52L104.185,235.649L104.305,235.779L104.425,235.909L104.544,236.04L104.662,236.171L104.78,236.302L104.898,236.435L105.014,236.567L105.131,236.7L105.247,236.833L105.362,236.966L105.478,237.1L105.592,237.235L105.706,237.37L105.82,237.505L105.933,237.64L106.046,237.776L106.158,237.913L106.269,238.049L106.376,238.182L107.372,239.416L108.348,240.625L108.83,241.221L109.311,241.814L109.791,242.404L110.27,242.991L110.749,243.577L111.23,244.162L111.712,244.746L112.2,245.333L112.442,245.624L112.687,245.918L112.934,246.212L113.181,246.506L113.43,246.801L113.68,247.097L113.932,247.394L114.186,247.692L114.441,247.991L114.699,248.291L114.958,248.593L115.219,248.895L115.483,249.2L115.749,249.506L116.017,249.813L116.288,250.122L116.562,250.434L116.838,250.747L117.117,251.062L117.399,251.379L117.685,251.699L117.973,252.021L118.265,252.345L118.56,252.672L118.859,253.001L119.161,253.333L119.467,253.668L119.777,254.006L120.091,254.347L120.409,254.691L120.731,255.038L121.057,255.388L121.388,255.742L121.723,256.099L122.063,256.459L122.407,256.823L122.756,257.191L123.11,257.563L123.469,257.939L123.833,258.318L124.203,258.702L124.577,259.09L124.957,259.482L125.343,259.878L125.734,260.279L126.131,260.684L126.534,261.094L126.942,261.508L127.357,261.927L127.777,262.351L128.204,262.78L128.637,263.214L129.077,263.653L129.523,264.097L129.976,264.546L130.435,265.001L130.902,265.461L131.375,265.927L131.855,266.398L132.342,266.875L132.837,267.357L133.339,267.846L133.848,268.34L134.364,268.841L134.889,269.347L135.421,269.86L135.961,270.378L136.508,270.904L137.064,271.435L137.628,271.973L138.2,272.518L138.78,273.069L139.369,273.627L139.966,274.192L140.572,274.764L141.186,275.343L141.81,275.929L142.442,276.522L143.083,277.122L143.733,277.73L144.392,278.345L145.061,278.967L145.739,279.597L146.426,280.235L147.123,280.88L147.83,281.534L148.547,282.195L149.273,282.864L150.009,283.541L150.756,284.227L151.512,284.92L152.279,285.622L153.056,286.332L153.843,287.051L154.641,287.779L155.45,288.515L156.27,289.259L157.1,290.013L157.941,290.775L158.793,291.547L159.657,292.327L160.531,293.117L161.417,293.915L162.308,294.718L162.512,294.9L162.709,295.074L162.905,295.246L163.102,295.416L163.298,295.584L163.494,295.749L163.69,295.913L163.886,296.075L164.081,296.234L164.277,296.392L164.472,296.548L164.667,296.701L164.861,296.852L165.056,297.002L165.251,297.15L165.445,297.295L165.639,297.439L165.833,297.58L166.026,297.72L166.22,297.858L166.413,297.994L166.606,298.128L166.799,298.26L166.992,298.39L167.184,298.519L167.376,298.645L167.568,298.77L167.76,298.893L167.952,299.014L168.143,299.133L168.334,299.25L168.525,299.366L168.716,299.48L168.907,299.592L169.097,299.703L169.287,299.811L169.478,299.918L169.668,300.023L169.857,300.127L170.047,300.229L170.236,300.329L170.425,300.427L170.614,300.524L170.803,300.619L170.991,300.713L171.179,300.805L171.367,300.895L171.556,300.984L171.743,301.071L171.931,301.157L172.118,301.241L172.306,301.323L172.493,301.404L172.68,301.483L172.867,301.561L173.053,301.637L173.239,301.712L173.426,301.785L173.612,301.857L173.798,301.928L173.984,301.996L174.17,302.064L174.356,302.13L174.541,302.194L174.727,302.258L174.912,302.319L175.097,302.379L175.282,302.438L175.467,302.496L175.652,302.552L175.836,302.607L176.021,302.66L176.205,302.712L176.39,302.763L176.575,302.812L176.759,302.86L176.943,302.906L177.127,302.952L177.311,302.996L177.495,303.039L177.679,303.08L177.863,303.12L178.047,303.159L178.231,303.196L178.414,303.233L178.598,303.268L178.781,303.301L178.965,303.334L179.149,303.365L179.333,303.395L179.515,303.424L179.699,303.452L179.883,303.478L180.066,303.503L180.25,303.527L180.433,303.55L180.617,303.571L180.8,303.592L180.983,303.611L181.167,303.629L181.351,303.646L181.534,303.661L181.717,303.676L181.901,303.689L182.085,303.701L182.268,303.712L182.451,303.722L182.635,303.73L182.819,303.738L183.002,303.744L183.186,303.75L183.37,303.754L183.553,303.757L183.737,303.759L183.922,303.759L184.106,303.759L184.289,303.758L184.474,303.755L184.657,303.752L184.841,303.747L185.025,303.741L185.21,303.734L185.394,303.726L185.578,303.717L185.763,303.707L185.947,303.696L186.132,303.683L186.316,303.67L186.5,303.655L186.685,303.64L186.87,303.623L187.055,303.606L187.239,303.587L187.424,303.567L187.609,303.546L187.794,303.525L187.979,303.502L188.164,303.478L188.349,303.453L188.534,303.427L188.719,303.4L188.905,303.372L189.09,303.343L189.275,303.313L189.46,303.282L189.646,303.25L189.831,303.217L190.016,303.183L190.202,303.148L190.388,303.112L190.574,303.075L190.759,303.037L190.944,302.998L191.131,302.958L191.316,302.917L191.501,302.875L191.688,302.832L191.873,302.788L192.059,302.743L192.245,302.697L192.431,302.651L192.616,302.603L192.802,302.554L192.988,302.505L193.174,302.454L193.36,302.403L193.546,302.351L193.732,302.297L193.917,302.243L194.103,302.188L194.289,302.132L194.474,302.075L194.66,302.017L194.847,301.958L195.032,301.899L195.218,301.838L195.403,301.777L195.589,301.715L195.775,301.652L195.96,301.588L196.146,301.523L196.331,301.457L196.516,301.391L196.702,301.323L196.887,301.255L197.072,301.185L197.258,301.115L197.442,301.045L197.627,300.973L197.812,300.901L197.997,300.827L198.182,300.753L198.366,300.678L198.551,300.603L198.736,300.526L198.92,300.449L199.104,300.371L199.288,300.292L199.472,300.212L199.656,300.132L199.84,300.05L200.024,299.969L200.208,299.886L200.391,299.802L200.574,299.718L200.758,299.633L200.941,299.548L201.124,299.461L201.306,299.374L201.489,299.286L201.671,299.198L201.854,299.109L202.036,299.019L202.218,298.928L202.4,298.837L202.581,298.745L202.763,298.652L202.944,298.559L203.125,298.465L203.306,298.37L203.487,298.275L203.668,298.178L203.848,298.082L204.028,297.985L204.208,297.887L204.388,297.788L204.567,297.689L204.747,297.59L204.926,297.489L205.105,297.388L205.283,297.287L205.462,297.185L205.64,297.082L205.818,296.979L205.996,296.875L206.173,296.77L206.351,296.665L206.528,296.56L206.704,296.454L206.881,296.347L207.057,296.24L207.233,296.133L207.408,296.025L207.584,295.916L207.759,295.807L207.934,295.697L208.108,295.587L208.283,295.476L208.457,295.365L208.631,295.254L208.804,295.142L208.977,295.029L209.15,294.916L209.322,294.803L209.494,294.689L209.666,294.575L209.838,294.46L210.009,294.345L210.18,294.229L210.351,294.114L210.521,293.997L210.691,293.88L210.86,293.764L211.03,293.646L211.199,293.528L211.367,293.41L211.535,293.291L211.703,293.172L211.87,293.053L212.037,292.934L212.204,292.814L212.368,292.696L212.702,292.452L213.032,292.209L213.361,291.965L213.688,291.72L214.014,291.474L214.337,291.227L214.66,290.979L214.98,290.73L215.299,290.481L215.616,290.23L215.932,289.979L216.245,289.727L216.557,289.475L216.867,289.222L217.175,288.968L217.482,288.714L217.786,288.46L218.089,288.205L218.389,287.95L218.688,287.695L218.984,287.439L219.279,287.184L219.572,286.928L219.862,286.672L220.151,286.417L220.437,286.161L220.722,285.906L221.004,285.651L221.284,285.396L221.562,285.142L221.837,284.888L222.11,284.634L222.382,284.381L222.65,284.128L222.917,283.876L223.181,283.625L223.443,283.374L223.703,283.124L223.96,282.875L224.214,282.627L224.467,282.38L224.717,282.134L224.964,281.889L225.209,281.645L225.451,281.402L225.691,281.161L225.928,280.92L226.163,280.681L226.395,280.444L226.624,280.208L226.851,279.973L227.075,279.74L227.297,279.509L227.515,279.279L227.731,279.051L227.945,278.825L228.155,278.6L228.363,278.378L228.568,278.157L228.77,277.939L228.969,277.723L229.165,277.508L229.359,277.296L229.549,277.086L229.737,276.879L229.922,276.673L230.103,276.471L230.282,276.27L230.458,276.072L230.63,275.877L230.8,275.685L230.967,275.495L231.13,275.307L231.29,275.123L231.448,274.942L231.599,274.766L231.9,274.415L232.186,274.079L232.459,273.756L232.718,273.446L232.965,273.149L233.198,272.867L233.417,272.6L233.622,272.347L233.814,272.11L233.991,271.889L234.154,271.684L234.303,271.496L234.437,271.325L234.557,271.172L234.662,271.037L234.748,270.925L234.886,270.745L234.96,270.647L235.07,270.5L243.44,260.22L252.972,248.515L265.373,233.287L280.101,215.204L296.611,194.934L314.36,173.147L323.529,161.892L332.804,150.509L342.117,139.081L351.399,127.69L360.583,116.422L369.601,105.358L378.385,94.584L386.867,84.182L394.979,74.236L402.654,64.829L409.822,56.045L413.195,51.913L416.416,47.967L419.477,44.22L422.369,40.68L425.083,37.358L427.612,34.265L429.947,31.411L432.079,28.807L433.999,26.462L435.701,24.387L437.174,22.592L437.824,21.802L438.414,21.086L438.943,20.444L439.41,19.878L439.817,19.388L440.167,18.966L440.348,18.75L440.538,18.528L440.729,18.307L440.923,18.087L441.119,17.868L441.316,17.649L441.516,17.432L441.718,17.215L441.922,17L442.128,16.786L442.336,16.572L442.546,16.359L442.758,16.148L442.971,15.937L443.187,15.727L443.405,15.518L443.625,15.311L443.846,15.104L444.07,14.898L444.295,14.693L444.522,14.489L444.752,14.286L444.983,14.084L445.215,13.883L445.45,13.683L445.687,13.484L445.926,13.286L446.166,13.089L446.408,12.893L446.652,12.698L446.898,12.504L447.145,12.311L447.394,12.119L447.645,11.928L447.898,11.739L448.152,11.55L448.409,11.362L448.667,11.176L448.926,10.99L449.188,10.806L449.451,10.623L449.716,10.441L449.982,10.259L450.251,10.079L450.52,9.901L450.792,9.723L451.065,9.546L451.34,9.371L451.616,9.197L451.894,9.024L452.174,8.852L452.456,8.681L452.738,8.512L453.023,8.344L453.309,8.177L453.596,8.011L453.886,7.847L454.176,7.684L454.469,7.522L454.762,7.361L455.058,7.202L455.355,7.044L455.653,6.887L455.953,6.732L456.254,6.578L456.557,6.425L456.862,6.274L457.167,6.124L457.475,5.975L457.783,5.828L458.093,5.682L458.405,5.538L458.718,5.395L459.032,5.253L459.348,5.113L459.665,4.975L459.984,4.838L460.304,4.702L460.625,4.568L460.948,4.436L461.272,4.305L461.597,4.175L461.924,4.047L462.252,3.921L462.581,3.796L462.912,3.673L463.244,3.552L463.577,3.432L463.911,3.314L464.247,3.197L464.584,3.082L464.922,2.969L465.261,2.858L465.602,2.748L465.944,2.64L466.287,2.533L466.631,2.429L466.977,2.326L467.323,2.225L467.671,2.126L468.02,2.029L468.37,1.933L468.721,1.839L469.074,1.747L469.427,1.657L469.782,1.569L470.138,1.483L470.494,1.399L470.852,1.316L471.211,1.236L471.571,1.158L471.932,1.081L472.294,1.007L472.657,0.934L473.021,0.864L473.386,0.795L473.752,0.729L474.119,0.665L474.487,0.602L474.856,0.542L475.226,0.484L475.597,0.428L475.969,0.375L476.342,0.323L476.715,0.274L477.09,0.227L477.46,0.182L477.653,0.16L477.841,0.139L478.03,0.118L478.219,0.098L478.408,0.079L478.596,0.06L478.786,0.042L478.975,0.024L479.165,0.007L479.355,-0.009L479.545,-0.025L479.735,-0.041L479.926,-0.056L480.117,-0.07L480.308,-0.084L480.499,-0.097L480.69,-0.109L480.881,-0.121L481.073,-0.132L481.265,-0.143L481.457,-0.153L481.649,-0.162L481.842,-0.171L482.034,-0.18L482.227,-0.187L482.42,-0.194L482.613,-0.201L482.806,-0.207L483,-0.212L483.194,-0.217L483.387,-0.221L483.581,-0.224L483.776,-0.227L483.97,-0.229L484.165,-0.23L484.359,-0.231L484.554,-0.232L484.749,-0.231ZM484.401,14.02L484.253,14.02L484.104,14.022L483.956,14.023L483.808,14.025L483.659,14.028L483.511,14.031L483.363,14.035L483.215,14.039L483.067,14.043L482.92,14.048L482.772,14.053L482.624,14.059L482.477,14.066L482.33,14.072L482.182,14.08L482.035,14.087L481.888,14.096L481.741,14.104L481.594,14.113L481.448,14.123L481.301,14.133L481.155,14.143L481.008,14.154L480.862,14.166L480.716,14.177L480.57,14.19L480.424,14.202L480.278,14.216L480.133,14.229L479.987,14.243L479.842,14.258L479.697,14.273L479.552,14.288L479.407,14.304L479.262,14.32L479.122,14.336L478.828,14.371L478.539,14.408L478.252,14.446L477.964,14.486L477.677,14.527L477.391,14.57L477.106,14.615L476.821,14.661L476.536,14.709L476.253,14.759L475.97,14.81L475.687,14.863L475.406,14.918L475.125,14.974L474.845,15.031L474.565,15.091L474.286,15.151L474.008,15.214L473.731,15.278L473.454,15.343L473.179,15.41L472.904,15.478L472.63,15.548L472.356,15.619L472.084,15.692L471.812,15.766L471.541,15.842L471.271,15.919L471.002,15.997L470.734,16.077L470.467,16.158L470.201,16.24L469.935,16.324L469.671,16.41L469.407,16.496L469.145,16.584L468.883,16.673L468.623,16.764L468.363,16.855L468.105,16.948L467.847,17.042L467.591,17.138L467.336,17.235L467.081,17.332L466.828,17.432L466.576,17.532L466.325,17.633L466.075,17.736L465.827,17.84L465.579,17.944L465.333,18.05L465.088,18.157L464.844,18.266L464.602,18.375L464.36,18.485L464.12,18.596L463.881,18.708L463.643,18.822L463.407,18.936L463.172,19.051L462.938,19.168L462.706,19.285L462.475,19.403L462.245,19.522L462.016,19.642L461.79,19.763L461.564,19.884L461.34,20.007L461.117,20.13L460.896,20.255L460.676,20.38L460.458,20.505L460.241,20.632L460.025,20.759L459.811,20.888L459.599,21.016L459.388,21.146L459.179,21.276L458.971,21.407L458.765,21.538L458.561,21.67L458.358,21.803L458.156,21.937L457.957,22.071L457.759,22.205L457.562,22.34L457.367,22.476L457.175,22.612L456.983,22.749L456.794,22.886L456.606,23.023L456.42,23.161L456.235,23.3L456.053,23.438L455.872,23.577L455.693,23.717L455.516,23.857L455.341,23.997L455.167,24.137L454.995,24.278L454.826,24.419L454.658,24.56L454.492,24.702L454.328,24.843L454.166,24.985L454.005,25.127L453.847,25.269L453.691,25.411L453.537,25.553L453.384,25.696L453.234,25.838L453.086,25.98L452.939,26.122L452.795,26.265L452.653,26.407L452.512,26.549L452.374,26.69L452.238,26.832L452.104,26.974L451.972,27.115L451.843,27.256L451.715,27.397L451.59,27.538L451.467,27.678L451.345,27.818L451.226,27.957L451.103,28.104L450.784,28.488L450.392,28.961L449.934,29.515L449.413,30.148L448.829,30.857L448.185,31.64L446.718,33.427L445.022,35.495L443.105,37.835L440.976,40.436L438.644,43.287L436.117,46.377L433.404,49.697L430.514,53.235L427.454,56.981L424.234,60.925L420.862,65.056L413.695,73.838L406.023,83.244L397.912,93.188L389.431,103.589L380.647,114.363L371.63,125.426L362.446,136.693L353.164,148.083L343.852,159.511L334.578,170.894L325.409,182.148L307.661,203.935L291.151,224.204L276.424,242.286L264.022,257.514L254.491,269.218L246.306,279.27L246.352,279.21L246.233,279.367L246.052,279.604L245.933,279.758L245.802,279.927L245.655,280.115L245.492,280.322L245.315,280.546L245.123,280.787L244.915,281.046L244.693,281.32L244.457,281.611L244.206,281.918L243.94,282.24L243.661,282.576L243.367,282.927L243.059,283.291L242.738,283.669L242.405,284.057L242.23,284.26L242.054,284.464L241.874,284.67L241.691,284.879L241.506,285.091L241.316,285.307L241.123,285.525L240.927,285.745L240.728,285.968L240.526,286.195L240.32,286.423L240.111,286.654L239.899,286.888L239.684,287.124L239.465,287.362L239.243,287.603L239.019,287.846L238.791,288.091L238.56,288.339L238.326,288.588L238.089,288.84L237.848,289.093L237.605,289.349L237.359,289.606L237.11,289.865L236.857,290.126L236.602,290.389L236.344,290.653L236.083,290.919L235.818,291.187L235.551,291.456L235.281,291.726L235.009,291.998L234.733,292.271L234.454,292.546L234.173,292.822L233.889,293.099L233.601,293.377L233.311,293.656L233.019,293.936L232.723,294.217L232.425,294.499L232.124,294.782L231.82,295.065L231.514,295.35L231.205,295.635L230.893,295.92L230.578,296.207L230.261,296.493L229.941,296.781L229.619,297.068L229.294,297.356L228.966,297.645L228.635,297.933L228.302,298.222L227.967,298.511L227.629,298.8L227.288,299.089L226.945,299.378L226.599,299.667L226.251,299.956L225.9,300.244L225.547,300.533L225.191,300.821L224.833,301.109L224.472,301.396L224.109,301.683L223.743,301.969L223.375,302.255L223.005,302.54L222.632,302.824L222.257,303.108L221.879,303.39L221.499,303.672L221.117,303.954L220.736,304.231L220.539,304.373L220.346,304.512L220.151,304.652L219.956,304.791L219.76,304.929L219.564,305.067L219.367,305.206L219.17,305.343L218.973,305.48L218.774,305.617L218.575,305.754L218.375,305.891L218.175,306.027L217.974,306.162L217.773,306.298L217.571,306.432L217.369,306.567L217.166,306.701L216.962,306.835L216.758,306.969L216.554,307.102L216.348,307.234L216.142,307.366L215.936,307.498L215.729,307.629L215.522,307.76L215.313,307.891L215.105,308.021L214.896,308.15L214.686,308.279L214.476,308.408L214.265,308.536L214.054,308.664L213.842,308.791L213.629,308.918L213.416,309.044L213.203,309.169L212.988,309.295L212.774,309.419L212.559,309.543L212.343,309.667L212.126,309.79L211.909,309.912L211.692,310.034L211.475,310.155L211.256,310.275L211.037,310.395L210.817,310.515L210.597,310.634L210.376,310.752L210.156,310.869L209.934,310.986L209.712,311.102L209.489,311.218L209.265,311.333L209.042,311.447L208.817,311.561L208.592,311.674L208.367,311.786L208.141,311.898L207.915,312.009L207.688,312.119L207.46,312.228L207.232,312.337L207.004,312.445L206.774,312.552L206.545,312.658L206.315,312.764L206.084,312.869L205.853,312.973L205.621,313.077L205.389,313.179L205.156,313.281L204.923,313.382L204.689,313.482L204.455,313.581L204.22,313.68L203.985,313.777L203.749,313.874L203.513,313.97L203.276,314.065L203.039,314.159L202.801,314.252L202.562,314.344L202.323,314.436L202.084,314.526L201.844,314.616L201.604,314.704L201.363,314.792L201.122,314.879L200.879,314.965L200.637,315.049L200.394,315.133L200.151,315.216L199.907,315.298L199.663,315.379L199.417,315.459L199.172,315.537L198.927,315.615L198.681,315.691L198.434,315.767L198.186,315.842L197.938,315.915L197.69,315.988L197.441,316.059L197.191,316.129L196.942,316.198L196.693,316.266L196.442,316.333L196.191,316.399L195.939,316.463L195.686,316.527L195.434,316.589L195.181,316.65L194.927,316.71L194.674,316.768L194.419,316.826L194.164,316.882L193.91,316.937L193.654,316.991L193.397,317.043L193.141,317.094L192.884,317.144L192.627,317.193L192.368,317.24L192.11,317.286L191.851,317.331L191.592,317.375L191.332,317.417L191.072,317.457L190.811,317.497L190.551,317.535L190.289,317.571L190.027,317.607L189.765,317.64L189.503,317.673L189.24,317.704L188.977,317.734L188.713,317.762L188.448,317.788L188.184,317.814L187.919,317.837L187.654,317.86L187.388,317.881L187.122,317.9L186.856,317.918L186.589,317.934L186.322,317.949L186.055,317.962L185.787,317.974L185.519,317.984L185.251,317.992L184.982,317.999L184.713,318.004L184.444,318.008L184.174,318.01L183.904,318.011L183.634,318.01L183.364,318.007L183.093,318.002L182.821,317.996L182.55,317.988L182.278,317.979L182.006,317.968L181.734,317.955L181.462,317.94L181.189,317.924L180.917,317.906L180.644,317.886L180.371,317.865L180.097,317.841L179.823,317.816L179.549,317.79L179.275,317.761L179.001,317.731L178.727,317.698L178.452,317.664L178.178,317.629L177.902,317.591L177.627,317.551L177.353,317.51L177.077,317.467L176.801,317.422L176.526,317.375L176.251,317.326L175.975,317.275L175.699,317.223L175.423,317.168L175.147,317.112L174.872,317.054L174.596,316.994L174.319,316.931L174.043,316.867L173.768,316.801L173.491,316.733L173.215,316.663L172.939,316.591L172.663,316.518L172.387,316.442L172.111,316.364L171.835,316.284L171.559,316.203L171.283,316.119L171.007,316.033L170.731,315.945L170.456,315.856L170.179,315.764L169.904,315.67L169.629,315.574L169.353,315.476L169.079,315.377L168.803,315.275L168.528,315.171L168.253,315.065L167.979,314.957L167.704,314.847L167.43,314.734L167.156,314.62L166.882,314.504L166.608,314.386L166.334,314.265L166.061,314.143L165.788,314.018L165.515,313.892L165.242,313.763L164.97,313.632L164.698,313.499L164.425,313.364L164.154,313.227L163.882,313.088L163.611,312.947L163.34,312.803L163.069,312.658L162.799,312.51L162.529,312.36L162.259,312.209L161.989,312.055L161.72,311.898L161.451,311.74L161.183,311.58L160.915,311.418L160.647,311.253L160.379,311.086L160.112,310.918L159.845,310.747L159.578,310.574L159.312,310.398L159.046,310.221L158.781,310.041L158.516,309.86L158.251,309.676L157.986,309.49L157.722,309.302L157.459,309.112L157.196,308.919L156.932,308.725L156.67,308.528L156.408,308.329L156.146,308.128L155.885,307.925L155.624,307.719L155.363,307.512L155.103,307.302L154.844,307.09L154.584,306.876L154.326,306.66L154.067,306.441L153.809,306.221L153.551,305.998L153.294,305.773L153.038,305.546L152.788,305.322L151.877,304.502L150.985,303.698L150.104,302.902L149.233,302.116L148.374,301.338L147.526,300.569L146.689,299.809L145.862,299.058L145.046,298.315L144.24,297.581L143.445,296.855L142.66,296.137L141.885,295.428L141.12,294.727L140.366,294.034L139.621,293.349L138.886,292.672L138.161,292.003L137.445,291.341L136.739,290.687L136.042,290.041L135.355,289.402L134.677,288.771L134.008,288.147L133.347,287.53L132.696,286.92L132.054,286.317L131.42,285.721L130.795,285.133L130.178,284.55L129.57,283.975L128.97,283.406L128.378,282.844L127.795,282.288L127.219,281.739L126.651,281.196L126.091,280.659L125.539,280.128L124.994,279.603L124.457,279.085L123.927,278.572L123.405,278.064L122.89,277.563L122.382,277.067L121.88,276.576L121.386,276.091L120.899,275.612L120.418,275.137L119.944,274.668L119.476,274.204L119.015,273.745L118.56,273.291L118.111,272.841L117.669,272.397L117.232,271.957L116.802,271.521L116.377,271.09L115.958,270.664L115.544,270.242L115.137,269.824L114.734,269.41L114.337,269.001L113.945,268.595L113.558,268.193L113.177,267.795L112.8,267.401L112.428,267.011L112.061,266.624L111.699,266.241L111.341,265.861L110.987,265.484L110.638,265.111L110.294,264.741L109.953,264.374L109.617,264.01L109.285,263.649L108.956,263.292L108.632,262.936L108.311,262.584L107.994,262.234L107.68,261.887L107.37,261.542L107.063,261.2L106.76,260.86L106.46,260.523L106.162,260.187L105.868,259.854L105.577,259.523L105.289,259.194L105.003,258.866L104.72,258.541L104.44,258.218L104.162,257.896L103.887,257.575L103.613,257.257L103.342,256.939L103.074,256.624L102.807,256.309L102.542,255.996L102.279,255.684L102.018,255.373L101.758,255.064L101.5,254.755L101.242,254.445L100.735,253.834L100.231,253.223L99.731,252.615L99.234,252.008L98.74,251.402L98.248,250.797L97.756,250.191L97.265,249.584L96.281,248.366L95.292,247.138L95.209,247.037L95.131,246.94L95.052,246.844L94.972,246.748L94.892,246.652L94.812,246.557L94.731,246.461L94.65,246.366L94.569,246.271L94.486,246.176L94.404,246.082L94.321,245.988L94.238,245.893L94.155,245.8L94.071,245.706L93.986,245.613L93.901,245.519L93.816,245.426L93.73,245.334L93.644,245.241L93.558,245.149L93.471,245.057L93.384,244.965L93.296,244.873L93.208,244.782L93.12,244.69L93.031,244.599L92.942,244.509L92.852,244.418L92.762,244.328L92.671,244.238L92.581,244.148L92.49,244.058L92.398,243.969L92.306,243.88L92.214,243.791L92.121,243.703L92.028,243.614L91.934,243.526L91.84,243.438L91.746,243.351L91.652,243.263L91.556,243.176L91.461,243.089L91.365,243.002L91.269,242.916L91.173,242.83L91.076,242.744L90.978,242.658L90.881,242.573L90.783,242.488L90.685,242.403L90.586,242.318L90.491,242.238L90.287,242.066L90.087,241.899L89.884,241.733L89.681,241.569L89.476,241.405L89.269,241.242L89.062,241.081L88.853,240.921L88.642,240.761L88.43,240.603L88.217,240.446L88.002,240.29L87.786,240.136L87.569,239.982L87.35,239.83L87.131,239.678L86.909,239.528L86.687,239.379L86.463,239.232L86.238,239.085L86.012,238.94L85.785,238.796L85.556,238.653L85.326,238.512L85.095,238.371L84.863,238.232L84.629,238.094L84.395,237.958L84.159,237.823L83.922,237.689L83.684,237.556L83.445,237.425L83.205,237.295L82.963,237.166L82.721,237.038L82.477,236.912L82.233,236.788L81.987,236.664L81.74,236.542L81.493,236.421L81.244,236.302L80.994,236.184L80.744,236.068L80.492,235.953L80.239,235.839L79.986,235.727L79.731,235.616L79.476,235.506L79.219,235.398L78.962,235.291L78.703,235.186L78.444,235.082L78.185,234.98L77.924,234.88L77.662,234.78L77.399,234.682L77.136,234.586L76.872,234.491L76.607,234.398L76.342,234.306L76.075,234.216L75.808,234.127L75.54,234.039L75.271,233.954L75.002,233.87L74.731,233.787L74.461,233.706L74.189,233.626L73.917,233.548L73.644,233.472L73.37,233.397L73.096,233.324L72.821,233.252L72.546,233.182L72.27,233.114L71.993,233.047L71.716,232.982L71.438,232.918L71.16,232.856L70.881,232.796L70.602,232.737L70.322,232.68L70.041,232.625L69.76,232.571L69.479,232.519L69.197,232.469L68.915,232.42L68.632,232.373L68.348,232.328L68.065,232.284L67.781,232.242L67.496,232.202L67.211,232.164L66.926,232.127L66.64,232.092L66.354,232.058L66.068,232.027L65.781,231.997L65.494,231.969L65.207,231.942L64.92,231.918L64.632,231.895L64.338,231.873L64.199,231.864L64.055,231.854L63.911,231.845L63.766,231.837L63.622,231.829L63.478,231.821L63.333,231.814L63.189,231.807L63.044,231.8L62.899,231.795L62.754,231.789L62.61,231.784L62.465,231.78L62.32,231.776L62.175,231.772L62.03,231.769L61.885,231.766L61.74,231.764L61.595,231.762L61.45,231.76L61.304,231.759L61.159,231.759L61.014,231.759L60.869,231.759L60.724,231.76L60.578,231.762L60.433,231.764L60.287,231.766L60.142,231.768L59.996,231.772L59.851,231.775L59.706,231.779L59.56,231.784L59.414,231.789L59.269,231.795L59.124,231.8L58.978,231.807L58.832,231.814L58.686,231.821L58.541,231.829L58.395,231.837L58.25,231.846L58.104,231.855L57.958,231.865L57.813,231.875L57.667,231.886L57.521,231.897L57.375,231.908L57.229,231.92L57.084,231.933L56.939,231.946L56.793,231.959L56.647,231.973L56.501,231.988L56.355,232.003L56.21,232.018L56.064,232.034L55.918,232.05L55.773,232.067L55.628,232.084L55.482,232.102L55.336,232.12L55.191,232.139L55.045,232.158L54.9,232.178L54.754,232.198L54.609,232.218L54.463,232.24L54.318,232.261L54.173,232.283L54.027,232.306L53.881,232.329L53.736,232.352L53.591,232.376L53.445,232.401L53.3,232.426L53.155,232.451L53.01,232.477L52.865,232.504L52.72,232.531L52.575,232.558L52.429,232.586L52.285,232.615L52.14,232.643L51.995,232.673L51.85,232.703L51.705,232.733L51.56,232.764L51.415,232.795L51.271,232.827L51.127,232.86L50.982,232.893L50.837,232.926L50.693,232.96L50.549,232.994L50.404,233.029L50.259,233.064L50.115,233.1L49.971,233.137L49.827,233.174L49.683,233.211L49.539,233.249L49.395,233.287L49.251,233.326L49.107,233.366L48.964,233.405L48.82,233.446L48.676,233.487L48.533,233.528L48.389,233.57L48.246,233.613L48.102,233.656L47.959,233.699L47.816,233.743L47.673,233.788L47.53,233.833L47.386,233.878L47.244,233.924L47.101,233.971L46.958,234.018L46.815,234.066L46.673,234.114L46.531,234.162L46.388,234.211L46.246,234.261L46.103,234.311L45.962,234.362L45.819,234.413L45.677,234.465L45.535,234.517L45.394,234.57L45.252,234.623L45.11,234.677L44.969,234.732L44.827,234.787L44.686,234.842L44.545,234.898L44.404,234.955L44.263,235.012L44.122,235.069L43.981,235.127L43.84,235.186L43.699,235.245L43.559,235.305L43.418,235.365L43.278,235.426L43.138,235.487L42.998,235.549L42.858,235.611L42.718,235.674L42.578,235.738L42.438,235.802L42.299,235.867L42.159,235.932L42.02,235.997L41.881,236.063L41.741,236.13L41.602,236.198L41.464,236.265L41.325,236.334L41.186,236.403L41.048,236.472L40.909,236.542L40.771,236.613L40.632,236.684L40.494,236.756L40.357,236.828L40.219,236.901L40.081,236.974L39.943,237.048L39.806,237.123L39.669,237.198L39.532,237.273L39.394,237.35L39.257,237.427L39.121,237.504L38.984,237.582L38.848,237.66L38.711,237.739L38.575,237.819L38.438,237.899L38.303,237.98L38.167,238.061L38.031,238.143L37.896,238.225L37.76,238.308L37.625,238.392L37.489,238.476L37.355,238.561L37.22,238.646L37.085,238.732L36.95,238.819L36.816,238.906L36.682,238.994L36.548,239.082L36.414,239.171L36.28,239.26L36.146,239.35L36.013,239.441L35.879,239.532L35.746,239.624L35.613,239.716L35.48,239.809L35.347,239.903L35.214,239.997L35.082,240.092L34.95,240.187L34.818,240.283L34.686,240.38L34.554,240.477L34.422,240.575L34.291,240.673L34.159,240.772L34.028,240.872L33.897,240.972L33.766,241.073L33.636,241.174L33.505,241.276L33.375,241.379L33.245,241.482L33.115,241.586L32.985,241.691L32.855,241.796L32.726,241.902L32.596,242.008L32.468,242.115L32.339,242.223L32.21,242.331L32.081,242.44L31.953,242.549L31.825,242.659L31.697,242.77L31.569,242.882L31.441,242.994L31.314,243.107L31.186,243.22L31.059,243.334L30.932,243.448L30.806,243.564L30.679,243.679L30.553,243.796L30.427,243.913L30.301,244.031L30.175,244.149L30.05,244.268L29.924,244.388L29.799,244.509L29.674,244.63L29.549,244.752L29.425,244.874L29.301,244.997L29.176,245.121L29.05,245.248L28.924,245.375L28.798,245.502L28.673,245.63L28.549,245.757L28.425,245.885L28.302,246.012L28.18,246.14L28.058,246.268L27.937,246.396L27.817,246.524L27.697,246.652L27.578,246.78L27.46,246.908L27.342,247.036L27.224,247.164L27.108,247.293L26.991,247.421L26.876,247.55L26.761,247.678L26.647,247.807L26.534,247.936L26.421,248.064L26.308,248.193L26.197,248.322L26.085,248.451L25.975,248.58L25.865,248.709L25.756,248.838L25.647,248.967L25.539,249.096L25.432,249.225L25.325,249.354L25.218,249.484L25.113,249.613L25.008,249.742L24.903,249.872L24.799,250.001L24.696,250.131L24.593,250.26L24.491,250.39L24.389,250.519L24.288,250.649L24.188,250.779L24.088,250.909L23.989,251.039L23.89,251.169L23.792,251.298L23.695,251.428L23.598,251.558L23.501,251.688L23.405,251.818L23.31,251.949L23.216,252.079L23.121,252.209L23.028,252.339L22.935,252.469L22.842,252.6L22.75,252.73L22.659,252.86L22.568,252.99L22.478,253.121L22.388,253.251L22.299,253.382L22.211,253.512L22.123,253.643L22.035,253.773L21.948,253.904L21.862,254.034L21.776,254.165L21.691,254.295L21.606,254.426L21.521,254.557L21.438,254.687L21.354,254.818L21.272,254.949L21.19,255.079L21.108,255.21L21.027,255.341L20.947,255.472L20.867,255.603L20.787,255.733L20.708,255.864L20.63,255.995L20.552,256.126L20.477,256.252L20.321,256.519L20.169,256.781L20.02,257.042L19.873,257.304L19.728,257.566L19.585,257.828L19.443,258.09L19.304,258.352L19.167,258.614L19.032,258.876L18.898,259.138L18.767,259.4L18.637,259.662L18.51,259.924L18.384,260.186L18.26,260.448L18.138,260.71L18.018,260.972L17.9,261.233L17.783,261.495L17.669,261.757L17.556,262.018L17.445,262.28L17.336,262.541L17.229,262.803L17.124,263.064L17.02,263.325L16.918,263.586L16.818,263.848L16.719,264.109L16.623,264.369L16.528,264.63L16.434,264.891L16.343,265.151L16.253,265.411L16.165,265.672L16.078,265.932L15.994,266.192L15.911,266.451L15.829,266.711L15.749,266.97L15.671,267.23L15.594,267.489L15.519,267.748L15.446,268.006L15.374,268.265L15.304,268.523L15.236,268.781L15.169,269.039L15.103,269.297L15.039,269.554L14.977,269.811L14.916,270.068L14.857,270.325L14.799,270.581L14.743,270.837L14.688,271.093L14.634,271.349L14.583,271.604L14.532,271.859L14.483,272.114L14.436,272.368L14.39,272.623L14.345,272.876L14.302,273.13L14.261,273.383L14.22,273.636L14.182,273.888L14.144,274.141L14.108,274.392L14.073,274.644L14.04,274.895L14.008,275.145L13.977,275.396L13.948,275.645L13.92,275.895L13.893,276.144L13.868,276.393L13.844,276.641L13.821,276.888L13.8,277.136L13.78,277.383L13.761,277.629L13.743,277.875L13.727,278.12L13.712,278.365L13.698,278.61L13.686,278.854L13.674,279.097L13.664,279.34L13.655,279.582L13.647,279.824L13.641,280.066L13.636,280.306L13.631,280.547L13.628,280.786L13.626,281.025L13.626,281.264L13.626,281.502L13.628,281.739L13.63,281.975L13.634,282.211L13.639,282.447L13.645,282.682L13.652,282.916L13.66,283.149L13.669,283.382L13.679,283.614L13.691,283.845L13.703,284.076L13.716,284.306L13.731,284.535L13.746,284.764L13.763,284.991L13.78,285.219L13.798,285.445L13.818,285.67L13.838,285.895L13.859,286.119L13.882,286.342L13.905,286.565L13.929,286.786L13.954,287.007L13.98,287.227L14.007,287.446L14.035,287.664L14.063,287.882L14.093,288.098L14.123,288.314L14.154,288.528L14.186,288.742L14.219,288.955L14.253,289.167L14.287,289.378L14.323,289.588L14.359,289.797L14.396,290.005L14.434,290.213L14.472,290.419L14.511,290.624L14.551,290.828L14.592,291.031L14.633,291.233L14.675,291.434L14.718,291.635L14.762,291.834L14.806,292.031L14.851,292.228L14.897,292.424L14.943,292.619L14.99,292.812L15.037,293.005L15.085,293.196L15.134,293.386L15.183,293.575L15.233,293.762L15.284,293.949L15.335,294.134L15.386,294.318L15.438,294.502L15.491,294.683L15.544,294.864L15.598,295.043L15.652,295.221L15.707,295.397L15.762,295.573L15.817,295.747L15.873,295.919L15.93,296.091L15.986,296.261L16.044,296.43L16.101,296.597L16.159,296.763L16.218,296.927L16.277,297.09L16.336,297.252L16.395,297.412L16.455,297.571L16.515,297.729L16.575,297.885L16.636,298.039L16.696,298.192L16.758,298.343L16.819,298.493L16.88,298.641L16.942,298.788L17.004,298.933L17.066,299.077L17.128,299.219L17.191,299.359L17.253,299.498L17.316,299.635L17.378,299.771L17.441,299.904L17.504,300.036L17.566,300.167L17.629,300.295L17.692,300.422L17.755,300.547L17.817,300.671L17.88,300.792L17.942,300.912L18.005,301.03L18.067,301.146L18.129,301.26L18.191,301.373L18.252,301.483L18.314,301.592L18.375,301.698L18.436,301.803L18.496,301.905L18.557,302.006L18.611,302.095L18.661,302.176L18.721,302.271L18.798,302.389L18.889,302.527L18.994,302.684L19.112,302.859L19.242,303.049L19.384,303.255L19.537,303.475L19.702,303.71L19.877,303.959L20.064,304.221L20.26,304.496L20.466,304.784L20.683,305.085L20.909,305.397L21.144,305.722L21.39,306.059L21.645,306.407L21.908,306.767L22.181,307.139L22.463,307.521L22.754,307.915L23.053,308.319L23.361,308.734L23.677,309.159L24.337,310.043L25.028,310.967L25.752,311.931L26.507,312.934L27.292,313.975L28.108,315.053L28.952,316.167L29.825,317.317L30.726,318.501L31.654,319.719L32.609,320.969L33.589,322.251L34.594,323.564L35.623,324.907L36.676,326.279L37.752,327.679L38.85,329.107L39.97,330.562L41.11,332.042L42.271,333.548L43.452,335.077L44.651,336.63L45.868,338.205L47.103,339.801L48.355,341.418L49.623,343.055L50.907,344.711L52.205,346.385L53.518,348.077L54.843,349.784L56.182,351.508L57.533,353.246L58.895,354.998L61.652,358.54L64.446,362.128L67.272,365.755L70.126,369.413L73.001,373.097L75.893,376.8L78.795,380.514L81.704,384.233L84.612,387.951L87.515,391.66L90.408,395.354L93.285,399.026L96.14,402.67L98.97,406.278L101.767,409.844L104.527,413.362L107.244,416.824L109.913,420.223L112.529,423.554L115.086,426.808L117.579,429.981L122.352,436.051L126.804,441.711L130.893,446.907L134.575,451.584L137.809,455.689L140.55,459.169L142.757,461.968L144.386,464.035L145.84,465.878L145.95,466.032L145.957,466.041L145.987,466.081L146.036,466.145L146.11,466.239L146.146,466.285L146.191,466.342L146.242,466.404L146.298,466.473L146.358,466.546L146.423,466.624L146.494,466.707L146.569,466.795L146.649,466.888L146.733,466.985L146.824,467.088L146.918,467.194L147.018,467.304L147.123,467.419L147.232,467.538L147.347,467.661L147.466,467.788L147.591,467.918L147.72,468.052L147.855,468.19L147.994,468.331L148.139,468.475L148.289,468.623L148.444,468.774L148.604,468.928L148.768,469.085L148.939,469.244L149.114,469.407L149.294,469.571L149.48,469.739L149.675,469.913L149.768,469.995L149.866,470.081L149.966,470.168L150.067,470.255L150.169,470.343L150.274,470.432L150.378,470.52L150.485,470.61L150.592,470.7L150.701,470.79L150.812,470.881L150.923,470.972L151.036,471.064L151.15,471.156L151.265,471.248L151.382,471.341L151.5,471.434L151.62,471.528L151.74,471.622L151.863,471.716L151.986,471.81L152.11,471.905L152.236,472L152.364,472.096L152.492,472.191L152.623,472.287L152.754,472.383L152.886,472.479L153.021,472.576L153.156,472.673L153.293,472.77L153.43,472.867L153.57,472.964L153.711,473.062L153.852,473.159L153.996,473.257L154.141,473.355L154.287,473.452L154.434,473.55L154.584,473.649L154.733,473.747L154.885,473.845L155.038,473.943L155.192,474.041L155.348,474.14L155.505,474.238L155.663,474.336L155.823,474.434L155.984,474.533L156.146,474.631L156.311,474.729L156.476,474.827L156.643,474.925L156.811,475.023L156.98,475.12L157.151,475.218L157.323,475.316L157.497,475.413L157.672,475.51L157.848,475.607L158.026,475.704L158.205,475.8L158.386,475.897L158.568,475.993L158.752,476.089L158.936,476.184L159.122,476.28L159.31,476.375L159.5,476.47L159.69,476.564L159.882,476.659L160.075,476.752L160.271,476.846L160.467,476.94L160.665,477.032L160.864,477.125L161.064,477.217L161.267,477.309L161.47,477.4L161.675,477.491L161.882,477.582L162.09,477.672L162.299,477.761L162.51,477.85L162.723,477.939L162.937,478.028L163.152,478.115L163.368,478.202L163.587,478.289L163.807,478.375L164.028,478.46L164.25,478.545L164.475,478.63L164.701,478.714L164.928,478.797L165.157,478.879L165.387,478.961L165.619,479.043L165.852,479.123L166.087,479.203L166.323,479.283L166.562,479.361L166.801,479.439L167.041,479.516L167.284,479.593L167.528,479.668L167.774,479.743L168.021,479.818L168.27,479.891L168.52,479.964L168.772,480.035L169.026,480.106L169.28,480.177L169.537,480.246L169.795,480.314L170.055,480.382L170.316,480.449L170.579,480.515L170.844,480.579L171.11,480.643L171.378,480.707L171.647,480.769L171.918,480.83L172.191,480.89L172.465,480.949L172.74,481.007L173.018,481.064L173.297,481.121L173.578,481.176L173.86,481.23L174.144,481.283L174.43,481.335L174.717,481.386L175.006,481.435L175.297,481.484L175.589,481.531L175.883,481.578L176.179,481.623L176.476,481.667L176.775,481.71L177.076,481.751L177.378,481.792L177.682,481.831L177.988,481.869L178.296,481.905L178.605,481.941L178.916,481.975L179.229,482.008L179.542,482.039L179.859,482.07L180.177,482.098L180.496,482.126L180.817,482.152L181.141,482.177L181.466,482.2L181.792,482.222L182.12,482.243L182.45,482.262L182.782,482.28L183.116,482.296L183.451,482.311L183.788,482.324L184.127,482.336L184.468,482.346L184.81,482.354L185.155,482.362L185.501,482.367L185.849,482.371L186.198,482.374L186.553,482.374L186.723,482.374L186.895,482.374L187.067,482.372L187.239,482.371L187.41,482.369L187.581,482.366L187.752,482.363L187.923,482.359L188.092,482.355L188.262,482.351L188.432,482.346L188.6,482.341L188.768,482.335L188.937,482.329L189.105,482.322L189.268,482.315L189.607,482.299L189.939,482.282L190.27,482.263L190.601,482.242L190.93,482.219L191.257,482.195L191.583,482.169L191.907,482.141L192.231,482.112L192.552,482.081L192.873,482.048L193.192,482.014L193.51,481.979L193.826,481.941L194.141,481.902L194.456,481.862L194.767,481.82L195.079,481.776L195.389,481.731L195.697,481.685L196.004,481.637L196.31,481.588L196.614,481.537L196.918,481.484L197.219,481.431L197.52,481.376L197.819,481.319L198.117,481.261L198.414,481.202L198.709,481.141L199.003,481.08L199.296,481.016L199.587,480.952L199.877,480.886L200.166,480.819L200.453,480.751L200.739,480.681L201.024,480.611L201.308,480.539L201.59,480.466L201.871,480.391L202.15,480.316L202.429,480.239L202.706,480.161L202.982,480.083L203.256,480.003L203.53,479.921L203.802,479.839L204.072,479.756L204.341,479.672L204.609,479.586L204.876,479.5L205.142,479.413L205.406,479.324L205.669,479.235L205.93,479.145L206.191,479.054L206.45,478.961L206.708,478.868L206.964,478.774L207.219,478.679L207.473,478.584L207.726,478.487L207.977,478.389L208.227,478.291L208.476,478.192L208.723,478.092L208.969,477.991L209.215,477.89L209.458,477.787L209.701,477.684L209.942,477.58L210.181,477.476L210.42,477.371L210.657,477.265L210.893,477.158L211.128,477.051L211.361,476.943L211.593,476.835L211.824,476.726L212.053,476.616L212.281,476.505L212.508,476.394L212.734,476.283L212.958,476.171L213.181,476.058L213.402,475.945L213.623,475.832L213.842,475.718L214.06,475.603L214.276,475.488L214.491,475.373L214.705,475.257L214.918,475.141L215.129,475.024L215.339,474.907L215.548,474.79L215.755,474.672L215.961,474.554L216.166,474.435L216.369,474.317L216.571,474.198L216.771,474.079L216.971,473.959L217.169,473.839L217.366,473.719L217.561,473.599L217.756,473.478L217.948,473.358L218.139,473.237L218.33,473.116L218.519,472.995L218.706,472.874L218.892,472.752L219.077,472.631L219.261,472.509L219.443,472.388L219.624,472.266L219.803,472.145L219.981,472.023L220.158,471.901L220.334,471.779L220.508,471.658L220.681,471.536L220.852,471.415L221.021,471.293L221.19,471.172L221.358,471.051L221.524,470.93L221.688,470.808L221.852,470.687L222.014,470.567L222.174,470.447L222.333,470.326L222.491,470.206L222.647,470.087L222.803,469.967L222.956,469.847L223.109,469.728L223.259,469.61L223.409,469.491L223.557,469.373L223.704,469.255L223.849,469.138L223.994,469.021L224.136,468.904L224.277,468.788L224.417,468.672L224.556,468.557L224.693,468.442L224.828,468.328L224.963,468.214L225.096,468.1L225.227,467.987L225.357,467.875L225.486,467.763L225.613,467.652L225.739,467.541L225.864,467.431L225.987,467.321L226.108,467.213L226.225,467.108L226.465,466.89L226.696,466.678L226.921,466.469L227.14,466.264L227.353,466.062L227.561,465.862L227.763,465.667L227.96,465.475L228.15,465.286L228.335,465.101L228.514,464.921L228.687,464.744L228.855,464.572L229.016,464.404L229.172,464.241L229.322,464.082L229.466,463.928L229.604,463.778L229.737,463.634L229.863,463.495L229.984,463.361L230.098,463.233L230.207,463.11L230.31,462.993L230.407,462.882L230.497,462.776L230.582,462.677L230.661,462.584L230.734,462.497L230.801,462.417L230.858,462.348L230.966,462.216L231.045,462.117L231.101,462.046L231.129,462.01L231.198,461.92L234.509,457.745L243.762,446.073L250.366,437.74L258.149,427.921L267.002,416.748L276.822,404.354L287.502,390.872L298.936,376.436L311.018,361.179L317.269,353.284L323.643,345.234L330.126,337.045L336.704,328.734L343.365,320.317L350.096,311.811L356.883,303.233L363.713,294.6L370.573,285.928L377.449,277.233L384.328,268.533L391.198,259.844L398.044,251.182L404.854,242.565L411.615,234.009L418.312,225.53L424.933,217.146L431.465,208.872L437.894,200.726L444.208,192.724L450.392,184.883L456.434,177.219L459.398,173.459L462.321,169.75L465.202,166.093L468.038,162.491L470.83,158.946L473.574,155.459L476.269,152.034L478.914,148.672L481.507,145.375L484.046,142.146L486.53,138.986L488.956,135.897L491.324,132.882L493.631,129.942L495.876,127.08L498.057,124.298L500.173,121.598L502.222,118.982L504.202,116.452L506.111,114.01L507.949,111.658L509.713,109.399L511.401,107.234L513.012,105.167L514.544,103.197L515.996,101.329L517.365,99.564L518.651,97.904L519.261,97.115L519.85,96.353L520.416,95.618L520.961,94.911L521.484,94.231L521.983,93.581L522.46,92.959L522.914,92.366L523.344,91.802L523.751,91.269L524.133,90.765L524.491,90.292L524.825,89.851L525.133,89.441L525.415,89.063L525.671,88.719L525.9,88.409L526.1,88.136L526.274,87.896L526.345,87.798L526.409,87.707L526.465,87.628L526.512,87.561L526.547,87.511L526.568,87.473L526.655,87.321L526.745,87.16L526.84,86.989L526.937,86.81L527.038,86.621L527.142,86.424L527.249,86.218L527.358,86.005L527.469,85.782L527.584,85.552L527.7,85.314L527.817,85.068L527.94,84.809L527.998,84.685L528.058,84.554L528.12,84.42L528.181,84.286L528.243,84.148L528.305,84.009L528.367,83.869L528.43,83.727L528.493,83.583L528.556,83.437L528.62,83.289L528.683,83.14L528.747,82.989L528.811,82.836L528.874,82.682L528.938,82.526L529.002,82.368L529.067,82.209L529.131,82.047L529.195,81.885L529.259,81.721L529.323,81.555L529.388,81.387L529.452,81.218L529.516,81.048L529.58,80.876L529.644,80.702L529.708,80.527L529.771,80.351L529.835,80.172L529.898,79.992L529.962,79.811L530.025,79.628L530.087,79.445L530.15,79.26L530.212,79.072L530.274,78.884L530.336,78.694L530.397,78.503L530.458,78.311L530.519,78.117L530.579,77.922L530.639,77.725L530.699,77.527L530.758,77.328L530.817,77.128L530.875,76.926L530.933,76.723L530.99,76.518L531.047,76.313L531.103,76.106L531.159,75.898L531.214,75.689L531.269,75.478L531.323,75.267L531.376,75.054L531.429,74.84L531.482,74.625L531.533,74.409L531.584,74.191L531.634,73.972L531.684,73.753L531.733,73.532L531.781,73.309L531.828,73.087L531.875,72.863L531.921,72.638L531.966,72.411L532.01,72.184L532.053,71.956L532.096,71.727L532.138,71.496L532.179,71.265L532.218,71.033L532.257,70.799L532.296,70.565L532.333,70.33L532.369,70.094L532.404,69.857L532.438,69.619L532.472,69.381L532.504,69.141L532.535,68.9L532.565,68.658L532.595,68.416L532.623,68.173L532.649,67.929L532.675,67.684L532.7,67.438L532.724,67.192L532.746,66.945L532.767,66.696L532.787,66.447L532.806,66.198L532.824,65.947L532.84,65.696L532.855,65.444L532.869,65.191L532.882,64.938L532.893,64.684L532.903,64.429L532.912,64.173L532.92,63.917L532.926,63.661L532.93,63.403L532.934,63.145L532.935,62.886L532.936,62.627L532.935,62.367L532.933,62.105L532.929,61.844L532.924,61.582L532.917,61.319L532.909,61.057L532.899,60.793L532.888,60.528L532.875,60.263L532.86,59.998L532.844,59.732L532.827,59.466L532.808,59.198L532.787,58.93L532.765,58.662L532.741,58.394L532.715,58.124L532.687,57.855L532.658,57.584L532.628,57.314L532.595,57.043L532.561,56.771L532.525,56.499L532.487,56.226L532.448,55.953L532.406,55.68L532.363,55.406L532.318,55.131L532.272,54.857L532.222,54.576L532.198,54.443L532.172,54.305L532.146,54.168L532.12,54.03L532.093,53.891L532.066,53.753L532.038,53.615L532.009,53.476L531.98,53.338L531.951,53.199L531.921,53.06L531.891,52.921L531.86,52.782L531.829,52.643L531.797,52.504L531.765,52.365L531.732,52.225L531.699,52.086L531.665,51.946L531.631,51.807L531.596,51.667L531.56,51.526L531.525,51.387L531.488,51.247L531.451,51.107L531.414,50.967L531.376,50.826L531.338,50.686L531.299,50.545L531.259,50.405L531.219,50.265L531.178,50.122L531.137,49.982L531.096,49.842L531.054,49.701L531.011,49.56L530.967,49.417L530.924,49.277L530.88,49.136L530.835,48.994L530.789,48.853L530.743,48.71L530.697,48.569L530.649,48.427L530.602,48.285L530.553,48.143L530.505,48.001L530.455,47.859L530.406,47.717L530.355,47.575L530.304,47.432L530.252,47.29L530.2,47.147L530.147,47.005L530.094,46.862L530.039,46.719L529.985,46.577L529.93,46.434L529.874,46.29L529.817,46.147L529.761,46.004L529.703,45.861L529.645,45.719L529.586,45.574L529.526,45.431L529.467,45.288L529.406,45.144L529.345,45.001L529.283,44.857L529.221,44.713L529.157,44.569L529.093,44.425L529.029,44.281L528.964,44.137L528.898,43.993L528.832,43.848L528.765,43.704L528.698,43.56L528.63,43.416L528.561,43.271L528.491,43.126L528.421,42.981L528.35,42.837L528.279,42.692L528.207,42.548L528.134,42.403L528.061,42.258L527.986,42.112L527.912,41.967L527.837,41.823L527.76,41.677L527.683,41.532L527.606,41.386L527.528,41.241L527.449,41.096L527.369,40.95L527.289,40.805L527.208,40.659L527.126,40.513L527.044,40.367L526.961,40.222L526.878,40.076L526.793,39.93L526.708,39.784L526.622,39.638L526.535,39.492L526.448,39.346L526.36,39.199L526.271,39.053L526.182,38.907L526.092,38.761L526.001,38.614L525.909,38.468L525.817,38.321L525.724,38.174L525.63,38.028L525.535,37.881L525.44,37.734L525.344,37.588L525.247,37.441L525.149,37.294L525.05,37.147L524.951,37L524.851,36.853L524.75,36.706L524.649,36.559L524.547,36.412L524.444,36.265L524.34,36.117L524.235,35.97L524.13,35.823L524.024,35.676L523.917,35.529L523.809,35.381L523.7,35.233L523.591,35.086L523.48,34.938L523.37,34.791L523.258,34.643L523.145,34.495L523.031,34.348L522.917,34.2L522.802,34.053L522.686,33.905L522.569,33.757L522.451,33.609L522.333,33.461L522.214,33.313L522.094,33.166L521.973,33.018L521.851,32.87L521.728,32.722L521.605,32.574L521.48,32.426L521.355,32.278L521.229,32.13L521.102,31.982L520.974,31.834L520.846,31.686L520.716,31.537L520.585,31.389L520.454,31.241L520.322,31.093L520.189,30.945L520.055,30.797L519.92,30.648L519.784,30.5L519.647,30.352L519.51,30.204L519.371,30.056L519.232,29.908L519.091,29.759L518.95,29.611L518.808,29.463L518.665,29.315L518.521,29.166L518.376,29.018L518.23,28.87L518.083,28.722L517.935,28.574L517.788,28.427L517.641,28.281L517.494,28.136L517.346,27.992L517.199,27.849L517.051,27.707L516.904,27.566L516.756,27.426L516.608,27.286L516.46,27.147L516.312,27.01L516.164,26.873L516.015,26.737L515.867,26.602L515.718,26.467L515.57,26.334L515.421,26.201L515.272,26.069L515.124,25.939L514.975,25.809L514.826,25.68L514.677,25.551L514.528,25.424L514.379,25.297L514.229,25.172L514.08,25.047L513.931,24.922L513.781,24.799L513.632,24.677L513.482,24.555L513.332,24.434L513.182,24.315L513.033,24.195L512.883,24.077L512.733,23.96L512.583,23.843L512.433,23.727L512.282,23.612L512.133,23.498L511.982,23.385L511.832,23.272L511.682,23.16L511.531,23.049L511.38,22.939L511.23,22.829L511.08,22.721L510.929,22.613L510.778,22.506L510.627,22.4L510.476,22.294L510.326,22.189L510.175,22.086L510.024,21.982L509.873,21.88L509.722,21.778L509.571,21.677L509.42,21.577L509.268,21.478L509.117,21.379L508.966,21.282L508.815,21.185L508.663,21.088L508.512,20.993L508.36,20.898L508.209,20.804L508.057,20.71L507.906,20.618L507.754,20.526L507.602,20.435L507.451,20.345L507.299,20.255L507.147,20.166L506.996,20.078L506.844,19.991L506.692,19.904L506.54,19.818L506.388,19.733L506.237,19.648L506.085,19.564L505.933,19.481L505.781,19.399L505.628,19.317L505.476,19.236L505.325,19.156L505.173,19.076L505.02,18.998L504.868,18.919L504.716,18.842L504.564,18.765L504.412,18.689L504.259,18.614L504.107,18.539L503.955,18.465L503.803,18.392L503.65,18.319L503.498,18.247L503.346,18.176L503.193,18.105L503.041,18.035L502.889,17.966L502.736,17.897L502.583,17.829L502.431,17.762L502.279,17.695L502.127,17.629L501.974,17.564L501.822,17.5L501.669,17.435L501.516,17.372L501.364,17.31L501.212,17.248L501.059,17.186L500.907,17.125L500.754,17.065L500.602,17.006L500.449,16.947L500.296,16.889L500.144,16.832L499.991,16.775L499.839,16.719L499.686,16.663L499.534,16.608L499.381,16.554L499.229,16.5L499.076,16.447L498.924,16.394L498.771,16.343L498.618,16.291L498.466,16.241L498.313,16.191L498.161,16.141L498.009,16.093L497.856,16.044L497.703,15.997L497.551,15.95L497.399,15.904L497.246,15.858L497.093,15.813L496.941,15.768L496.789,15.724L496.636,15.681L496.484,15.638L496.331,15.596L496.179,15.555L496.027,15.514L495.874,15.473L495.722,15.434L495.57,15.395L495.417,15.356L495.265,15.318L495.113,15.28L494.96,15.244L494.808,15.207L494.656,15.172L494.504,15.137L494.352,15.102L494.199,15.068L494.047,15.035L493.895,15.002L493.743,14.97L493.591,14.938L493.439,14.907L493.287,14.876L493.135,14.846L492.983,14.817L492.831,14.788L492.679,14.76L492.528,14.732L492.376,14.705L492.224,14.678L492.072,14.652L491.921,14.626L491.769,14.601L491.617,14.577L491.466,14.553L491.314,14.53L491.163,14.507L491.011,14.485L490.86,14.463L490.708,14.442L490.557,14.421L490.406,14.401L490.254,14.381L490.103,14.362L489.952,14.344L489.801,14.326L489.65,14.308L489.499,14.291L489.348,14.275L489.197,14.259L489.046,14.244L488.895,14.229L488.745,14.214L488.594,14.201L488.443,14.187L488.293,14.175L488.142,14.162L487.992,14.151L487.841,14.139L487.691,14.129L487.541,14.118L487.391,14.109L487.24,14.1L487.09,14.091L486.94,14.083L486.79,14.075L486.64,14.068L486.491,14.061L486.341,14.055L486.191,14.049L486.042,14.044L485.892,14.04L485.743,14.035L485.593,14.032L485.444,14.028L485.295,14.026L485.146,14.024L484.997,14.022L484.848,14.021L484.699,14.02L484.55,14.02L484.401,14.02Z" style="fill:white;"/>
    </g>
</svg>
