<?xml version="1.0" encoding="UTF-8" standalone="no"?>
<!DOCTYPE svg PUBLIC "-//W3C//DTD SVG 1.1//EN" "http://www.w3.org/Graphics/SVG/1.1/DTD/svg11.dtd">
<svg width="100%" height="100%" viewBox="0 0 850 850" version="1.1" xmlns="http://www.w3.org/2000/svg" xmlns:xlink="http://www.w3.org/1999/xlink" xml:space="preserve" style="fill-rule:evenodd;clip-rule:evenodd;stroke-linejoin:round;stroke-miterlimit:1.41421;">
    <g transform="matrix(1.38085,0,0,1.38085,13.1453,-159.715)">
        <path d="M192.111,242.878C193.882,243.504 194.476,243.5 195.87,244.847C196.908,245.85 197.637,247.131 197.968,248.536C198.132,249.232 198.196,249.958 198.158,250.672C198.119,251.385 197.976,252.1 197.738,252.774C197.5,253.448 197.162,254.094 196.743,254.673C196.325,255.252 195.818,255.777 195.254,256.215C193.722,257.403 193.133,257.335 191.304,257.766L119.747,264.126L121.565,274.489L423.255,247.909L442.091,360.916C442.18,361.328 442.271,361.74 442.363,362.151C443.219,365.952 444.16,369.734 445.174,373.497C446.265,377.547 447.443,381.574 448.743,385.563C449.812,388.841 450.962,392.096 452.249,395.296C452.808,396.686 453.393,398.065 454.016,399.428C454.611,400.731 455.239,402.02 455.919,403.281C456.364,404.107 456.831,404.922 457.33,405.717C457.693,406.294 458.077,406.858 458.458,407.423C458.996,408.22 459.539,409.014 460.086,409.805C461.881,412.4 463.72,414.964 465.584,417.51C468.486,421.475 471.451,425.393 474.455,429.281C476.946,432.505 479.462,435.71 482.016,438.884L482.184,439.092C482.55,439.706 483.006,440.275 483.28,440.935C483.834,442.268 483.992,443.733 483.737,445.154C483.611,445.857 483.381,446.549 483.062,447.188C482.743,447.828 482.327,448.427 481.841,448.95C481.354,449.474 480.787,449.932 480.173,450.297C478.932,451.035 477.505,451.4 476.062,451.35C475.348,451.325 474.63,451.196 473.952,450.971C473.274,450.746 472.621,450.42 472.034,450.013C471.447,449.606 470.979,449.049 470.464,448.554C470.397,448.49 470.347,448.409 470.288,448.337C470.119,448.127 469.951,447.917 469.782,447.707C469.158,446.929 468.537,446.149 467.917,445.367C464.257,440.751 460.652,436.09 457.116,431.378C454.259,427.572 451.445,423.732 448.714,419.833C447.871,418.631 447.037,417.423 446.214,416.207C445.612,415.319 445.009,414.43 444.443,413.518C443.768,412.433 443.136,411.322 442.534,410.195C441.618,408.479 440.774,406.724 439.98,404.947C439.347,403.53 438.744,402.099 438.169,400.657C436.599,396.718 435.204,392.712 433.92,388.672C432.421,383.955 431.072,379.192 429.833,374.401C429.312,372.385 428.811,370.365 428.332,368.339C427.969,366.805 427.616,365.269 427.288,363.727L410.689,264.137L109.117,290.707L102.077,250.574L189.97,242.762C190.684,242.801 191.397,242.839 192.111,242.878Z" style="fill:white;fill-rule:nonzero;"/>
    </g>
    <g transform="matrix(1.38085,0,0,1.38085,13.1453,-159.715)">
        <path d="M475.537,215.291C476.072,215.351 476.21,215.35 476.735,215.475C478.115,215.803 479.391,216.525 480.382,217.54C480.948,218.119 481.419,218.788 481.772,219.517C482.125,220.245 482.359,221.029 482.464,221.832C482.594,222.835 482.52,223.863 482.247,224.837C481.974,225.811 481.503,226.727 480.869,227.517C480.363,228.148 479.755,228.696 479.074,229.134C478.394,229.572 477.643,229.9 476.86,230.1C476.336,230.234 476.199,230.235 475.665,230.305L351.647,241.378C351.109,241.404 350.973,241.427 350.435,241.388C349.628,241.33 348.831,241.141 348.084,240.83C346.962,240.363 345.96,239.623 345.184,238.689C344.537,237.91 344.051,237.002 343.761,236.033C343.529,235.258 343.423,234.445 343.449,233.637C343.475,232.828 343.632,232.024 343.912,231.265C344.193,230.506 344.596,229.794 345.103,229.162C345.991,228.056 347.19,227.213 348.531,226.753C348.914,226.621 349.307,226.521 349.706,226.452C349.905,226.418 350.107,226.4 350.307,226.374L474.325,215.301L474.931,215.272C475.133,215.278 475.335,215.285 475.537,215.291Z" style="fill:white;fill-rule:nonzero;"/>
    </g>
    <g transform="matrix(1.38085,0,0,1.38085,13.1453,-159.715)">
        <path d="M164.16,271.315C164.82,271.589 165.526,271.772 166.14,272.137C166.754,272.502 167.321,272.96 167.808,273.484C168.791,274.541 169.449,275.859 169.704,277.28C169.83,277.983 169.754,278.708 169.779,279.423L146.304,496.013C145.837,497.833 145.894,498.424 144.676,499.932C144.227,500.488 143.693,500.984 143.106,501.391C142.519,501.798 141.867,502.124 141.188,502.349C139.818,502.804 138.346,502.855 136.947,502.497C136.255,502.32 135.581,502.04 134.967,501.675C134.353,501.31 133.786,500.852 133.299,500.328C132.316,499.271 131.658,497.953 131.403,496.532C131.277,495.829 131.353,495.104 131.328,494.389L154.803,277.799C154.981,277.107 155.061,276.383 155.335,275.723C155.609,275.063 155.982,274.436 156.431,273.88C157.338,272.757 158.548,271.918 159.919,271.463C160.597,271.238 161.325,271.21 162.029,271.084C162.739,271.161 163.45,271.238 164.16,271.315Z" style="fill:white;fill-rule:nonzero;"/>
    </g>
    <g transform="matrix(1.38085,0,0,1.38085,13.1453,-159.715)">
        <path d="M467.414,303.413C469.38,303.423 471.345,303.477 473.309,303.583C477.342,303.802 481.364,304.23 485.354,304.862C496.354,306.603 507.094,309.887 517.231,314.49C531.55,320.993 544.655,330.111 555.835,341.163C563.603,348.842 570.446,357.457 576.15,366.774C579.703,372.577 582.813,378.651 585.435,384.931C587.941,390.933 590.001,397.121 591.584,403.43C594.83,416.369 596.063,429.812 595.211,443.126C594.797,449.603 593.885,456.049 592.489,462.387C591.148,468.479 589.359,474.471 587.147,480.303C584.272,487.887 580.682,495.197 576.455,502.118C572.463,508.654 567.902,514.842 562.847,520.596C552.499,532.372 540.071,542.325 526.257,549.746C519.461,553.398 512.334,556.435 504.983,558.779C497.28,561.236 489.332,562.929 481.291,563.794L481.382,563.78C481.196,563.808 481.011,563.834 480.825,563.86C480.59,563.891 480.356,563.922 480.121,563.951C478.248,564.178 476.367,564.341 474.484,564.46C472.451,564.587 470.414,564.662 468.377,564.691C463.188,564.766 457.994,564.548 452.828,564.056C439.33,562.771 425.986,559.603 413.446,554.424C408.304,552.3 403.301,549.839 398.488,547.048C394.372,544.661 390.397,542.033 386.59,539.181C382.542,536.149 378.685,532.862 375.044,529.351C371.71,526.136 368.557,522.734 365.595,519.174C362.65,515.635 359.895,511.939 357.328,508.118C356.126,506.328 354.969,504.509 353.846,502.668L353.002,500.698C352.778,498.832 352.512,498.302 353.101,496.455C353.319,495.774 353.637,495.119 354.037,494.527C354.846,493.331 355.982,492.392 357.309,491.824C357.966,491.542 358.67,491.353 359.379,491.268C360.089,491.183 360.818,491.2 361.522,491.318C362.227,491.437 362.922,491.658 363.565,491.97C364.207,492.282 364.811,492.691 365.34,493.171C365.869,493.652 366.265,494.262 366.706,494.824C366.802,494.946 366.867,495.089 366.948,495.222C367.027,495.35 367.106,495.478 367.185,495.607C367.343,495.862 367.502,496.116 367.66,496.371C368.447,497.621 369.25,498.86 370.078,500.083C371.671,502.438 373.346,504.738 375.101,506.975C379.31,512.336 383.99,517.328 389.107,521.832C392.882,525.154 396.891,528.209 401.097,530.965C405.207,533.658 409.504,536.064 413.942,538.171C426.302,544.041 439.716,547.573 453.312,548.967C458.575,549.507 463.874,549.732 469.163,549.611C471.102,549.567 473.039,549.475 474.972,549.326C475.728,549.267 476.484,549.199 477.238,549.119C477.829,549.057 478.419,548.988 479.007,548.905L479.126,548.887L479.329,548.856C479.71,548.814 480.091,548.773 480.473,548.729C482.487,548.493 484.494,548.205 486.492,547.855C490.051,547.231 493.578,546.422 497.055,545.437C506.451,542.775 515.469,538.823 523.84,533.799C535.119,527.028 545.218,518.314 553.627,508.201C557.629,503.39 561.249,498.261 564.436,492.875C567.761,487.259 570.614,481.365 572.946,475.269C574.794,470.439 576.313,465.483 577.485,460.445C578.574,455.763 579.363,451.011 579.844,446.228C580.781,436.907 580.549,427.467 579.181,418.2C578.471,413.39 577.452,408.627 576.136,403.947C574.71,398.883 572.937,393.918 570.835,389.095C567.115,380.557 562.372,372.471 556.763,365.037C549.619,355.57 541.075,347.16 531.489,340.176C520.119,331.891 507.263,325.612 493.656,321.996C487.18,320.275 480.542,319.16 473.856,318.707C470.307,318.467 466.747,318.42 463.192,318.54C459.174,318.677 455.164,319.029 451.185,319.6C447.127,320.183 443.101,320.993 439.133,322.024C435.054,323.083 431.037,324.376 427.103,325.886C419.195,328.921 411.635,332.835 404.533,337.448C397.146,342.247 390.257,347.796 383.908,353.899C376.711,360.817 370.204,368.446 364.406,376.569C362.975,378.575 361.587,380.611 360.242,382.675C359.665,383.56 359.098,384.45 358.536,385.344C357.42,387.132 356.308,388.924 355.195,390.714C353.726,393.075 352.258,395.438 350.79,397.8C343.623,409.341 336.47,420.891 329.415,432.501C323.743,441.835 318.138,451.21 312.611,460.631C301.438,479.675 290.571,498.897 279.809,518.177C277.738,521.887 275.671,525.6 273.607,529.315C272.256,531.746 270.909,534.179 269.559,536.61C269.253,537.159 268.946,537.706 268.637,538.254C267.725,539.867 266.801,541.474 265.861,543.072C264.049,546.153 262.182,549.202 260.258,552.214C258.029,555.701 255.723,559.139 253.332,562.517C251.378,565.279 249.367,568.001 247.297,570.677C245.735,572.696 244.139,574.689 242.508,576.653C232.774,588.371 221.743,599.087 209.279,607.885C207.53,609.12 205.753,610.316 203.949,611.472C201.621,612.962 199.249,614.384 196.835,615.73C193.308,617.697 189.69,619.503 185.994,621.13C180.75,623.438 175.347,625.386 169.831,626.939C165.765,628.083 161.64,629.013 157.477,629.727C154.004,630.323 150.505,630.767 146.995,631.071C144.036,631.327 141.069,631.482 138.101,631.557C135.68,631.619 133.259,631.623 130.837,631.623C130.537,631.622 130.236,631.621 129.935,631.619C129.031,631.611 128.127,631.597 127.224,631.572C125.287,631.517 123.351,631.418 121.418,631.274C116.199,630.885 111.005,630.167 105.877,629.117C100.221,627.958 94.648,626.395 89.214,624.441C83.785,622.488 78.497,620.147 73.397,617.449C70.048,615.677 66.78,613.752 63.604,611.685C61.129,610.074 58.71,608.377 56.352,606.6C41.809,595.641 29.61,581.667 20.377,565.992C18.732,563.2 17.181,560.352 15.727,557.456C13.134,552.293 10.85,546.974 8.899,541.536C5.629,532.421 3.289,522.964 2.052,513.357C1.643,510.178 1.355,506.982 1.196,503.78C1.091,501.656 1.041,499.529 1.056,497.402C1.101,491.454 1.648,485.513 2.624,479.647C3.82,472.45 5.66,465.363 8.059,458.474C10.389,451.783 13.248,445.277 16.59,439.031C23.769,425.612 33.189,413.381 44.458,403.143C48.471,399.497 52.715,396.107 57.161,393.005C64.541,387.856 72.477,383.512 80.791,380.07C88.498,376.881 96.52,374.469 104.697,372.833C113.504,371.071 122.481,370.208 131.459,370.149C136.778,370.113 142.1,370.362 147.389,370.927C152.879,371.514 158.334,372.442 163.703,373.731C168.892,374.977 174,376.56 178.98,378.479C183.959,380.399 188.808,382.654 193.485,385.225C198.408,387.93 203.138,390.983 207.642,394.339C211.999,397.587 216.143,401.118 220.059,404.886C226.645,411.223 232.581,418.224 237.859,425.683C242.263,431.906 246.215,438.449 249.703,445.227C251.883,449.463 253.885,453.791 255.677,458.205C256.355,459.876 257.002,461.558 257.611,463.255C258.091,464.59 258.549,465.934 258.96,467.293L258.986,467.383C259.089,468.09 259.293,468.79 259.294,469.505C259.295,470.949 258.882,472.362 258.102,473.578C257.323,474.793 256.211,475.759 254.898,476.361C254.249,476.658 253.549,476.864 252.842,476.967C252.135,477.069 251.406,477.07 250.698,476.969C249.991,476.868 249.291,476.664 248.641,476.367C247.99,476.071 247.377,475.678 246.836,475.21C245.37,473.943 245.32,473.351 244.538,471.643C244.493,471.49 244.445,471.337 244.398,471.185C243.92,469.676 243.388,468.183 242.829,466.702C242.09,464.742 241.298,462.802 240.464,460.88C238.282,455.855 235.815,450.952 233.093,446.198C231.921,444.153 230.702,442.135 229.435,440.147C222.902,429.901 215.081,420.435 205.969,412.376C204.708,411.261 203.422,410.173 202.113,409.115C200.397,407.727 198.639,406.389 196.843,405.106C194.174,403.199 191.419,401.414 188.587,399.761C183.781,396.956 178.753,394.536 173.561,392.534C167.958,390.374 162.17,388.704 156.284,387.516C150.594,386.367 144.816,385.668 139.019,385.374C135.488,385.194 131.949,385.163 128.414,385.269C121.445,385.478 114.49,386.235 107.652,387.604C100.435,389.047 93.354,391.173 86.553,393.988C81.716,395.991 77.023,398.339 72.523,401.012C67.646,403.909 62.997,407.186 58.623,410.796C56.613,412.455 54.661,414.185 52.77,415.979C41.952,426.248 33.171,438.624 26.872,452.136C24.88,456.408 23.136,460.796 21.659,465.272C20.297,469.399 19.163,473.602 18.279,477.857C16.938,484.32 16.169,490.912 16.119,497.515C16.105,499.462 16.155,501.41 16.257,503.355C16.423,506.493 16.73,509.622 17.167,512.733C18.4,521.493 20.665,530.101 23.786,538.376C25.492,542.899 27.456,547.324 29.66,551.627C31.038,554.318 32.51,556.96 34.072,559.548C41.786,572.328 51.713,583.808 63.449,593.053C65.03,594.298 66.643,595.503 68.287,596.664C70.519,598.239 72.807,599.734 75.147,601.143C78.217,602.991 81.378,604.691 84.616,606.229C89.767,608.677 95.114,610.714 100.591,612.306C106.007,613.879 111.547,615.018 117.143,615.716C120.367,616.118 123.61,616.374 126.857,616.489C127.785,616.522 128.713,616.543 129.642,616.553C130.39,616.561 131.138,616.56 131.887,616.559C132.623,616.559 133.359,616.558 134.095,616.553C135.733,616.543 137.372,616.516 139.01,616.461C140.746,616.402 142.482,616.311 144.214,616.183C148.24,615.885 152.25,615.382 156.22,614.651C161.768,613.63 167.233,612.165 172.549,610.275C176.129,609.002 179.64,607.539 183.068,605.901C185.528,604.726 187.945,603.461 190.315,602.114C192.086,601.109 193.83,600.058 195.547,598.964C206.593,591.932 216.479,583.181 225.283,573.513C226.591,572.077 227.876,570.619 229.138,569.143C230.864,567.124 232.549,565.07 234.193,562.984C236.342,560.258 238.423,557.478 240.441,554.653C243.014,551.05 245.484,547.374 247.861,543.638C249.894,540.442 251.858,537.202 253.759,533.925C254.653,532.385 255.531,530.837 256.398,529.282C257.746,526.856 259.092,524.427 260.439,522C274.27,497.12 288.215,472.3 302.691,447.789C307.258,440.056 311.878,432.354 316.542,424.678C322.241,415.301 328.002,405.962 333.784,396.636C336.653,392.008 339.528,387.383 342.404,382.759C343.526,380.955 344.646,379.15 345.77,377.348C345.974,377.025 346.177,376.702 346.381,376.379C347.202,375.09 348.035,373.809 348.884,372.538C350.692,369.835 352.569,367.178 354.515,364.573C362.302,354.146 371.196,344.524 381.141,336.119C389.257,329.259 398.077,323.217 407.488,318.27C412.869,315.442 418.44,312.973 424.159,310.909C429.874,308.848 435.735,307.192 441.686,305.972C446.795,304.924 451.969,304.197 457.169,303.793C460.239,303.555 463.318,303.432 466.398,303.414C466.736,303.413 467.075,303.412 467.414,303.413Z" style="fill:white;fill-rule:nonzero;"/>
    </g>
</svg>
