<?xml version="1.0" encoding="utf-8"?>
<!-- Generator: Adobe Illustrator 16.0.0, SVG Export Plug-In . SVG Version: 6.00 Build 0)  -->
<!DOCTYPE svg PUBLIC "-//W3C//DTD SVG 1.1//EN" "http://www.w3.org/Graphics/SVG/1.1/DTD/svg11.dtd">
<svg version="1.1" id="Ebene_2" xmlns="http://www.w3.org/2000/svg" xmlns:xlink="http://www.w3.org/1999/xlink" x="0px" y="0px"
	 width="595.279px" height="841.89px" viewBox="0 0 595.279 841.89" enable-background="new 0 0 595.279 841.89"
	 xml:space="preserve">
<path fill="none" stroke="#FFFFFF" stroke-width="13" stroke-miterlimit="10" d="M190.637,250.264l-79.725,7.086l4.429,25.248
	l301.631-26.575l17.718,106.301c0,0,7.086,33.661,16.831,48.278c9.743,14.617,24.803,33.221,24.803,33.221"/>
<line fill="none" stroke="#FFFFFF" stroke-width="13" stroke-miterlimit="10" x1="350.977" y1="233.876" x2="474.995" y2="222.803"/>
<line fill="none" stroke="#FFFFFF" stroke-width="13" stroke-miterlimit="10" x1="162.291" y1="278.611" x2="138.816" y2="495.201"/>
<path fill="none" stroke="#FFFFFF" stroke-width="13" stroke-miterlimit="10" d="M251.762,469.513c0,0-26.576-91.836-119.296-91.836
	c-81.792,0-124.666,69.251-123.87,121.952c0.888,58.47,49.165,124.462,122.248,124.462c21.704,0,81.324,0.534,132.434-91.684
	c40.75-73.526,55.349-97.176,88.584-150.594c24.803-39.863,65.11-70.869,115.158-70.869c62.896,0,120.92,54.922,120.92,124.018
	c0,62.897-49.165,115.161-107.63,121.363c0,0-77.513,12.4-120.034-57.579"/>
</svg>
