<?xml version="1.0" encoding="UTF-8" standalone="no"?>
<!DOCTYPE svg PUBLIC "-//W3C//DTD SVG 1.1//EN" "http://www.w3.org/Graphics/SVG/1.1/DTD/svg11.dtd">
<svg width="100%" height="100%" viewBox="0 0 850 850" version="1.1" xmlns="http://www.w3.org/2000/svg" xmlns:xlink="http://www.w3.org/1999/xlink" xml:space="preserve" style="fill-rule:evenodd;clip-rule:evenodd;stroke-linejoin:round;stroke-miterlimit:1.41421;">
    <g transform="matrix(2.11668,0,0,2.11668,28.6563,42.2824)">
        <path d="M366.899,238.268L366.899,238.268L131.016,360.871L8.413,124.989L8.413,124.989L244.296,2.386L366.899,238.268ZM21.685,129.183L135.21,347.599L353.627,234.074L240.102,15.658L21.685,129.183Z" style="fill:white;"/>
        <path d="M110.856,192.155L5.267,247.036L0.727,238.302L106.316,183.421L110.856,192.155Z" style="fill:white;"/>
        <path d="M150.559,242.521L12.14,314.466L7.6,305.732L146.019,233.787L150.559,242.521Z" style="fill:white;"/>
        <path d="M373.769,129.886L268.179,184.768L263.639,176.034L369.229,121.152L373.769,129.886Z" style="fill:white;"/>
        <path d="M366.896,62.457L228.477,134.402L223.937,125.668L362.356,53.723L366.896,62.457Z" style="fill:white;"/>
        <path d="M181.073,94.327L172.339,98.867L124.836,7.475L133.57,2.935L181.073,94.327Z" style="fill:white;"/>
        <path d="M121.979,117.237L113.245,121.777L71.132,40.753L79.866,36.213L121.979,117.237Z" style="fill:white;"/>
        <path d="M304.21,331.237L295.476,335.777L247.974,244.384L256.708,239.844L304.21,331.237Z" style="fill:white;"/>
        <path d="M245.116,354.146L236.382,358.686L194.269,277.663L203.003,273.123L245.116,354.146Z" style="fill:white;"/>
    </g>
</svg>
