<?xml version="1.0" encoding="UTF-8" standalone="no"?>
<!DOCTYPE svg PUBLIC "-//W3C//DTD SVG 1.1//EN" "http://www.w3.org/Graphics/SVG/1.1/DTD/svg11.dtd">
<svg width="100%" height="100%" viewBox="0 0 850 850" version="1.1" xmlns="http://www.w3.org/2000/svg" xmlns:xlink="http://www.w3.org/1999/xlink" xml:space="preserve" style="fill-rule:evenodd;clip-rule:evenodd;stroke-linejoin:round;stroke-miterlimit:1.41421;">
    <g transform="matrix(1.53412,0,0,1.53412,25.0292,42.0066)">
        <path d="M263.028,0.01L263.205,0.016L263.381,0.024L263.555,0.036L263.727,0.051L263.897,0.068L264.064,0.089L264.23,0.112L264.394,0.138L264.555,0.166L264.714,0.197L264.871,0.23L265.026,0.265L265.179,0.302L265.329,0.341L265.477,0.381L265.623,0.424L265.767,0.468L265.91,0.514L266.049,0.561L266.187,0.61L266.323,0.66L266.457,0.711L266.589,0.764L266.719,0.817L266.848,0.872L266.974,0.928L267.099,0.985L267.222,1.042L267.344,1.101L267.464,1.161L267.583,1.221L267.7,1.282L267.816,1.344L267.93,1.406L268.043,1.47L268.155,1.534L268.265,1.599L268.374,1.664L268.483,1.73L268.589,1.796L268.695,1.864L268.8,1.931L268.904,2L269.007,2.069L269.109,2.138L269.21,2.208L269.31,2.278L269.41,2.35L269.509,2.421L269.606,2.493L269.703,2.566L269.8,2.639L269.896,2.712L269.991,2.787L270.093,2.867L270.272,3.011L270.457,3.164L270.641,3.318L270.822,3.475L271.002,3.634L271.18,3.794L271.357,3.957L271.532,4.121L271.707,4.287L271.88,4.456L272.053,4.627L272.224,4.799L272.395,4.974L272.566,5.15L272.735,5.329L272.905,5.51L273.074,5.693L273.242,5.879L273.41,6.066L273.578,6.255L273.746,6.447L273.914,6.641L274.081,6.837L274.248,7.035L274.416,7.235L274.583,7.438L274.751,7.643L274.918,7.85L275.086,8.059L275.254,8.271L275.422,8.484L275.59,8.7L275.758,8.919L275.927,9.139L276.096,9.362L276.265,9.587L276.434,9.814L276.604,10.044L276.774,10.276L276.944,10.51L277.115,10.746L277.286,10.985L277.457,11.225L277.629,11.468L277.801,11.714L277.974,11.961L278.147,12.211L278.32,12.463L278.494,12.717L278.668,12.974L278.843,13.233L279.018,13.493L279.193,13.757L279.369,14.022L279.546,14.29L279.722,14.559L279.9,14.831L280.078,15.105L280.256,15.381L280.434,15.66L280.613,15.94L280.793,16.223L280.973,16.508L281.153,16.795L281.334,17.084L281.516,17.375L281.698,17.669L281.88,17.964L282.063,18.261L282.246,18.561L282.43,18.862L282.614,19.166L282.799,19.472L282.984,19.78L283.169,20.089L283.356,20.401L283.542,20.715L283.729,21.031L283.916,21.349L284.104,21.668L284.293,21.99L284.481,22.314L284.671,22.639L284.86,22.967L285.05,23.296L285.241,23.628L285.432,23.961L285.623,24.296L285.815,24.633L286.008,24.972L286.2,25.313L286.393,25.655L286.587,26L286.781,26.346L286.975,26.694L287.17,27.044L287.365,27.395L287.562,27.751L287.953,28.461L288.347,29.179L288.743,29.905L289.14,30.637L289.539,31.376L289.939,32.122L290.34,32.874L290.743,33.632L291.147,34.397L291.553,35.167L291.96,35.944L292.368,36.726L292.778,37.515L293.188,38.308L293.6,39.108L294.013,39.913L294.427,40.723L294.842,41.539L295.258,42.36L295.675,43.186L296.093,44.016L296.513,44.852L296.932,45.692L297.353,46.537L297.775,47.387L298.197,48.241L298.62,49.099L299.044,49.961L299.469,50.828L299.894,51.698L300.319,52.572L300.746,53.45L301.173,54.332L301.6,55.217L302.028,56.105L302.456,56.997L302.884,57.892L303.313,58.79L303.742,59.691L304.172,60.595L304.601,61.502L305.031,62.411L305.461,63.323L305.891,64.237L306.321,65.154L306.751,66.072L307.181,66.993L307.611,67.916L308.041,68.841L308.471,69.767L308.901,70.695L309.33,71.624L309.759,72.555L310.188,73.487L310.617,74.421L311.045,75.355L311.473,76.291L311.9,77.227L312.327,78.164L312.754,79.101L313.18,80.039L313.605,80.978L314.029,81.917L314.453,82.856L314.877,83.794L315.299,84.733L315.721,85.672L316.141,86.611L316.561,87.549L316.98,88.486L317.399,89.423L317.816,90.359L318.232,91.295L318.647,92.229L319.061,93.162L319.473,94.094L319.885,95.025L320.295,95.955L320.704,96.882L321.112,97.809L321.518,98.733L321.923,99.656L322.327,100.576L322.729,101.495L323.13,102.412L323.926,104.237L324.716,106.052L325.499,107.856L326.275,109.649L327.044,111.428L327.805,113.193L328.558,114.944L329.302,116.679L330.038,118.398L330.764,120.099L331.481,121.782L332.189,123.445L332.886,125.088L333.574,126.711L334.25,128.311L334.916,129.888L335.57,131.441L336.213,132.97L336.844,134.473L337.462,135.95L338.069,137.399L338.662,138.819L339.242,140.21L339.808,141.572L340.361,142.902L340.899,144.2L341.423,145.465L341.933,146.696L342.427,147.892L342.905,149.053L343.368,150.177L343.815,151.264L344.246,152.312L344.66,153.322L345.436,155.218L346.141,156.946L346.774,158.499L347.33,159.868L347.369,159.963L348.807,160.091L350.438,160.237L352.253,160.401L354.245,160.583L356.406,160.782L357.549,160.888L358.731,160.998L359.952,161.113L361.21,161.231L362.505,161.353L363.836,161.48L365.202,161.61L366.602,161.745L368.035,161.883L369.5,162.025L370.996,162.171L372.523,162.321L374.078,162.474L375.662,162.631L377.273,162.792L378.911,162.956L380.575,163.124L382.262,163.295L383.974,163.47L385.708,163.648L387.464,163.83L389.241,164.015L391.037,164.203L392.853,164.394L394.686,164.589L396.537,164.787L398.403,164.988L400.285,165.192L402.181,165.399L404.09,165.609L406.012,165.821L407.945,166.037L409.889,166.256L411.842,166.478L413.803,166.702L415.773,166.929L417.748,167.159L418.739,167.275L419.731,167.391L420.724,167.508L421.718,167.626L422.712,167.745L423.708,167.864L424.705,167.983L425.702,168.104L426.7,168.225L427.698,168.346L428.696,168.469L429.695,168.591L430.693,168.715L431.692,168.839L432.69,168.963L433.688,169.089L434.686,169.214L435.683,169.341L436.679,169.468L437.675,169.595L438.669,169.723L439.663,169.852L440.656,169.981L441.647,170.11L442.637,170.241L443.626,170.371L444.613,170.503L445.598,170.635L446.582,170.767L447.564,170.9L448.543,171.033L449.521,171.167L450.496,171.301L451.469,171.436L452.439,171.571L453.407,171.707L454.371,171.844L455.333,171.98L456.293,172.118L457.249,172.255L458.201,172.394L459.151,172.532L460.097,172.671L461.04,172.811L461.979,172.951L462.914,173.091L463.845,173.232L464.773,173.373L465.696,173.515L466.615,173.657L467.53,173.8L468.44,173.943L469.345,174.086L470.246,174.23L471.143,174.374L472.034,174.519L472.921,174.664L473.802,174.809L474.678,174.955L475.549,175.101L476.414,175.248L477.274,175.395L478.128,175.542L478.976,175.69L479.819,175.838L480.655,175.986L481.485,176.135L482.31,176.284L483.128,176.434L483.939,176.584L484.744,176.734L485.542,176.885L486.334,177.036L487.119,177.187L487.897,177.339L488.668,177.491L489.431,177.643L490.188,177.796L490.937,177.949L491.679,178.103L492.413,178.257L493.137,178.41L493.5,178.488L493.859,178.566L494.215,178.643L494.57,178.721L494.922,178.798L495.273,178.876L495.622,178.954L495.968,179.032L496.313,179.11L496.656,179.188L496.996,179.266L497.335,179.345L497.672,179.423L498.006,179.502L498.338,179.581L498.668,179.659L498.997,179.738L499.323,179.817L499.647,179.897L499.969,179.976L500.288,180.055L500.606,180.135L500.922,180.215L501.235,180.294L501.546,180.374L501.855,180.454L502.162,180.535L502.466,180.615L502.769,180.695L503.069,180.776L503.367,180.857L503.663,180.938L503.957,181.019L504.248,181.1L504.537,181.182L504.825,181.263L505.109,181.345L505.392,181.427L505.672,181.51L505.95,181.592L506.226,181.675L506.5,181.757L506.771,181.841L507.041,181.924L507.307,182.007L507.572,182.091L507.835,182.175L508.095,182.26L508.353,182.344L508.609,182.429L508.863,182.515L509.114,182.6L509.364,182.686L509.611,182.773L509.855,182.859L510.099,182.947L510.339,183.034L510.578,183.122L510.814,183.21L511.049,183.3L511.281,183.389L511.511,183.479L511.739,183.57L511.965,183.661L512.189,183.753L512.411,183.845L512.632,183.939L512.85,184.033L513.066,184.127L513.281,184.223L513.494,184.32L513.705,184.418L513.915,184.517L514.122,184.617L514.328,184.717L514.533,184.82L514.736,184.924L514.938,185.029L515.138,185.136L515.337,185.245L515.535,185.355L515.731,185.468L515.926,185.582L516.121,185.699L516.315,185.819L516.507,185.941L516.699,186.066L516.89,186.194L517.07,186.318L517.174,186.392L517.269,186.46L517.365,186.53L517.459,186.599L517.553,186.67L517.649,186.743L517.742,186.816L517.837,186.891L517.93,186.966L518.024,187.043L518.119,187.123L518.212,187.202L518.306,187.284L518.4,187.367L518.493,187.451L518.587,187.538L518.68,187.626L518.774,187.717L518.868,187.809L518.959,187.9L519.052,187.996L519.146,188.095L519.238,188.195L519.329,188.297L519.421,188.401L519.514,188.509L519.605,188.618L519.696,188.731L519.786,188.846L519.877,188.965L519.966,189.084L520.054,189.208L520.141,189.334L520.227,189.462L520.315,189.598L520.4,189.734L520.483,189.872L520.566,190.016L520.646,190.161L520.725,190.311L520.803,190.464L520.878,190.62L520.952,190.782L521.024,190.948L521.092,191.115L521.158,191.285L521.222,191.464L521.282,191.641L521.337,191.818L521.389,191.997L521.436,192.173L521.479,192.348L521.518,192.521L521.553,192.694L521.584,192.862L521.612,193.032L521.636,193.2L521.658,193.367L521.675,193.532L521.69,193.69L521.702,193.852L521.711,194.01L521.717,194.165L521.721,194.322L521.723,194.475L521.722,194.625L521.719,194.774L521.714,194.922L521.707,195.065L521.698,195.209L521.687,195.351L521.675,195.49L521.66,195.629L521.645,195.764L521.628,195.899L521.609,196.034L521.589,196.165L521.567,196.297L521.545,196.426L521.522,196.552L521.497,196.678L521.471,196.803L521.444,196.928L521.416,197.049L521.387,197.171L521.357,197.292L521.326,197.41L521.295,197.528L521.262,197.647L521.228,197.764L521.195,197.877L521.16,197.992L521.124,198.105L521.088,198.219L521.05,198.333L521.013,198.443L520.975,198.552L520.932,198.675L520.856,198.882L520.773,199.099L520.688,199.314L520.601,199.526L520.511,199.738L520.419,199.948L520.325,200.156L520.229,200.365L520.131,200.572L520.03,200.778L519.927,200.985L519.823,201.19L519.716,201.395L519.607,201.599L519.496,201.805L519.383,202.009L519.269,202.214L519.151,202.419L519.032,202.625L518.911,202.83L518.788,203.036L518.663,203.242L518.536,203.449L518.407,203.657L518.275,203.865L518.142,204.073L518.007,204.283L517.87,204.493L517.731,204.703L517.59,204.915L517.446,205.128L517.301,205.34L517.154,205.554L517.005,205.77L516.853,205.986L516.7,206.202L516.545,206.42L516.388,206.639L516.228,206.859L516.067,207.079L515.904,207.301L515.739,207.524L515.572,207.748L515.402,207.973L515.231,208.199L515.058,208.426L514.883,208.654L514.706,208.883L514.527,209.113L514.346,209.345L514.163,209.577L513.979,209.811L513.792,210.046L513.603,210.282L513.413,210.519L513.22,210.757L513.026,210.996L512.83,211.237L512.631,211.478L512.432,211.721L512.23,211.965L512.026,212.21L511.82,212.456L511.613,212.703L511.404,212.951L511.192,213.201L510.979,213.451L510.765,213.703L510.548,213.956L510.33,214.21L510.11,214.465L509.887,214.721L509.664,214.978L509.438,215.236L509.211,215.496L508.982,215.756L508.751,216.018L508.519,216.281L508.284,216.544L508.048,216.809L507.811,217.075L507.571,217.342L507.33,217.61L507.088,217.88L506.843,218.15L506.597,218.421L506.349,218.693L506.1,218.966L505.849,219.241L505.595,219.518L505.087,220.07L504.57,220.627L504.048,221.189L503.519,221.754L502.984,222.324L502.443,222.897L501.896,223.474L501.343,224.054L500.785,224.638L500.22,225.226L499.65,225.817L499.075,226.412L498.494,227.01L497.908,227.611L497.316,228.216L496.719,228.823L496.118,229.434L495.511,230.048L494.899,230.665L494.282,231.285L493.661,231.908L493.035,232.533L492.404,233.161L491.769,233.792L491.13,234.425L490.486,235.061L489.838,235.7L489.186,236.341L488.53,236.984L487.87,237.629L487.206,238.277L486.538,238.926L485.866,239.578L485.191,240.232L484.513,240.888L483.831,241.545L483.146,242.204L482.457,242.865L481.766,243.528L481.071,244.192L480.374,244.858L479.673,245.525L478.97,246.193L478.264,246.863L477.556,247.534L476.845,248.206L476.131,248.879L475.416,249.553L474.698,250.228L473.978,250.904L473.256,251.58L472.532,252.258L471.806,252.936L471.079,253.614L470.349,254.294L469.618,254.973L468.886,255.653L468.152,256.333L467.418,257.014L466.681,257.694L465.944,258.375L465.206,259.056L464.467,259.736L463.727,260.417L462.986,261.097L462.244,261.777L461.502,262.456L460.76,263.135L460.017,263.814L459.274,264.492L458.531,265.17L457.787,265.846L457.044,266.522L456.301,267.197L455.558,267.871L454.815,268.544L454.073,269.217L453.331,269.887L452.59,270.557L451.849,271.225L451.109,271.892L450.37,272.558L449.632,273.222L448.894,273.885L447.424,275.205L445.958,276.517L444.498,277.822L443.045,279.119L441.6,280.406L440.163,281.685L438.735,282.953L437.316,284.21L435.908,285.456L434.511,286.69L433.126,287.912L431.754,289.121L430.395,290.316L429.051,291.498L427.721,292.664L426.407,293.815L425.11,294.95L423.83,296.069L422.567,297.17L421.324,298.254L420.1,299.32L418.896,300.367L417.713,301.394L416.551,302.402L415.413,303.389L414.297,304.355L413.205,305.299L412.138,306.22L411.096,307.119L410.081,307.995L409.092,308.846L408.131,309.673L407.199,310.474L406.296,311.25L405.422,311.999L403.769,313.416L402.243,314.72L400.853,315.908L399.603,316.973L398.595,317.831L398.97,319.241L399.402,320.866L399.88,322.676L400.136,323.649L400.403,324.665L400.681,325.723L400.969,326.823L401.267,327.963L401.574,329.144L401.891,330.363L402.218,331.62L402.553,332.914L402.896,334.244L403.248,335.609L403.608,337.008L403.975,338.441L404.35,339.906L404.732,341.403L405.12,342.93L405.515,344.486L405.916,346.072L406.323,347.685L406.736,349.325L407.154,350.991L407.576,352.682L408.004,354.397L408.436,356.136L408.871,357.896L409.311,359.678L409.754,361.48L410.2,363.302L410.649,365.143L411.101,367.001L411.555,368.876L412.011,370.766L412.469,372.672L412.928,374.59L413.158,375.556L413.388,376.524L413.618,377.495L413.849,378.469L414.08,379.446L414.31,380.425L414.541,381.407L414.772,382.391L415.003,383.378L415.234,384.367L415.464,385.358L415.695,386.351L415.925,387.347L416.155,388.343L416.385,389.342L416.615,390.342L416.844,391.343L417.073,392.346L417.302,393.35L417.53,394.355L417.758,395.362L417.985,396.368L418.211,397.376L418.437,398.385L418.663,399.393L418.888,400.403L419.112,401.413L419.335,402.422L419.558,403.432L419.779,404.442L420,405.452L420.22,406.461L420.44,407.47L420.658,408.479L420.875,409.487L421.091,410.494L421.306,411.5L421.521,412.506L421.733,413.51L421.945,414.513L422.156,415.515L422.365,416.516L422.573,417.515L422.78,418.512L422.985,419.508L423.189,420.501L423.392,421.493L423.593,422.483L423.792,423.471L423.99,424.456L424.187,425.439L424.381,426.419L424.575,427.397L424.766,428.372L424.956,429.344L425.144,430.313L425.33,431.279L425.514,432.242L425.697,433.202L425.877,434.158L426.056,435.11L426.233,436.059L426.407,437.005L426.58,437.946L426.75,438.884L426.919,439.817L427.085,440.747L427.249,441.672L427.411,442.592L427.57,443.508L427.727,444.42L427.882,445.326L428.034,446.228L428.184,447.126L428.332,448.018L428.477,448.904L428.619,449.786L428.759,450.663L428.897,451.533L429.031,452.399L429.163,453.258L429.292,454.112L429.419,454.96L429.543,455.802L429.663,456.637L429.723,457.055L429.781,457.468L429.839,457.881L429.896,458.292L429.953,458.702L430.008,459.11L430.063,459.516L430.117,459.92L430.171,460.324L430.224,460.725L430.275,461.124L430.327,461.523L430.377,461.919L430.426,462.314L430.475,462.706L430.523,463.098L430.57,463.488L430.617,463.875L430.662,464.262L430.707,464.646L430.751,465.028L430.794,465.409L430.837,465.788L430.878,466.165L430.919,466.541L430.959,466.914L430.998,467.286L431.036,467.656L431.073,468.024L431.109,468.39L431.145,468.755L431.179,469.117L431.213,469.477L431.246,469.836L431.278,470.194L431.309,470.549L431.339,470.901L431.369,471.252L431.397,471.602L431.425,471.949L431.451,472.294L431.477,472.637L431.502,472.979L431.525,473.318L431.548,473.656L431.57,473.991L431.591,474.324L431.611,474.656L431.63,474.986L431.648,475.313L431.665,475.638L431.681,475.962L431.696,476.284L431.71,476.603L431.723,476.92L431.735,477.236L431.746,477.55L431.755,477.861L431.764,478.171L431.772,478.478L431.779,478.784L431.784,479.088L431.789,479.389L431.792,479.688L431.795,479.986L431.796,480.281L431.796,480.575L431.795,480.867L431.793,481.156L431.789,481.444L431.785,481.729L431.779,482.013L431.772,482.295L431.764,482.575L431.754,482.853L431.744,483.13L431.732,483.404L431.718,483.677L431.704,483.947L431.688,484.216L431.67,484.483L431.652,484.749L431.632,485.012L431.61,485.274L431.587,485.534L431.563,485.793L431.536,486.05L431.509,486.305L431.48,486.559L431.449,486.812L431.416,487.064L431.381,487.313L431.345,487.561L431.307,487.809L431.267,488.054L431.225,488.299L431.181,488.543L431.135,488.786L431.086,489.028L431.035,489.269L430.982,489.509L430.926,489.748L430.868,489.987L430.809,490.215L430.775,490.343L430.743,490.463L430.71,490.581L430.676,490.699L430.64,490.819L430.605,490.936L430.569,491.055L430.531,491.174L430.493,491.293L430.454,491.411L430.414,491.528L430.372,491.647L430.33,491.765L430.287,491.884L430.243,492.003L430.198,492.12L430.151,492.239L430.104,492.357L430.055,492.476L430.005,492.596L429.953,492.714L429.901,492.833L429.847,492.951L429.791,493.073L429.734,493.192L429.676,493.31L429.616,493.429L429.555,493.549L429.491,493.669L429.427,493.789L429.359,493.91L429.291,494.03L429.222,494.148L429.149,494.27L429.075,494.39L428.999,494.51L428.92,494.631L428.84,494.75L428.758,494.87L428.673,494.99L428.585,495.111L428.495,495.232L428.403,495.351L428.309,495.471L428.213,495.588L428.113,495.707L428.01,495.826L427.905,495.944L427.797,496.061L427.686,496.178L427.573,496.293L427.456,496.408L427.336,496.524L427.213,496.636L427.09,496.747L426.96,496.858L426.828,496.968L426.695,497.075L426.557,497.181L426.416,497.286L426.272,497.389L426.123,497.492L425.976,497.588L425.829,497.681L425.678,497.773L425.53,497.859L425.382,497.942L425.232,498.023L425.08,498.101L424.934,498.173L424.785,498.244L424.633,498.312L424.485,498.377L424.339,498.437L424.191,498.496L424.041,498.553L423.896,498.606L423.752,498.656L423.603,498.705L423.459,498.75L423.316,498.793L423.171,498.835L423.03,498.873L422.886,498.91L422.745,498.944L422.605,498.977L422.465,499.007L422.326,499.036L422.188,499.062L422.05,499.087L421.911,499.111L421.777,499.132L421.641,499.152L421.506,499.171L421.372,499.187L421.238,499.203L421.106,499.217L420.973,499.23L420.84,499.241L420.712,499.251L420.58,499.26L420.448,499.268L420.321,499.274L420.19,499.279L420.061,499.284L419.935,499.287L419.805,499.289L419.678,499.29L419.55,499.29L419.423,499.289L419.298,499.287L419.174,499.285L419.047,499.281L418.921,499.277L418.795,499.271L418.671,499.265L418.547,499.258L418.421,499.251L418.297,499.242L418.173,499.233L418.049,499.223L417.925,499.212L417.8,499.2L417.667,499.187L417.431,499.162L417.183,499.133L416.937,499.101L416.689,499.066L416.442,499.029L416.195,498.99L415.947,498.948L415.699,498.904L415.45,498.858L415.201,498.809L414.951,498.758L414.701,498.705L414.449,498.65L414.196,498.593L413.943,498.534L413.689,498.472L413.434,498.409L413.178,498.344L412.92,498.276L412.661,498.207L412.401,498.135L412.14,498.062L411.878,497.987L411.615,497.91L411.35,497.831L411.083,497.75L410.816,497.667L410.546,497.583L410.276,497.496L410.004,497.408L409.73,497.318L409.455,497.226L409.179,497.132L408.901,497.036L408.621,496.939L408.341,496.84L408.057,496.739L407.773,496.636L407.488,496.532L407.2,496.426L406.911,496.318L406.621,496.209L406.329,496.097L406.035,495.984L405.74,495.87L405.443,495.753L405.145,495.635L404.845,495.515L404.543,495.394L404.239,495.271L403.934,495.146L403.627,495.02L403.319,494.892L403.01,494.762L402.698,494.631L402.385,494.498L402.071,494.364L401.754,494.227L401.436,494.09L401.117,493.95L400.796,493.81L400.473,493.667L400.149,493.523L399.823,493.378L399.496,493.231L399.167,493.082L398.836,492.932L398.504,492.781L398.17,492.628L397.835,492.473L397.498,492.317L397.16,492.159L396.82,492L396.479,491.84L396.136,491.678L395.792,491.514L395.446,491.349L395.099,491.183L394.75,491.015L394.399,490.846L394.048,490.676L393.695,490.504L393.34,490.33L392.984,490.156L392.626,489.98L392.267,489.802L391.907,489.623L391.545,489.443L391.182,489.262L390.818,489.079L390.451,488.895L390.084,488.709L389.716,488.522L389.346,488.334L388.974,488.145L388.602,487.954L388.228,487.762L387.852,487.569L387.476,487.374L387.098,487.179L386.718,486.982L386.336,486.783L385.574,486.384L384.804,485.979L384.03,485.569L383.25,485.155L382.466,484.736L381.678,484.313L380.885,483.885L380.087,483.453L379.285,483.016L378.479,482.576L377.669,482.131L376.855,481.682L376.036,481.229L375.214,480.771L374.388,480.311L373.558,479.846L372.725,479.377L371.888,478.905L371.047,478.429L370.204,477.95L369.357,477.467L368.507,476.981L367.653,476.492L366.797,475.999L365.938,475.503L365.076,475.004L364.211,474.503L363.344,473.998L362.475,473.49L361.602,472.979L360.728,472.466L359.851,471.95L358.973,471.432L358.092,470.911L357.209,470.387L356.324,469.862L355.438,469.333L354.55,468.803L353.661,468.271L352.77,467.737L351.877,467.2L350.984,466.662L350.089,466.122L349.193,465.58L348.296,465.036L347.399,464.491L346.5,463.944L345.601,463.396L344.702,462.846L343.801,462.295L342.901,461.743L342,461.19L341.099,460.635L340.198,460.08L339.297,459.523L338.396,458.966L337.495,458.408L336.594,457.849L335.694,457.29L334.795,456.73L333.896,456.169L332.997,455.608L332.1,455.047L331.203,454.485L330.307,453.924L329.412,453.362L328.519,452.8L327.627,452.238L326.736,451.676L325.847,451.114L324.959,450.553L324.073,449.992L323.189,449.431L322.306,448.871L321.426,448.311L320.547,447.752L319.671,447.194L318.797,446.637L317.925,446.08L317.056,445.524L316.19,444.969L315.326,444.415L314.465,443.863L313.606,443.312L312.751,442.761L311.898,442.213L311.049,441.665L309.361,440.576L307.686,439.493L306.026,438.417L304.381,437.349L302.752,436.289L301.141,435.239L299.547,434.198L297.971,433.167L296.415,432.148L294.879,431.14L293.364,430.144L291.87,429.16L290.399,428.19L288.952,427.234L287.528,426.293L286.129,425.366L284.756,424.455L283.41,423.56L282.09,422.683L280.799,421.823L279.536,420.98L278.303,420.157L277.101,419.353L275.93,418.569L274.79,417.805L273.684,417.062L272.611,416.341L271.572,415.643L270.569,414.967L269.602,414.315L268.671,413.687L267.778,413.083L266.923,412.505L265.332,411.427L263.904,410.458L262.774,409.69L261.708,410.387L260.286,411.316L258.702,412.35L256.963,413.483L255.075,414.71L254.077,415.359L253.044,416.029L251.977,416.721L250.877,417.434L249.744,418.167L248.58,418.919L247.385,419.691L246.16,420.482L244.906,421.29L243.623,422.116L242.313,422.959L240.976,423.819L239.613,424.694L238.224,425.584L236.812,426.489L235.375,427.408L233.916,428.34L232.435,429.286L230.933,430.243L229.41,431.213L227.868,432.193L226.307,433.184L224.728,434.186L223.132,435.197L221.519,436.216L219.891,437.244L218.248,438.28L216.592,439.323L214.922,440.373L213.239,441.428L211.545,442.489L209.841,443.555L208.126,444.626L206.402,445.7L204.67,446.777L202.93,447.857L201.184,448.94L199.432,450.023L198.553,450.565L197.673,451.108L196.793,451.65L195.912,452.193L195.029,452.735L194.146,453.277L193.262,453.819L192.378,454.361L191.493,454.903L190.607,455.444L189.721,455.985L188.836,456.525L187.95,457.064L187.064,457.603L186.178,458.141L185.292,458.678L184.407,459.214L183.522,459.75L182.637,460.284L181.754,460.817L180.87,461.349L179.988,461.88L179.107,462.409L178.226,462.937L177.347,463.464L176.469,463.988L175.592,464.512L174.716,465.034L173.842,465.553L172.97,466.072L172.099,466.588L171.23,467.102L170.363,467.614L169.498,468.124L168.634,468.632L167.774,469.138L166.915,469.641L166.059,470.142L165.205,470.641L164.354,471.137L163.505,471.631L162.66,472.121L161.817,472.609L160.977,473.095L160.14,473.577L159.306,474.056L158.475,474.533L157.648,475.006L156.824,475.476L156.004,475.943L155.187,476.407L154.375,476.867L153.566,477.324L152.76,477.778L151.959,478.227L151.162,478.674L150.369,479.116L149.581,479.555L148.796,479.99L148.017,480.421L147.241,480.848L146.471,481.271L145.705,481.69L144.944,482.104L144.188,482.515L143.437,482.921L142.691,483.323L141.951,483.72L141.215,484.113L140.485,484.501L139.761,484.884L139.042,485.263L138.328,485.637L137.621,486.006L136.919,486.371L136.223,486.73L135.533,487.084L134.849,487.433L134.171,487.777L133.499,488.116L132.833,488.45L132.176,488.777L131.847,488.94L131.522,489.1L131.198,489.26L130.875,489.418L130.555,489.574L130.235,489.73L129.918,489.883L129.602,490.036L129.288,490.186L128.976,490.336L128.665,490.484L128.356,490.631L128.049,490.776L127.743,490.92L127.439,491.062L127.137,491.203L126.836,491.342L126.538,491.48L126.24,491.616L125.945,491.751L125.651,491.885L125.36,492.016L125.069,492.147L124.781,492.276L124.495,492.403L124.209,492.529L123.926,492.653L123.645,492.776L123.365,492.897L123.087,493.017L122.811,493.135L122.537,493.251L122.264,493.366L121.993,493.479L121.724,493.591L121.457,493.701L121.191,493.809L120.928,493.916L120.665,494.022L120.404,494.125L120.146,494.227L119.889,494.327L119.633,494.426L119.379,494.523L119.128,494.619L118.877,494.712L118.628,494.805L118.381,494.895L118.136,494.984L117.892,495.071L117.649,495.156L117.409,495.239L117.17,495.321L116.931,495.402L116.694,495.48L116.459,495.557L116.226,495.632L115.994,495.705L115.762,495.777L115.533,495.846L115.304,495.914L115.076,495.981L114.85,496.045L114.624,496.107L114.4,496.168L114.176,496.227L113.953,496.284L113.731,496.339L113.509,496.392L113.288,496.443L113.067,496.492L112.847,496.539L112.626,496.584L112.405,496.627L112.184,496.667L111.964,496.706L111.742,496.742L111.519,496.775L111.296,496.807L111.072,496.835L110.847,496.861L110.619,496.884L110.402,496.903L110.273,496.912L110.157,496.92L110.041,496.927L109.924,496.933L109.807,496.939L109.687,496.943L109.569,496.946L109.447,496.948L109.325,496.95L109.204,496.95L109.08,496.949L108.958,496.946L108.832,496.943L108.705,496.938L108.577,496.932L108.448,496.924L108.318,496.915L108.184,496.903L108.055,496.891L107.921,496.877L107.783,496.86L107.647,496.842L107.509,496.822L107.367,496.8L107.224,496.775L107.081,496.748L106.937,496.718L106.789,496.686L106.64,496.651L106.491,496.613L106.338,496.572L106.181,496.527L106.028,496.479L105.87,496.428L105.709,496.372L105.551,496.314L105.39,496.251L105.224,496.182L105.059,496.11L104.895,496.034L104.726,495.952L104.559,495.866L104.392,495.775L104.222,495.678L104.051,495.575L103.884,495.468L103.715,495.355L103.546,495.235L103.381,495.112L103.218,494.984L103.063,494.855L102.918,494.73L102.781,494.605L102.646,494.477L102.516,494.349L102.391,494.22L102.271,494.091L102.156,493.963L102.046,493.835L101.941,493.708L101.838,493.579L101.74,493.452L101.646,493.325L101.555,493.199L101.47,493.076L101.385,492.95L101.305,492.826L101.228,492.704L101.153,492.58L101.082,492.459L101.014,492.34L100.947,492.219L100.883,492.099L100.822,491.982L100.762,491.865L100.705,491.749L100.65,491.633L100.596,491.517L100.545,491.403L100.495,491.288L100.447,491.175L100.4,491.063L100.355,490.951L100.312,490.84L100.269,490.729L100.228,490.618L100.188,490.508L100.145,490.385L100.076,490.18L100.006,489.963L99.941,489.747L99.879,489.532L99.82,489.318L99.764,489.104L99.711,488.891L99.661,488.677L99.613,488.463L99.567,488.249L99.524,488.035L99.483,487.82L99.443,487.604L99.406,487.388L99.37,487.171L99.336,486.952L99.304,486.733L99.273,486.512L99.243,486.29L99.215,486.067L99.189,485.842L99.163,485.616L99.139,485.388L99.116,485.159L99.095,484.928L99.074,484.695L99.055,484.461L99.036,484.224L99.019,483.986L99.003,483.746L98.988,483.504L98.974,483.26L98.961,483.013L98.949,482.766L98.938,482.515L98.927,482.263L98.918,482.009L98.91,481.753L98.902,481.494L98.896,481.234L98.89,480.971L98.885,480.706L98.881,480.44L98.878,480.17L98.876,479.899L98.874,479.626L98.873,479.35L98.874,479.072L98.875,478.792L98.876,478.51L98.879,478.225L98.882,477.938L98.886,477.649L98.891,477.358L98.897,477.065L98.903,476.77L98.911,476.472L98.918,476.172L98.927,475.87L98.936,475.566L98.947,475.259L98.957,474.95L98.969,474.639L98.981,474.326L98.994,474.011L99.008,473.694L99.022,473.375L99.038,473.053L99.053,472.729L99.07,472.403L99.087,472.075L99.105,471.745L99.123,471.413L99.143,471.078L99.162,470.742L99.183,470.403L99.204,470.062L99.226,469.72L99.248,469.375L99.272,469.028L99.296,468.677L99.345,467.975L99.397,467.264L99.451,466.544L99.508,465.816L99.568,465.081L99.63,464.337L99.694,463.587L99.761,462.829L99.829,462.063L99.901,461.29L99.974,460.51L100.05,459.722L100.128,458.928L100.208,458.127L100.29,457.319L100.375,456.504L100.461,455.683L100.55,454.855L100.641,454.021L100.733,453.18L100.828,452.333L100.925,451.48L101.023,450.622L101.124,449.757L101.226,448.887L101.331,448.011L101.437,447.129L101.545,446.242L101.655,445.35L101.766,444.452L101.879,443.55L101.994,442.642L102.111,441.729L102.229,440.812L102.349,439.89L102.471,438.964L102.594,438.033L102.718,437.098L102.844,436.158L102.972,435.215L103.101,434.268L103.232,433.316L103.363,432.361L103.497,431.403L103.631,430.44L103.767,429.475L103.905,428.506L104.043,427.534L104.183,426.559L104.324,425.581L104.466,424.6L104.61,423.616L104.754,422.63L104.9,421.641L105.046,420.65L105.194,419.657L105.343,418.661L105.493,417.664L105.644,416.664L105.795,415.663L105.948,414.66L106.101,413.656L106.256,412.65L106.411,411.643L106.567,410.634L106.724,409.625L106.882,408.614L107.04,407.603L107.199,406.591L107.359,405.578L107.52,404.565L107.681,403.551L107.842,402.537L108.005,401.523L108.167,400.508L108.331,399.494L108.494,398.48L108.659,397.466L108.823,396.453L108.989,395.44L109.32,393.417L109.653,391.397L109.987,389.382L110.321,387.371L110.657,385.368L110.993,383.371L111.329,381.383L111.665,379.403L112.001,377.434L112.337,375.476L112.672,373.53L113.006,371.596L113.339,369.677L113.671,367.772L114.002,365.882L114.331,364.01L114.658,362.155L114.982,360.318L115.305,358.501L115.625,356.704L115.942,354.929L116.256,353.176L116.567,351.445L116.875,349.74L117.179,348.059L117.479,346.404L117.775,344.776L118.067,343.176L118.354,341.604L118.637,340.063L118.914,338.552L119.187,337.073L119.454,335.626L119.716,334.213L119.972,332.834L120.221,331.491L120.465,330.184L120.702,328.914L120.933,327.682L121.373,325.338L121.784,323.158L122.165,321.149L122.512,319.319L122.826,317.676L123.103,316.228L123.151,315.977L123.006,315.855L121.894,314.921L120.634,313.861L119.232,312.68L117.695,311.382L116.877,310.69L116.028,309.972L115.148,309.226L114.237,308.454L113.298,307.656L112.329,306.834L111.333,305.986L110.31,305.115L109.261,304.22L108.185,303.303L107.086,302.363L105.962,301.402L104.814,300.419L103.645,299.416L102.453,298.393L101.24,297.351L100.008,296.29L98.755,295.21L97.484,294.113L96.195,292.999L94.889,291.869L93.566,290.723L92.228,289.561L90.874,288.384L89.507,287.194L88.126,285.989L86.732,284.772L85.326,283.542L83.909,282.301L82.482,281.048L81.045,279.784L79.599,278.511L78.146,277.227L76.684,275.935L75.217,274.635L74.48,273.981L73.742,273.325L73.004,272.668L72.264,272.009L71.522,271.349L70.78,270.687L70.037,270.023L69.293,269.358L68.549,268.692L67.803,268.024L67.058,267.355L66.312,266.684L65.565,266.013L64.818,265.341L64.071,264.667L63.324,263.993L62.578,263.318L61.831,262.642L61.084,261.966L60.338,261.289L59.592,260.611L58.847,259.933L58.102,259.255L57.358,258.576L56.615,257.897L55.873,257.217L55.131,256.538L54.391,255.859L53.652,255.179L52.914,254.5L52.178,253.821L51.442,253.142L50.709,252.464L49.977,251.786L49.247,251.108L48.519,250.431L47.792,249.754L47.068,249.078L46.345,248.403L45.625,247.729L44.907,247.056L44.192,246.383L43.479,245.712L42.769,245.041L42.061,244.372L41.356,243.704L40.654,243.037L39.954,242.372L39.258,241.708L38.565,241.046L37.875,240.385L37.189,239.726L36.505,239.068L35.826,238.412L35.149,237.758L34.477,237.106L33.808,236.457L33.143,235.809L32.483,235.163L31.826,234.519L31.173,233.878L30.524,233.239L29.88,232.602L29.24,231.968L28.605,231.336L27.974,230.707L27.348,230.081L26.727,229.457L26.11,228.836L25.499,228.218L24.892,227.602L24.291,226.99L23.695,226.381L23.104,225.775L22.518,225.172L21.938,224.572L21.363,223.976L20.794,223.382L20.231,222.793L19.674,222.206L19.122,221.623L18.577,221.044L18.037,220.468L17.505,219.898L17.239,219.612L16.977,219.328L16.716,219.046L16.456,218.764L16.198,218.483L15.941,218.203L15.687,217.924L15.433,217.647L15.182,217.37L14.932,217.094L14.684,216.819L14.437,216.545L14.192,216.272L13.949,216L13.707,215.729L13.468,215.459L13.23,215.19L12.993,214.922L12.758,214.656L12.526,214.39L12.294,214.125L12.065,213.862L11.837,213.599L11.611,213.337L11.387,213.077L11.165,212.817L10.945,212.559L10.726,212.302L10.509,212.045L10.294,211.79L10.081,211.536L9.87,211.283L9.66,211.031L9.453,210.78L9.247,210.53L9.043,210.282L8.841,210.034L8.641,209.787L8.443,209.542L8.246,209.298L8.052,209.054L7.86,208.812L7.669,208.571L7.48,208.331L7.294,208.091L7.109,207.854L6.926,207.616L6.746,207.381L6.567,207.146L6.39,206.912L6.215,206.679L6.042,206.447L5.871,206.217L5.702,205.987L5.535,205.758L5.37,205.53L5.208,205.303L5.047,205.078L4.888,204.853L4.731,204.629L4.576,204.405L4.423,204.183L4.273,203.962L4.124,203.741L3.977,203.522L3.832,203.303L3.69,203.084L3.549,202.867L3.411,202.65L3.274,202.434L3.14,202.218L3.007,202.004L2.877,201.789L2.749,201.575L2.622,201.362L2.498,201.149L2.376,200.936L2.256,200.723L2.139,200.511L2.023,200.299L1.909,200.087L1.798,199.875L1.688,199.662L1.581,199.45L1.476,199.237L1.373,199.024L1.272,198.81L1.174,198.596L1.078,198.38L0.984,198.164L0.892,197.947L0.803,197.729L0.716,197.509L0.632,197.288L0.554,197.075L0.51,196.952L0.471,196.84L0.432,196.726L0.395,196.612L0.358,196.498L0.321,196.383L0.285,196.266L0.251,196.15L0.217,196.033L0.183,195.915L0.151,195.796L0.119,195.676L0.088,195.556L0.059,195.435L0.03,195.313L0.002,195.189L-0.025,195.065L-0.051,194.94L-0.076,194.814L-0.1,194.686L-0.123,194.558L-0.144,194.428L-0.164,194.297L-0.183,194.165L-0.201,194.031L-0.217,193.896L-0.232,193.76L-0.246,193.622L-0.257,193.483L-0.267,193.343L-0.276,193.201L-0.282,193.057L-0.287,192.913L-0.29,192.766L-0.291,192.618L-0.289,192.468L-0.286,192.317L-0.28,192.164L-0.272,192.01L-0.261,191.854L-0.248,191.697L-0.232,191.538L-0.213,191.378L-0.191,191.216L-0.166,191.053L-0.138,190.888L-0.107,190.723L-0.073,190.556L-0.035,190.388L0.007,190.219L0.052,190.049L0.101,189.879L0.153,189.707L0.21,189.536L0.271,189.364L0.335,189.192L0.404,189.02L0.475,188.851L0.548,188.689L0.622,188.532L0.697,188.379L0.775,188.229L0.854,188.082L0.935,187.939L1.017,187.798L1.101,187.661L1.186,187.526L1.272,187.395L1.359,187.267L1.447,187.141L1.535,187.019L1.624,186.899L1.714,186.782L1.805,186.668L1.896,186.556L1.988,186.446L2.08,186.339L2.172,186.234L2.265,186.132L2.358,186.031L2.451,185.933L2.545,185.837L2.639,185.742L2.732,185.651L2.827,185.56L2.922,185.471L3.016,185.384L3.11,185.298L3.205,185.214L3.301,185.131L3.396,185.051L3.491,184.971L3.586,184.893L3.681,184.816L3.777,184.74L3.873,184.665L3.969,184.591L4.065,184.519L4.161,184.448L4.258,184.378L4.354,184.309L4.451,184.241L4.548,184.173L4.654,184.1L4.839,183.976L5.034,183.849L5.231,183.725L5.428,183.604L5.626,183.485L5.826,183.368L6.027,183.253L6.228,183.141L6.431,183.031L6.636,182.922L6.842,182.815L7.049,182.709L7.258,182.606L7.468,182.503L7.68,182.402L7.894,182.302L8.109,182.203L8.326,182.105L8.546,182.008L8.766,181.912L8.989,181.817L9.213,181.723L9.44,181.63L9.669,181.537L9.899,181.445L10.131,181.354L10.366,181.264L10.603,181.174L10.841,181.085L11.082,180.996L11.325,180.908L11.57,180.82L11.817,180.733L12.066,180.646L12.317,180.56L12.571,180.474L12.827,180.389L13.085,180.304L13.345,180.22L13.607,180.135L13.872,180.051L14.139,179.968L14.408,179.885L14.679,179.802L14.952,179.719L15.228,179.637L15.506,179.555L15.786,179.474L16.069,179.392L16.353,179.311L16.64,179.23L16.929,179.15L17.22,179.069L17.514,178.989L17.81,178.909L18.107,178.83L18.408,178.75L18.71,178.671L19.014,178.592L19.321,178.513L19.63,178.434L19.941,178.356L20.254,178.278L20.57,178.2L20.887,178.122L21.207,178.044L21.529,177.967L21.853,177.889L22.179,177.812L22.507,177.735L22.837,177.658L23.17,177.582L23.504,177.505L23.841,177.429L24.18,177.353L24.52,177.277L24.863,177.201L25.208,177.126L25.555,177.05L25.904,176.975L26.255,176.899L26.608,176.824L26.963,176.75L27.319,176.675L27.678,176.6L28.039,176.526L28.402,176.451L28.767,176.377L29.133,176.303L29.502,176.229L29.875,176.155L30.619,176.009L31.373,175.862L32.134,175.716L32.903,175.571L33.679,175.426L34.462,175.281L35.252,175.137L36.049,174.994L36.853,174.851L37.663,174.709L38.48,174.567L39.303,174.426L40.133,174.285L40.969,174.145L41.811,174.005L42.659,173.866L43.514,173.728L44.374,173.59L45.239,173.452L46.111,173.315L46.988,173.178L47.87,173.042L48.758,172.907L49.65,172.772L50.548,172.637L51.451,172.503L52.358,172.37L53.271,172.237L54.188,172.105L55.109,171.973L56.035,171.841L56.965,171.711L57.899,171.58L58.838,171.451L59.78,171.321L60.726,171.193L61.676,171.065L62.63,170.937L63.587,170.81L64.547,170.684L65.51,170.558L66.477,170.433L67.447,170.308L68.42,170.184L69.395,170.06L70.373,169.937L71.354,169.814L72.337,169.692L73.323,169.571L74.31,169.45L75.3,169.33L76.292,169.21L77.286,169.091L78.281,168.973L79.278,168.855L80.277,168.738L81.277,168.621L82.278,168.505L83.281,168.389L84.285,168.275L85.289,168.16L86.295,168.047L87.301,167.934L88.307,167.821L89.315,167.709L90.322,167.598L91.33,167.487L92.338,167.377L93.346,167.268L94.354,167.159L95.362,167.051L96.369,166.944L97.376,166.837L98.382,166.731L99.388,166.626L100.392,166.521L101.396,166.417L102.399,166.313L103.401,166.21L104.401,166.108L105.4,166.006L106.398,165.906L107.394,165.805L108.388,165.706L109.381,165.607L111.359,165.411L113.329,165.219L115.289,165.028L117.238,164.841L119.176,164.657L121.101,164.475L123.012,164.296L124.909,164.12L126.791,163.948L128.656,163.778L130.504,163.611L132.334,163.447L134.144,163.286L135.935,163.128L137.704,162.973L139.451,162.821L141.176,162.673L142.876,162.527L144.552,162.385L146.202,162.246L147.825,162.11L149.421,161.978L150.988,161.848L152.525,161.722L154.032,161.6L155.507,161.48L156.951,161.365L158.36,161.252L159.736,161.143L161.076,161.038L162.38,160.935L163.647,160.837L164.876,160.742L166.066,160.65L167.216,160.563L168.326,160.478L169.394,160.398L171.399,160.248L173.226,160.112L174.867,159.992L176.311,159.888L176.349,159.798L176.923,158.428L177.576,156.875L178.304,155.147L179.105,153.252L179.533,152.242L179.977,151.194L180.438,150.107L180.916,148.983L181.41,147.822L181.92,146.626L182.445,145.395L182.986,144.13L183.541,142.832L184.111,141.502L184.696,140.141L185.294,138.749L185.906,137.329L186.531,135.88L187.169,134.404L187.82,132.901L188.483,131.372L189.157,129.819L189.844,128.241L190.541,126.641L191.25,125.019L191.969,123.376L192.698,121.713L193.438,120.03L194.187,118.329L194.945,116.61L195.712,114.875L196.488,113.125L197.272,111.359L198.064,109.58L198.864,107.788L199.671,105.984L200.484,104.168L201.305,102.344L201.718,101.427L202.132,100.508L202.547,99.588L202.965,98.665L203.383,97.741L203.803,96.815L204.224,95.887L204.647,94.957L205.071,94.027L205.495,93.094L205.922,92.161L206.349,91.227L206.777,90.292L207.207,89.355L207.637,88.419L208.068,87.481L208.501,86.543L208.934,85.605L209.368,84.666L209.803,83.727L210.238,82.788L210.674,81.849L211.111,80.911L211.549,79.972L211.987,79.034L212.426,78.097L212.865,77.16L213.305,76.224L213.745,75.288L214.185,74.354L214.626,73.421L215.067,72.489L215.509,71.558L215.95,70.629L216.392,69.701L216.834,68.774L217.276,67.85L217.718,66.927L218.161,66.006L218.603,65.088L219.045,64.171L219.487,63.257L219.929,62.346L220.37,61.436L220.812,60.53L221.253,59.626L221.694,58.725L222.135,57.827L222.575,56.932L223.015,56.04L223.454,55.152L223.893,54.267L224.331,53.385L224.769,52.508L225.206,51.634L225.643,50.763L226.079,49.897L226.514,49.035L226.948,48.177L227.382,47.323L227.815,46.474L228.246,45.629L228.677,44.789L229.107,43.953L229.536,43.123L229.964,42.297L230.391,41.476L230.817,40.661L231.241,39.851L231.665,39.046L232.087,38.246L232.508,37.452L232.928,36.664L233.346,35.882L233.763,35.106L234.179,34.335L234.593,33.571L235.006,32.813L235.417,32.061L235.827,31.316L236.235,30.577L236.642,29.845L237.047,29.12L237.45,28.401L237.851,27.691L238.052,27.336L238.252,26.985L238.451,26.635L238.65,26.287L238.848,25.941L239.046,25.597L239.244,25.254L239.441,24.914L239.638,24.575L239.834,24.238L240.03,23.903L240.225,23.57L240.42,23.239L240.614,22.909L240.808,22.582L241.002,22.257L241.195,21.933L241.387,21.612L241.579,21.292L241.77,20.974L241.961,20.659L242.152,20.345L242.342,20.033L242.532,19.724L242.721,19.416L242.909,19.111L243.097,18.807L243.285,18.506L243.472,18.206L243.659,17.909L243.845,17.614L244.03,17.321L244.215,17.03L244.4,16.741L244.584,16.454L244.768,16.17L244.951,15.887L245.134,15.607L245.316,15.329L245.497,15.053L245.678,14.779L245.859,14.507L246.039,14.238L246.219,13.971L246.398,13.706L246.577,13.443L246.755,13.182L246.933,12.924L247.11,12.668L247.287,12.413L247.464,12.162L247.64,11.912L247.815,11.665L247.991,11.42L248.165,11.177L248.34,10.937L248.514,10.699L248.687,10.463L248.86,10.229L249.033,9.998L249.205,9.769L249.377,9.542L249.549,9.317L249.721,9.095L249.892,8.875L250.063,8.657L250.233,8.441L250.404,8.228L250.574,8.017L250.744,7.808L250.914,7.601L251.084,7.397L251.253,7.195L251.423,6.995L251.592,6.798L251.762,6.602L251.932,6.409L252.101,6.218L252.271,6.029L252.441,5.842L252.612,5.658L252.782,5.475L252.953,5.295L253.125,5.117L253.297,4.941L253.469,4.767L253.642,4.596L253.816,4.426L253.991,4.258L254.167,4.092L254.343,3.929L254.521,3.767L254.701,3.608L254.881,3.45L255.064,3.294L255.248,3.141L255.434,2.989L255.613,2.846L255.717,2.765L255.812,2.692L255.908,2.619L256.005,2.547L256.102,2.474L256.2,2.403L256.299,2.332L256.399,2.261L256.499,2.191L256.6,2.122L256.702,2.053L256.805,1.985L256.909,1.917L257.014,1.85L257.12,1.783L257.227,1.717L257.335,1.652L257.444,1.587L257.554,1.523L257.666,1.459L257.779,1.396L257.893,1.334L258.009,1.273L258.125,1.213L258.244,1.152L258.364,1.094L258.485,1.035L258.608,0.978L258.733,0.922L258.859,0.867L258.987,0.812L259.117,0.759L259.249,0.707L259.383,0.656L259.518,0.607L259.655,0.558L259.795,0.511L259.937,0.466L260.08,0.422L260.225,0.38L260.373,0.339L260.523,0.3L260.675,0.264L260.83,0.229L260.987,0.196L261.145,0.166L261.306,0.137L261.469,0.112L261.635,0.089L261.802,0.068L261.972,0.05L262.144,0.036L262.317,0.024L262.493,0.016L262.67,0.01L262.849,0.009L263.028,0.01ZM262.771,14.678L262.666,14.788L262.559,14.903L262.45,15.021L262.339,15.143L262.225,15.269L262.11,15.399L261.993,15.532L261.874,15.669L261.753,15.81L261.631,15.954L261.507,16.102L261.381,16.253L261.254,16.408L261.125,16.567L260.994,16.728L260.862,16.893L260.729,17.062L260.594,17.234L260.458,17.409L260.32,17.588L260.181,17.769L260.041,17.954L259.9,18.142L259.757,18.333L259.613,18.528L259.467,18.725L259.321,18.926L259.174,19.129L259.025,19.336L258.875,19.546L258.724,19.758L258.572,19.974L258.419,20.192L258.265,20.413L258.109,20.638L257.953,20.865L257.796,21.095L257.638,21.327L257.478,21.563L257.318,21.801L257.157,22.042L256.995,22.286L256.832,22.532L256.668,22.781L256.503,23.033L256.337,23.287L256.171,23.544L256.003,23.804L255.835,24.066L255.666,24.331L255.496,24.598L255.325,24.868L255.153,25.14L254.981,25.415L254.808,25.692L254.634,25.972L254.459,26.254L254.283,26.538L254.107,26.825L253.93,27.114L253.752,27.406L253.574,27.7L253.394,27.996L253.214,28.294L253.034,28.595L252.852,28.898L252.67,29.204L252.487,29.511L252.304,29.821L252.12,30.133L251.935,30.447L251.75,30.763L251.564,31.081L251.377,31.401L251.19,31.724L251.002,32.049L250.814,32.375L250.624,32.704L250.435,33.035L250.244,33.368L250.054,33.703L249.862,34.04L249.671,34.377L249.284,35.062L248.896,35.753L248.506,36.451L248.114,37.158L247.72,37.871L247.324,38.591L246.926,39.319L246.526,40.054L246.124,40.795L245.721,41.543L245.315,42.297L244.908,43.058L244.5,43.826L244.089,44.599L243.678,45.379L243.265,46.164L242.85,46.955L242.434,47.752L242.016,48.555L241.598,49.363L241.178,50.176L240.756,50.994L240.334,51.818L239.911,52.646L239.486,53.48L239.06,54.318L238.634,55.161L238.206,56.008L237.778,56.859L237.348,57.715L236.918,58.575L236.487,59.439L236.056,60.307L235.624,61.179L235.191,62.054L234.757,62.933L234.323,63.815L233.889,64.701L233.454,65.59L233.018,66.482L232.582,67.376L232.146,68.274L231.71,69.174L231.273,70.077L230.836,70.983L230.399,71.891L229.962,72.801L229.525,73.713L229.088,74.628L228.651,75.544L228.214,76.462L227.776,77.382L227.34,78.303L226.903,79.226L226.466,80.15L226.03,81.075L225.594,82.001L225.159,82.929L224.724,83.857L224.289,84.786L223.855,85.715L223.421,86.645L222.988,87.576L222.555,88.507L222.123,89.438L221.692,90.369L221.262,91.3L220.832,92.231L220.403,93.161L219.975,94.091L219.548,95.021L219.122,95.95L218.697,96.878L218.273,97.805L217.85,98.732L217.428,99.657L217.007,100.581L216.588,101.504L216.17,102.425L215.753,103.345L215.337,104.263L214.923,105.179L214.51,106.094L214.098,107.006L213.689,107.916L212.873,109.73L212.065,111.534L211.263,113.327L210.468,115.108L209.681,116.876L208.901,118.631L208.13,120.372L207.367,122.097L206.613,123.806L205.868,125.497L205.133,127.171L204.408,128.825L203.693,130.459L202.988,132.073L202.294,133.664L201.611,135.233L200.94,136.779L200.28,138.299L199.633,139.794L198.999,141.263L198.377,142.705L197.768,144.118L197.173,145.502L196.591,146.856L196.024,148.179L195.472,149.47L194.934,150.729L194.411,151.953L193.904,153.143L193.413,154.298L192.937,155.416L192.479,156.496L192.037,157.539L191.613,158.541L190.816,160.427L190.092,162.144L189.444,163.686L188.874,165.045L188.384,166.215L187.978,167.188L187.658,167.957L187.426,168.513L185.627,172.851L180.952,173.173L180.365,173.214L179.553,173.271L178.526,173.344L177.29,173.432L175.853,173.536L174.223,173.656L172.407,173.79L170.412,173.94L169.351,174.02L168.248,174.103L167.104,174.191L165.92,174.282L164.697,174.376L163.437,174.474L162.139,174.576L160.805,174.681L159.437,174.789L158.034,174.901L156.598,175.017L155.13,175.135L153.63,175.257L152.1,175.383L150.541,175.511L148.953,175.643L147.338,175.778L145.697,175.917L144.029,176.058L142.337,176.203L140.622,176.351L138.883,176.502L137.123,176.656L135.342,176.813L133.541,176.973L131.721,177.136L129.883,177.302L128.028,177.471L126.157,177.643L124.271,177.818L122.371,177.995L120.457,178.176L118.531,178.359L116.594,178.546L114.646,178.734L112.689,178.926L110.722,179.121L109.737,179.219L108.75,179.317L107.761,179.417L106.77,179.517L105.778,179.618L104.785,179.719L103.79,179.822L102.794,179.924L101.798,180.028L100.801,180.132L99.803,180.237L98.804,180.342L97.805,180.448L96.805,180.554L95.806,180.662L94.806,180.769L93.806,180.878L92.807,180.987L91.808,181.096L90.809,181.207L89.811,181.318L88.813,181.429L87.816,181.541L86.82,181.654L85.824,181.767L84.83,181.881L83.838,181.995L82.846,182.11L81.856,182.226L80.868,182.342L79.881,182.458L78.896,182.575L77.913,182.693L76.932,182.812L75.953,182.93L74.977,183.05L74.003,183.17L73.031,183.29L72.063,183.411L71.097,183.533L70.133,183.655L69.173,183.778L68.217,183.901L67.263,184.024L66.313,184.148L65.366,184.273L64.423,184.398L63.484,184.524L62.548,184.65L61.617,184.777L60.69,184.904L59.767,185.031L58.848,185.159L57.934,185.288L57.024,185.417L56.12,185.546L55.22,185.676L54.325,185.807L53.435,185.937L52.551,186.069L51.671,186.2L50.798,186.333L49.93,186.465L49.067,186.598L48.211,186.731L47.361,186.865L46.516,186.999L45.678,187.134L44.847,187.269L44.021,187.404L43.203,187.54L42.391,187.676L41.586,187.813L40.789,187.95L39.998,188.087L39.215,188.224L38.439,188.362L37.67,188.5L36.91,188.639L36.157,188.778L35.412,188.917L34.675,189.056L33.947,189.196L33.226,189.336L32.513,189.476L32.162,189.546L31.812,189.616L31.464,189.687L31.118,189.757L30.774,189.827L30.433,189.898L30.093,189.968L29.756,190.039L29.422,190.11L29.09,190.18L28.76,190.251L28.432,190.322L28.107,190.392L27.784,190.463L27.464,190.534L27.146,190.605L26.831,190.676L26.518,190.747L26.208,190.818L25.9,190.889L25.594,190.96L25.291,191.031L24.992,191.102L24.694,191.173L24.399,191.244L24.107,191.315L23.817,191.386L23.53,191.457L23.246,191.528L22.965,191.598L22.686,191.669L22.41,191.74L22.137,191.811L21.867,191.882L21.6,191.953L21.335,192.023L21.074,192.094L20.815,192.165L20.559,192.235L20.307,192.306L20.057,192.376L19.811,192.446L19.567,192.517L19.327,192.587L19.089,192.657L18.855,192.726L18.625,192.796L18.397,192.866L18.172,192.935L17.951,193.004L17.733,193.073L17.519,193.142L17.308,193.211L17.1,193.279L16.896,193.347L16.695,193.415L16.498,193.483L16.305,193.55L16.115,193.617L15.929,193.684L15.746,193.75L15.567,193.816L15.392,193.881L15.221,193.946L15.054,194.011L14.89,194.075L14.731,194.138L14.576,194.201L14.425,194.263L14.278,194.325L14.247,194.338L14.256,194.353L14.335,194.489L14.418,194.629L14.503,194.771L14.591,194.916L14.682,195.064L14.776,195.215L14.873,195.368L14.973,195.524L15.075,195.683L15.181,195.844L15.289,196.008L15.4,196.174L15.514,196.343L15.63,196.514L15.749,196.687L15.871,196.863L15.996,197.041L16.123,197.221L16.253,197.403L16.385,197.588L16.521,197.774L16.658,197.963L16.798,198.153L16.941,198.346L17.086,198.541L17.234,198.738L17.384,198.936L17.537,199.137L17.693,199.34L17.85,199.544L18.01,199.75L18.173,199.958L18.337,200.168L18.505,200.38L18.674,200.593L18.846,200.808L19.02,201.025L19.196,201.244L19.375,201.464L19.556,201.686L19.739,201.909L19.925,202.135L20.113,202.361L20.302,202.59L20.494,202.82L20.689,203.051L20.885,203.284L21.084,203.519L21.284,203.755L21.487,203.992L21.692,204.232L21.899,204.472L22.108,204.714L22.318,204.957L22.531,205.202L22.747,205.449L22.964,205.696L23.183,205.945L23.403,206.195L23.626,206.447L23.851,206.7L24.078,206.955L24.307,207.21L24.537,207.467L24.77,207.726L25.004,207.985L25.24,208.246L25.478,208.508L25.718,208.771L25.96,209.036L26.204,209.302L26.449,209.568L26.696,209.837L26.945,210.106L27.195,210.376L27.446,210.646L27.957,211.195L28.474,211.746L28.997,212.301L29.527,212.861L30.063,213.425L30.605,213.993L31.154,214.565L31.709,215.141L32.27,215.721L32.837,216.305L33.409,216.892L33.987,217.483L34.571,218.077L35.161,218.675L35.756,219.277L36.356,219.881L36.961,220.489L37.572,221.1L38.187,221.714L38.808,222.331L39.433,222.95L40.063,223.573L40.698,224.198L41.337,224.826L41.98,225.457L42.628,226.089L43.28,226.725L43.936,227.363L44.596,228.003L45.26,228.645L45.928,229.289L46.599,229.935L47.275,230.583L47.953,231.233L48.635,231.885L49.321,232.539L50.009,233.194L50.701,233.851L51.396,234.509L52.094,235.169L52.794,235.83L53.498,236.493L54.203,237.156L54.912,237.821L55.623,238.486L56.336,239.153L57.052,239.821L57.769,240.489L58.489,241.158L59.211,241.828L59.934,242.499L60.66,243.17L61.387,243.841L62.115,244.513L62.845,245.185L63.577,245.857L64.31,246.529L65.044,247.202L65.779,247.875L66.515,248.547L67.251,249.219L67.989,249.891L68.728,250.563L69.467,251.235L70.206,251.906L70.946,252.576L71.686,253.246L72.427,253.915L73.168,254.584L73.908,255.252L74.649,255.919L75.389,256.585L76.13,257.249L76.869,257.913L77.609,258.576L78.348,259.237L79.086,259.897L79.823,260.556L80.56,261.213L81.296,261.869L82.031,262.523L82.764,263.175L83.497,263.826L84.227,264.474L85.686,265.767L87.137,267.05L88.581,268.325L90.018,269.591L91.446,270.846L92.864,272.091L94.272,273.325L95.669,274.548L97.055,275.758L98.428,276.955L99.787,278.139L101.133,279.308L102.464,280.464L103.779,281.604L105.078,282.728L106.36,283.836L107.624,284.927L108.87,286L110.096,287.056L111.302,288.092L112.487,289.11L113.651,290.108L114.792,291.085L115.91,292.041L117.004,292.976L118.073,293.888L119.117,294.778L120.135,295.645L121.125,296.487L122.088,297.306L123.023,298.099L123.928,298.866L124.803,299.608L125.647,300.322L126.46,301.009L127.988,302.3L129.381,303.473L130.632,304.526L131.735,305.452L132.685,306.249L133.475,306.911L134.1,307.433L134.552,307.81L138.008,310.689L137.148,315.111L136.876,316.516L136.678,317.545L136.44,318.784L136.164,320.224L135.853,321.859L135.507,323.68L135.128,325.679L134.719,327.85L134.28,330.185L134.051,331.411L133.814,332.675L133.572,333.977L133.323,335.315L133.068,336.688L132.808,338.096L132.541,339.537L132.27,341.01L131.993,342.515L131.712,344.05L131.426,345.615L131.135,347.209L130.84,348.83L130.541,350.479L130.239,352.153L129.932,353.852L129.622,355.575L129.31,357.321L128.994,359.089L128.675,360.878L128.354,362.687L128.031,364.516L127.705,366.363L127.378,368.227L127.049,370.107L126.719,372.003L126.387,373.914L126.054,375.838L125.721,377.775L125.387,379.724L125.052,381.683L124.718,383.652L124.384,385.63L124.049,387.615L123.716,389.608L123.383,391.607L123.051,393.61L122.72,395.618L122.391,397.63L122.227,398.635L122.063,399.642L121.9,400.649L121.737,401.657L121.575,402.664L121.413,403.671L121.252,404.678L121.092,405.685L120.932,406.692L120.773,407.698L120.614,408.703L120.456,409.708L120.299,410.711L120.142,411.714L119.987,412.716L119.832,413.716L119.678,414.715L119.525,415.712L119.373,416.708L119.221,417.702L119.071,418.695L118.921,419.685L118.773,420.674L118.626,421.66L118.479,422.644L118.334,423.625L118.19,424.604L118.047,425.58L117.905,426.553L117.764,427.524L117.625,428.491L117.486,429.455L117.349,430.416L117.214,431.374L117.079,432.328L116.946,433.279L116.815,434.225L116.685,435.168L116.556,436.107L116.429,437.042L116.303,437.972L116.178,438.898L116.056,439.82L115.934,440.737L115.815,441.649L115.697,442.556L115.58,443.458L115.466,444.356L115.353,445.248L115.242,446.134L115.132,447.016L115.024,447.891L114.918,448.761L114.814,449.625L114.712,450.483L114.612,451.335L114.514,452.181L114.417,453.02L114.323,453.853L114.23,454.679L114.14,455.499L114.052,456.312L113.965,457.117L113.881,457.916L113.799,458.707L113.719,459.491L113.642,460.267L113.566,461.036L113.493,461.797L113.422,462.55L113.353,463.295L113.287,464.031L113.223,464.76L113.162,465.48L113.102,466.191L113.046,466.893L112.991,467.587L112.939,468.271L112.89,468.947L112.843,469.615L112.821,469.942L112.799,470.269L112.778,470.594L112.757,470.916L112.737,471.236L112.718,471.553L112.7,471.867L112.682,472.18L112.664,472.489L112.648,472.796L112.632,473.101L112.617,473.403L112.602,473.702L112.588,473.999L112.575,474.293L112.562,474.584L112.55,474.873L112.539,475.158L112.529,475.441L112.519,475.722L112.51,475.999L112.501,476.274L112.493,476.545L112.486,476.814L112.48,477.08L112.474,477.343L112.469,477.603L112.465,477.86L112.461,478.114L112.458,478.365L112.456,478.613L112.454,478.858L112.454,479.099L112.453,479.338L112.454,479.573L112.455,479.805L112.457,480.034L112.46,480.259L112.463,480.481L112.467,480.7L112.472,480.915L112.477,481.126L112.483,481.335L112.49,481.539L112.497,481.74L112.505,481.938L112.514,482.131L112.523,482.321L112.533,482.507L112.536,482.552L112.623,482.523L112.801,482.463L112.983,482.401L113.168,482.337L113.355,482.271L113.547,482.202L113.741,482.132L113.939,482.06L114.14,481.986L114.343,481.909L114.55,481.831L114.759,481.751L114.972,481.669L115.187,481.585L115.405,481.499L115.626,481.411L115.849,481.321L116.076,481.23L116.306,481.136L116.537,481.04L116.772,480.943L117.008,480.844L117.248,480.743L117.491,480.64L117.735,480.536L117.983,480.429L118.232,480.321L118.484,480.211L118.739,480.1L118.996,479.986L119.255,479.871L119.517,479.754L119.781,479.636L120.047,479.515L120.316,479.393L120.587,479.269L120.86,479.144L121.135,479.017L121.413,478.888L121.693,478.758L121.974,478.626L122.259,478.492L122.545,478.357L122.833,478.22L123.124,478.082L123.416,477.942L123.711,477.8L124.007,477.657L124.306,477.512L124.606,477.366L124.909,477.219L125.214,477.069L125.52,476.919L125.829,476.766L126.137,476.614L126.765,476.301L127.399,475.983L128.041,475.66L128.689,475.331L129.344,474.996L130.007,474.656L130.676,474.31L131.352,473.96L132.035,473.604L132.724,473.242L133.419,472.876L134.121,472.504L134.829,472.128L135.543,471.747L136.262,471.361L136.988,470.97L137.719,470.575L138.456,470.175L139.198,469.77L139.945,469.361L140.698,468.948L141.456,468.531L142.219,468.109L142.987,467.683L143.759,467.254L144.536,466.82L145.318,466.382L146.105,465.941L146.895,465.495L147.69,465.047L148.489,464.594L149.292,464.138L150.099,463.679L150.91,463.216L151.725,462.75L152.543,462.28L153.364,461.808L154.19,461.332L155.018,460.854L155.849,460.372L156.684,459.888L157.522,459.401L158.362,458.911L159.206,458.419L160.052,457.924L160.9,457.426L161.751,456.926L162.605,456.424L163.46,455.919L164.318,455.413L165.178,454.904L166.04,454.393L166.904,453.88L167.769,453.365L168.636,452.848L169.505,452.33L170.375,451.81L171.246,451.288L172.119,450.765L172.993,450.24L173.867,449.714L174.743,449.187L175.62,448.658L176.497,448.128L177.375,447.597L178.253,447.065L179.132,446.532L180.011,445.998L180.89,445.463L181.77,444.928L182.649,444.391L183.529,443.855L184.408,443.317L185.287,442.78L186.165,442.241L187.043,441.703L187.921,441.164L188.797,440.626L189.673,440.087L190.548,439.547L191.422,439.008L192.294,438.47L194.036,437.393L195.773,436.317L197.502,435.243L199.225,434.172L200.939,433.103L202.645,432.039L204.34,430.978L206.026,429.923L207.699,428.872L209.361,427.828L211.01,426.79L212.645,425.759L214.265,424.736L215.87,423.721L217.459,422.715L219.031,421.718L220.585,420.731L222.12,419.755L223.636,418.79L225.132,417.837L226.607,416.895L228.06,415.967L229.49,415.052L230.897,414.151L232.279,413.264L233.636,412.393L234.968,411.537L236.273,410.698L237.55,409.875L238.799,409.07L240.019,408.283L241.209,407.514L242.368,406.764L243.496,406.034L244.592,405.325L245.654,404.636L246.682,403.969L247.675,403.324L249.555,402.101L251.286,400.974L252.862,399.946L254.276,399.022L255.522,398.206L256.594,397.504L257.485,396.919L258.188,396.457L258.697,396.122L262.926,393.336L267.107,396.205L267.616,396.554L268.32,397.035L269.212,397.644L270.286,398.376L271.535,399.225L272.954,400.188L274.535,401.259L275.384,401.833L276.271,402.433L277.196,403.057L278.158,403.705L279.155,404.377L280.188,405.072L281.255,405.789L282.355,406.527L283.488,407.287L284.653,408.067L285.849,408.866L287.075,409.685L288.331,410.523L289.615,411.378L290.928,412.251L292.267,413.141L293.633,414.047L295.024,414.969L296.44,415.905L297.88,416.856L299.342,417.821L300.828,418.799L302.334,419.789L303.862,420.792L305.409,421.806L306.975,422.83L308.56,423.865L310.162,424.909L311.781,425.962L313.416,427.024L315.066,428.093L316.73,429.169L318.409,430.253L319.252,430.796L320.099,431.341L320.948,431.888L321.801,432.435L322.656,432.984L323.515,433.534L324.375,434.085L325.238,434.637L326.104,435.19L326.972,435.743L327.842,436.298L328.714,436.853L329.588,437.408L330.464,437.964L331.341,438.521L332.221,439.078L333.102,439.635L333.984,440.192L334.868,440.749L335.753,441.307L336.639,441.864L337.526,442.421L338.414,442.978L339.304,443.535L340.193,444.092L341.084,444.648L341.975,445.203L342.867,445.758L343.759,446.313L344.651,446.866L345.543,447.419L346.436,447.971L347.328,448.522L348.22,449.072L349.112,449.621L350.004,450.169L350.895,450.715L351.786,451.26L352.676,451.804L353.565,452.346L354.454,452.887L355.341,453.426L356.228,453.964L357.113,454.499L357.997,455.033L358.88,455.565L359.761,456.094L360.64,456.622L361.518,457.147L362.395,457.671L363.269,458.192L364.141,458.71L365.011,459.226L365.88,459.739L366.745,460.25L367.609,460.758L368.47,461.264L369.328,461.766L370.184,462.266L371.037,462.762L371.887,463.256L372.734,463.746L373.577,464.233L374.418,464.717L375.255,465.197L376.089,465.674L376.92,466.147L377.746,466.617L378.569,467.082L379.388,467.545L380.203,468.003L381.014,468.457L381.821,468.907L382.624,469.353L383.422,469.795L384.216,470.233L385.005,470.666L385.79,471.095L386.569,471.52L387.344,471.94L388.113,472.355L388.878,472.765L389.637,473.171L390.391,473.572L391.139,473.967L391.882,474.358L392.621,474.744L392.986,474.934L393.35,475.124L393.714,475.312L394.076,475.499L394.436,475.684L394.795,475.869L395.152,476.051L395.507,476.233L395.861,476.413L396.214,476.591L396.565,476.769L396.914,476.944L397.262,477.119L397.608,477.292L397.952,477.463L398.295,477.633L398.636,477.802L398.975,477.969L399.313,478.134L399.648,478.298L399.982,478.461L400.314,478.622L400.645,478.782L400.973,478.94L401.3,479.096L401.625,479.251L401.948,479.404L402.269,479.556L402.589,479.706L402.906,479.855L403.221,480.001L403.535,480.147L403.845,480.29L404.155,480.432L404.463,480.573L404.768,480.711L405.071,480.848L405.373,480.984L405.672,481.117L405.969,481.249L406.264,481.379L406.557,481.508L406.847,481.634L407.136,481.759L407.422,481.882L407.706,482.004L407.988,482.124L408.267,482.241L408.545,482.357L408.82,482.472L409.092,482.584L409.362,482.694L409.63,482.803L409.895,482.91L410.158,483.015L410.419,483.118L410.677,483.219L410.932,483.318L411.185,483.415L411.435,483.51L411.683,483.604L411.928,483.696L412.17,483.785L412.41,483.873L412.647,483.958L412.881,484.042L413.112,484.123L413.341,484.203L413.566,484.28L413.789,484.356L414.009,484.429L414.226,484.501L414.439,484.57L414.65,484.638L414.857,484.703L415.062,484.766L415.263,484.827L415.461,484.886L415.655,484.943L415.846,484.998L416.034,485.05L416.218,485.101L416.399,485.149L416.576,485.196L416.749,485.24L416.919,485.282L417.085,485.322L417.246,485.36L417.404,485.396L417.558,485.429L417.708,485.461L417.853,485.491L417.922,485.504L417.936,485.406L417.956,485.26L417.976,485.111L417.994,484.956L418.013,484.797L418.031,484.633L418.048,484.466L418.064,484.295L418.079,484.119L418.094,483.939L418.108,483.754L418.121,483.567L418.134,483.376L418.145,483.179L418.156,482.98L418.166,482.777L418.175,482.57L418.183,482.36L418.191,482.146L418.197,481.929L418.202,481.708L418.207,481.484L418.211,481.256L418.213,481.025L418.215,480.79L418.216,480.552L418.216,480.311L418.215,480.067L418.213,479.82L418.21,479.569L418.206,479.315L418.201,479.058L418.196,478.799L418.189,478.536L418.182,478.27L418.173,478.001L418.164,477.729L418.153,477.455L418.142,477.177L418.13,476.897L418.116,476.614L418.102,476.328L418.087,476.039L418.071,475.747L418.054,475.453L418.036,475.157L418.018,474.857L417.998,474.555L417.977,474.25L417.956,473.943L417.933,473.633L417.91,473.32L417.886,473.005L417.861,472.688L417.835,472.368L417.808,472.045L417.78,471.72L417.751,471.393L417.722,471.063L417.691,470.731L417.66,470.396L417.628,470.06L417.595,469.721L417.561,469.379L417.526,469.036L417.49,468.69L417.454,468.342L417.416,467.991L417.378,467.638L417.339,467.284L417.299,466.927L417.259,466.568L417.217,466.206L417.175,465.843L417.132,465.478L417.088,465.111L417.043,464.741L416.998,464.37L416.951,463.996L416.904,463.62L416.856,463.243L416.807,462.864L416.758,462.482L416.707,462.099L416.657,461.714L416.605,461.327L416.552,460.937L416.499,460.547L416.445,460.154L416.39,459.76L416.334,459.363L416.278,458.965L416.221,458.567L416.104,457.76L415.985,456.948L415.863,456.13L415.738,455.304L415.611,454.473L415.48,453.634L415.347,452.79L415.211,451.94L415.073,451.083L414.932,450.221L414.788,449.353L414.642,448.479L414.494,447.6L414.343,446.716L414.189,445.826L414.034,444.931L413.876,444.032L413.715,443.127L413.553,442.218L413.388,441.304L413.221,440.385L413.052,439.462L412.88,438.536L412.707,437.604L412.532,436.669L412.354,435.73L412.175,434.787L411.994,433.841L411.811,432.891L411.626,431.938L411.439,430.981L411.251,430.021L411.06,429.059L410.869,428.093L410.675,427.125L410.48,426.153L410.283,425.18L410.085,424.203L409.885,423.225L409.684,422.244L409.481,421.262L409.277,420.277L409.071,419.29L408.865,418.302L408.657,417.312L408.447,416.32L408.237,415.328L408.025,414.334L407.813,413.339L407.599,412.342L407.384,411.345L407.168,410.347L406.951,409.349L406.733,408.35L406.515,407.35L406.295,406.35L406.075,405.35L405.853,404.35L405.631,403.35L405.409,402.35L405.185,401.35L404.961,400.351L404.737,399.352L404.512,398.354L404.286,397.357L404.06,396.36L403.833,395.365L403.606,394.37L403.379,393.377L403.151,392.385L402.923,391.394L402.694,390.405L402.466,389.418L402.237,388.433L402.008,387.449L401.779,386.467L401.55,385.488L401.321,384.511L401.092,383.536L400.863,382.564L400.634,381.594L400.405,380.627L400.176,379.663L399.947,378.702L399.719,377.744L399.263,375.837L398.808,373.944L398.355,372.065L397.904,370.203L397.455,368.356L397.009,366.527L396.565,364.717L396.125,362.925L395.688,361.154L395.255,359.404L394.826,357.676L394.401,355.971L393.98,354.289L393.565,352.633L393.155,351.002L392.75,349.398L392.351,347.822L391.959,346.274L391.572,344.755L391.193,343.267L390.82,341.81L390.455,340.385L390.097,338.994L389.747,337.636L389.405,336.314L389.072,335.028L388.748,333.778L388.433,332.566L388.127,331.393L387.831,330.259L387.544,329.166L387.269,328.114L387.003,327.105L386.749,326.14L386.274,324.341L385.846,322.728L385.467,321.306L385.141,320.083L384.869,319.067L384.653,318.265L384.496,317.685L383.239,313.039L386.907,309.939L387.356,309.559L387.975,309.034L388.759,308.369L389.702,307.568L390.797,306.635L392.039,305.577L393.421,304.397L394.937,303.1L396.583,301.69L397.451,300.945L398.349,300.174L399.277,299.376L400.233,298.554L401.217,297.707L402.227,296.836L403.263,295.941L404.325,295.024L405.412,294.085L406.522,293.124L407.655,292.142L408.811,291.139L409.988,290.117L411.186,289.075L412.404,288.014L413.642,286.936L414.898,285.84L416.171,284.727L417.462,283.597L418.769,282.452L420.092,281.292L421.429,280.117L422.781,278.928L424.146,277.726L425.523,276.511L426.912,275.283L428.312,274.044L429.723,272.794L431.143,271.533L432.571,270.263L434.008,268.983L435.452,267.694L436.902,266.398L438.358,265.093L439.82,263.781L440.552,263.124L441.285,262.464L442.019,261.803L442.754,261.141L443.489,260.477L444.225,259.813L444.962,259.146L445.699,258.479L446.436,257.811L447.173,257.142L447.911,256.472L448.649,255.802L449.386,255.13L450.123,254.458L450.86,253.786L451.597,253.113L452.333,252.439L453.069,251.765L453.804,251.091L454.538,250.417L455.272,249.743L456.004,249.068L456.736,248.394L457.466,247.719L458.195,247.045L458.923,246.371L459.65,245.698L460.375,245.025L461.098,244.352L461.82,243.68L462.54,243.009L463.258,242.338L463.974,241.668L464.687,240.999L465.399,240.331L466.109,239.664L466.816,238.998L467.52,238.333L468.222,237.669L468.922,237.007L469.619,236.346L470.312,235.686L471.003,235.028L471.691,234.372L472.376,233.717L473.058,233.064L473.736,232.413L474.411,231.764L475.082,231.117L475.749,230.472L476.413,229.829L477.074,229.188L477.73,228.549L478.382,227.913L479.03,227.279L479.674,226.648L480.314,226.02L480.949,225.394L481.58,224.771L482.206,224.151L482.827,223.533L483.444,222.919L484.056,222.308L484.662,221.7L485.264,221.095L485.861,220.494L486.452,219.895L487.038,219.301L487.618,218.71L488.193,218.122L488.762,217.539L489.325,216.959L489.883,216.383L490.434,215.811L490.979,215.243L491.519,214.679L492.052,214.119L492.578,213.564L493.098,213.013L493.611,212.467L494.118,211.925L494.617,211.388L495.11,210.856L495.598,210.327L495.836,210.067L496.075,209.806L496.311,209.547L496.546,209.289L496.779,209.032L497.01,208.777L497.239,208.523L497.467,208.27L497.692,208.018L497.916,207.768L498.137,207.52L498.357,207.272L498.574,207.026L498.79,206.782L499.004,206.539L499.216,206.297L499.426,206.056L499.633,205.818L499.839,205.581L500.043,205.345L500.244,205.11L500.443,204.878L500.641,204.646L500.836,204.417L501.029,204.188L501.22,203.962L501.409,203.737L501.595,203.514L501.78,203.292L501.962,203.072L502.142,202.854L502.32,202.637L502.495,202.422L502.668,202.209L502.839,201.997L503.008,201.788L503.174,201.58L503.338,201.374L503.499,201.169L503.659,200.967L503.815,200.766L503.97,200.568L504.122,200.371L504.271,200.176L504.418,199.983L504.563,199.792L504.704,199.604L504.844,199.417L504.981,199.232L505.115,199.05L505.247,198.869L505.376,198.691L505.502,198.515L505.627,198.341L505.748,198.169L505.866,198.001L505.982,197.834L506.095,197.669L506.206,197.507L506.313,197.348L506.418,197.191L506.52,197.037L506.619,196.885L506.715,196.736L506.809,196.589L506.899,196.446L506.987,196.306L506.991,196.298L506.849,196.24L506.692,196.177L506.531,196.113L506.366,196.048L506.197,195.983L506.024,195.918L505.848,195.852L505.667,195.785L505.484,195.718L505.297,195.651L505.105,195.583L504.91,195.515L504.712,195.447L504.51,195.378L504.306,195.309L504.097,195.24L503.885,195.171L503.67,195.101L503.451,195.031L503.23,194.961L503.005,194.89L502.776,194.82L502.545,194.749L502.31,194.678L502.073,194.607L501.832,194.535L501.588,194.464L501.341,194.392L501.091,194.32L500.839,194.248L500.583,194.176L500.324,194.104L500.063,194.032L499.798,193.96L499.531,193.887L499.261,193.815L498.988,193.742L498.713,193.669L498.434,193.596L498.153,193.524L497.869,193.451L497.583,193.378L497.294,193.305L497.002,193.232L496.708,193.159L496.411,193.085L496.111,193.012L495.809,192.939L495.504,192.866L495.197,192.792L494.887,192.719L494.575,192.646L494.261,192.572L493.944,192.499L493.624,192.425L493.303,192.352L492.978,192.279L492.652,192.205L492.323,192.132L491.992,192.058L491.658,191.985L491.322,191.911L490.984,191.838L490.644,191.764L490.304,191.691L489.61,191.544L488.91,191.397L488.201,191.251L487.484,191.104L486.758,190.957L486.024,190.811L485.283,190.665L484.533,190.519L483.776,190.372L483.011,190.227L482.239,190.081L481.46,189.935L480.673,189.79L479.879,189.645L479.079,189.5L478.271,189.355L477.457,189.211L476.636,189.067L475.809,188.923L474.976,188.779L474.136,188.635L473.291,188.492L472.439,188.349L471.582,188.207L470.719,188.064L469.851,187.922L468.977,187.78L468.098,187.639L467.214,187.498L466.324,187.357L465.43,187.217L464.531,187.076L463.628,186.937L462.719,186.797L461.807,186.658L460.89,186.52L459.969,186.381L459.044,186.243L458.115,186.106L457.182,185.969L456.246,185.832L455.306,185.696L454.363,185.56L453.416,185.424L452.466,185.289L451.513,185.155L450.557,185.02L449.598,184.887L448.637,184.753L447.673,184.621L446.706,184.488L445.737,184.356L444.766,184.225L443.793,184.094L442.818,183.963L441.841,183.834L440.862,183.704L439.881,183.575L438.899,183.447L437.916,183.319L436.931,183.191L435.946,183.064L434.959,182.938L433.971,182.812L432.983,182.687L431.994,182.562L431.004,182.438L430.014,182.315L429.023,182.192L428.033,182.069L427.042,181.947L426.051,181.826L425.061,181.705L424.071,181.585L423.081,181.466L422.092,181.347L421.103,181.229L420.115,181.111L419.128,180.994L418.142,180.878L417.158,180.762L416.175,180.647L414.211,180.419L412.254,180.193L410.305,179.97L408.364,179.75L406.432,179.533L404.511,179.318L402.6,179.106L400.702,178.898L398.816,178.692L396.945,178.489L395.088,178.289L393.248,178.092L391.424,177.899L389.618,177.708L387.83,177.521L386.063,177.337L384.316,177.156L382.59,176.979L380.887,176.805L379.207,176.635L377.552,176.468L375.922,176.304L374.318,176.144L372.742,175.988L371.194,175.835L369.675,175.686L368.186,175.541L366.728,175.4L365.301,175.262L363.908,175.129L362.549,174.999L361.224,174.873L359.935,174.751L358.683,174.633L357.469,174.52L356.293,174.41L355.157,174.305L353.005,174.107L351.024,173.926L349.219,173.763L347.599,173.617L346.171,173.49L344.943,173.382L343.922,173.292L343.115,173.222L342.531,173.172L337.889,172.775L336.149,168.442L335.925,167.886L335.614,167.117L335.221,166.145L334.747,164.975L334.195,163.615L333.567,162.073L332.866,160.356L332.094,158.471L331.683,157.468L331.255,156.426L330.81,155.345L330.35,154.227L329.874,153.073L329.382,151.883L328.876,150.658L328.355,149.4L327.819,148.109L327.269,146.786L326.706,145.432L326.129,144.048L325.539,142.635L324.936,141.194L324.32,139.725L323.693,138.23L323.054,136.709L322.403,135.164L321.741,133.595L321.068,132.003L320.384,130.39L319.69,128.756L318.987,127.102L318.274,125.428L317.551,123.737L316.82,122.028L316.08,120.303L315.331,118.563L314.575,116.808L313.811,115.039L313.04,113.258L312.262,111.465L311.477,109.662L310.685,107.847L310.288,106.938L309.888,106.025L309.487,105.111L309.085,104.195L308.682,103.277L308.277,102.357L307.871,101.436L307.463,100.513L307.055,99.589L306.645,98.664L306.234,97.738L305.822,96.81L305.409,95.882L304.996,94.953L304.581,94.024L304.165,93.094L303.749,92.163L303.331,91.232L302.913,90.302L302.494,89.371L302.075,88.44L301.654,87.509L301.234,86.578L300.812,85.648L300.39,84.719L299.968,83.79L299.545,82.862L299.122,81.935L298.698,81.008L298.274,80.083L297.85,79.159L297.425,78.236L297,77.315L296.575,76.396L296.15,75.478L295.725,74.562L295.3,73.647L294.875,72.735L294.45,71.825L294.025,70.917L293.6,70.012L293.175,69.109L292.751,68.208L292.326,67.311L291.902,66.416L291.479,65.524L291.056,64.636L290.633,63.75L290.21,62.868L289.788,61.989L289.367,61.114L288.946,60.242L288.526,59.375L288.107,58.511L287.688,57.651L287.27,56.795L286.853,55.944L286.437,55.097L286.021,54.254L285.607,53.416L285.193,52.583L284.781,51.754L284.369,50.931L283.959,50.113L283.55,49.299L283.141,48.492L282.735,47.689L282.329,46.893L281.925,46.101L281.522,45.316L281.121,44.537L280.721,43.764L280.322,42.997L279.926,42.236L279.53,41.481L279.137,40.734L278.745,39.992L278.355,39.258L277.966,38.531L277.58,37.81L277.195,37.097L276.812,36.391L276.431,35.693L276.053,35.002L275.675,34.317L275.489,33.98L275.302,33.644L275.115,33.309L274.93,32.976L274.744,32.645L274.56,32.317L274.375,31.99L274.192,31.666L274.009,31.343L273.827,31.023L273.645,30.705L273.464,30.389L273.283,30.075L273.103,29.763L272.924,29.454L272.745,29.146L272.567,28.841L272.39,28.538L272.214,28.238L272.038,27.939L271.862,27.643L271.688,27.35L271.514,27.058L271.341,26.769L271.168,26.483L270.997,26.198L270.826,25.917L270.655,25.637L270.486,25.36L270.317,25.085L270.149,24.813L269.982,24.544L269.816,24.277L269.65,24.012L269.486,23.75L269.322,23.491L269.158,23.234L268.996,22.98L268.835,22.729L268.674,22.48L268.515,22.234L268.356,21.99L268.198,21.749L268.041,21.511L267.885,21.276L267.73,21.044L267.576,20.814L267.423,20.587L267.271,20.364L267.12,20.142L266.97,19.924L266.821,19.709L266.673,19.497L266.526,19.288L266.38,19.081L266.236,18.878L266.092,18.678L265.95,18.481L265.809,18.287L265.669,18.096L265.53,17.908L265.393,17.724L265.256,17.543L265.121,17.364L264.988,17.19L264.856,17.018L264.725,16.85L264.595,16.686L264.467,16.524L264.341,16.366L264.216,16.212L264.093,16.061L263.971,15.914L263.851,15.77L263.732,15.63L263.616,15.493L263.501,15.361L263.388,15.232L263.277,15.106L263.168,14.985L263.061,14.867L262.956,14.753L262.853,14.644L262.829,14.618L262.771,14.678Z" style="fill:white;"/>
    </g>
</svg>
