<?xml version="1.0" encoding="UTF-8" standalone="no"?>
<!DOCTYPE svg PUBLIC "-//W3C//DTD SVG 1.1//EN" "http://www.w3.org/Graphics/SVG/1.1/DTD/svg11.dtd">
<svg width="100%" height="100%" viewBox="0 0 850 850" version="1.1" xmlns="http://www.w3.org/2000/svg" xmlns:xlink="http://www.w3.org/1999/xlink" xml:space="preserve" style="fill-rule:evenodd;clip-rule:evenodd;stroke-linejoin:round;stroke-miterlimit:1.41421;">
    <g transform="matrix(1.74014,0,0,1.74014,23.6901,24.6813)">
        <path d="M435.111,0.614L435.284,0.616L435.458,0.618L435.632,0.621L435.807,0.625L435.982,0.63L436.157,0.635L436.333,0.642L436.51,0.649L436.687,0.658L436.864,0.667L437.042,0.677L437.22,0.689L437.399,0.701L437.578,0.714L437.757,0.728L437.937,0.743L438.117,0.76L438.298,0.777L438.479,0.796L438.66,0.815L438.842,0.836L439.024,0.857L439.206,0.88L439.389,0.904L439.572,0.929L439.755,0.956L439.939,0.983L440.122,1.012L440.307,1.042L440.491,1.073L440.676,1.105L440.861,1.139L441.046,1.174L441.231,1.21L441.417,1.248L441.603,1.287L441.789,1.327L441.975,1.368L442.161,1.411L442.348,1.456L442.534,1.502L442.721,1.549L442.908,1.597L443.095,1.648L443.282,1.699L443.47,1.752L443.657,1.807L443.844,1.863L444.032,1.921L444.219,1.98L444.406,2.041L444.594,2.103L444.781,2.167L444.969,2.232L445.156,2.3L445.343,2.369L445.53,2.439L445.718,2.511L445.905,2.585L446.091,2.661L446.278,2.738L446.465,2.818L446.651,2.898L446.837,2.981L447.023,3.066L447.209,3.152L447.394,3.24L447.579,3.33L447.764,3.422L447.948,3.515L448.132,3.611L448.316,3.708L448.5,3.807L448.682,3.909L448.865,4.012L449.047,4.116L449.228,4.223L449.41,4.333L449.59,4.443L449.77,4.556L449.949,4.671L450.128,4.788L450.306,4.906L450.483,5.027L450.66,5.15L450.836,5.275L451.012,5.401L451.186,5.53L451.36,5.661L451.533,5.794L451.706,5.929L451.877,6.066L452.047,6.205L452.217,6.346L452.385,6.489L452.553,6.634L452.72,6.781L452.885,6.93L453.05,7.081L453.214,7.235L453.377,7.39L453.538,7.547L453.698,7.706L453.853,7.863L454.006,8.021L454.156,8.179L454.305,8.338L454.452,8.498L454.597,8.658L454.741,8.82L454.882,8.982L455.021,9.144L455.159,9.308L455.295,9.473L455.428,9.638L455.56,9.804L455.69,9.97L455.819,10.137L455.945,10.305L456.069,10.473L456.192,10.642L456.313,10.811L456.431,10.981L456.549,11.152L456.664,11.323L456.777,11.495L456.888,11.667L456.998,11.839L457.106,12.013L457.212,12.186L457.316,12.36L457.418,12.534L457.519,12.708L457.617,12.883L457.714,13.059L457.809,13.234L457.903,13.41L457.994,13.586L458.084,13.763L458.172,13.939L458.258,14.116L458.343,14.294L458.426,14.471L458.507,14.647L458.586,14.825L458.664,15.003L458.74,15.18L458.815,15.359L458.887,15.537L458.958,15.714L459.028,15.892L459.095,16.071L459.162,16.249L459.226,16.427L459.289,16.605L459.351,16.783L459.41,16.961L459.469,17.139L459.526,17.317L459.581,17.494L459.634,17.672L459.687,17.849L459.738,18.027L459.787,18.204L459.835,18.381L459.881,18.557L459.926,18.735L459.97,18.912L460.012,19.087L460.053,19.263L460.092,19.439L460.13,19.615L460.167,19.79L460.202,19.965L460.237,20.14L460.269,20.314L460.301,20.489L460.331,20.662L460.36,20.835L460.388,21.008L460.415,21.182L460.44,21.354L460.464,21.525L460.487,21.697L460.509,21.869L460.53,22.039L460.549,22.21L460.568,22.38L460.585,22.55L460.602,22.719L460.617,22.888L460.631,23.056L460.644,23.224L460.656,23.391L460.667,23.558L460.677,23.725L460.686,23.89L460.694,24.056L460.702,24.221L460.708,24.385L460.713,24.55L460.717,24.713L460.721,24.875L460.723,25.038L460.725,25.2L460.726,25.361L460.726,25.522L460.725,25.682L460.723,25.841L460.721,26.001L460.717,26.16L460.713,26.318L460.708,26.474L460.703,26.631L460.696,26.787L460.689,26.943L460.681,27.098L460.673,27.252L460.663,27.406L460.654,27.559L460.643,27.711L460.632,27.863L460.62,28.013L460.607,28.164L460.594,28.314L460.58,28.463L460.566,28.612L460.551,28.759L460.535,28.906L460.519,29.052L460.502,29.198L460.485,29.343L460.467,29.488L460.449,29.631L460.43,29.774L460.411,29.916L460.392,30.057L460.371,30.198L460.351,30.338L460.329,30.477L460.308,30.616L460.286,30.754L460.263,30.89L460.241,31.026L460.217,31.166L460.17,31.43L460.121,31.695L460.071,31.957L460.019,32.216L459.966,32.472L459.912,32.724L459.857,32.973L459.801,33.219L459.744,33.461L459.686,33.7L459.628,33.934L459.569,34.166L459.509,34.393L459.449,34.618L459.389,34.838L459.328,35.055L459.267,35.268L459.206,35.476L459.145,35.682L459.084,35.883L459.023,36.079L458.962,36.273L458.901,36.462L458.841,36.646L458.78,36.828L458.721,37.003L458.662,37.175L458.603,37.343L458.546,37.507L458.488,37.666L458.432,37.82L458.377,37.969L458.323,38.115L458.269,38.256L458.217,38.391L458.166,38.523L458.116,38.649L458.068,38.77L458.019,38.893L457.932,39.105L457.848,39.303L457.772,39.481L457.704,39.637L457.645,39.771L457.593,39.885L457.55,39.98L457.549,39.98L279.37,443.604L279.434,443.42L279.404,443.503L279.369,443.601L279.327,443.715L279.278,443.845L279.223,443.99L279.16,444.15L279.089,444.326L279.011,444.514L278.926,444.716L278.836,444.925L278.785,445.043L278.733,445.159L278.68,445.277L278.625,445.398L278.568,445.522L278.508,445.649L278.447,445.779L278.384,445.91L278.318,446.045L278.251,446.182L278.181,446.322L278.11,446.464L278.036,446.609L277.96,446.755L277.882,446.904L277.801,447.055L277.718,447.208L277.634,447.363L277.546,447.52L277.457,447.679L277.365,447.84L277.271,448.002L277.174,448.166L277.076,448.332L276.974,448.499L276.87,448.668L276.764,448.838L276.655,449.01L276.544,449.183L276.43,449.357L276.314,449.532L276.195,449.708L276.073,449.885L275.949,450.064L275.822,450.243L275.692,450.423L275.56,450.603L275.425,450.784L275.287,450.966L275.145,451.149L275.001,451.332L274.855,451.515L274.705,451.698L274.557,451.876L274.475,451.974L274.396,452.066L274.317,452.158L274.238,452.25L274.157,452.342L274.075,452.434L273.993,452.526L273.91,452.618L273.826,452.71L273.742,452.801L273.657,452.892L273.571,452.984L273.483,453.077L273.395,453.168L273.307,453.259L273.217,453.35L273.127,453.441L273.036,453.533L272.944,453.623L272.851,453.714L272.757,453.805L272.663,453.894L272.567,453.985L272.47,454.075L272.374,454.164L272.276,454.253L272.177,454.343L272.077,454.432L271.976,454.521L271.875,454.609L271.772,454.697L271.668,454.785L271.564,454.872L271.459,454.959L271.353,455.046L271.246,455.132L271.138,455.218L271.029,455.304L270.919,455.389L270.808,455.474L270.696,455.558L270.583,455.642L270.47,455.726L270.355,455.808L270.24,455.891L270.123,455.973L270.006,456.054L269.887,456.135L269.768,456.215L269.648,456.295L269.527,456.374L269.404,456.453L269.281,456.531L269.157,456.608L269.032,456.684L268.905,456.761L268.778,456.836L268.65,456.91L268.521,456.984L268.391,457.057L268.259,457.13L268.128,457.201L267.995,457.272L267.86,457.342L267.726,457.411L267.59,457.48L267.453,457.548L267.315,457.614L267.176,457.68L267.037,457.745L266.896,457.809L266.754,457.872L266.611,457.934L266.468,457.995L266.323,458.055L266.177,458.114L266.032,458.172L265.884,458.229L265.736,458.285L265.586,458.34L265.436,458.394L265.285,458.447L265.134,458.498L264.98,458.549L264.826,458.598L264.673,458.646L264.517,458.693L264.36,458.739L264.203,458.784L264.045,458.827L263.886,458.869L263.727,458.91L263.566,458.949L263.405,458.987L263.242,459.024L263.08,459.06L262.916,459.094L262.751,459.127L262.586,459.159L262.42,459.189L262.254,459.218L262.085,459.245L261.918,459.271L261.749,459.295L261.579,459.319L261.409,459.34L261.238,459.36L261.066,459.379L260.894,459.396L260.722,459.412L260.548,459.426L260.374,459.439L260.199,459.45L260.023,459.46L259.848,459.468L259.671,459.475L259.494,459.48L259.317,459.484L259.139,459.486L258.962,459.486L258.735,459.485L258.51,459.482L258.286,459.477L258.064,459.471L257.841,459.463L257.619,459.454L257.399,459.443L257.179,459.43L256.96,459.415L256.742,459.399L256.525,459.382L256.309,459.362L256.094,459.342L255.879,459.319L255.666,459.295L255.453,459.27L255.241,459.243L255.031,459.214L254.821,459.184L254.612,459.153L254.404,459.12L254.197,459.085L253.991,459.049L253.786,459.012L253.581,458.973L253.379,458.933L253.177,458.891L252.975,458.848L252.775,458.803L252.576,458.757L252.377,458.71L252.18,458.661L251.984,458.612L251.789,458.561L251.595,458.508L251.401,458.454L251.209,458.399L251.018,458.342L250.829,458.285L250.64,458.226L250.451,458.166L250.265,458.104L250.079,458.042L249.894,457.978L249.711,457.914L249.528,457.848L249.347,457.78L249.166,457.712L248.987,457.643L248.809,457.572L248.632,457.501L248.456,457.429L248.28,457.355L248.107,457.28L247.934,457.205L247.762,457.128L247.592,457.051L247.422,456.972L247.255,456.893L247.087,456.812L246.92,456.731L246.756,456.649L246.593,456.566L246.43,456.482L246.268,456.397L246.107,456.311L245.948,456.225L245.79,456.138L245.632,456.05L245.477,455.961L245.322,455.872L245.167,455.782L245.015,455.691L244.864,455.6L244.713,455.507L244.563,455.414L244.416,455.321L244.268,455.226L244.122,455.131L243.977,455.036L243.833,454.94L243.691,454.844L243.549,454.746L243.409,454.649L243.269,454.55L243.131,454.451L242.994,454.352L242.858,454.253L242.723,454.153L242.589,454.052L242.456,453.951L242.325,453.85L242.194,453.747L242.064,453.645L241.936,453.543L241.808,453.439L241.681,453.336L241.556,453.233L241.432,453.128L241.309,453.024L241.187,452.92L241.065,452.815L240.945,452.71L240.826,452.604L240.708,452.499L240.591,452.393L240.475,452.286L240.36,452.18L240.247,452.074L240.134,451.968L240.021,451.861L239.911,451.754L239.801,451.647L239.692,451.539L239.584,451.432L239.477,451.325L239.371,451.218L239.267,451.111L239.163,451.003L239.059,450.895L238.958,450.788L238.857,450.68L238.756,450.572L238.657,450.465L238.559,450.358L238.462,450.25L238.366,450.142L238.27,450.035L238.176,449.927L238.083,449.821L237.991,449.714L237.898,449.606L237.808,449.499L237.718,449.392L237.629,449.286L237.542,449.179L237.454,449.073L237.368,448.967L237.283,448.861L237.199,448.756L237.115,448.65L237.033,448.544L236.951,448.439L236.87,448.334L236.79,448.23L236.708,448.121L236.556,447.918L236.404,447.711L236.255,447.506L236.11,447.302L235.968,447.1L235.829,446.899L235.694,446.7L235.562,446.503L235.433,446.307L235.307,446.113L235.184,445.921L235.065,445.731L234.948,445.544L234.835,445.359L234.724,445.176L234.617,444.996L234.513,444.817L234.411,444.642L234.313,444.469L234.217,444.299L234.125,444.132L234.035,443.967L233.948,443.805L233.863,443.647L233.782,443.492L233.703,443.34L233.627,443.191L233.554,443.046L233.483,442.904L233.415,442.766L233.35,442.631L233.287,442.5L233.227,442.373L233.17,442.25L233.115,442.131L233.062,442.016L233.009,441.899L232.92,441.695L232.837,441.503L232.764,441.329L232.7,441.174L232.646,441.039L232.6,440.923L232.562,440.824L232.509,440.68L177.914,281.21L21.445,229.399L21.403,229.385L21.299,229.351L21.175,229.309L21.027,229.258L20.856,229.198L20.664,229.129L20.45,229.05L20.222,228.964L20.092,228.913L19.963,228.863L19.829,228.81L19.69,228.755L19.547,228.696L19.4,228.636L19.248,228.573L19.092,228.507L18.932,228.439L18.768,228.367L18.6,228.294L18.429,228.217L18.253,228.138L18.074,228.056L17.891,227.971L17.705,227.884L17.516,227.794L17.323,227.701L17.127,227.605L16.928,227.506L16.726,227.404L16.521,227.299L16.314,227.191L16.104,227.081L15.891,226.967L15.676,226.85L15.458,226.73L15.238,226.607L15.016,226.48L14.791,226.351L14.565,226.218L14.337,226.082L14.107,225.943L13.881,225.803L13.759,225.727L13.642,225.654L13.525,225.58L13.408,225.505L13.29,225.429L13.172,225.352L13.053,225.274L12.934,225.195L12.815,225.116L12.696,225.035L12.576,224.954L12.456,224.872L12.336,224.789L12.215,224.705L12.094,224.62L11.974,224.534L11.853,224.448L11.731,224.36L11.61,224.271L11.488,224.182L11.366,224.091L11.244,224L11.122,223.908L11,223.814L10.878,223.72L10.756,223.625L10.633,223.529L10.511,223.431L10.389,223.333L10.266,223.234L10.144,223.134L10.021,223.033L9.899,222.931L9.776,222.828L9.654,222.723L9.531,222.618L9.409,222.512L9.287,222.404L9.165,222.296L9.043,222.187L8.921,222.076L8.8,221.965L8.678,221.852L8.557,221.739L8.436,221.624L8.315,221.508L8.194,221.391L8.074,221.273L7.954,221.154L7.834,221.034L7.714,220.913L7.595,220.79L7.476,220.667L7.357,220.542L7.239,220.416L7.121,220.289L7.003,220.161L6.886,220.032L6.77,219.901L6.653,219.77L6.538,219.637L6.422,219.503L6.307,219.368L6.193,219.232L6.079,219.094L5.966,218.955L5.854,218.816L5.741,218.674L5.63,218.532L5.519,218.389L5.409,218.244L5.299,218.098L5.19,217.95L5.082,217.802L4.975,217.652L4.868,217.502L4.762,217.349L4.657,217.196L4.553,217.041L4.449,216.885L4.347,216.728L4.245,216.57L4.144,216.41L4.044,216.249L3.945,216.087L3.847,215.924L3.75,215.759L3.653,215.593L3.558,215.426L3.464,215.257L3.371,215.087L3.279,214.916L3.189,214.744L3.099,214.57L3.01,214.396L2.923,214.22L2.837,214.042L2.752,213.863L2.668,213.684L2.585,213.503L2.504,213.32L2.424,213.137L2.346,212.952L2.269,212.766L2.193,212.579L2.118,212.39L2.045,212.2L1.974,212.009L1.904,211.817L1.835,211.624L1.768,211.429L1.702,211.234L1.638,211.037L1.576,210.839L1.515,210.64L1.456,210.439L1.398,210.238L1.342,210.035L1.288,209.832L1.235,209.627L1.184,209.421L1.135,209.214L1.087,209.006L1.042,208.796L0.998,208.586L0.955,208.375L0.915,208.162L0.877,207.949L0.84,207.735L0.805,207.519L0.772,207.303L0.741,207.086L0.712,206.867L0.685,206.648L0.66,206.428L0.637,206.207L0.615,205.985L0.596,205.762L0.579,205.538L0.563,205.313L0.55,205.088L0.539,204.861L0.53,204.634L0.522,204.406L0.517,204.177L0.514,203.947L0.513,203.717L0.514,203.485L0.518,203.253L0.523,203.021L0.53,202.787L0.54,202.555L0.547,202.416L0.555,202.278L0.563,202.141L0.573,202.004L0.584,201.867L0.597,201.731L0.61,201.595L0.624,201.459L0.639,201.323L0.655,201.188L0.672,201.053L0.691,200.918L0.71,200.784L0.73,200.65L0.751,200.516L0.773,200.383L0.796,200.25L0.82,200.117L0.845,199.985L0.871,199.853L0.898,199.722L0.926,199.59L0.954,199.46L0.984,199.329L1.014,199.199L1.045,199.069L1.078,198.94L1.111,198.811L1.145,198.683L1.179,198.555L1.215,198.427L1.251,198.299L1.289,198.173L1.327,198.046L1.365,197.92L1.405,197.794L1.446,197.669L1.487,197.544L1.529,197.42L1.572,197.296L1.615,197.172L1.659,197.049L1.704,196.926L1.75,196.804L1.796,196.682L1.844,196.561L1.891,196.439L1.94,196.319L1.989,196.198L2.039,196.079L2.09,195.959L2.141,195.84L2.193,195.722L2.245,195.603L2.299,195.486L2.352,195.369L2.407,195.252L2.462,195.135L2.518,195.019L2.574,194.904L2.631,194.788L2.689,194.673L2.747,194.559L2.805,194.445L2.865,194.332L2.924,194.218L2.985,194.105L3.046,193.993L3.107,193.881L3.169,193.77L3.232,193.658L3.295,193.548L3.359,193.437L3.423,193.327L3.488,193.217L3.553,193.108L3.618,193L3.685,192.891L3.751,192.783L3.819,192.675L3.886,192.568L3.954,192.461L4.023,192.354L4.092,192.248L4.162,192.142L4.232,192.037L4.302,191.932L4.373,191.827L4.444,191.723L4.516,191.619L4.588,191.515L4.661,191.412L4.734,191.309L4.811,191.201L4.955,191.002L5.105,190.799L5.257,190.598L5.41,190.398L5.564,190.199L5.72,190.002L5.878,189.806L6.037,189.611L6.197,189.417L6.359,189.225L6.522,189.034L6.686,188.844L6.852,188.655L7.019,188.468L7.187,188.281L7.356,188.096L7.527,187.912L7.699,187.73L7.872,187.548L8.046,187.367L8.221,187.188L8.397,187.009L8.575,186.832L8.753,186.656L8.932,186.48L9.113,186.306L9.294,186.133L9.476,185.961L9.659,185.79L9.843,185.62L10.028,185.451L10.214,185.283L10.4,185.116L10.588,184.95L10.776,184.785L10.965,184.621L11.155,184.457L11.345,184.295L11.536,184.134L11.728,183.974L11.921,183.814L12.114,183.656L12.307,183.498L12.502,183.342L12.697,183.186L12.892,183.031L13.088,182.877L13.285,182.724L13.482,182.572L13.679,182.421L13.877,182.27L14.076,182.121L14.274,181.972L14.474,181.825L14.673,181.678L14.873,181.532L15.074,181.387L15.274,181.243L15.475,181.099L15.677,180.957L15.878,180.815L16.08,180.674L16.282,180.535L16.484,180.396L16.686,180.257L16.888,180.12L17.091,179.983L17.294,179.848L17.497,179.713L17.699,179.579L17.902,179.446L18.105,179.314L18.308,179.182L18.511,179.052L18.714,178.922L18.917,178.793L19.12,178.665L19.323,178.538L19.525,178.412L19.728,178.286L19.93,178.162L20.132,178.038L20.334,177.915L20.536,177.793L20.737,177.671L20.939,177.551L21.14,177.431L21.34,177.313L21.541,177.195L21.741,177.078L21.94,176.962L22.14,176.846L22.338,176.732L22.537,176.618L22.735,176.505L22.933,176.393L23.13,176.282L23.326,176.172L23.522,176.063L23.718,175.954L23.913,175.847L24.107,175.74L24.303,175.632L24.686,175.425L25.069,175.219L25.449,175.016L25.826,174.818L26.199,174.622L26.57,174.43L26.937,174.242L27.3,174.057L27.659,173.876L28.014,173.698L28.365,173.524L28.711,173.354L29.053,173.187L29.39,173.024L29.722,172.864L30.049,172.708L30.371,172.556L30.687,172.408L30.998,172.263L31.303,172.122L31.602,171.985L31.894,171.851L32.181,171.722L32.461,171.596L32.734,171.474L33.001,171.356L33.26,171.242L33.512,171.131L33.757,171.025L33.994,170.922L34.224,170.824L34.446,170.729L34.659,170.639L34.864,170.553L35.064,170.469L35.429,170.318L35.761,170.182L36.056,170.062L36.312,169.96L36.528,169.874L36.702,169.806L36.836,169.754L36.816,169.761L418.915,3.663L419.075,3.599L419.174,3.561L419.295,3.514L419.442,3.459L419.613,3.396L419.809,3.325L420.028,3.247L420.27,3.163L420.53,3.074L420.675,3.026L420.821,2.977L420.972,2.928L421.129,2.878L421.291,2.826L421.458,2.774L421.63,2.72L421.807,2.666L421.988,2.611L422.175,2.556L422.367,2.5L422.563,2.443L422.764,2.386L422.97,2.328L423.18,2.271L423.394,2.213L423.613,2.155L423.837,2.097L424.064,2.038L424.296,1.98L424.532,1.923L424.772,1.865L425.016,1.808L425.265,1.751L425.517,1.694L425.772,1.638L426.032,1.583L426.295,1.529L426.562,1.475L426.833,1.422L427.107,1.37L427.385,1.319L427.666,1.269L427.95,1.22L428.238,1.172L428.529,1.126L428.823,1.082L429.115,1.039L429.27,1.017L429.42,0.997L429.571,0.976L429.723,0.957L429.876,0.937L430.03,0.918L430.184,0.9L430.339,0.882L430.494,0.864L430.651,0.847L430.808,0.831L430.965,0.815L431.124,0.799L431.283,0.784L431.443,0.77L431.603,0.756L431.764,0.743L431.926,0.73L432.088,0.718L432.251,0.706L432.415,0.696L432.579,0.685L432.744,0.676L432.909,0.667L433.075,0.658L433.242,0.651L433.409,0.644L433.577,0.637L433.745,0.632L433.914,0.627L434.083,0.623L434.253,0.62L434.424,0.617L434.595,0.615L434.766,0.614L434.939,0.614L435.111,0.614ZM434.813,12.586L434.696,12.587L434.58,12.588L434.464,12.59L434.347,12.592L434.231,12.595L434.114,12.598L433.998,12.602L433.882,12.607L433.766,12.611L433.65,12.617L433.534,12.623L433.418,12.629L433.302,12.636L433.186,12.643L433.071,12.651L432.955,12.659L432.84,12.667L432.725,12.676L432.61,12.686L432.495,12.696L432.381,12.706L432.266,12.717L432.152,12.728L432.039,12.74L431.925,12.752L431.812,12.764L431.699,12.777L431.586,12.79L431.473,12.803L431.361,12.817L431.25,12.831L431.138,12.846L431.027,12.86L430.916,12.876L430.811,12.891L430.586,12.923L430.368,12.956L430.152,12.991L429.937,13.026L429.725,13.063L429.514,13.1L429.306,13.138L429.099,13.178L428.895,13.218L428.694,13.258L428.494,13.299L428.297,13.341L428.103,13.384L427.912,13.427L427.723,13.47L427.537,13.514L427.355,13.558L427.175,13.602L426.998,13.646L426.825,13.69L426.655,13.734L426.488,13.778L426.325,13.823L426.165,13.866L426.009,13.91L425.857,13.953L425.709,13.996L425.564,14.038L425.424,14.08L425.287,14.121L425.155,14.162L425.027,14.201L424.903,14.24L424.784,14.278L424.669,14.315L424.559,14.351L424.454,14.386L424.358,14.418L424.166,14.484L423.999,14.542L423.853,14.594L423.728,14.639L423.625,14.677L423.544,14.707L423.5,14.724L41.346,180.847L41.143,180.924L41.053,180.959L40.918,181.012L40.744,181.081L40.53,181.167L40.279,181.269L39.992,181.386L39.668,181.521L39.498,181.592L39.317,181.668L39.128,181.748L38.931,181.832L38.727,181.92L38.515,182.011L38.297,182.106L38.071,182.205L37.839,182.307L37.6,182.413L37.354,182.522L37.103,182.635L36.845,182.752L36.582,182.872L36.313,182.995L36.038,183.122L35.759,183.253L35.474,183.386L35.184,183.524L34.889,183.664L34.591,183.808L34.287,183.954L33.98,184.104L33.668,184.258L33.353,184.414L33.034,184.574L32.712,184.736L32.386,184.902L32.058,185.071L31.727,185.242L31.393,185.417L31.056,185.594L30.718,185.775L30.377,185.958L30.031,186.145L29.862,186.238L29.69,186.333L29.517,186.428L29.344,186.524L29.171,186.621L28.997,186.718L28.823,186.816L28.649,186.915L28.474,187.014L28.3,187.114L28.125,187.215L27.95,187.316L27.774,187.418L27.599,187.521L27.424,187.624L27.248,187.728L27.073,187.832L26.897,187.937L26.722,188.043L26.547,188.149L26.371,188.256L26.196,188.363L26.021,188.471L25.846,188.58L25.671,188.689L25.496,188.798L25.322,188.908L25.147,189.019L24.974,189.13L24.8,189.242L24.626,189.354L24.453,189.467L24.281,189.58L24.108,189.694L23.936,189.808L23.765,189.923L23.594,190.038L23.423,190.154L23.253,190.27L23.083,190.387L22.914,190.504L22.746,190.622L22.578,190.74L22.411,190.858L22.244,190.977L22.078,191.096L21.913,191.216L21.749,191.336L21.585,191.456L21.422,191.577L21.26,191.698L21.099,191.819L20.938,191.941L20.778,192.064L20.62,192.186L20.462,192.309L20.305,192.432L20.149,192.555L19.995,192.679L19.841,192.803L19.688,192.927L19.536,193.052L19.386,193.177L19.236,193.302L19.088,193.427L18.941,193.552L18.794,193.678L18.65,193.804L18.506,193.929L18.364,194.056L18.223,194.182L18.083,194.308L17.945,194.435L17.808,194.561L17.672,194.688L17.538,194.815L17.405,194.941L17.274,195.068L17.144,195.195L17.016,195.322L16.889,195.449L16.764,195.575L16.64,195.702L16.518,195.829L16.398,195.955L16.279,196.082L16.162,196.208L16.046,196.335L15.932,196.461L15.82,196.587L15.71,196.712L15.601,196.838L15.494,196.963L15.389,197.088L15.286,197.213L15.184,197.337L15.085,197.461L14.987,197.585L14.891,197.709L14.797,197.832L14.705,197.954L14.614,198.076L14.522,198.204L14.482,198.259L14.439,198.32L14.397,198.38L14.355,198.44L14.313,198.5L14.272,198.56L14.232,198.621L14.192,198.68L14.152,198.74L14.113,198.799L14.074,198.859L14.036,198.918L13.999,198.977L13.961,199.036L13.925,199.095L13.889,199.153L13.853,199.211L13.818,199.27L13.783,199.328L13.749,199.386L13.716,199.443L13.682,199.501L13.65,199.558L13.617,199.615L13.586,199.672L13.555,199.729L13.524,199.786L13.494,199.842L13.464,199.898L13.435,199.954L13.406,200.01L13.378,200.066L13.35,200.121L13.323,200.176L13.296,200.231L13.27,200.286L13.244,200.34L13.219,200.395L13.194,200.449L13.169,200.503L13.145,200.557L13.122,200.61L13.099,200.663L13.077,200.716L13.055,200.769L13.033,200.822L13.012,200.874L12.992,200.926L12.971,200.978L12.952,201.03L12.933,201.081L12.914,201.132L12.896,201.183L12.878,201.234L12.86,201.284L12.843,201.334L12.827,201.385L12.811,201.434L12.795,201.484L12.78,201.533L12.765,201.582L12.751,201.631L12.737,201.68L12.723,201.728L12.71,201.777L12.698,201.825L12.685,201.872L12.673,201.92L12.662,201.967L12.651,202.015L12.64,202.062L12.63,202.108L12.62,202.155L12.611,202.201L12.602,202.247L12.593,202.293L12.585,202.339L12.577,202.385L12.569,202.43L12.562,202.475L12.555,202.52L12.549,202.566L12.543,202.61L12.537,202.655L12.532,202.7L12.527,202.744L12.522,202.788L12.518,202.832L12.514,202.876L12.511,202.92L12.508,202.964L12.505,203.007L12.502,203.051L12.5,203.093L12.495,203.223L12.491,203.349L12.488,203.474L12.486,203.598L12.486,203.721L12.486,203.843L12.488,203.964L12.49,204.084L12.494,204.203L12.499,204.321L12.505,204.438L12.512,204.554L12.519,204.669L12.528,204.783L12.538,204.896L12.549,205.009L12.561,205.12L12.573,205.231L12.587,205.341L12.601,205.45L12.617,205.558L12.633,205.665L12.65,205.772L12.668,205.878L12.687,205.983L12.707,206.087L12.728,206.191L12.749,206.294L12.772,206.396L12.795,206.497L12.819,206.598L12.844,206.698L12.869,206.798L12.896,206.897L12.923,206.996L12.951,207.093L12.98,207.191L13.009,207.287L13.04,207.383L13.071,207.479L13.103,207.574L13.135,207.668L13.168,207.762L13.203,207.856L13.237,207.949L13.273,208.041L13.309,208.133L13.346,208.225L13.384,208.316L13.423,208.407L13.462,208.497L13.502,208.587L13.543,208.676L13.584,208.765L13.626,208.854L13.669,208.942L13.713,209.029L13.757,209.117L13.802,209.204L13.848,209.29L13.894,209.376L13.941,209.462L13.989,209.548L14.037,209.633L14.086,209.718L14.136,209.802L14.186,209.886L14.237,209.969L14.289,210.053L14.341,210.136L14.395,210.218L14.448,210.301L14.503,210.382L14.558,210.464L14.613,210.545L14.669,210.626L14.726,210.706L14.784,210.787L14.842,210.866L14.901,210.946L14.96,211.025L15.02,211.104L15.081,211.182L15.142,211.26L15.203,211.338L15.266,211.415L15.329,211.492L15.392,211.569L15.456,211.645L15.521,211.721L15.586,211.797L15.651,211.872L15.717,211.947L15.784,212.021L15.851,212.095L15.919,212.169L15.987,212.242L16.055,212.315L16.125,212.388L16.194,212.46L16.264,212.532L16.335,212.604L16.405,212.675L16.477,212.745L16.549,212.816L16.621,212.885L16.693,212.955L16.766,213.024L16.839,213.093L16.913,213.161L16.987,213.229L17.061,213.296L17.136,213.363L17.211,213.43L17.287,213.496L17.362,213.562L17.438,213.627L17.515,213.692L17.591,213.757L17.668,213.821L17.745,213.884L17.822,213.948L17.9,214.01L17.977,214.073L18.055,214.135L18.133,214.196L18.212,214.257L18.29,214.318L18.369,214.378L18.448,214.437L18.527,214.496L18.606,214.555L18.685,214.613L18.764,214.671L18.843,214.728L18.922,214.785L19.002,214.842L19.082,214.897L19.161,214.953L19.241,215.008L19.32,215.062L19.399,215.116L19.479,215.17L19.558,215.223L19.638,215.275L19.718,215.327L19.797,215.379L19.876,215.43L19.955,215.48L20.034,215.531L20.113,215.58L20.187,215.626L20.349,215.726L20.505,215.821L20.661,215.914L20.816,216.004L20.969,216.093L21.122,216.18L21.273,216.265L21.423,216.347L21.572,216.428L21.719,216.507L21.864,216.583L22.008,216.658L22.149,216.73L22.289,216.801L22.427,216.869L22.562,216.936L22.695,217L22.826,217.062L22.954,217.123L23.08,217.181L23.203,217.237L23.323,217.291L23.44,217.343L23.554,217.393L23.665,217.441L23.772,217.487L23.876,217.531L23.977,217.573L24.074,217.613L24.168,217.651L24.257,217.687L24.343,217.721L24.425,217.753L24.496,217.78L24.645,217.837L24.769,217.882L24.875,217.921L24.961,217.951L25.027,217.974L25.071,217.989L25.091,217.995L25.149,218.013L187.316,271.712L243.776,436.627L243.793,436.67L243.818,436.733L243.852,436.812L243.893,436.907L243.944,437.024L243.969,437.078L243.998,437.142L244.029,437.21L244.062,437.281L244.097,437.355L244.134,437.432L244.173,437.512L244.214,437.596L244.257,437.682L244.302,437.771L244.349,437.862L244.398,437.957L244.449,438.054L244.501,438.153L244.556,438.254L244.613,438.358L244.672,438.464L244.733,438.573L244.795,438.683L244.86,438.795L244.927,438.909L244.996,439.025L245.067,439.142L245.139,439.261L245.214,439.382L245.291,439.504L245.37,439.627L245.451,439.751L245.533,439.877L245.618,440.004L245.705,440.131L245.794,440.26L245.885,440.389L245.978,440.519L246.072,440.65L246.169,440.782L246.271,440.918L246.318,440.98L246.369,441.046L246.42,441.112L246.471,441.179L246.523,441.245L246.576,441.311L246.629,441.378L246.682,441.445L246.736,441.511L246.791,441.578L246.846,441.644L246.901,441.711L246.957,441.778L247.014,441.844L247.07,441.91L247.128,441.977L247.186,442.044L247.244,442.11L247.303,442.176L247.362,442.242L247.422,442.308L247.482,442.374L247.543,442.44L247.604,442.506L247.665,442.571L247.728,442.638L247.79,442.703L247.853,442.768L247.917,442.833L247.981,442.898L248.046,442.963L248.111,443.027L248.176,443.092L248.242,443.156L248.308,443.22L248.375,443.283L248.442,443.347L248.51,443.41L248.579,443.474L248.647,443.536L248.716,443.599L248.786,443.661L248.856,443.723L248.926,443.785L248.997,443.846L249.068,443.907L249.141,443.968L249.213,444.029L249.286,444.089L249.359,444.149L249.432,444.208L249.507,444.268L249.582,444.327L249.656,444.385L249.733,444.444L249.809,444.501L249.885,444.559L249.962,444.616L250.04,444.673L250.118,444.729L250.196,444.785L250.274,444.84L250.354,444.896L250.433,444.95L250.514,445.005L250.595,445.059L250.676,445.112L250.757,445.165L250.839,445.217L250.923,445.27L251.006,445.322L251.088,445.372L251.173,445.424L251.258,445.474L251.342,445.524L251.428,445.573L251.514,445.622L251.601,445.671L251.688,445.719L251.776,445.766L251.863,445.813L251.952,445.859L252.041,445.905L252.131,445.951L252.221,445.996L252.311,446.04L252.402,446.084L252.495,446.127L252.587,446.17L252.68,446.212L252.773,446.254L252.867,446.295L252.962,446.336L253.056,446.375L253.152,446.415L253.249,446.454L253.346,446.492L253.443,446.53L253.541,446.567L253.639,446.603L253.739,446.639L253.839,446.674L253.939,446.709L254.041,446.743L254.143,446.777L254.244,446.809L254.347,446.841L254.452,446.873L254.556,446.904L254.661,446.934L254.767,446.963L254.873,446.992L254.981,447.021L255.089,447.048L255.198,447.075L255.307,447.101L255.417,447.126L255.528,447.151L255.64,447.175L255.752,447.198L255.866,447.221L255.98,447.242L256.095,447.263L256.211,447.284L256.327,447.303L256.444,447.321L256.563,447.339L256.682,447.356L256.802,447.373L256.923,447.388L257.044,447.403L257.167,447.416L257.29,447.429L257.414,447.441L257.54,447.452L257.666,447.463L257.793,447.472L257.921,447.48L258.05,447.488L258.18,447.495L258.311,447.5L258.443,447.505L258.577,447.509L258.71,447.511L258.846,447.513L258.98,447.514L259.055,447.514L259.128,447.513L259.201,447.511L259.273,447.509L259.342,447.507L259.413,447.503L259.483,447.5L259.551,447.495L259.619,447.49L259.686,447.485L259.754,447.478L259.82,447.472L259.886,447.465L259.951,447.457L260.016,447.449L260.08,447.44L260.144,447.431L260.208,447.421L260.27,447.411L260.333,447.4L260.394,447.389L260.456,447.377L260.517,447.365L260.577,447.352L260.637,447.339L260.697,447.325L260.756,447.311L260.815,447.297L260.874,447.282L260.933,447.266L260.991,447.25L261.048,447.234L261.105,447.218L261.161,447.2L261.219,447.182L261.275,447.164L261.331,447.146L261.387,447.127L261.443,447.107L261.498,447.088L261.553,447.068L261.607,447.047L261.662,447.026L261.717,447.004L261.771,446.982L261.825,446.96L261.879,446.937L261.933,446.913L261.986,446.89L262.039,446.866L262.092,446.841L262.145,446.816L262.198,446.79L262.25,446.764L262.302,446.738L262.355,446.711L262.406,446.684L262.458,446.657L262.511,446.628L262.562,446.6L262.613,446.571L262.665,446.541L262.716,446.511L262.767,446.481L262.818,446.451L262.869,446.42L262.92,446.388L262.97,446.356L263.02,446.324L263.07,446.291L263.121,446.258L263.171,446.224L263.221,446.19L263.27,446.156L263.32,446.121L263.369,446.086L263.419,446.05L263.468,446.014L263.517,445.977L263.566,445.94L263.615,445.903L263.663,445.865L263.712,445.827L263.76,445.789L263.808,445.75L263.856,445.711L263.904,445.671L263.952,445.631L263.999,445.591L264.046,445.55L264.094,445.509L264.141,445.468L264.188,445.426L264.234,445.384L264.281,445.341L264.328,445.298L264.374,445.255L264.419,445.212L264.466,445.168L264.512,445.124L264.557,445.08L264.602,445.035L264.647,444.99L264.692,444.945L264.737,444.899L264.782,444.853L264.826,444.807L264.87,444.761L264.913,444.714L264.958,444.667L265.001,444.62L265.044,444.572L265.088,444.524L265.13,444.476L265.173,444.429L265.215,444.38L265.257,444.332L265.299,444.283L265.341,444.234L265.377,444.19L265.464,444.086L265.546,443.986L265.626,443.887L265.705,443.786L265.782,443.686L265.859,443.584L265.935,443.482L266.01,443.38L266.084,443.278L266.156,443.176L266.227,443.074L266.298,442.972L266.367,442.87L266.434,442.767L266.501,442.666L266.566,442.564L266.63,442.463L266.693,442.363L266.755,442.262L266.815,442.163L266.874,442.064L266.932,441.966L266.988,441.869L267.043,441.772L267.097,441.677L267.149,441.582L267.201,441.489L267.25,441.396L267.299,441.306L267.346,441.216L267.392,441.128L267.436,441.041L267.479,440.956L267.521,440.872L267.561,440.79L267.6,440.71L267.638,440.631L267.674,440.555L267.708,440.481L267.742,440.409L267.774,440.338L267.804,440.271L267.833,440.206L267.859,440.148L267.913,440.022L267.959,439.913L267.999,439.815L268.033,439.729L268.063,439.655L268.086,439.594L268.104,439.545L268.117,439.51L268.124,439.491L268.125,439.49L268.212,439.236L446.655,35.014L446.696,34.925L446.703,34.91L446.721,34.871L446.748,34.811L446.782,34.732L446.823,34.636L446.871,34.521L446.928,34.383L446.955,34.316L446.986,34.239L447.017,34.159L447.05,34.074L447.084,33.985L447.119,33.893L447.155,33.797L447.192,33.697L447.23,33.592L447.269,33.485L447.308,33.374L447.348,33.26L447.389,33.142L447.43,33.02L447.471,32.896L447.513,32.769L447.555,32.638L447.597,32.504L447.64,32.367L447.682,32.227L447.724,32.085L447.767,31.939L447.809,31.792L447.852,31.641L447.894,31.488L447.935,31.332L447.977,31.174L448.017,31.014L448.058,30.85L448.098,30.686L448.137,30.519L448.175,30.35L448.213,30.179L448.25,30.006L448.286,29.831L448.322,29.655L448.356,29.477L448.389,29.297L448.422,29.111L448.437,29.025L448.452,28.933L448.467,28.841L448.482,28.749L448.496,28.657L448.51,28.564L448.524,28.471L448.538,28.378L448.551,28.284L448.563,28.19L448.576,28.095L448.588,28.001L448.6,27.907L448.611,27.812L448.622,27.717L448.632,27.622L448.642,27.526L448.652,27.43L448.661,27.334L448.67,27.238L448.679,27.142L448.687,27.045L448.694,26.948L448.702,26.851L448.708,26.755L448.715,26.658L448.72,26.561L448.726,26.463L448.731,26.365L448.735,26.269L448.739,26.171L448.743,26.074L448.746,25.976L448.748,25.878L448.75,25.78L448.752,25.683L448.753,25.585L448.754,25.487L448.754,25.389L448.753,25.291L448.752,25.193L448.751,25.096L448.748,24.998L448.746,24.9L448.743,24.803L448.739,24.704L448.735,24.607L448.73,24.51L448.725,24.412L448.719,24.315L448.712,24.218L448.705,24.12L448.698,24.023L448.69,23.926L448.681,23.829L448.672,23.732L448.662,23.636L448.651,23.54L448.64,23.444L448.629,23.347L448.616,23.251L448.603,23.156L448.59,23.059L448.576,22.963L448.561,22.869L448.546,22.774L448.53,22.678L448.513,22.583L448.496,22.489L448.479,22.395L448.46,22.3L448.441,22.207L448.421,22.112L448.401,22.019L448.38,21.926L448.359,21.833L448.336,21.739L448.313,21.647L448.29,21.555L448.266,21.463L448.241,21.37L448.215,21.279L448.189,21.187L448.162,21.097L448.135,21.005L448.107,20.914L448.078,20.824L448.048,20.734L448.018,20.643L447.987,20.554L447.955,20.464L447.923,20.374L447.89,20.286L447.856,20.197L447.821,20.109L447.786,20.02L447.75,19.931L447.713,19.844L447.676,19.757L447.637,19.669L447.599,19.582L447.559,19.495L447.518,19.408L447.477,19.322L447.435,19.235L447.392,19.149L447.348,19.063L447.304,18.978L447.258,18.892L447.212,18.807L447.165,18.721L447.117,18.637L447.068,18.552L447.018,18.467L446.968,18.383L446.916,18.298L446.864,18.215L446.811,18.131L446.757,18.047L446.701,17.963L446.645,17.88L446.588,17.797L446.53,17.714L446.471,17.63L446.411,17.548L446.35,17.465L446.288,17.383L446.224,17.3L446.16,17.218L446.094,17.135L446.028,17.053L445.96,16.971L445.892,16.89L445.821,16.808L445.75,16.726L445.678,16.644L445.604,16.563L445.529,16.481L445.453,16.4L445.376,16.319L445.297,16.238L445.218,16.158L445.141,16.081L445.064,16.007L444.987,15.933L444.91,15.861L444.832,15.789L444.754,15.718L444.675,15.649L444.597,15.581L444.517,15.514L444.437,15.448L444.357,15.382L444.277,15.318L444.196,15.254L444.114,15.192L444.033,15.131L443.951,15.07L443.868,15.01L443.785,14.951L443.702,14.893L443.618,14.836L443.533,14.78L443.448,14.724L443.363,14.67L443.277,14.616L443.191,14.563L443.104,14.511L443.017,14.46L442.929,14.409L442.841,14.359L442.752,14.31L442.663,14.262L442.573,14.214L442.483,14.167L442.392,14.121L442.301,14.076L442.209,14.031L442.117,13.988L442.024,13.944L441.931,13.902L441.837,13.86L441.742,13.819L441.648,13.779L441.552,13.74L441.456,13.701L441.36,13.662L441.263,13.625L441.165,13.588L441.067,13.552L440.969,13.517L440.87,13.482L440.77,13.448L440.67,13.415L440.569,13.382L440.468,13.35L440.367,13.319L440.265,13.288L440.162,13.259L440.059,13.229L439.956,13.201L439.851,13.173L439.747,13.146L439.642,13.119L439.537,13.093L439.431,13.068L439.325,13.044L439.218,13.02L439.111,12.997L439.003,12.974L438.895,12.952L438.787,12.931L438.678,12.911L438.569,12.891L438.459,12.872L438.349,12.853L438.239,12.835L438.129,12.818L438.018,12.801L437.906,12.785L437.795,12.77L437.683,12.755L437.571,12.741L437.458,12.728L437.345,12.715L437.232,12.703L437.119,12.691L437.005,12.68L436.891,12.67L436.777,12.66L436.663,12.651L436.548,12.643L436.434,12.635L436.319,12.628L436.204,12.621L436.088,12.615L435.973,12.609L435.857,12.605L435.742,12.6L435.626,12.597L435.51,12.593L435.394,12.591L435.278,12.589L435.162,12.587L435.045,12.586L434.929,12.586L434.813,12.586Z" style="fill:white;"/>
    </g>
</svg>
