<?xml version="1.0" encoding="UTF-8" standalone="no"?>
<!DOCTYPE svg PUBLIC "-//W3C//DTD SVG 1.1//EN" "http://www.w3.org/Graphics/SVG/1.1/DTD/svg11.dtd">
<svg width="100%" height="100%" viewBox="0 0 850 850" version="1.1" xmlns="http://www.w3.org/2000/svg" xmlns:xlink="http://www.w3.org/1999/xlink" xml:space="preserve" style="fill-rule:evenodd;clip-rule:evenodd;stroke-linejoin:round;stroke-miterlimit:1.41421;">
    <g transform="matrix(2.00833,0,0,2.00833,-282.042,-278.615)">
        <path d="M236.459,363.952L236.651,363.953L236.843,363.955L237.034,363.957L237.224,363.959L237.414,363.963L237.604,363.966L237.793,363.97L237.981,363.975L238.169,363.98L238.357,363.986L238.543,363.992L238.73,363.998L238.916,364.005L239.101,364.012L239.286,364.02L239.47,364.028L239.654,364.037L239.837,364.046L240.02,364.055L240.201,364.065L240.383,364.075L240.564,364.086L240.744,364.097L240.924,364.109L241.103,364.121L241.282,364.133L241.46,364.146L241.638,364.159L241.815,364.172L241.991,364.186L242.167,364.2L242.343,364.215L242.517,364.23L242.692,364.245L242.865,364.261L243.038,364.277L243.213,364.293L243.553,364.327L243.894,364.362L244.233,364.399L244.568,364.436L244.902,364.475L245.233,364.515L245.562,364.557L245.888,364.599L246.212,364.643L246.533,364.688L246.851,364.733L247.167,364.78L247.481,364.828L247.792,364.877L248.101,364.926L248.407,364.977L248.71,365.029L249.01,365.081L249.308,365.134L249.604,365.188L249.896,365.242L250.186,365.298L250.473,365.353L250.758,365.41L251.04,365.467L251.318,365.525L251.595,365.583L251.868,365.642L252.139,365.701L252.406,365.761L252.671,365.821L252.933,365.882L253.192,365.943L253.449,366.004L253.702,366.065L253.952,366.127L254.2,366.189L254.444,366.251L254.686,366.314L254.924,366.376L255.16,366.439L255.392,366.501L255.622,366.564L255.848,366.627L256.071,366.689L256.292,366.752L256.509,366.814L256.723,366.877L256.934,366.939L257.141,367.001L257.346,367.063L257.547,367.125L257.745,367.186L257.94,367.247L258.132,367.307L258.32,367.368L258.505,367.428L258.687,367.487L258.866,367.546L259.041,367.604L259.213,367.662L259.381,367.72L259.546,367.777L259.708,367.833L259.86,367.886L368.517,266.922L368.501,266.78L368.465,266.45L368.429,266.104L368.392,265.741L368.354,265.363L368.316,264.97L368.279,264.561L368.241,264.138L368.203,263.701L368.184,263.474L368.166,263.246L368.147,263.014L368.129,262.779L368.111,262.54L368.093,262.297L368.075,262.051L368.057,261.802L368.04,261.549L368.022,261.293L368.005,261.033L367.989,260.77L367.972,260.504L367.956,260.234L367.94,259.961L367.925,259.685L367.91,259.406L367.895,259.123L367.881,258.838L367.867,258.549L367.853,258.257L367.84,257.962L367.828,257.664L367.815,257.363L367.804,257.06L367.793,256.753L367.782,256.443L367.772,256.13L367.763,255.814L367.754,255.496L367.745,255.174L367.738,254.85L367.731,254.524L367.724,254.194L367.719,253.862L367.714,253.527L367.709,253.189L367.706,252.848L367.703,252.506L367.701,252.16L367.7,251.812L367.699,251.461L367.699,251.108L367.7,250.753L367.702,250.395L367.705,250.034L367.709,249.672L367.714,249.307L367.719,248.939L367.726,248.569L367.733,248.197L367.742,247.823L367.751,247.446L367.761,247.067L367.773,246.686L367.785,246.303L367.799,245.918L367.814,245.531L367.829,245.141L367.846,244.75L367.864,244.357L367.883,243.961L367.904,243.564L367.925,243.165L367.948,242.763L367.972,242.36L367.997,241.955L368.023,241.549L368.051,241.14L368.08,240.73L368.11,240.318L368.142,239.904L368.175,239.488L368.209,239.071L368.245,238.653L368.282,238.232L368.321,237.81L368.361,237.387L368.402,236.962L368.445,236.535L368.49,236.107L368.536,235.678L368.583,235.247L368.633,234.815L368.683,234.381L368.735,233.946L368.789,233.51L368.845,233.073L368.902,232.634L368.961,232.194L369.021,231.753L369.083,231.31L369.147,230.869L369.18,230.644L369.213,230.422L369.247,230.199L369.281,229.976L369.315,229.753L369.35,229.529L369.385,229.306L369.421,229.081L369.457,228.857L369.494,228.633L369.531,228.408L369.568,228.183L369.606,227.958L369.645,227.732L369.684,227.506L369.723,227.28L369.763,227.054L369.803,226.827L369.844,226.601L369.886,226.374L369.927,226.147L369.97,225.92L370.012,225.692L370.056,225.464L370.1,225.236L370.144,225.008L370.189,224.78L370.234,224.551L370.28,224.323L370.326,224.094L370.373,223.865L370.42,223.636L370.468,223.406L370.516,223.177L370.565,222.947L370.614,222.717L370.664,222.487L370.714,222.257L370.765,222.027L370.817,221.796L370.869,221.566L370.921,221.335L370.974,221.104L371.028,220.873L371.082,220.642L371.137,220.41L371.192,220.179L371.248,219.947L371.304,219.715L371.361,219.484L371.418,219.252L371.476,219.02L371.535,218.788L371.594,218.556L371.654,218.323L371.714,218.091L371.775,217.858L371.836,217.626L371.898,217.393L371.961,217.16L372.024,216.928L372.087,216.695L372.152,216.462L372.217,216.229L372.282,215.996L372.348,215.762L372.415,215.529L372.482,215.296L372.55,215.063L372.618,214.829L372.687,214.596L372.757,214.362L372.827,214.129L372.898,213.895L372.97,213.662L373.042,213.428L373.115,213.195L373.188,212.961L373.262,212.727L373.337,212.494L373.412,212.26L373.488,212.027L373.564,211.793L373.642,211.559L373.719,211.326L373.798,211.092L373.877,210.858L373.957,210.625L374.037,210.391L374.118,210.158L374.2,209.924L374.282,209.691L374.365,209.458L374.449,209.224L374.533,208.991L374.618,208.757L374.704,208.524L374.79,208.291L374.877,208.058L374.965,207.825L375.054,207.592L375.143,207.359L375.233,207.126L375.323,206.893L375.414,206.66L375.506,206.428L375.599,206.195L375.692,205.963L375.786,205.73L375.881,205.498L375.976,205.266L376.072,205.034L376.169,204.802L376.266,204.57L376.365,204.338L376.464,204.106L376.563,203.875L376.664,203.644L376.765,203.412L376.867,203.181L376.969,202.95L377.073,202.719L377.177,202.489L377.281,202.258L377.387,202.028L377.493,201.797L377.6,201.567L377.708,201.337L377.817,201.108L377.926,200.878L378.036,200.649L378.147,200.42L378.259,200.19L378.371,199.962L378.484,199.733L378.598,199.505L378.713,199.276L378.828,199.048L378.945,198.82L379.062,198.593L379.18,198.365L379.298,198.138L379.418,197.911L379.538,197.684L379.659,197.458L379.781,197.231L379.903,197.005L380.027,196.779L380.151,196.554L380.276,196.328L380.402,196.103L380.528,195.878L380.656,195.654L380.784,195.43L380.913,195.206L381.043,194.982L381.174,194.758L381.305,194.535L381.438,194.312L381.571,194.089L381.705,193.867L381.84,193.645L381.976,193.423L382.113,193.202L382.25,192.981L382.388,192.76L382.528,192.539L382.668,192.319L382.808,192.099L382.95,191.88L383.093,191.66L383.236,191.441L383.381,191.223L383.526,191.005L383.672,190.787L383.819,190.569L383.967,190.352L384.115,190.135L384.265,189.919L384.415,189.703L384.567,189.487L384.719,189.272L384.872,189.057L385.026,188.843L385.181,188.628L385.337,188.415L385.494,188.201L385.651,187.988L385.81,187.776L385.969,187.564L386.13,187.352L386.291,187.141L386.453,186.93L386.616,186.72L386.78,186.51L386.945,186.3L387.111,186.091L387.278,185.882L387.446,185.674L387.614,185.466L387.784,185.259L387.954,185.052L388.126,184.846L388.298,184.64L388.471,184.435L388.646,184.23L388.821,184.025L388.997,183.821L389.174,183.618L389.352,183.415L389.531,183.213L389.711,183.011L389.892,182.809L390.074,182.608L390.257,182.408L390.441,182.208L390.626,182.009L390.811,181.81L390.998,181.612L391.186,181.414L391.374,181.217L391.564,181.02L391.755,180.824L391.946,180.629L392.139,180.434L392.332,180.24L392.552,180.021L392.771,179.803L392.991,179.587L393.211,179.372L393.431,179.158L393.651,178.944L393.872,178.732L394.092,178.521L394.314,178.311L394.535,178.103L394.756,177.895L394.978,177.688L395.2,177.483L395.422,177.278L395.644,177.075L395.867,176.872L396.089,176.671L396.312,176.47L396.535,176.271L396.759,176.073L396.982,175.876L397.206,175.68L397.43,175.485L397.654,175.291L397.878,175.098L398.102,174.906L398.327,174.715L398.552,174.526L398.777,174.337L399.002,174.149L399.227,173.962L399.453,173.777L399.678,173.592L399.904,173.408L400.13,173.226L400.357,173.044L400.583,172.864L400.809,172.684L401.036,172.505L401.263,172.328L401.49,172.151L401.717,171.976L401.944,171.801L402.171,171.628L402.399,171.455L402.627,171.284L402.854,171.113L403.082,170.944L403.31,170.776L403.539,170.608L403.767,170.442L403.996,170.276L404.224,170.112L404.453,169.948L404.682,169.785L404.911,169.624L405.14,169.463L405.37,169.304L405.599,169.145L405.828,168.987L406.058,168.831L406.288,168.675L406.517,168.52L406.747,168.366L406.977,168.213L407.208,168.062L407.438,167.911L407.668,167.761L407.899,167.612L408.129,167.464L408.36,167.316L408.59,167.17L408.821,167.025L409.052,166.881L409.283,166.737L409.514,166.595L409.745,166.453L409.976,166.313L410.207,166.173L410.439,166.035L410.67,165.897L410.902,165.76L411.133,165.624L411.365,165.489L411.596,165.355L411.828,165.222L412.06,165.09L412.292,164.958L412.524,164.828L412.756,164.698L412.988,164.57L413.22,164.442L413.452,164.315L413.684,164.189L413.916,164.064L414.148,163.94L414.381,163.817L414.613,163.694L414.845,163.573L415.078,163.452L415.31,163.333L415.542,163.214L415.775,163.096L416.007,162.979L416.24,162.863L416.472,162.747L416.704,162.633L416.937,162.519L417.169,162.406L417.402,162.295L417.634,162.184L417.867,162.073L418.1,161.964L418.332,161.856L418.565,161.748L418.797,161.641L419.029,161.535L419.262,161.43L419.495,161.326L419.727,161.222L419.96,161.12L420.192,161.018L420.424,160.917L420.657,160.817L420.889,160.718L421.121,160.619L421.354,160.522L421.586,160.425L421.818,160.329L422.051,160.234L422.283,160.14L422.515,160.046L422.747,159.953L422.979,159.861L423.211,159.77L423.443,159.68L423.675,159.59L423.907,159.501L424.139,159.413L424.37,159.326L424.602,159.24L424.834,159.154L425.065,159.069L425.297,158.985L425.528,158.902L425.76,158.82L425.991,158.738L426.222,158.657L426.453,158.577L426.684,158.497L426.916,158.418L427.146,158.341L427.377,158.263L427.608,158.187L427.839,158.111L428.069,158.036L428.3,157.962L428.53,157.889L428.761,157.816L428.991,157.744L429.221,157.673L429.451,157.603L429.681,157.533L429.911,157.464L430.14,157.395L430.37,157.328L430.599,157.261L430.829,157.195L431.058,157.13L431.287,157.065L431.516,157.001L431.745,156.938L431.974,156.875L432.203,156.813L432.431,156.752L432.659,156.691L432.888,156.632L433.116,156.573L433.344,156.514L433.572,156.456L433.799,156.399L434.027,156.343L434.254,156.287L434.482,156.232L434.709,156.178L434.936,156.124L435.163,156.072L435.389,156.019L435.616,155.968L435.842,155.917L436.069,155.866L436.295,155.817L436.521,155.768L436.746,155.719L436.972,155.672L437.197,155.625L437.423,155.578L437.648,155.532L437.873,155.487L438.097,155.443L438.322,155.399L438.546,155.356L438.77,155.313L438.994,155.271L439.218,155.23L439.442,155.189L439.665,155.149L439.888,155.109L440.112,155.07L440.334,155.032L440.557,154.994L440.78,154.957L441.002,154.921L441.224,154.885L441.446,154.85L441.667,154.815L441.889,154.781L442.11,154.748L442.331,154.715L442.552,154.682L442.773,154.651L442.993,154.619L443.213,154.589L443.433,154.559L443.653,154.529L443.872,154.501L444.092,154.472L444.311,154.444L444.529,154.417L444.748,154.391L444.966,154.365L445.184,154.339L445.402,154.314L445.62,154.29L445.837,154.266L446.054,154.243L446.271,154.22L446.488,154.197L446.704,154.176L446.921,154.155L447.136,154.134L447.352,154.114L447.568,154.094L447.783,154.075L447.998,154.057L448.212,154.039L448.427,154.021L448.641,154.004L448.855,153.987L449.068,153.971L449.281,153.956L449.495,153.941L449.707,153.926L449.92,153.912L450.132,153.899L450.344,153.886L450.556,153.873L450.767,153.861L450.978,153.85L451.189,153.839L451.399,153.828L451.61,153.818L451.819,153.808L452.029,153.799L452.239,153.79L452.448,153.782L452.656,153.774L452.865,153.767L453.073,153.76L453.281,153.754L453.488,153.748L453.696,153.742L453.903,153.737L454.109,153.732L454.315,153.728L454.521,153.725L454.727,153.721L454.933,153.718L455.138,153.716L455.342,153.714L455.547,153.712L455.751,153.711L455.955,153.71L456.158,153.71L456.361,153.71L456.564,153.711L456.766,153.711L456.969,153.713L457.17,153.714L457.372,153.717L457.573,153.719L457.774,153.722L457.974,153.725L458.174,153.729L458.374,153.733L458.576,153.738L458.971,153.748L459.367,153.759L459.762,153.773L460.156,153.787L460.548,153.803L460.938,153.821L461.327,153.84L461.715,153.86L462.101,153.882L462.486,153.905L462.869,153.929L463.25,153.955L463.63,153.982L464.009,154.01L464.385,154.04L464.761,154.07L465.134,154.102L465.506,154.135L465.877,154.17L466.245,154.205L466.612,154.242L466.978,154.28L467.341,154.318L467.703,154.358L468.064,154.399L468.422,154.441L468.779,154.484L469.134,154.528L469.487,154.573L469.839,154.619L470.188,154.666L470.536,154.714L470.882,154.762L471.227,154.812L471.569,154.862L471.909,154.913L472.248,154.965L472.585,155.018L472.92,155.072L473.253,155.126L473.584,155.181L473.913,155.237L474.24,155.293L474.565,155.351L474.889,155.408L475.21,155.467L475.529,155.526L475.846,155.585L476.161,155.646L476.474,155.706L476.786,155.768L477.095,155.83L477.402,155.892L477.706,155.955L478.009,156.018L478.31,156.081L478.608,156.146L478.905,156.21L479.199,156.275L479.491,156.34L479.781,156.406L480.068,156.471L480.354,156.538L480.637,156.604L480.918,156.671L481.196,156.738L481.473,156.805L481.747,156.872L482.019,156.94L482.288,157.007L482.556,157.075L482.821,157.143L483.083,157.211L483.343,157.279L483.601,157.347L483.857,157.416L484.11,157.484L484.36,157.552L484.609,157.62L484.854,157.689L485.098,157.757L485.339,157.825L485.577,157.893L485.813,157.961L486.046,158.028L486.277,158.096L486.506,158.163L486.731,158.231L486.955,158.298L487.175,158.364L487.394,158.431L487.609,158.497L487.822,158.563L488.032,158.629L488.24,158.694L488.445,158.759L488.647,158.824L488.847,158.888L489.044,158.952L489.238,159.015L489.43,159.078L489.619,159.14L489.805,159.203L489.991,159.265L490.346,159.385L496.274,161.42L496.825,163.631L492.511,168.246L492.221,168.555L491.923,168.872L491.617,169.195L491.303,169.525L490.981,169.862L490.653,170.206L490.317,170.556L489.973,170.913L489.623,171.275L489.266,171.644L488.903,172.019L488.532,172.4L488.156,172.786L487.773,173.178L487.384,173.576L486.989,173.978L486.589,174.386L486.183,174.799L485.771,175.216L485.354,175.639L484.933,176.065L484.506,176.496L484.074,176.932L483.638,177.371L483.197,177.814L482.752,178.261L482.303,178.712L481.394,179.623L480.469,180.546L479.532,181.481L478.583,182.426L477.624,183.38L476.655,184.341L475.679,185.308L474.696,186.28L473.708,187.256L472.717,188.234L471.723,189.213L470.728,190.192L469.733,191.169L468.741,192.144L467.751,193.115L466.766,194.081L465.786,195.04L464.814,195.991L463.85,196.933L462.896,197.865L461.953,198.785L461.023,199.692L460.106,200.585L459.205,201.462L458.321,202.323L457.454,203.165L455.781,204.791L454.196,206.329L452.71,207.77L451.334,209.102L450.079,210.317L449.42,210.955L493.062,254.169L539.879,209.377L541.128,209.581L543.87,214.799L543.942,214.94L543.996,215.046L544.056,215.164L544.123,215.3L544.198,215.454L544.28,215.624L544.369,215.811L544.464,216.016L544.567,216.236L544.675,216.474L544.787,216.724L544.848,216.86L544.908,216.997L544.97,217.138L545.033,217.283L545.097,217.432L545.163,217.585L545.229,217.742L545.297,217.903L545.366,218.068L545.436,218.237L545.507,218.409L545.578,218.586L545.651,218.766L545.725,218.951L545.8,219.139L545.875,219.33L545.951,219.526L546.028,219.725L546.106,219.928L546.184,220.135L546.263,220.346L546.343,220.56L546.423,220.778L546.504,221L546.585,221.225L546.667,221.454L546.749,221.687L546.832,221.923L546.915,222.162L546.998,222.406L547.082,222.653L547.165,222.903L547.249,223.157L547.334,223.414L547.418,223.675L547.502,223.94L547.587,224.207L547.671,224.479L547.756,224.753L547.84,225.031L547.925,225.313L548.009,225.598L548.093,225.885L548.177,226.177L548.26,226.472L548.344,226.77L548.427,227.071L548.51,227.376L548.592,227.683L548.674,227.994L548.755,228.309L548.836,228.626L548.917,228.947L548.996,229.27L549.076,229.598L549.154,229.927L549.232,230.26L549.309,230.597L549.386,230.936L549.462,231.278L549.536,231.624L549.61,231.972L549.683,232.323L549.756,232.678L549.827,233.035L549.896,233.393L549.931,233.577L549.966,233.759L550,233.942L550.034,234.125L550.067,234.309L550.101,234.494L550.134,234.68L550.166,234.866L550.199,235.053L550.231,235.241L550.262,235.429L550.294,235.618L550.325,235.808L550.356,235.999L550.386,236.19L550.416,236.381L550.446,236.574L550.476,236.768L550.505,236.962L550.534,237.157L550.562,237.352L550.59,237.548L550.618,237.745L550.645,237.942L550.672,238.141L550.698,238.339L550.725,238.539L550.75,238.739L550.776,238.94L550.801,239.142L550.825,239.344L550.849,239.546L550.873,239.75L550.896,239.954L550.919,240.159L550.942,240.365L550.963,240.571L550.985,240.777L551.006,240.985L551.027,241.193L551.047,241.402L551.067,241.611L551.086,241.821L551.105,242.032L551.123,242.243L551.141,242.455L551.159,242.667L551.175,242.88L551.192,243.095L551.208,243.309L551.223,243.524L551.238,243.74L551.252,243.956L551.266,244.173L551.28,244.39L551.293,244.609L551.305,244.827L551.317,245.047L551.328,245.266L551.338,245.487L551.349,245.708L551.358,245.93L551.367,246.152L551.376,246.375L551.384,246.599L551.391,246.822L551.398,247.047L551.404,247.273L551.409,247.498L551.414,247.724L551.419,247.952L551.422,248.179L551.426,248.407L551.428,248.636L551.43,248.865L551.431,249.095L551.432,249.326L551.432,249.556L551.431,249.788L551.43,250.02L551.428,250.252L551.426,250.485L551.423,250.719L551.419,250.953L551.414,251.188L551.409,251.423L551.403,251.659L551.397,251.895L551.39,252.132L551.382,252.37L551.373,252.608L551.364,252.846L551.354,253.085L551.343,253.325L551.332,253.565L551.319,253.805L551.307,254.046L551.293,254.288L551.279,254.53L551.264,254.773L551.248,255.015L551.231,255.259L551.214,255.503L551.196,255.748L551.177,255.993L551.158,256.238L551.137,256.484L551.116,256.731L551.094,256.978L551.071,257.225L551.048,257.473L551.024,257.721L550.999,257.97L550.973,258.22L550.946,258.469L550.919,258.72L550.89,258.97L550.861,259.221L550.831,259.473L550.8,259.725L550.769,259.977L550.736,260.231L550.703,260.484L550.669,260.738L550.634,260.992L550.598,261.247L550.561,261.502L550.523,261.758L550.485,262.014L550.445,262.27L550.405,262.527L550.364,262.784L550.322,263.042L550.279,263.3L550.235,263.559L550.19,263.818L550.145,264.077L550.098,264.337L550.05,264.597L550.002,264.857L549.953,265.118L549.902,265.38L549.851,265.641L549.799,265.904L549.746,266.166L549.692,266.429L549.636,266.692L549.58,266.956L549.523,267.22L549.466,267.484L549.406,267.749L549.347,268.014L549.286,268.28L549.224,268.545L549.161,268.811L549.097,269.078L549.032,269.345L548.966,269.612L548.899,269.88L548.831,270.148L548.762,270.416L548.692,270.685L548.621,270.954L548.549,271.223L548.476,271.492L548.401,271.762L548.326,272.033L548.25,272.303L548.173,272.574L548.094,272.845L548.015,273.117L547.934,273.389L547.852,273.661L547.77,273.933L547.686,274.206L547.601,274.479L547.515,274.752L547.428,275.026L547.34,275.3L547.25,275.574L547.16,275.849L547.068,276.123L546.976,276.398L546.882,276.674L546.787,276.949L546.691,277.225L546.593,277.501L546.495,277.777L546.395,278.054L546.295,278.331L546.193,278.608L546.09,278.886L545.986,279.163L545.88,279.441L545.774,279.719L545.666,279.998L545.557,280.277L545.447,280.555L545.336,280.834L545.223,281.114L545.11,281.393L544.995,281.673L544.879,281.953L544.761,282.233L544.643,282.514L544.523,282.794L544.402,283.075L544.28,283.357L544.156,283.638L544.031,283.919L543.906,284.201L543.778,284.483L543.65,284.765L543.52,285.047L543.389,285.329L543.257,285.612L543.123,285.895L542.988,286.178L542.852,286.461L542.715,286.744L542.576,287.028L542.436,287.311L542.295,287.595L542.153,287.879L542.009,288.163L541.864,288.447L541.717,288.732L541.569,289.016L541.42,289.301L541.269,289.586L541.118,289.871L540.965,290.156L540.81,290.442L540.654,290.727L540.497,291.012L540.339,291.298L540.179,291.584L540.018,291.87L539.855,292.156L539.691,292.442L539.526,292.729L539.359,293.015L539.191,293.301L539.021,293.588L538.85,293.875L538.678,294.161L538.505,294.448L538.329,294.736L538.153,295.022L537.975,295.309L537.796,295.597L537.615,295.884L537.433,296.172L537.249,296.459L537.065,296.747L536.878,297.034L536.69,297.322L536.501,297.61L536.31,297.898L536.118,298.185L535.924,298.474L535.729,298.762L535.533,299.05L535.335,299.338L535.135,299.626L534.934,299.914L534.732,300.202L534.528,300.491L534.322,300.779L534.116,301.067L533.907,301.356L533.697,301.644L533.486,301.933L533.273,302.221L533.059,302.51L532.843,302.798L532.625,303.087L532.406,303.376L532.186,303.664L531.964,303.953L531.74,304.241L531.515,304.53L531.288,304.818L531.06,305.107L530.83,305.396L530.599,305.684L530.366,305.973L530.132,306.261L529.896,306.55L529.658,306.838L529.419,307.127L529.178,307.416L528.936,307.704L528.692,307.992L528.447,308.281L528.2,308.569L527.951,308.858L527.701,309.146L527.449,309.434L527.196,309.723L526.94,310.011L526.684,310.299L526.426,310.587L526.166,310.875L525.904,311.163L525.641,311.451L525.376,311.739L525.109,312.027L524.841,312.315L524.572,312.602L524.3,312.89L524.027,313.178L523.752,313.465L523.476,313.753L523.198,314.04L522.918,314.327L522.636,314.614L522.353,314.902L522.069,315.188L521.782,315.475L521.494,315.762L521.204,316.049L520.912,316.336L520.619,316.622L520.366,316.868L520.113,317.112L519.86,317.355L519.607,317.596L519.354,317.836L519.1,318.074L518.847,318.31L518.594,318.546L518.34,318.78L518.087,319.012L517.833,319.242L517.58,319.472L517.326,319.7L517.072,319.926L516.819,320.151L516.565,320.374L516.311,320.596L516.057,320.817L515.804,321.036L515.55,321.254L515.296,321.47L515.042,321.685L514.788,321.898L514.534,322.11L514.28,322.321L514.026,322.53L513.772,322.737L513.519,322.944L513.265,323.148L513.011,323.352L512.757,323.554L512.503,323.755L512.248,323.954L511.995,324.152L511.741,324.348L511.487,324.543L511.233,324.737L510.979,324.929L510.725,325.12L510.471,325.31L510.217,325.498L509.963,325.685L509.709,325.87L509.455,326.054L509.201,326.237L508.948,326.419L508.694,326.599L508.44,326.777L508.186,326.955L507.933,327.131L507.679,327.306L507.425,327.479L507.172,327.651L506.919,327.822L506.665,327.991L506.412,328.159L506.158,328.326L505.905,328.491L505.652,328.656L505.399,328.818L505.145,328.98L504.892,329.14L504.639,329.299L504.386,329.457L504.134,329.613L503.881,329.768L503.628,329.922L503.376,330.075L503.123,330.226L502.87,330.376L502.618,330.525L502.366,330.673L502.114,330.819L501.861,330.964L501.609,331.108L501.357,331.25L501.106,331.391L500.854,331.531L500.602,331.67L500.351,331.808L500.099,331.944L499.848,332.079L499.597,332.213L499.346,332.346L499.095,332.477L498.844,332.608L498.593,332.737L498.343,332.865L498.092,332.991L497.842,333.117L497.591,333.241L497.341,333.364L497.092,333.486L496.842,333.607L496.592,333.726L496.342,333.845L496.093,333.962L495.844,334.078L495.595,334.193L495.346,334.307L495.097,334.419L494.849,334.531L494.6,334.641L494.352,334.75L494.104,334.858L493.856,334.965L493.608,335.071L493.361,335.175L493.113,335.279L492.866,335.381L492.619,335.483L492.372,335.583L492.125,335.682L491.879,335.78L491.632,335.877L491.386,335.972L491.14,336.067L490.895,336.161L490.649,336.253L490.404,336.344L490.159,336.435L489.914,336.524L489.669,336.612L489.425,336.699L489.181,336.785L488.936,336.87L488.693,336.954L488.449,337.037L488.206,337.119L487.963,337.2L487.72,337.28L487.477,337.359L487.235,337.436L486.993,337.513L486.751,337.589L486.509,337.663L486.267,337.737L486.026,337.81L485.785,337.881L485.545,337.952L485.304,338.021L485.064,338.09L484.824,338.158L484.584,338.224L484.345,338.29L484.106,338.355L483.867,338.419L483.629,338.481L483.39,338.543L483.152,338.604L482.914,338.664L482.677,338.723L482.44,338.781L482.203,338.838L481.967,338.894L481.73,338.949L481.494,339.003L481.259,339.057L481.024,339.109L480.788,339.161L480.554,339.211L480.319,339.261L480.085,339.31L479.851,339.357L479.618,339.404L479.385,339.45L479.152,339.496L478.919,339.54L478.687,339.583L478.455,339.626L478.224,339.668L477.992,339.708L477.762,339.748L477.531,339.787L477.301,339.825L477.071,339.863L476.842,339.899L476.612,339.935L476.384,339.97L476.155,340.004L475.927,340.037L475.699,340.069L475.472,340.101L475.245,340.132L475.018,340.162L474.792,340.191L474.566,340.219L474.341,340.246L474.115,340.273L473.891,340.299L473.666,340.324L473.442,340.349L473.219,340.372L472.995,340.395L472.772,340.417L472.55,340.438L472.328,340.459L472.106,340.478L471.885,340.497L471.664,340.516L471.444,340.533L471.224,340.55L471.004,340.566L470.785,340.581L470.566,340.596L470.347,340.61L470.129,340.623L469.912,340.635L469.694,340.647L469.478,340.658L469.261,340.668L469.046,340.678L468.83,340.687L468.615,340.695L468.4,340.703L468.186,340.71L467.972,340.716L467.759,340.722L467.546,340.727L467.334,340.731L467.122,340.734L466.91,340.737L466.699,340.74L466.488,340.741L466.278,340.742L466.069,340.743L465.859,340.743L465.65,340.742L465.442,340.74L465.234,340.738L465.027,340.735L464.82,340.732L464.613,340.728L464.407,340.724L464.202,340.719L463.997,340.713L463.792,340.707L463.588,340.7L463.384,340.692L463.181,340.685L462.979,340.676L462.776,340.667L462.575,340.657L462.374,340.647L462.173,340.636L461.973,340.625L461.773,340.613L461.574,340.601L461.375,340.588L461.177,340.574L460.979,340.56L460.782,340.546L460.585,340.531L460.389,340.516L460.194,340.5L459.999,340.483L459.804,340.466L459.61,340.449L459.416,340.431L459.224,340.412L459.031,340.393L458.839,340.374L458.647,340.354L458.457,340.334L458.266,340.313L458.076,340.292L457.887,340.27L457.698,340.248L457.51,340.226L457.322,340.203L457.135,340.179L456.949,340.155L456.762,340.131L456.577,340.106L456.392,340.081L456.208,340.056L456.024,340.03L455.84,340.003L455.658,339.977L455.476,339.95L455.294,339.922L455.113,339.894L454.933,339.866L454.753,339.837L454.573,339.808L454.395,339.779L454.216,339.749L454.038,339.719L453.862,339.689L453.685,339.658L453.509,339.627L453.334,339.595L453.159,339.563L452.985,339.531L452.812,339.499L452.639,339.466L452.466,339.433L452.295,339.399L452.123,339.366L451.953,339.332L451.783,339.297L451.614,339.263L451.445,339.228L451.274,339.192L450.942,339.121L450.61,339.049L450.28,338.975L449.953,338.901L449.629,338.825L449.306,338.749L448.987,338.672L448.67,338.593L448.355,338.514L448.043,338.434L447.733,338.354L447.427,338.272L447.122,338.19L446.82,338.107L446.521,338.023L446.225,337.939L445.931,337.855L445.64,337.769L445.351,337.684L445.065,337.597L444.782,337.511L444.502,337.424L444.224,337.336L443.949,337.248L443.677,337.16L443.408,337.072L443.141,336.983L442.877,336.894L442.616,336.805L442.358,336.716L442.102,336.627L441.85,336.537L441.6,336.448L441.353,336.358L441.109,336.269L440.869,336.18L440.63,336.09L440.395,336.001L440.163,335.912L439.934,335.824L439.708,335.735L439.484,335.647L439.264,335.559L439.046,335.471L438.832,335.384L438.621,335.297L438.413,335.211L438.207,335.125L438.005,335.039L437.806,334.954L437.611,334.87L437.418,334.786L437.228,334.703L437.042,334.621L436.858,334.539L436.679,334.458L436.501,334.378L436.327,334.298L436.157,334.219L435.99,334.142L435.826,334.065L435.725,334.017L330.165,439.578L330.217,439.85L330.278,440.17L330.34,440.504L330.404,440.852L330.468,441.213L330.534,441.587L330.6,441.975L330.666,442.373L330.7,442.58L330.734,442.788L330.768,442.999L330.802,443.213L330.836,443.43L330.87,443.651L330.904,443.874L330.938,444.1L330.972,444.33L331.006,444.562L331.04,444.797L331.074,445.035L331.107,445.276L331.141,445.52L331.174,445.767L331.207,446.017L331.241,446.269L331.273,446.524L331.306,446.782L331.339,447.043L331.371,447.306L331.403,447.572L331.434,447.84L331.465,448.112L331.496,448.385L331.527,448.662L331.557,448.941L331.587,449.222L331.617,449.506L331.646,449.793L331.674,450.082L331.702,450.373L331.73,450.667L331.757,450.963L331.784,451.262L331.81,451.563L331.835,451.866L331.86,452.172L331.884,452.479L331.908,452.79L331.931,453.102L331.954,453.417L331.975,453.733L331.996,454.052L332.017,454.373L332.036,454.697L332.055,455.022L332.073,455.349L332.09,455.679L332.107,456.01L332.122,456.343L332.137,456.679L332.151,457.016L332.164,457.356L332.176,457.697L332.187,458.04L332.197,458.385L332.206,458.732L332.215,459.08L332.222,459.431L332.228,459.783L332.233,460.137L332.237,460.493L332.24,460.85L332.242,461.209L332.243,461.57L332.243,461.932L332.241,462.296L332.238,462.662L332.234,463.029L332.229,463.398L332.223,463.768L332.215,464.14L332.206,464.513L332.196,464.888L332.184,465.264L332.171,465.641L332.157,466.02L332.141,466.4L332.124,466.782L332.105,467.165L332.085,467.549L332.064,467.934L332.041,468.321L332.016,468.709L331.99,469.098L331.963,469.488L331.933,469.88L331.903,470.273L331.87,470.666L331.836,471.061L331.801,471.454L331.782,471.655L331.763,471.854L331.744,472.053L331.724,472.252L331.704,472.451L331.684,472.65L331.663,472.85L331.641,473.05L331.619,473.25L331.597,473.451L331.574,473.652L331.551,473.853L331.527,474.054L331.503,474.255L331.478,474.457L331.453,474.659L331.428,474.861L331.402,475.063L331.375,475.266L331.348,475.468L331.321,475.671L331.293,475.875L331.265,476.078L331.236,476.281L331.207,476.485L331.177,476.689L331.147,476.893L331.116,477.097L331.085,477.301L331.053,477.506L331.021,477.711L330.988,477.916L330.955,478.121L330.921,478.326L330.887,478.532L330.852,478.737L330.817,478.943L330.781,479.149L330.745,479.355L330.708,479.561L330.67,479.767L330.632,479.974L330.594,480.18L330.555,480.387L330.516,480.594L330.475,480.801L330.435,481.008L330.394,481.215L330.352,481.423L330.31,481.63L330.267,481.838L330.224,482.045L330.18,482.253L330.136,482.461L330.09,482.669L330.045,482.877L329.999,483.085L329.952,483.294L329.905,483.502L329.857,483.711L329.808,483.919L329.759,484.128L329.71,484.336L329.66,484.545L329.609,484.754L329.557,484.963L329.505,485.172L329.453,485.381L329.4,485.59L329.346,485.8L329.291,486.009L329.236,486.218L329.181,486.427L329.125,486.637L329.068,486.846L329.01,487.056L328.952,487.265L328.893,487.475L328.834,487.684L328.774,487.894L328.714,488.103L328.652,488.313L328.59,488.523L328.528,488.732L328.465,488.942L328.401,489.151L328.336,489.361L328.271,489.571L328.205,489.78L328.139,489.99L328.072,490.2L328.004,490.409L327.936,490.619L327.866,490.828L327.797,491.038L327.726,491.248L327.655,491.457L327.583,491.667L327.511,491.876L327.437,492.085L327.363,492.295L327.289,492.504L327.213,492.713L327.138,492.922L327.061,493.132L326.983,493.341L326.905,493.55L326.826,493.759L326.747,493.968L326.667,494.177L326.586,494.385L326.504,494.594L326.421,494.803L326.338,495.011L326.254,495.22L326.17,495.428L326.084,495.636L325.998,495.844L325.912,496.052L325.824,496.261L325.735,496.469L325.646,496.676L325.557,496.884L325.466,497.091L325.375,497.299L325.283,497.506L325.19,497.713L325.096,497.92L325.002,498.127L324.906,498.333L324.81,498.54L324.714,498.746L324.616,498.953L324.518,499.159L324.419,499.365L324.319,499.571L324.218,499.776L324.117,499.982L324.014,500.187L323.911,500.392L323.807,500.597L323.703,500.802L323.597,501.006L323.491,501.211L323.384,501.415L323.276,501.619L323.167,501.822L323.058,502.026L322.947,502.229L322.836,502.433L322.724,502.636L322.611,502.838L322.497,503.041L322.383,503.243L322.267,503.445L322.151,503.647L322.034,503.849L321.916,504.05L321.797,504.251L321.678,504.452L321.557,504.652L321.436,504.853L321.313,505.053L321.19,505.252L321.066,505.452L320.942,505.651L320.816,505.85L320.689,506.049L320.562,506.247L320.434,506.445L320.304,506.643L320.174,506.841L320.043,507.038L319.911,507.235L319.779,507.432L319.645,507.628L319.511,507.824L319.375,508.02L319.239,508.215L319.101,508.41L318.963,508.605L318.824,508.799L318.684,508.993L318.543,509.187L318.402,509.38L318.259,509.573L318.115,509.766L317.971,509.958L317.825,510.15L317.679,510.342L317.531,510.533L317.383,510.724L317.234,510.914L317.084,511.104L316.933,511.294L316.781,511.483L316.628,511.672L316.474,511.86L316.319,512.048L316.163,512.236L316.006,512.423L315.849,512.61L315.69,512.797L315.53,512.983L315.37,513.168L315.208,513.353L315.046,513.538L314.882,513.722L314.718,513.906L314.553,514.09L314.386,514.272L314.219,514.455L314.051,514.637L313.881,514.818L313.711,515L313.54,515.18L313.368,515.36L313.195,515.54L313.02,515.719L312.845,515.898L312.669,516.076L312.492,516.254L312.314,516.431L312.153,516.589L311.905,516.837L311.642,517.099L311.379,517.359L311.116,517.619L310.852,517.878L310.589,518.136L310.326,518.393L310.062,518.649L309.799,518.904L309.535,519.158L309.271,519.412L309.007,519.664L308.743,519.916L308.479,520.166L308.214,520.416L307.95,520.665L307.685,520.912L307.42,521.159L307.155,521.405L306.889,521.65L306.623,521.894L306.358,522.137L306.091,522.379L305.825,522.62L305.558,522.861L305.291,523.1L305.024,523.338L304.757,523.575L304.489,523.812L304.221,524.047L303.953,524.282L303.684,524.515L303.415,524.747L303.146,524.979L302.876,525.209L302.606,525.439L302.336,525.667L302.065,525.895L301.794,526.121L301.522,526.347L301.25,526.571L300.978,526.794L300.705,527.017L300.432,527.238L300.158,527.459L299.884,527.678L299.61,527.896L299.335,528.114L299.06,528.33L298.783,528.545L298.507,528.759L298.23,528.972L297.953,529.184L297.675,529.395L297.397,529.605L297.118,529.814L296.838,530.022L296.558,530.229L296.278,530.435L295.997,530.639L295.715,530.843L295.433,531.045L295.15,531.247L294.867,531.447L294.583,531.646L294.298,531.844L294.013,532.041L293.727,532.237L293.441,532.432L293.154,532.625L292.866,532.818L292.578,533.009L292.289,533.199L291.999,533.389L291.709,533.577L291.418,533.763L291.126,533.949L290.833,534.134L290.54,534.317L290.247,534.499L289.952,534.68L289.657,534.86L289.361,535.039L289.064,535.216L288.767,535.393L288.468,535.568L288.169,535.742L287.87,535.915L287.569,536.087L287.268,536.257L286.966,536.426L286.663,536.594L286.359,536.761L286.055,536.926L285.75,537.091L285.443,537.254L285.137,537.416L284.829,537.576L284.52,537.736L284.211,537.894L283.901,538.051L283.59,538.207L283.278,538.361L282.965,538.514L282.651,538.666L282.336,538.817L282.021,538.966L281.704,539.114L281.387,539.261L281.069,539.406L280.75,539.551L280.43,539.694L280.109,539.835L279.787,539.976L279.464,540.115L279.141,540.252L278.816,540.389L278.491,540.524L278.164,540.658L277.836,540.79L277.508,540.921L277.178,541.051L276.851,541.179L276.682,541.243L276.517,541.307L276.351,541.37L276.184,541.433L276.018,541.495L275.851,541.557L275.684,541.619L275.516,541.68L275.349,541.741L275.181,541.802L275.013,541.862L274.845,541.922L274.676,541.982L274.507,542.041L274.338,542.1L274.169,542.159L273.999,542.218L273.83,542.275L273.66,542.333L273.489,542.39L273.318,542.448L273.147,542.504L272.976,542.56L272.805,542.616L272.633,542.672L272.461,542.727L272.289,542.782L272.117,542.837L271.944,542.891L271.771,542.945L271.598,542.999L271.424,543.052L271.251,543.104L271.076,543.157L270.902,543.209L270.728,543.261L270.553,543.313L270.377,543.364L270.202,543.414L270.027,543.465L269.851,543.515L269.674,543.565L269.498,543.614L269.321,543.663L269.144,543.712L268.967,543.76L268.789,543.808L268.612,543.856L268.433,543.903L268.254,543.95L268.076,543.996L267.897,544.043L267.718,544.089L267.538,544.134L267.358,544.179L267.179,544.224L266.998,544.269L266.817,544.313L266.637,544.356L266.455,544.4L266.273,544.443L266.092,544.486L265.91,544.528L265.727,544.57L265.545,544.612L265.362,544.653L265.179,544.694L264.995,544.735L264.811,544.775L264.627,544.814L264.443,544.854L264.258,544.893L264.073,544.932L263.887,544.97L263.702,545.008L263.516,545.046L263.33,545.083L263.144,545.121L262.956,545.157L262.77,545.193L262.582,545.229L262.394,545.265L262.207,545.3L262.018,545.335L261.829,545.37L261.64,545.404L261.452,545.437L261.262,545.471L261.072,545.504L260.882,545.537L260.692,545.569L260.501,545.601L260.309,545.633L260.118,545.664L259.927,545.695L259.735,545.725L259.542,545.756L259.35,545.785L259.157,545.815L258.964,545.844L258.77,545.873L258.576,545.901L258.382,545.929L258.188,545.957L257.992,545.984L257.797,546.011L257.603,546.037L257.406,546.063L257.21,546.089L257.014,546.115L256.817,546.14L256.62,546.165L256.423,546.189L256.225,546.213L256.027,546.237L255.829,546.26L255.63,546.283L255.431,546.305L255.231,546.328L255.032,546.349L254.832,546.371L254.631,546.392L254.431,546.413L254.23,546.433L254.028,546.453L253.826,546.473L253.625,546.492L253.423,546.511L253.22,546.529L253.016,546.547L252.813,546.565L252.609,546.583L252.405,546.6L252.201,546.616L251.996,546.633L251.791,546.649L251.586,546.664L251.377,546.68L250.967,546.709L250.553,546.737L250.138,546.763L249.721,546.788L249.303,546.812L248.883,546.834L248.462,546.854L248.039,546.873L247.616,546.891L247.19,546.907L246.763,546.921L246.335,546.935L245.905,546.946L245.474,546.956L245.041,546.965L244.606,546.972L244.171,546.978L243.733,546.982L243.294,546.985L242.854,546.986L242.412,546.986L241.969,546.984L241.524,546.981L241.077,546.976L240.629,546.97L240.179,546.962L239.728,546.953L239.275,546.942L238.82,546.93L238.364,546.917L237.907,546.901L237.447,546.885L236.986,546.866L236.524,546.847L236.06,546.826L235.594,546.803L235.126,546.779L234.657,546.753L234.186,546.726L233.713,546.697L233.239,546.667L232.763,546.635L232.285,546.602L231.806,546.567L231.324,546.531L230.842,546.493L230.357,546.454L229.87,546.413L229.382,546.37L228.893,546.327L228.4,546.281L227.907,546.234L227.412,546.186L226.915,546.136L226.416,546.084L225.915,546.031L225.412,545.977L224.908,545.921L224.401,545.863L223.893,545.804L223.383,545.743L222.871,545.681L222.358,545.617L215.795,544.786L214.532,541.207L219.078,536.483L219.395,536.152L219.717,535.815L220.043,535.473L220.374,535.124L220.71,534.769L221.05,534.409L221.393,534.043L221.742,533.672L222.094,533.296L222.449,532.915L222.809,532.529L223.172,532.138L223.538,531.742L223.908,531.343L224.281,530.938L224.657,530.53L225.036,530.118L225.418,529.701L225.803,529.281L226.19,528.858L226.58,528.431L226.972,528L227.366,527.567L227.763,527.13L228.161,526.691L228.562,526.249L228.964,525.804L229.368,525.357L229.773,524.907L230.18,524.455L230.588,524.002L231.408,523.089L232.232,522.169L233.058,521.245L233.887,520.316L234.717,519.383L235.547,518.449L236.377,517.514L237.204,516.579L238.03,515.646L238.851,514.715L239.669,513.787L240.481,512.864L241.287,511.947L242.086,511.037L242.877,510.135L243.659,509.241L244.431,508.358L245.193,507.487L245.943,506.627L246.68,505.781L247.404,504.95L248.114,504.134L248.808,503.335L249.486,502.554L250.147,501.792L250.79,501.05L251.415,500.329L252.019,499.631L253.165,498.305L254.221,497.082L255.179,495.97L255.433,495.675L207.358,447.6L160.657,490.747L158.179,490.059L156.505,484.305L156.464,484.163L156.405,483.949L156.367,483.809L156.325,483.655L156.279,483.483L156.229,483.293L156.175,483.085L156.117,482.861L156.056,482.619L155.992,482.361L155.925,482.086L155.854,481.795L155.781,481.488L155.706,481.164L155.628,480.825L155.548,480.47L155.465,480.1L155.382,479.717L155.339,479.516L155.296,479.314L155.252,479.108L155.209,478.899L155.165,478.686L155.12,478.469L155.076,478.249L155.031,478.025L154.986,477.798L154.941,477.567L154.895,477.332L154.85,477.095L154.804,476.853L154.758,476.608L154.712,476.36L154.666,476.109L154.62,475.854L154.574,475.596L154.528,475.334L154.482,475.069L154.437,474.802L154.391,474.53L154.345,474.256L154.299,473.978L154.254,473.698L154.209,473.414L154.164,473.127L154.119,472.837L154.074,472.544L154.03,472.248L153.986,471.948L153.942,471.646L153.899,471.341L153.856,471.033L153.813,470.723L153.771,470.409L153.729,470.092L153.688,469.773L153.647,469.451L153.607,469.126L153.567,468.798L153.527,468.468L153.489,468.135L153.451,467.799L153.413,467.46L153.376,467.119L153.34,466.776L153.305,466.429L153.27,466.08L153.236,465.729L153.202,465.375L153.17,465.019L153.138,464.66L153.107,464.299L153.077,463.935L153.048,463.57L153.02,463.201L152.993,462.831L152.967,462.458L152.941,462.082L152.917,461.705L152.894,461.325L152.871,460.943L152.85,460.559L152.83,460.173L152.811,459.784L152.793,459.394L152.777,459.001L152.761,458.607L152.747,458.21L152.734,457.811L152.722,457.411L152.712,457.008L152.703,456.603L152.695,456.197L152.688,455.789L152.683,455.378L152.68,454.966L152.677,454.552L152.677,454.137L152.677,453.719L152.68,453.3L152.683,452.879L152.689,452.459L152.692,452.245L152.696,452.033L152.7,451.82L152.704,451.607L152.709,451.393L152.714,451.179L152.72,450.965L152.726,450.75L152.733,450.535L152.74,450.32L152.747,450.104L152.755,449.887L152.763,449.671L152.772,449.454L152.781,449.236L152.791,449.019L152.801,448.8L152.811,448.582L152.822,448.363L152.833,448.144L152.845,447.924L152.858,447.704L152.87,447.484L152.884,447.264L152.897,447.043L152.911,446.821L152.926,446.6L152.941,446.378L152.957,446.155L152.973,445.933L152.989,445.71L153.007,445.487L153.024,445.263L153.042,445.039L153.061,444.815L153.08,444.59L153.099,444.366L153.119,444.14L153.14,443.915L153.161,443.689L153.183,443.463L153.205,443.237L153.228,443.011L153.251,442.784L153.275,442.557L153.299,442.329L153.324,442.102L153.349,441.874L153.375,441.645L153.402,441.417L153.429,441.188L153.456,440.959L153.484,440.73L153.513,440.5L153.542,440.271L153.572,440.041L153.602,439.81L153.633,439.58L153.665,439.349L153.697,439.118L153.73,438.887L153.763,438.656L153.797,438.424L153.832,438.192L153.867,437.96L153.902,437.728L153.939,437.495L153.976,437.263L154.013,437.03L154.051,436.797L154.09,436.564L154.129,436.33L154.169,436.096L154.21,435.863L154.251,435.629L154.293,435.394L154.336,435.16L154.379,434.925L154.422,434.691L154.467,434.456L154.512,434.221L154.558,433.985L154.604,433.75L154.651,433.515L154.699,433.279L154.747,433.043L154.796,432.807L154.846,432.571L154.896,432.335L154.947,432.098L154.999,431.862L155.052,431.625L155.105,431.388L155.159,431.151L155.213,430.914L155.268,430.677L155.324,430.44L155.381,430.203L155.438,429.965L155.496,429.728L155.555,429.49L155.614,429.252L155.675,429.014L155.736,428.776L155.797,428.538L155.86,428.3L155.923,428.062L155.986,427.824L156.051,427.585L156.116,427.347L156.182,427.109L156.249,426.87L156.317,426.631L156.385,426.393L156.454,426.154L156.524,425.915L156.595,425.677L156.666,425.438L156.738,425.199L156.811,424.96L156.885,424.721L156.959,424.482L157.035,424.243L157.111,424.004L157.188,423.765L157.265,423.526L157.344,423.287L157.423,423.048L157.503,422.809L157.584,422.57L157.666,422.331L157.748,422.092L157.832,421.853L157.916,421.614L158.001,421.375L158.087,421.136L158.173,420.897L158.261,420.658L158.349,420.419L158.438,420.18L158.528,419.942L158.619,419.703L158.711,419.464L158.804,419.225L158.897,418.987L158.991,418.748L159.086,418.51L159.182,418.271L159.279,418.033L159.377,417.795L159.476,417.556L159.575,417.318L159.676,417.08L159.777,416.842L159.879,416.605L159.982,416.367L160.086,416.129L160.191,415.892L160.297,415.654L160.404,415.417L160.511,415.179L160.62,414.942L160.729,414.705L160.84,414.468L160.951,414.232L161.063,413.995L161.176,413.759L161.291,413.522L161.406,413.286L161.521,413.05L161.638,412.814L161.756,412.578L161.875,412.343L161.995,412.108L162.116,411.872L162.237,411.637L162.36,411.402L162.483,411.168L162.608,410.933L162.733,410.699L162.86,410.465L162.987,410.231L163.116,409.997L163.245,409.763L163.376,409.53L163.507,409.297L163.64,409.064L163.773,408.831L163.907,408.599L164.043,408.366L164.179,408.134L164.316,407.903L164.455,407.671L164.594,407.44L164.735,407.209L164.876,406.978L165.019,406.747L165.162,406.517L165.307,406.287L165.452,406.057L165.599,405.827L165.747,405.598L165.895,405.369L166.045,405.14L166.196,404.912L166.347,404.684L166.5,404.456L166.654,404.229L166.809,404.002L166.965,403.775L167.122,403.548L167.28,403.322L167.44,403.096L167.6,402.87L167.761,402.645L167.924,402.42L168.087,402.195L168.252,401.971L168.418,401.747L168.584,401.523L168.752,401.3L168.921,401.077L169.091,400.855L169.262,400.632L169.435,400.411L169.608,400.189L169.782,399.968L169.958,399.747L170.135,399.527L170.312,399.307L170.491,399.088L170.671,398.869L170.852,398.65L171.034,398.432L171.218,398.214L171.402,397.996L171.588,397.779L171.775,397.562L171.963,397.346L172.152,397.13L172.342,396.915L172.533,396.7L172.726,396.486L172.919,396.272L173.114,396.058L173.31,395.845L173.507,395.632L173.705,395.42L173.904,395.208L174.105,394.997L174.306,394.786L174.509,394.576L174.713,394.366L174.919,394.157L175.125,393.948L175.21,393.863L175.333,393.722L175.569,393.455L175.806,393.189L176.043,392.924L176.279,392.661L176.516,392.399L176.754,392.139L176.991,391.88L177.229,391.622L177.466,391.366L177.704,391.112L177.942,390.859L178.18,390.607L178.419,390.357L178.657,390.108L178.896,389.861L179.134,389.615L179.373,389.371L179.612,389.128L179.851,388.886L180.091,388.646L180.33,388.407L180.569,388.17L180.809,387.934L181.049,387.7L181.289,387.466L181.529,387.235L181.769,387.004L182.009,386.775L182.249,386.548L182.49,386.322L182.73,386.097L182.971,385.873L183.212,385.651L183.452,385.431L183.693,385.211L183.934,384.994L184.175,384.777L184.417,384.562L184.658,384.348L184.899,384.135L185.141,383.924L185.382,383.714L185.624,383.506L185.865,383.299L186.107,383.093L186.349,382.888L186.591,382.685L186.833,382.483L187.075,382.283L187.317,382.084L187.559,381.886L187.801,381.689L188.043,381.494L188.286,381.3L188.528,381.108L188.77,380.916L189.013,380.726L189.255,380.537L189.498,380.35L189.74,380.164L189.983,379.979L190.225,379.795L190.468,379.613L190.711,379.432L190.953,379.252L191.196,379.074L191.439,378.896L191.681,378.72L191.924,378.546L192.167,378.372L192.409,378.2L192.652,378.029L192.895,377.859L193.137,377.69L193.38,377.523L193.623,377.357L193.866,377.192L194.108,377.029L194.351,376.866L194.594,376.705L194.836,376.545L195.079,376.386L195.322,376.229L195.564,376.073L195.807,375.917L196.049,375.764L196.291,375.611L196.534,375.459L196.776,375.309L197.019,375.16L197.261,375.012L197.503,374.865L197.745,374.719L197.987,374.575L198.229,374.432L198.472,374.289L198.713,374.148L198.955,374.009L199.197,373.87L199.439,373.732L199.681,373.596L199.922,373.461L200.164,373.327L200.405,373.194L200.646,373.062L200.888,372.931L201.129,372.802L201.37,372.673L201.611,372.546L201.852,372.42L202.092,372.295L202.333,372.171L202.574,372.048L202.814,371.926L203.054,371.806L203.295,371.686L203.535,371.567L203.775,371.45L204.015,371.334L204.254,371.218L204.494,371.104L204.733,370.991L204.973,370.879L205.212,370.768L205.451,370.658L205.69,370.549L205.929,370.442L206.167,370.335L206.406,370.229L206.644,370.125L206.882,370.021L207.12,369.918L207.358,369.817L207.596,369.716L207.833,369.617L208.071,369.518L208.308,369.421L208.545,369.325L208.781,369.229L209.018,369.135L209.254,369.041L209.491,368.949L209.727,368.857L209.963,368.767L210.198,368.677L210.434,368.589L210.669,368.502L210.904,368.415L211.139,368.33L211.374,368.245L211.608,368.161L211.842,368.079L212.076,367.997L212.31,367.916L212.543,367.836L212.777,367.758L213.01,367.68L213.243,367.603L213.475,367.527L213.708,367.452L213.94,367.377L214.172,367.304L214.403,367.232L214.635,367.16L214.866,367.09L215.097,367.02L215.328,366.952L215.558,366.884L215.788,366.817L216.018,366.751L216.248,366.686L216.477,366.622L216.706,366.558L216.935,366.496L217.163,366.434L217.392,366.373L217.619,366.314L217.847,366.254L218.075,366.196L218.302,366.139L218.528,366.083L218.755,366.027L218.981,365.972L219.207,365.918L219.432,365.865L219.658,365.813L219.883,365.761L220.107,365.711L220.332,365.661L220.556,365.612L220.779,365.564L221.003,365.516L221.226,365.47L221.449,365.424L221.671,365.379L221.893,365.334L222.115,365.291L222.336,365.248L222.557,365.206L222.778,365.165L222.998,365.125L223.218,365.085L223.438,365.046L223.657,365.008L223.876,364.971L224.095,364.934L224.313,364.899L224.531,364.864L224.748,364.829L224.965,364.796L225.182,364.763L225.398,364.73L225.614,364.699L225.83,364.668L226.045,364.638L226.26,364.609L226.475,364.58L226.689,364.552L226.902,364.525L227.115,364.498L227.328,364.473L227.541,364.447L227.753,364.423L227.965,364.399L228.176,364.376L228.387,364.353L228.597,364.332L228.807,364.31L229.017,364.29L229.226,364.27L229.435,364.251L229.643,364.232L229.851,364.214L230.059,364.197L230.266,364.18L230.473,364.164L230.679,364.149L230.884,364.134L231.09,364.12L231.295,364.106L231.499,364.093L231.703,364.081L231.907,364.069L232.11,364.057L232.313,364.047L232.515,364.037L232.717,364.027L232.918,364.018L233.118,364.01L233.319,364.002L233.519,363.995L233.718,363.988L233.917,363.982L234.116,363.977L234.313,363.972L234.511,363.967L234.708,363.963L234.905,363.96L235.101,363.957L235.296,363.955L235.491,363.953L235.686,363.952L235.88,363.951L236.074,363.951L236.266,363.951L236.459,363.952ZM437.513,323.266L437.554,323.29L437.613,323.325L437.686,323.367L437.773,323.416L437.875,323.473L437.989,323.536L438.116,323.606L438.258,323.683L438.412,323.766L438.58,323.854L438.76,323.948L438.957,324.049L439.056,324.099L439.16,324.152L439.268,324.206L439.379,324.261L439.493,324.318L439.61,324.375L439.731,324.434L439.854,324.494L439.98,324.554L440.11,324.616L440.242,324.678L440.378,324.742L440.516,324.806L440.658,324.872L440.802,324.938L440.949,325.004L441.1,325.072L441.253,325.141L441.409,325.209L441.568,325.279L441.73,325.35L441.895,325.42L442.062,325.492L442.232,325.564L442.406,325.637L442.582,325.71L442.76,325.783L442.942,325.857L443.126,325.931L443.313,326.006L443.502,326.081L443.695,326.156L443.89,326.232L444.088,326.307L444.288,326.383L444.491,326.459L444.696,326.535L444.905,326.612L445.115,326.688L445.329,326.764L445.545,326.841L445.763,326.917L445.984,326.993L446.207,327.07L446.433,327.146L446.661,327.222L446.892,327.297L447.126,327.373L447.361,327.448L447.599,327.523L447.84,327.598L448.083,327.672L448.328,327.746L448.576,327.82L448.825,327.893L449.078,327.966L449.332,328.038L449.589,328.11L449.848,328.181L450.109,328.252L450.373,328.322L450.639,328.391L450.907,328.459L451.177,328.527L451.449,328.595L451.724,328.661L452,328.727L452.279,328.791L452.56,328.855L452.843,328.918L453.128,328.981L453.418,329.042L453.559,329.072L453.704,329.102L453.85,329.132L453.996,329.161L454.142,329.19L454.289,329.219L454.436,329.248L454.584,329.276L454.732,329.305L454.881,329.332L455.03,329.36L455.18,329.387L455.331,329.414L455.481,329.441L455.633,329.467L455.785,329.494L455.937,329.519L456.089,329.545L456.243,329.57L456.396,329.595L456.55,329.619L456.705,329.644L456.86,329.668L457.016,329.691L457.172,329.714L457.329,329.737L457.485,329.76L457.643,329.782L457.801,329.804L457.959,329.825L458.118,329.846L458.277,329.867L458.437,329.888L458.597,329.908L458.758,329.927L458.919,329.947L459.08,329.966L459.242,329.984L459.405,330.002L459.567,330.02L459.731,330.037L459.895,330.054L460.059,330.071L460.223,330.087L460.388,330.103L460.554,330.118L460.719,330.133L460.886,330.148L461.053,330.162L461.22,330.175L461.387,330.189L461.555,330.201L461.724,330.214L461.893,330.226L462.062,330.237L462.231,330.248L462.401,330.259L462.572,330.269L462.743,330.278L462.914,330.288L463.086,330.296L463.258,330.305L463.43,330.312L463.603,330.32L463.776,330.326L463.95,330.333L464.124,330.339L464.299,330.344L464.474,330.349L464.649,330.353L464.824,330.357L465,330.36L465.177,330.363L465.353,330.365L465.531,330.367L465.708,330.368L465.886,330.369L466.064,330.369L466.243,330.369L466.422,330.368L466.601,330.367L466.781,330.365L466.961,330.362L467.142,330.359L467.323,330.355L467.504,330.351L467.686,330.347L467.867,330.341L468.05,330.335L468.233,330.329L468.416,330.322L468.599,330.314L468.782,330.306L468.967,330.297L469.151,330.288L469.336,330.278L469.521,330.267L469.706,330.256L469.892,330.244L470.078,330.232L470.265,330.219L470.452,330.205L470.639,330.191L470.826,330.176L471.014,330.161L471.202,330.144L471.391,330.128L471.58,330.11L471.769,330.092L471.958,330.073L472.148,330.054L472.338,330.034L472.529,330.013L472.72,329.992L472.911,329.97L473.102,329.947L473.294,329.924L473.486,329.9L473.678,329.875L473.871,329.85L474.064,329.823L474.257,329.797L474.451,329.769L474.645,329.741L474.839,329.712L475.034,329.682L475.229,329.652L475.424,329.621L475.619,329.589L475.815,329.557L476.011,329.524L476.207,329.49L476.404,329.455L476.601,329.419L476.798,329.383L476.996,329.346L477.194,329.309L477.392,329.27L477.59,329.231L477.789,329.191L477.988,329.15L478.187,329.109L478.387,329.067L478.586,329.024L478.787,328.98L478.987,328.935L479.188,328.89L479.389,328.843L479.59,328.797L479.791,328.749L479.993,328.7L480.195,328.651L480.398,328.6L480.6,328.549L480.803,328.498L481.006,328.445L481.21,328.391L481.413,328.337L481.617,328.282L481.822,328.226L482.026,328.169L482.231,328.111L482.436,328.052L482.641,327.993L482.847,327.933L483.052,327.872L483.259,327.809L483.465,327.746L483.671,327.683L483.878,327.618L484.085,327.552L484.292,327.486L484.5,327.419L484.708,327.35L484.916,327.281L485.124,327.211L485.333,327.14L485.541,327.068L485.75,326.996L485.96,326.922L486.169,326.847L486.379,326.772L486.589,326.695L486.799,326.617L487.01,326.539L487.22,326.46L487.431,326.379L487.642,326.298L487.854,326.216L488.065,326.133L488.277,326.048L488.489,325.963L488.702,325.877L488.914,325.79L489.127,325.702L489.34,325.613L489.553,325.523L489.766,325.432L489.98,325.34L490.194,325.246L490.408,325.152L490.622,325.057L490.837,324.961L491.052,324.864L491.266,324.766L491.482,324.666L491.697,324.566L491.913,324.465L492.128,324.362L492.344,324.259L492.56,324.155L492.777,324.049L492.993,323.942L493.21,323.835L493.427,323.726L493.644,323.616L493.862,323.505L494.08,323.393L494.297,323.28L494.515,323.166L494.733,323.05L494.952,322.934L495.17,322.817L495.389,322.698L495.608,322.578L495.827,322.457L496.046,322.335L496.266,322.212L496.486,322.088L496.706,321.962L496.925,321.836L497.146,321.708L497.366,321.579L497.587,321.449L497.807,321.318L498.028,321.186L498.25,321.052L498.471,320.917L498.692,320.782L498.914,320.645L499.136,320.506L499.358,320.367L499.58,320.226L499.802,320.084L500.024,319.941L500.247,319.797L500.47,319.651L500.692,319.505L500.916,319.357L501.139,319.207L501.362,319.057L501.586,318.905L501.81,318.752L502.033,318.598L502.257,318.443L502.481,318.286L502.706,318.128L502.93,317.969L503.155,317.808L503.379,317.647L503.604,317.483L503.829,317.319L504.054,317.154L504.279,316.987L504.505,316.818L504.73,316.649L504.956,316.478L505.182,316.306L505.408,316.132L505.634,315.957L505.86,315.781L506.086,315.604L506.312,315.425L506.539,315.245L506.766,315.063L506.992,314.88L507.219,314.696L507.446,314.51L507.673,314.323L507.9,314.135L508.128,313.945L508.355,313.754L508.583,313.562L508.81,313.368L509.038,313.173L509.266,312.976L509.494,312.778L509.721,312.579L509.95,312.378L510.178,312.175L510.406,311.972L510.634,311.766L510.863,311.56L511.091,311.352L511.32,311.142L511.549,310.932L511.777,310.719L512.006,310.505L512.235,310.29L512.464,310.073L512.693,309.855L512.922,309.635L513.152,309.414L513.381,309.192L513.651,308.927L513.92,308.663L514.187,308.399L514.453,308.135L514.716,307.871L514.978,307.606L515.239,307.342L515.497,307.078L515.755,306.814L516.01,306.55L516.264,306.287L516.516,306.023L516.767,305.759L517.015,305.495L517.263,305.231L517.509,304.967L517.753,304.704L517.995,304.44L518.236,304.177L518.475,303.913L518.713,303.65L518.949,303.387L519.184,303.123L519.417,302.86L519.648,302.597L519.878,302.334L520.106,302.071L520.333,301.808L520.558,301.545L520.781,301.282L521.003,301.02L521.224,300.757L521.443,300.495L521.66,300.232L521.876,299.97L522.091,299.708L522.304,299.446L522.515,299.184L522.725,298.922L522.934,298.66L523.141,298.398L523.346,298.136L523.55,297.875L523.752,297.614L523.953,297.352L524.153,297.091L524.351,296.83L524.548,296.569L524.743,296.308L524.937,296.048L525.129,295.787L525.32,295.526L525.509,295.266L525.697,295.006L525.884,294.746L526.069,294.486L526.253,294.226L526.435,293.967L526.616,293.707L526.796,293.448L526.974,293.188L527.151,292.929L527.326,292.67L527.5,292.412L527.673,292.153L527.844,291.895L528.014,291.636L528.182,291.378L528.35,291.12L528.516,290.862L528.68,290.604L528.843,290.347L529.005,290.089L529.166,289.832L529.325,289.575L529.483,289.318L529.639,289.062L529.795,288.805L529.949,288.549L530.101,288.292L530.253,288.037L530.403,287.781L530.552,287.525L530.699,287.269L530.845,287.014L530.99,286.759L531.134,286.504L531.277,286.25L531.418,285.995L531.558,285.741L531.697,285.487L531.834,285.233L531.97,284.979L532.105,284.725L532.239,284.472L532.372,284.219L532.503,283.966L532.633,283.714L532.762,283.461L532.89,283.209L533.016,282.957L533.142,282.705L533.266,282.453L533.389,282.202L533.511,281.951L533.631,281.7L533.751,281.449L533.869,281.198L533.986,280.948L534.102,280.698L534.217,280.448L534.331,280.199L534.443,279.949L534.555,279.7L534.665,279.451L534.774,279.203L534.882,278.954L534.989,278.706L535.095,278.458L535.2,278.211L535.303,277.963L535.406,277.716L535.507,277.469L535.607,277.222L535.707,276.976L535.805,276.729L535.902,276.484L535.998,276.238L536.093,275.993L536.187,275.748L536.28,275.503L536.371,275.258L536.462,275.014L536.552,274.769L536.641,274.526L536.728,274.282L536.815,274.039L536.9,273.796L536.985,273.553L537.068,273.311L537.151,273.069L537.232,272.827L537.313,272.585L537.392,272.344L537.471,272.103L537.549,271.862L537.625,271.622L537.701,271.382L537.775,271.142L537.849,270.902L537.922,270.663L537.993,270.424L538.064,270.185L538.134,269.947L538.203,269.709L538.271,269.471L538.338,269.234L538.404,268.996L538.469,268.76L538.533,268.523L538.596,268.287L538.658,268.051L538.72,267.816L538.78,267.58L538.84,267.345L538.899,267.11L538.956,266.877L539.013,266.642L539.069,266.409L539.125,266.175L539.179,265.942L539.232,265.71L539.285,265.477L539.336,265.246L539.387,265.014L539.437,264.782L539.486,264.551L539.535,264.321L539.582,264.091L539.629,263.861L539.674,263.631L539.719,263.402L539.763,263.173L539.806,262.945L539.849,262.716L539.891,262.489L539.931,262.261L539.971,262.034L540.011,261.807L540.049,261.581L540.087,261.355L540.123,261.129L540.159,260.904L540.195,260.679L540.229,260.455L540.263,260.23L540.296,260.007L540.328,259.783L540.359,259.561L540.39,259.338L540.42,259.115L540.449,258.894L540.478,258.672L540.505,258.451L540.532,258.23L540.559,258.01L540.584,257.79L540.609,257.571L540.633,257.352L540.656,257.133L540.679,256.915L540.701,256.697L540.722,256.479L540.743,256.263L540.763,256.045L540.782,255.829L540.8,255.614L540.818,255.398L540.835,255.183L540.852,254.969L540.868,254.754L540.883,254.541L540.897,254.328L540.911,254.114L540.924,253.902L540.937,253.69L540.949,253.479L540.96,253.267L540.971,253.057L540.981,252.847L540.99,252.637L540.999,252.428L541.007,252.218L541.014,252.01L541.021,251.802L541.028,251.595L541.033,251.387L541.039,251.181L541.043,250.975L541.047,250.769L541.05,250.563L541.053,250.359L541.055,250.154L541.057,249.95L541.058,249.747L541.059,249.544L541.059,249.342L541.058,249.14L541.057,248.938L541.055,248.737L541.053,248.537L541.05,248.336L541.047,248.137L541.043,247.938L541.039,247.74L541.034,247.541L541.028,247.344L541.022,247.147L541.016,246.95L541.009,246.754L541.002,246.559L540.994,246.364L540.985,246.169L540.977,245.975L540.967,245.782L540.957,245.589L540.947,245.396L540.936,245.204L540.925,245.013L540.913,244.822L540.901,244.631L540.888,244.442L540.875,244.253L540.862,244.063L540.848,243.875L540.833,243.688L540.819,243.501L540.803,243.314L540.788,243.128L540.772,242.942L540.755,242.757L540.738,242.573L540.721,242.389L540.703,242.206L540.685,242.023L540.666,241.841L540.647,241.659L540.628,241.478L540.608,241.298L540.588,241.117L540.568,240.938L540.547,240.76L540.526,240.581L540.504,240.403L540.482,240.227L540.46,240.05L540.437,239.874L540.414,239.699L540.391,239.524L540.367,239.35L540.343,239.177L540.319,239.004L540.295,238.831L540.27,238.66L540.244,238.489L540.219,238.318L540.193,238.148L540.167,237.979L540.14,237.81L540.113,237.642L540.086,237.475L540.059,237.308L540.031,237.142L540.003,236.976L539.975,236.811L539.947,236.647L539.918,236.483L539.889,236.32L539.86,236.158L539.83,235.996L539.801,235.835L539.771,235.674L539.741,235.514L539.711,235.358L539.649,235.039L539.586,234.725L539.523,234.414L539.459,234.105L539.394,233.799L539.328,233.496L539.262,233.196L539.194,232.898L539.127,232.603L539.058,232.311L538.989,232.021L538.92,231.735L538.85,231.451L538.779,231.17L538.709,230.892L538.637,230.617L538.565,230.344L538.493,230.075L538.421,229.809L538.348,229.545L538.276,229.285L538.203,229.027L538.129,228.773L538.056,228.521L537.982,228.273L537.909,228.028L537.835,227.785L537.762,227.546L537.688,227.31L537.615,227.078L537.542,226.848L537.468,226.621L537.395,226.398L537.323,226.179L492.938,268.645L434.577,210.856L438.802,206.786L439.947,205.682L440.77,204.887L441.748,203.943L442.867,202.86L444.119,201.649L445.491,200.32L446.973,198.883L448.554,197.349L450.224,195.727L451.088,194.887L451.97,194.029L452.868,193.154L453.782,192.263L454.709,191.359L455.649,190.442L456.601,189.513L457.561,188.574L458.531,187.626L459.507,186.67L460.489,185.708L461.475,184.741L462.463,183.77L463.454,182.796L464.445,181.821L465.434,180.846L466.421,179.873L467.403,178.902L468.381,177.935L469.352,176.974L470.314,176.019L471.268,175.072L472.21,174.133L473.14,173.206L474.056,172.29L474.958,171.386L475.403,170.94L475.843,170.498L476.279,170.06L476.71,169.625L477.137,169.195L477.558,168.769L477.975,168.348L478.386,167.932L478.791,167.52L479.191,167.114L479.34,166.963L479.26,166.943L479.011,166.882L478.761,166.821L478.509,166.761L478.255,166.7L477.998,166.64L477.74,166.58L477.479,166.52L477.217,166.461L476.952,166.402L476.686,166.343L476.417,166.285L476.147,166.227L475.874,166.169L475.6,166.112L475.324,166.055L475.046,165.999L474.766,165.943L474.484,165.887L474.201,165.832L473.915,165.778L473.628,165.724L473.339,165.67L473.048,165.617L472.755,165.565L472.461,165.513L472.164,165.462L471.866,165.412L471.567,165.362L471.265,165.313L470.962,165.264L470.658,165.216L470.351,165.169L470.043,165.123L469.733,165.077L469.422,165.033L469.109,164.989L468.794,164.945L468.478,164.903L468.161,164.862L467.841,164.821L467.521,164.781L467.198,164.742L466.874,164.704L466.549,164.667L466.222,164.631L465.894,164.596L465.564,164.562L465.233,164.529L464.901,164.497L464.567,164.466L464.231,164.436L463.895,164.408L463.556,164.38L463.217,164.353L462.876,164.328L462.534,164.304L462.191,164.28L461.846,164.258L461.5,164.238L461.152,164.218L460.804,164.2L460.454,164.183L460.103,164.167L459.751,164.153L459.397,164.14L459.043,164.128L458.687,164.117L458.327,164.108L458.151,164.104L457.972,164.101L457.792,164.097L457.613,164.094L457.433,164.092L457.252,164.089L457.072,164.087L456.891,164.086L456.71,164.085L456.528,164.084L456.347,164.084L456.165,164.083L455.982,164.084L455.8,164.084L455.617,164.085L455.434,164.087L455.251,164.089L455.067,164.091L454.884,164.093L454.7,164.096L454.515,164.1L454.331,164.104L454.146,164.108L453.961,164.112L453.776,164.117L453.59,164.123L453.405,164.128L453.218,164.134L453.032,164.141L452.846,164.148L452.659,164.155L452.472,164.163L452.285,164.171L452.098,164.18L451.91,164.189L451.722,164.198L451.534,164.208L451.346,164.219L451.157,164.229L450.969,164.241L450.78,164.252L450.59,164.264L450.401,164.277L450.212,164.29L450.022,164.303L449.832,164.317L449.641,164.331L449.451,164.346L449.26,164.361L449.07,164.376L448.879,164.393L448.687,164.409L448.496,164.426L448.304,164.443L448.112,164.461L447.92,164.48L447.728,164.499L447.536,164.518L447.343,164.538L447.15,164.558L446.957,164.579L446.764,164.6L446.571,164.622L446.377,164.644L446.184,164.666L445.99,164.69L445.796,164.713L445.602,164.737L445.407,164.762L445.213,164.787L445.018,164.813L444.823,164.839L444.628,164.865L444.433,164.892L444.237,164.92L444.042,164.948L443.846,164.977L443.65,165.006L443.454,165.036L443.258,165.066L443.062,165.097L442.865,165.128L442.668,165.16L442.472,165.192L442.275,165.225L442.078,165.258L441.88,165.292L441.683,165.326L441.486,165.361L441.288,165.397L441.09,165.433L440.892,165.469L440.694,165.507L440.496,165.544L440.298,165.582L440.099,165.621L439.901,165.66L439.702,165.7L439.503,165.741L439.304,165.782L439.105,165.823L438.906,165.865L438.707,165.908L438.507,165.951L438.307,165.995L438.108,166.04L437.908,166.085L437.708,166.13L437.508,166.176L437.308,166.223L437.108,166.27L436.907,166.318L436.707,166.367L436.506,166.416L436.306,166.466L436.105,166.516L435.904,166.567L435.703,166.618L435.502,166.67L435.301,166.723L435.1,166.776L434.898,166.83L434.697,166.885L434.496,166.94L434.294,166.995L434.092,167.052L433.891,167.109L433.689,167.166L433.487,167.225L433.285,167.283L433.083,167.343L432.88,167.403L432.678,167.464L432.476,167.525L432.274,167.587L432.071,167.65L431.869,167.713L431.666,167.777L431.463,167.842L431.261,167.907L431.058,167.973L430.855,168.039L430.652,168.106L430.449,168.174L430.246,168.243L430.043,168.312L429.84,168.382L429.636,168.452L429.433,168.523L429.23,168.595L429.027,168.668L428.823,168.741L428.619,168.815L428.416,168.889L428.212,168.965L428.009,169.041L427.805,169.117L427.601,169.195L427.398,169.273L427.194,169.351L426.99,169.431L426.786,169.511L426.582,169.592L426.378,169.673L426.175,169.755L425.97,169.838L425.766,169.922L425.562,170.006L425.358,170.091L425.154,170.177L424.95,170.263L424.746,170.351L424.542,170.439L424.338,170.527L424.133,170.617L423.929,170.707L423.725,170.798L423.521,170.889L423.316,170.982L423.112,171.075L422.908,171.168L422.703,171.263L422.499,171.358L422.295,171.454L422.09,171.551L421.886,171.649L421.682,171.747L421.477,171.846L421.273,171.946L421.068,172.047L420.864,172.148L420.66,172.25L420.455,172.353L420.251,172.457L420.047,172.561L419.842,172.667L419.638,172.773L419.434,172.88L419.229,172.987L419.025,173.096L418.821,173.205L418.617,173.315L418.412,173.426L418.208,173.537L418.004,173.65L417.8,173.763L417.595,173.877L417.391,173.992L417.187,174.107L416.983,174.224L416.779,174.341L416.575,174.459L416.371,174.578L416.167,174.698L415.963,174.819L415.759,174.94L415.555,175.062L415.351,175.185L415.147,175.309L414.944,175.434L414.74,175.56L414.536,175.686L414.333,175.813L414.129,175.941L413.925,176.07L413.722,176.2L413.518,176.331L413.315,176.462L413.112,176.595L412.908,176.728L412.705,176.862L412.502,176.997L412.298,177.133L412.095,177.27L411.892,177.408L411.689,177.546L411.486,177.686L411.283,177.826L411.081,177.967L410.878,178.109L410.675,178.252L410.473,178.396L410.27,178.541L410.068,178.687L409.865,178.833L409.663,178.981L409.461,179.129L409.258,179.279L409.056,179.429L408.854,179.58L408.652,179.732L408.45,179.885L408.249,180.039L408.047,180.194L407.845,180.35L407.644,180.507L407.442,180.664L407.241,180.823L407.04,180.982L406.838,181.143L406.637,181.305L406.436,181.467L406.235,181.63L406.034,181.795L405.834,181.96L405.633,182.126L405.433,182.293L405.232,182.461L405.032,182.631L404.832,182.801L404.632,182.972L404.431,183.144L404.232,183.317L404.032,183.491L403.832,183.666L403.633,183.842L403.433,184.019L403.234,184.197L403.035,184.376L402.836,184.556L402.637,184.737L402.438,184.919L402.239,185.102L402.041,185.286L401.842,185.471L401.644,185.657L401.445,185.844L401.247,186.032L401.049,186.222L400.851,186.412L400.654,186.603L400.456,186.795L400.259,186.989L400.062,187.183L399.865,187.378L399.668,187.574L399.503,187.739L399.34,187.905L399.178,188.07L399.016,188.237L398.855,188.404L398.695,188.571L398.535,188.739L398.377,188.907L398.219,189.076L398.062,189.246L397.906,189.415L397.75,189.586L397.596,189.756L397.442,189.928L397.289,190.099L397.136,190.272L396.985,190.444L396.834,190.618L396.684,190.791L396.535,190.965L396.386,191.14L396.239,191.315L396.092,191.49L395.946,191.666L395.8,191.843L395.656,192.02L395.512,192.197L395.368,192.375L395.226,192.553L395.084,192.731L394.943,192.911L394.803,193.09L394.664,193.27L394.525,193.45L394.387,193.631L394.25,193.812L394.113,193.994L393.977,194.176L393.842,194.358L393.708,194.541L393.574,194.724L393.442,194.908L393.309,195.092L393.178,195.277L393.047,195.462L392.917,195.647L392.788,195.833L392.659,196.019L392.531,196.205L392.404,196.392L392.278,196.579L392.152,196.767L392.027,196.955L391.902,197.143L391.779,197.332L391.656,197.521L391.533,197.71L391.412,197.9L391.291,198.09L391.17,198.281L391.051,198.472L390.932,198.663L390.814,198.855L390.696,199.047L390.579,199.239L390.463,199.431L390.348,199.624L390.233,199.818L390.119,200.011L390.005,200.205L389.893,200.399L389.781,200.594L389.669,200.789L389.558,200.984L389.448,201.18L389.339,201.376L389.23,201.572L389.122,201.768L389.014,201.965L388.907,202.162L388.801,202.359L388.696,202.557L388.591,202.755L388.487,202.953L388.383,203.151L388.28,203.35L388.178,203.549L388.076,203.749L387.975,203.948L387.874,204.148L387.775,204.348L387.675,204.548L387.577,204.749L387.479,204.95L387.382,205.151L387.285,205.352L387.189,205.554L387.094,205.756L386.999,205.958L386.905,206.16L386.811,206.363L386.718,206.566L386.626,206.769L386.534,206.972L386.443,207.175L386.353,207.379L386.263,207.583L386.174,207.787L386.085,207.991L385.997,208.196L385.91,208.4L385.823,208.605L385.736,208.81L385.651,209.016L385.566,209.221L385.481,209.426L385.397,209.632L385.314,209.838L385.231,210.044L385.149,210.251L385.068,210.457L384.987,210.664L384.907,210.871L384.827,211.078L384.747,211.285L384.669,211.492L384.591,211.699L384.513,211.907L384.436,212.115L384.36,212.322L384.284,212.53L384.209,212.738L384.134,212.946L384.06,213.155L383.987,213.363L383.914,213.572L383.841,213.78L383.769,213.989L383.698,214.198L383.627,214.407L383.557,214.616L383.488,214.825L383.418,215.034L383.35,215.244L383.282,215.453L383.214,215.663L383.147,215.872L383.081,216.082L383.015,216.291L382.95,216.501L382.885,216.711L382.821,216.921L382.757,217.131L382.694,217.341L382.631,217.551L382.569,217.761L382.507,217.971L382.446,218.181L382.386,218.392L382.325,218.602L382.266,218.812L382.207,219.022L382.148,219.233L382.09,219.443L382.033,219.653L381.976,219.863L381.919,220.074L381.863,220.284L381.808,220.494L381.753,220.705L381.698,220.915L381.644,221.125L381.591,221.336L381.538,221.546L381.485,221.756L381.433,221.966L381.381,222.177L381.33,222.387L381.28,222.597L381.23,222.807L381.18,223.017L381.131,223.227L381.082,223.437L381.034,223.647L380.986,223.857L380.939,224.066L380.892,224.276L380.846,224.486L380.8,224.695L380.754,224.905L380.709,225.114L380.665,225.323L380.621,225.533L380.577,225.742L380.534,225.951L380.492,226.16L380.449,226.369L380.408,226.577L380.366,226.786L380.325,226.994L380.285,227.203L380.245,227.411L380.205,227.619L380.166,227.827L380.128,228.035L380.089,228.243L380.051,228.45L380.014,228.658L379.977,228.865L379.941,229.072L379.904,229.279L379.869,229.486L379.833,229.693L379.799,229.9L379.764,230.106L379.73,230.312L379.697,230.518L379.663,230.724L379.631,230.93L379.598,231.135L379.566,231.341L379.535,231.546L379.503,231.751L379.473,231.955L379.442,232.16L379.413,232.362L379.353,232.772L379.296,233.179L379.24,233.586L379.186,233.991L379.134,234.395L379.083,234.798L379.033,235.201L378.985,235.602L378.938,236.002L378.892,236.401L378.849,236.799L378.806,237.196L378.765,237.592L378.725,237.986L378.687,238.379L378.65,238.771L378.614,239.162L378.58,239.551L378.546,239.939L378.515,240.325L378.484,240.71L378.455,241.094L378.427,241.476L378.4,241.857L378.374,242.236L378.349,242.614L378.326,242.99L378.304,243.364L378.283,243.737L378.263,244.107L378.244,244.477L378.226,244.844L378.209,245.21L378.194,245.574L378.179,245.936L378.165,246.296L378.153,246.655L378.141,247.011L378.131,247.366L378.121,247.718L378.112,248.069L378.104,248.417L378.097,248.764L378.091,249.108L378.086,249.451L378.082,249.791L378.078,250.129L378.076,250.465L378.074,250.798L378.073,251.129L378.072,251.458L378.073,251.785L378.074,252.109L378.076,252.431L378.079,252.751L378.082,253.068L378.086,253.383L378.091,253.695L378.096,254.004L378.102,254.312L378.109,254.616L378.116,254.918L378.123,255.217L378.132,255.514L378.141,255.808L378.15,256.099L378.16,256.388L378.17,256.673L378.181,256.956L378.192,257.236L378.204,257.513L378.216,257.788L378.229,258.059L378.242,258.328L378.255,258.593L378.269,258.856L378.283,259.115L378.297,259.371L378.312,259.625L378.327,259.875L378.342,260.122L378.357,260.365L378.373,260.606L378.389,260.843L378.405,261.078L378.422,261.308L378.438,261.536L378.455,261.76L378.472,261.981L378.489,262.198L378.506,262.412L378.523,262.623L378.54,262.827L378.575,263.233L378.609,263.622L378.644,263.996L378.679,264.356L378.713,264.701L378.747,265.031L378.78,265.345L378.812,265.643L378.844,265.925L378.874,266.192L378.904,266.442L378.932,266.675L378.959,266.892L378.984,267.091L379.008,267.274L379.03,267.439L379.05,267.586L379.068,267.715L379.083,267.823L379.108,267.993L379.121,268.086L379.547,270.833L261.978,380.078L258.806,378.607L258.747,378.58L258.704,378.561L258.642,378.534L258.565,378.5L258.473,378.461L258.368,378.416L258.247,378.366L258.113,378.311L257.964,378.251L257.802,378.187L257.626,378.118L257.436,378.045L257.23,377.967L257.127,377.928L257.017,377.888L256.904,377.846L256.787,377.804L256.668,377.761L256.545,377.717L256.419,377.672L256.29,377.627L256.158,377.581L256.022,377.534L255.883,377.487L255.742,377.439L255.597,377.391L255.448,377.342L255.297,377.293L255.144,377.243L254.986,377.193L254.826,377.142L254.663,377.091L254.497,377.039L254.328,376.988L254.156,376.936L253.981,376.883L253.803,376.831L253.623,376.778L253.439,376.725L253.253,376.672L253.063,376.619L252.871,376.566L252.677,376.513L252.479,376.46L252.279,376.407L252.076,376.353L251.87,376.3L251.661,376.247L251.45,376.194L251.237,376.142L251.02,376.089L250.801,376.037L250.579,375.985L250.355,375.933L250.128,375.881L249.899,375.83L249.667,375.779L249.432,375.729L249.195,375.679L248.956,375.629L248.714,375.58L248.47,375.532L248.223,375.484L247.974,375.436L247.722,375.389L247.468,375.343L247.212,375.297L246.954,375.252L246.693,375.208L246.43,375.164L246.164,375.122L245.896,375.08L245.626,375.039L245.354,374.998L245.08,374.959L244.803,374.92L244.524,374.883L244.243,374.846L243.96,374.81L243.675,374.776L243.388,374.742L243.098,374.71L242.807,374.678L242.514,374.648L242.215,374.619L242.069,374.605L241.92,374.591L241.771,374.578L241.621,374.564L241.47,374.552L241.319,374.539L241.168,374.527L241.016,374.515L240.863,374.503L240.71,374.492L240.557,374.481L240.403,374.47L240.249,374.46L240.094,374.45L239.938,374.441L239.783,374.431L239.627,374.423L239.47,374.414L239.312,374.406L239.155,374.398L238.997,374.391L238.838,374.384L238.679,374.377L238.52,374.371L238.36,374.365L238.199,374.359L238.039,374.354L237.877,374.349L237.716,374.345L237.553,374.341L237.391,374.338L237.228,374.334L237.064,374.332L236.9,374.329L236.736,374.327L236.571,374.326L236.406,374.325L236.241,374.324L236.074,374.324L235.908,374.324L235.741,374.325L235.574,374.326L235.406,374.328L235.238,374.33L235.069,374.332L234.901,374.335L234.731,374.338L234.562,374.342L234.391,374.347L234.221,374.351L234.05,374.357L233.878,374.362L233.707,374.368L233.535,374.375L233.362,374.382L233.189,374.39L233.016,374.398L232.842,374.407L232.668,374.416L232.494,374.426L232.319,374.436L232.144,374.446L231.968,374.458L231.792,374.469L231.616,374.481L231.44,374.494L231.262,374.507L231.085,374.521L230.907,374.536L230.729,374.55L230.551,374.566L230.372,374.582L230.193,374.598L230.013,374.615L229.833,374.633L229.653,374.651L229.473,374.67L229.292,374.689L229.11,374.709L228.929,374.729L228.747,374.751L228.565,374.772L228.382,374.794L228.199,374.817L228.016,374.84L227.832,374.864L227.648,374.889L227.464,374.914L227.279,374.94L227.095,374.966L226.909,374.993L226.724,375.021L226.538,375.049L226.352,375.078L226.165,375.107L225.979,375.137L225.791,375.168L225.604,375.2L225.416,375.232L225.228,375.264L225.04,375.298L224.851,375.332L224.662,375.366L224.473,375.401L224.284,375.437L224.094,375.474L223.904,375.511L223.713,375.549L223.523,375.588L223.332,375.627L223.141,375.667L222.949,375.708L222.757,375.749L222.565,375.791L222.373,375.834L222.18,375.877L221.987,375.921L221.794,375.966L221.601,376.012L221.407,376.058L221.213,376.105L221.019,376.153L220.824,376.201L220.629,376.25L220.435,376.3L220.239,376.351L220.044,376.402L219.848,376.454L219.652,376.507L219.456,376.561L219.259,376.615L219.062,376.67L218.865,376.726L218.668,376.783L218.47,376.84L218.273,376.898L218.074,376.957L217.876,377.017L217.678,377.078L217.479,377.139L217.28,377.201L217.081,377.264L216.881,377.328L216.682,377.392L216.482,377.458L216.282,377.524L216.081,377.591L215.881,377.658L215.68,377.727L215.479,377.796L215.278,377.867L215.076,377.938L214.874,378.01L214.673,378.082L214.471,378.156L214.268,378.231L214.066,378.306L213.863,378.382L213.66,378.459L213.457,378.537L213.254,378.616L213.05,378.695L212.846,378.776L212.643,378.857L212.438,378.939L212.234,379.023L212.03,379.107L211.825,379.192L211.62,379.277L211.415,379.364L211.21,379.452L211.004,379.54L210.799,379.63L210.593,379.72L210.387,379.811L210.181,379.904L209.974,379.997L209.768,380.091L209.561,380.186L209.354,380.282L209.147,380.379L208.94,380.477L208.733,380.575L208.525,380.675L208.317,380.776L208.109,380.878L207.901,380.98L207.693,381.084L207.485,381.189L207.276,381.294L207.068,381.401L206.859,381.508L206.65,381.617L206.441,381.726L206.232,381.837L206.022,381.949L205.813,382.061L205.603,382.175L205.393,382.289L205.183,382.405L204.973,382.522L204.763,382.639L204.552,382.758L204.342,382.878L204.131,382.999L203.92,383.121L203.709,383.243L203.498,383.367L203.287,383.492L203.076,383.618L202.864,383.746L202.653,383.874L202.441,384.003L202.229,384.133L202.017,384.265L201.805,384.397L201.593,384.531L201.381,384.666L201.169,384.802L200.956,384.939L200.744,385.077L200.531,385.216L200.318,385.356L200.105,385.497L199.892,385.64L199.679,385.784L199.466,385.928L199.253,386.074L199.039,386.221L198.826,386.37L198.612,386.519L198.399,386.67L198.185,386.821L197.971,386.974L197.757,387.128L197.543,387.283L197.329,387.44L197.115,387.597L196.901,387.756L196.686,387.916L196.472,388.077L196.258,388.239L196.043,388.403L195.828,388.568L195.614,388.734L195.399,388.901L195.184,389.069L194.97,389.239L194.755,389.41L194.54,389.582L194.325,389.755L194.11,389.929L193.895,390.105L193.68,390.282L193.464,390.46L193.249,390.64L193.034,390.821L192.819,391.003L192.603,391.186L192.388,391.371L192.172,391.557L191.957,391.744L191.741,391.932L191.526,392.122L191.31,392.313L191.095,392.506L190.879,392.699L190.664,392.894L190.448,393.091L190.232,393.288L190.017,393.487L189.801,393.687L189.585,393.889L189.369,394.092L189.154,394.296L188.938,394.502L188.722,394.709L188.506,394.917L188.291,395.127L188.075,395.338L187.859,395.55L187.644,395.764L187.428,395.979L187.212,396.196L186.997,396.413L186.781,396.633L186.565,396.854L186.35,397.076L186.134,397.299L185.918,397.524L185.703,397.75L185.487,397.978L185.272,398.207L185.056,398.438L184.841,398.67L184.625,398.903L184.41,399.138L184.195,399.374L183.979,399.612L183.764,399.851L183.549,400.092L183.334,400.334L183.118,400.578L182.79,400.951L182.49,401.253L182.312,401.433L182.136,401.612L181.961,401.792L181.788,401.972L181.615,402.153L181.443,402.334L181.272,402.516L181.102,402.698L180.933,402.88L180.765,403.062L180.599,403.245L180.433,403.429L180.268,403.612L180.104,403.796L179.941,403.981L179.779,404.166L179.619,404.351L179.459,404.536L179.3,404.722L179.142,404.908L178.985,405.095L178.829,405.282L178.674,405.469L178.52,405.656L178.367,405.844L178.215,406.033L178.063,406.221L177.913,406.41L177.764,406.599L177.616,406.789L177.468,406.978L177.322,407.169L177.176,407.359L177.032,407.55L176.888,407.741L176.745,407.932L176.603,408.124L176.463,408.316L176.323,408.508L176.184,408.701L176.045,408.894L175.908,409.087L175.772,409.281L175.636,409.474L175.502,409.668L175.368,409.863L175.235,410.058L175.104,410.252L174.973,410.448L174.842,410.643L174.713,410.839L174.585,411.035L174.457,411.231L174.331,411.428L174.205,411.624L174.08,411.822L173.956,412.019L173.833,412.217L173.711,412.414L173.589,412.613L173.469,412.811L173.349,413.009L173.23,413.208L173.112,413.408L172.995,413.607L172.879,413.806L172.763,414.006L172.649,414.206L172.535,414.407L172.422,414.607L172.31,414.808L172.198,415.009L172.088,415.21L171.978,415.411L171.869,415.613L171.761,415.815L171.654,416.017L171.547,416.219L171.442,416.421L171.337,416.624L171.233,416.827L171.129,417.03L171.027,417.233L170.925,417.437L170.824,417.64L170.724,417.844L170.625,418.048L170.526,418.252L170.428,418.457L170.331,418.661L170.235,418.866L170.14,419.071L170.045,419.276L169.951,419.481L169.858,419.686L169.765,419.892L169.674,420.098L169.583,420.303L169.493,420.509L169.403,420.716L169.315,420.922L169.227,421.128L169.14,421.335L169.053,421.542L168.968,421.749L168.883,421.956L168.798,422.163L168.715,422.37L168.632,422.577L168.55,422.785L168.469,422.992L168.388,423.2L168.308,423.408L168.229,423.616L168.151,423.824L168.073,424.032L167.996,424.241L167.92,424.449L167.844,424.657L167.769,424.866L167.695,425.075L167.622,425.283L167.549,425.492L167.477,425.701L167.405,425.91L167.334,426.119L167.264,426.328L167.195,426.538L167.126,426.747L167.058,426.956L166.991,427.166L166.924,427.375L166.858,427.585L166.793,427.794L166.728,428.004L166.664,428.214L166.601,428.423L166.538,428.633L166.476,428.843L166.414,429.053L166.354,429.263L166.294,429.473L166.234,429.683L166.175,429.893L166.117,430.103L166.06,430.313L166.003,430.523L165.946,430.733L165.891,430.943L165.836,431.153L165.781,431.363L165.728,431.573L165.674,431.783L165.622,431.993L165.57,432.203L165.519,432.413L165.468,432.623L165.418,432.833L165.368,433.043L165.32,433.253L165.271,433.463L165.224,433.673L165.176,433.883L165.13,434.092L165.084,434.302L165.039,434.512L164.994,434.722L164.95,434.931L164.906,435.141L164.863,435.35L164.821,435.56L164.779,435.769L164.738,435.978L164.697,436.188L164.657,436.397L164.618,436.606L164.579,436.815L164.54,437.024L164.502,437.233L164.465,437.441L164.428,437.65L164.392,437.859L164.356,438.067L164.321,438.276L164.287,438.484L164.253,438.692L164.219,438.9L164.186,439.108L164.154,439.316L164.122,439.524L164.09,439.731L164.059,439.939L164.029,440.146L163.999,440.353L163.97,440.56L163.941,440.767L163.913,440.974L163.885,441.18L163.858,441.387L163.831,441.593L163.805,441.799L163.779,442.005L163.754,442.211L163.729,442.417L163.705,442.622L163.681,442.828L163.658,443.033L163.635,443.238L163.613,443.443L163.591,443.647L163.569,443.851L163.548,444.056L163.528,444.26L163.508,444.464L163.488,444.667L163.469,444.871L163.451,445.074L163.433,445.277L163.415,445.48L163.398,445.682L163.381,445.884L163.365,446.086L163.349,446.288L163.334,446.49L163.319,446.691L163.304,446.893L163.29,447.093L163.276,447.294L163.263,447.495L163.25,447.695L163.238,447.895L163.226,448.094L163.214,448.294L163.203,448.493L163.192,448.692L163.182,448.89L163.172,449.089L163.163,449.287L163.154,449.484L163.145,449.682L163.137,449.879L163.129,450.076L163.121,450.272L163.114,450.469L163.108,450.665L163.101,450.86L163.095,451.056L163.09,451.251L163.084,451.446L163.08,451.64L163.075,451.834L163.071,452.028L163.067,452.221L163.064,452.414L163.061,452.605L163.056,452.992L163.053,453.375L163.051,453.757L163.05,454.137L163.051,454.516L163.053,454.893L163.056,455.269L163.061,455.643L163.067,456.016L163.074,456.387L163.082,456.756L163.092,457.124L163.102,457.49L163.114,457.855L163.127,458.217L163.141,458.578L163.157,458.937L163.173,459.295L163.19,459.65L163.209,460.004L163.228,460.356L163.249,460.705L163.27,461.053L163.292,461.399L163.315,461.743L163.34,462.085L163.365,462.425L163.39,462.762L163.417,463.098L163.445,463.431L163.473,463.763L163.502,464.092L163.532,464.419L163.562,464.743L163.593,465.066L163.625,465.386L163.658,465.704L163.691,466.019L163.725,466.332L163.759,466.643L163.794,466.951L163.83,467.257L163.866,467.56L163.903,467.861L163.94,468.159L163.977,468.454L164.015,468.747L164.053,469.038L164.092,469.326L164.131,469.611L164.171,469.893L164.21,470.173L164.251,470.45L164.291,470.724L164.332,470.995L164.372,471.264L164.413,471.53L164.455,471.792L164.496,472.052L164.538,472.309L164.579,472.563L164.621,472.814L164.643,472.942L207.642,433.214L269.561,495.133L266.139,499.132L265.771,499.561L265.271,500.144L264.644,500.875L263.897,501.743L263.039,502.74L262.076,503.857L261.015,505.086L259.865,506.417L259.257,507.119L258.63,507.843L257.984,508.588L257.32,509.354L256.639,510.138L255.942,510.941L255.229,511.76L254.502,512.595L253.761,513.445L253.007,514.309L252.242,515.185L251.466,516.073L250.68,516.97L249.885,517.878L249.081,518.793L248.271,519.715L247.454,520.643L246.631,521.577L245.804,522.514L244.973,523.453L244.14,524.395L243.304,525.336L242.468,526.278L241.632,527.217L240.796,528.154L239.962,529.087L239.13,530.015L238.303,530.937L237.89,531.396L237.479,531.852L237.069,532.307L236.66,532.759L236.253,533.209L235.848,533.657L235.444,534.102L235.043,534.544L234.643,534.984L234.245,535.42L233.849,535.854L233.456,536.284L233.455,536.285L233.468,536.286L233.914,536.315L234.358,536.344L234.8,536.371L235.24,536.396L235.678,536.42L236.114,536.443L236.548,536.464L236.981,536.483L237.411,536.502L237.84,536.519L238.267,536.534L238.692,536.548L239.115,536.561L239.536,536.572L239.956,536.582L240.374,536.591L240.79,536.598L241.204,536.604L241.616,536.608L242.027,536.611L242.435,536.612L242.842,536.613L243.248,536.612L243.651,536.609L244.052,536.605L244.453,536.6L244.851,536.593L245.247,536.585L245.642,536.576L246.035,536.565L246.427,536.553L246.817,536.54L247.205,536.525L247.591,536.509L247.976,536.492L248.359,536.473L248.741,536.453L249.121,536.432L249.499,536.409L249.876,536.385L250.251,536.36L250.627,536.333L250.81,536.32L250.996,536.306L251.181,536.291L251.366,536.277L251.551,536.262L251.735,536.246L251.919,536.23L252.102,536.214L252.285,536.198L252.468,536.181L252.65,536.164L252.832,536.147L253.014,536.129L253.195,536.111L253.376,536.093L253.556,536.074L253.735,536.055L253.915,536.036L254.095,536.017L254.273,535.997L254.452,535.976L254.63,535.956L254.808,535.935L254.985,535.914L255.162,535.892L255.339,535.871L255.515,535.848L255.691,535.826L255.867,535.803L256.042,535.78L256.216,535.757L256.391,535.733L256.565,535.709L256.738,535.685L256.912,535.66L257.085,535.635L257.258,535.61L257.43,535.584L257.602,535.558L257.774,535.532L257.945,535.506L258.116,535.479L258.286,535.452L258.457,535.424L258.627,535.397L258.796,535.369L258.965,535.34L259.134,535.311L259.303,535.283L259.471,535.253L259.639,535.224L259.807,535.194L259.974,535.163L260.141,535.133L260.307,535.102L260.474,535.071L260.639,535.04L260.805,535.008L260.971,534.976L261.135,534.943L261.299,534.911L261.464,534.878L261.628,534.844L261.792,534.811L261.955,534.777L262.118,534.743L262.281,534.708L262.443,534.674L262.606,534.638L262.767,534.603L262.928,534.567L263.089,534.531L263.25,534.495L263.411,534.459L263.571,534.422L263.731,534.384L263.891,534.347L264.05,534.309L264.209,534.271L264.368,534.233L264.526,534.194L264.684,534.155L264.842,534.116L265,534.076L265.157,534.036L265.314,533.996L265.47,533.956L265.627,533.915L265.783,533.874L265.939,533.832L266.094,533.791L266.25,533.749L266.405,533.707L266.559,533.664L266.714,533.621L266.868,533.578L267.022,533.535L267.175,533.491L267.329,533.447L267.482,533.403L267.635,533.358L267.787,533.313L267.939,533.268L268.091,533.222L268.243,533.177L268.394,533.131L268.546,533.084L268.696,533.038L268.847,532.991L268.998,532.943L269.147,532.896L269.298,532.848L269.447,532.8L269.596,532.752L269.746,532.703L269.895,532.654L270.044,532.604L270.192,532.555L270.34,532.505L270.488,532.455L270.636,532.404L270.783,532.354L270.93,532.303L271.077,532.252L271.224,532.2L271.37,532.148L271.517,532.096L271.662,532.043L271.808,531.991L271.954,531.937L272.099,531.884L272.244,531.831L272.389,531.777L272.534,531.723L272.678,531.668L272.822,531.613L272.967,531.558L273.108,531.504L273.397,531.391L273.683,531.279L273.968,531.165L274.253,531.05L274.536,530.934L274.819,530.816L275.101,530.698L275.382,530.578L275.662,530.458L275.941,530.336L276.22,530.213L276.498,530.088L276.776,529.963L277.052,529.837L277.328,529.709L277.603,529.58L277.877,529.451L278.151,529.319L278.424,529.187L278.696,529.054L278.968,528.92L279.239,528.784L279.509,528.647L279.779,528.509L280.048,528.37L280.316,528.23L280.584,528.089L280.852,527.946L281.118,527.803L281.384,527.658L281.65,527.512L281.915,527.365L282.18,527.217L282.443,527.068L282.707,526.917L282.97,526.766L283.232,526.613L283.494,526.459L283.755,526.304L284.016,526.148L284.277,525.991L284.537,525.832L284.796,525.673L285.055,525.512L285.314,525.35L285.572,525.187L285.83,525.023L286.088,524.858L286.345,524.692L286.601,524.524L286.858,524.355L287.114,524.185L287.369,524.015L287.624,523.842L287.879,523.669L288.133,523.495L288.388,523.319L288.641,523.143L288.895,522.965L289.148,522.786L289.401,522.606L289.654,522.425L289.906,522.242L290.158,522.059L290.41,521.874L290.662,521.688L290.913,521.501L291.164,521.313L291.415,521.124L291.666,520.934L291.916,520.742L292.166,520.549L292.416,520.356L292.666,520.161L292.916,519.965L293.165,519.768L293.414,519.569L293.664,519.37L293.913,519.169L294.161,518.968L294.41,518.765L294.659,518.561L294.907,518.356L295.156,518.15L295.404,517.942L295.652,517.734L295.9,517.524L296.148,517.313L296.396,517.102L296.644,516.889L296.892,516.674L297.139,516.459L297.387,516.243L297.635,516.026L297.882,515.807L298.13,515.587L298.377,515.367L298.625,515.145L298.872,514.922L299.12,514.698L299.368,514.472L299.615,514.246L299.863,514.019L300.11,513.79L300.358,513.56L300.606,513.33L300.854,513.098L301.102,512.865L301.35,512.631L301.598,512.395L301.846,512.159L302.094,511.922L302.342,511.683L302.591,511.444L302.839,511.203L303.088,510.962L303.337,510.719L303.586,510.475L303.835,510.23L304.084,509.984L304.333,509.737L304.583,509.489L304.847,509.225L305.014,509.061L305.161,508.914L305.307,508.767L305.453,508.62L305.598,508.472L305.741,508.324L305.885,508.176L306.027,508.027L306.169,507.878L306.309,507.728L306.449,507.578L306.588,507.428L306.726,507.277L306.864,507.126L307.001,506.974L307.137,506.822L307.271,506.67L307.406,506.517L307.539,506.364L307.672,506.211L307.804,506.057L307.935,505.903L308.066,505.749L308.195,505.594L308.324,505.438L308.452,505.283L308.58,505.127L308.706,504.971L308.832,504.814L308.957,504.657L309.081,504.5L309.205,504.342L309.328,504.184L309.45,504.026L309.571,503.867L309.691,503.708L309.811,503.548L309.93,503.389L310.049,503.229L310.166,503.069L310.283,502.908L310.399,502.747L310.515,502.585L310.63,502.424L310.744,502.262L310.857,502.099L310.969,501.937L311.081,501.774L311.192,501.611L311.303,501.447L311.413,501.283L311.522,501.119L311.63,500.954L311.737,500.79L311.844,500.625L311.951,500.459L312.056,500.294L312.161,500.128L312.265,499.961L312.369,499.795L312.471,499.628L312.573,499.461L312.675,499.294L312.776,499.126L312.876,498.958L312.975,498.79L313.074,498.621L313.172,498.453L313.269,498.284L313.366,498.114L313.462,497.945L313.557,497.775L313.652,497.605L313.746,497.435L313.839,497.264L313.932,497.093L314.024,496.922L314.115,496.751L314.206,496.579L314.296,496.407L314.386,496.236L314.475,496.063L314.563,495.891L314.65,495.718L314.737,495.545L314.824,495.372L314.909,495.198L314.994,495.025L315.079,494.851L315.163,494.677L315.246,494.502L315.328,494.328L315.41,494.153L315.491,493.978L315.572,493.803L315.652,493.628L315.731,493.452L315.81,493.277L315.889,493.1L315.966,492.924L316.043,492.748L316.119,492.572L316.195,492.395L316.27,492.218L316.345,492.041L316.419,491.864L316.492,491.686L316.565,491.509L316.637,491.331L316.709,491.153L316.78,490.975L316.85,490.797L316.92,490.619L316.989,490.44L317.058,490.261L317.126,490.083L317.194,489.904L317.261,489.724L317.327,489.545L317.393,489.366L317.458,489.186L317.523,489.006L317.587,488.827L317.65,488.647L317.713,488.467L317.776,488.286L317.838,488.106L317.899,487.926L317.96,487.745L318.02,487.565L318.079,487.384L318.139,487.203L318.197,487.022L318.255,486.841L318.312,486.66L318.369,486.478L318.426,486.297L318.482,486.116L318.537,485.934L318.592,485.752L318.646,485.571L318.699,485.389L318.753,485.207L318.805,485.025L318.857,484.843L318.909,484.661L318.96,484.479L319.01,484.297L319.06,484.115L319.11,483.932L319.159,483.75L319.207,483.568L319.255,483.385L319.303,483.203L319.35,483.02L319.396,482.838L319.442,482.655L319.487,482.472L319.532,482.29L319.577,482.107L319.621,481.925L319.664,481.742L319.707,481.559L319.749,481.376L319.791,481.194L319.833,481.011L319.874,480.828L319.914,480.645L319.954,480.463L319.994,480.28L320.033,480.097L320.072,479.914L320.11,479.732L320.147,479.549L320.184,479.367L320.221,479.184L320.257,479.001L320.293,478.819L320.328,478.636L320.363,478.454L320.398,478.271L320.432,478.089L320.465,477.906L320.498,477.724L320.531,477.542L320.563,477.359L320.595,477.177L320.626,476.995L320.657,476.813L320.687,476.631L320.717,476.449L320.746,476.267L320.775,476.086L320.804,475.904L320.832,475.722L320.86,475.541L320.887,475.359L320.914,475.178L320.941,474.997L320.967,474.816L320.992,474.635L321.018,474.454L321.042,474.273L321.067,474.092L321.091,473.912L321.114,473.731L321.137,473.551L321.16,473.37L321.183,473.19L321.205,473.01L321.226,472.83L321.247,472.651L321.268,472.471L321.288,472.292L321.308,472.113L321.328,471.933L321.347,471.754L321.366,471.575L321.384,471.397L321.402,471.218L321.42,471.04L321.437,470.862L321.454,470.684L321.471,470.509L321.503,470.151L321.533,469.796L321.562,469.443L321.59,469.09L321.616,468.738L321.641,468.386L321.665,468.036L321.687,467.686L321.707,467.338L321.727,466.99L321.745,466.643L321.762,466.298L321.777,465.953L321.791,465.609L321.804,465.267L321.816,464.925L321.827,464.585L321.836,464.246L321.844,463.907L321.851,463.57L321.857,463.235L321.862,462.9L321.865,462.567L321.868,462.235L321.869,461.904L321.869,461.575L321.869,461.247L321.867,460.921L321.864,460.596L321.861,460.272L321.856,459.95L321.85,459.629L321.844,459.31L321.836,458.992L321.828,458.676L321.819,458.361L321.808,458.049L321.797,457.737L321.786,457.428L321.773,457.12L321.759,456.814L321.745,456.509L321.73,456.207L321.714,455.906L321.698,455.607L321.681,455.31L321.663,455.014L321.644,454.721L321.625,454.429L321.605,454.14L321.585,453.852L321.564,453.567L321.542,453.283L321.52,453.001L321.497,452.722L321.474,452.444L321.45,452.169L321.426,451.896L321.401,451.625L321.376,451.357L321.35,451.09L321.324,450.826L321.297,450.564L321.27,450.304L321.243,450.047L321.215,449.792L321.187,449.539L321.159,449.289L321.13,449.041L321.102,448.796L321.072,448.553L321.043,448.312L321.013,448.074L320.984,447.839L320.954,447.606L320.923,447.376L320.893,447.148L320.863,446.924L320.832,446.701L320.801,446.482L320.771,446.265L320.74,446.051L320.709,445.84L320.678,445.631L320.647,445.425L320.616,445.222L320.585,445.023L320.555,444.826L320.524,444.631L320.493,444.44L320.463,444.252L320.433,444.069L320.372,443.705L320.312,443.356L320.253,443.019L320.195,442.696L320.139,442.385L320.083,442.087L320.029,441.802L319.977,441.531L319.926,441.273L319.877,441.029L319.83,440.8L319.786,440.584L319.743,440.384L319.703,440.197L319.666,440.026L319.632,439.87L319.6,439.729L319.572,439.603L319.546,439.493L319.525,439.402L319.491,439.257L319.472,439.182L318.758,436.314L433.965,321.107L437.458,323.233L437.513,323.266Z" style="fill:white;"/>
    </g>
</svg>
