<?xml version="1.0" encoding="UTF-8" standalone="no"?>
<!DOCTYPE svg PUBLIC "-//W3C//DTD SVG 1.1//EN" "http://www.w3.org/Graphics/SVG/1.1/DTD/svg11.dtd">
<svg width="100%" height="100%" viewBox="0 0 850 850" version="1.1" xmlns="http://www.w3.org/2000/svg" xmlns:xlink="http://www.w3.org/1999/xlink" xml:space="preserve" style="fill-rule:evenodd;clip-rule:evenodd;stroke-linejoin:round;stroke-miterlimit:1.41421;">
    <g>
        <g transform="matrix(1.44177,0,0,1.44177,185.665,24.3323)">
            <path d="M166.892,78.812C168.535,78.82 170.177,78.867 171.817,78.96C174.954,79.139 178.081,79.48 181.182,79.984C188.875,81.234 196.4,83.488 203.511,86.677C207.995,88.688 212.314,91.067 216.411,93.78C220.704,96.625 224.755,99.837 228.504,103.368C232.315,106.958 235.814,110.877 238.95,115.07C241.939,119.065 244.596,123.308 246.885,127.742C248.861,131.57 250.561,135.539 251.967,139.611C253.364,143.657 254.471,147.803 255.277,152.007C257.131,161.683 257.39,171.664 256.055,181.424C255.434,185.972 254.464,190.471 253.155,194.87C251.817,199.366 250.126,203.756 248.103,207.987C245.791,212.822 243.046,217.45 239.913,221.799C236.747,226.194 233.186,230.305 229.288,234.066C225.256,237.956 220.864,241.471 216.184,244.551C211.542,247.606 206.619,250.231 201.495,252.38C195.939,254.71 190.148,256.477 184.238,257.648C178.529,258.779 172.712,259.352 166.893,259.371C161.161,259.389 155.429,258.869 149.797,257.808C143.78,256.675 137.881,254.924 132.221,252.591C126.998,250.439 121.98,247.792 117.252,244.7C112.639,241.683 108.302,238.244 104.313,234.441C100.392,230.703 96.807,226.614 93.615,222.238C90.458,217.909 87.686,213.3 85.345,208.481C83.338,204.347 81.648,200.06 80.297,195.668C78.921,191.197 77.896,186.618 77.233,181.987C75.837,172.234 76.035,162.25 77.829,152.561C78.626,148.258 79.737,144.014 81.153,139.873C82.547,135.796 84.236,131.82 86.2,127.985C88.475,123.544 91.121,119.292 94.098,115.287C97.275,111.013 100.829,107.02 104.706,103.368C108.257,100.023 112.078,96.965 116.121,94.234C120.342,91.382 124.804,88.888 129.446,86.79C136.458,83.62 143.876,81.358 151.465,80.077C154.653,79.538 157.87,79.172 161.098,78.977C162.736,78.879 164.377,78.827 166.018,78.814C166.31,78.812 166.601,78.812 166.892,78.812ZM166.355,93.262C164.972,93.269 163.589,93.308 162.208,93.387C159.494,93.542 156.788,93.841 154.105,94.286C147.734,95.341 141.502,97.22 135.608,99.862C131.635,101.644 127.817,103.771 124.209,106.208C120.811,108.503 117.599,111.075 114.614,113.886C111.52,116.8 108.671,119.973 106.105,123.361C103.575,126.701 101.322,130.25 99.377,133.962C96.035,140.342 93.615,147.198 92.216,154.263C91.249,159.142 90.768,164.115 90.768,169.089C90.768,172.638 91.012,176.188 91.504,179.703C92.016,183.361 92.796,186.982 93.839,190.526C94.971,194.375 96.413,198.134 98.144,201.754C100.118,205.883 102.469,209.832 105.155,213.538C107.783,217.164 110.732,220.557 113.955,223.667C117.399,226.989 121.155,229.987 125.16,232.606C129.001,235.118 133.069,237.28 137.301,239.054C141.961,241.009 146.818,242.491 151.775,243.474C156.574,244.424 161.464,244.905 166.355,244.921C171.175,244.936 175.997,244.5 180.734,243.608C185.782,242.657 190.731,241.189 195.481,239.231C199.866,237.424 204.079,235.201 208.049,232.606C211.927,230.07 215.572,227.179 218.926,223.982C222.333,220.734 225.438,217.172 228.189,213.353C230.73,209.825 232.968,206.079 234.867,202.168C236.517,198.77 237.912,195.248 239.034,191.642C240.199,187.895 241.07,184.058 241.638,180.175C242.175,176.506 242.442,172.798 242.442,169.089C242.442,164.273 241.991,159.457 241.085,154.727C239.728,147.649 237.35,140.773 234.044,134.369C232.122,130.645 229.89,127.081 227.379,123.725C224.743,120.2 221.8,116.905 218.596,113.887C215.555,111.022 212.279,108.408 208.811,106.08C205.385,103.782 201.773,101.763 198.019,100.052C192.073,97.342 185.777,95.413 179.334,94.325C176.733,93.886 174.11,93.583 171.479,93.416C170.1,93.329 168.719,93.281 167.338,93.266C167.01,93.263 166.683,93.262 166.355,93.262Z" style="fill:white;fill-rule:nonzero;"/>
        </g>
        <g transform="matrix(1.44177,0,0,1.44177,185.665,24.3323)">
            <path d="M166.539,0.175C167.614,0.18 168.689,0.192 169.764,0.216C171.9,0.263 174.036,0.351 176.169,0.479C182.478,0.859 188.766,1.595 194.991,2.687C202.455,3.996 209.828,5.817 217.042,8.134C224.308,10.468 231.411,13.306 238.286,16.619C246.749,20.696 254.864,25.494 262.52,30.938C270.539,36.641 278.053,43.052 284.948,50.072C290.558,55.782 295.757,61.895 300.494,68.348C304.853,74.288 308.82,80.517 312.357,86.981C318.379,97.987 323.149,109.675 326.539,121.755C328.787,129.763 330.429,137.941 331.451,146.195C332.016,150.754 332.393,155.336 332.582,159.925C332.677,162.248 332.724,164.572 332.725,166.897C332.727,169.589 332.661,172.282 332.533,174.971C332.092,184.194 330.892,193.38 328.933,202.404C328.444,204.66 327.907,206.905 327.324,209.139C326.441,212.521 325.457,215.876 324.419,219.213C323.507,222.148 322.551,225.069 321.566,227.98C320.078,232.377 318.525,236.751 316.929,241.11C315.159,245.945 313.337,250.762 311.48,255.565C307.494,265.871 303.349,276.115 299.119,286.323C294.206,298.177 289.173,309.982 284.068,321.755C277.924,335.921 271.673,350.041 265.353,364.129C258.435,379.55 251.432,394.933 244.371,410.289C233.976,432.897 223.454,455.445 212.854,477.958C207.553,489.216 202.23,500.464 196.899,511.709C191.913,522.217 186.918,532.72 181.934,543.229C181.028,545.142 180.123,547.055 179.219,548.969L178.613,550.253L178.036,551.478L176.953,553.139C175.641,554.283 175.374,554.755 173.665,555.292C172.392,555.692 171.032,555.731 169.737,555.406C169.096,555.244 168.471,554.992 167.898,554.662C167.325,554.333 166.793,553.92 166.331,553.447C165.381,552.475 164.768,551.144 164.133,549.975C162.7,547.337 161.27,544.696 159.845,542.053C155.381,533.779 150.952,525.485 146.549,517.178C135.938,497.16 125.476,477.064 115.151,456.898C103.826,434.779 92.667,412.575 81.726,390.264C73.01,372.489 64.431,354.646 56.06,336.706C52.274,328.592 48.53,320.457 44.843,312.297C41.113,304.044 37.44,295.765 33.845,287.452C30.216,279.062 26.666,270.637 23.237,262.163C20.08,254.364 17.023,246.522 14.14,238.617C12.084,232.981 10.116,227.311 8.301,221.593C7.516,219.12 6.76,216.637 6.045,214.143C5.346,211.706 4.685,209.258 4.08,206.796C3.305,203.645 2.625,200.472 2.037,197.281C0.212,187.368 -0.706,177.29 -0.725,167.21C-0.739,159.662 -0.249,152.113 0.75,144.632C1.872,136.229 3.637,127.912 6.029,119.779C9.47,108.077 14.21,96.762 20.13,86.098C27.347,73.094 36.312,61.07 46.702,50.429C53.576,43.389 61.07,36.955 69.072,31.229C76.847,25.665 85.1,20.769 93.714,16.619C100.588,13.306 107.692,10.468 114.958,8.134C122.006,5.87 129.207,4.08 136.495,2.778C142.714,1.667 148.995,0.912 155.3,0.512C157.431,0.377 159.565,0.282 161.7,0.228C162.774,0.201 163.848,0.186 164.923,0.177C165.461,0.175 166,0.174 166.539,0.175ZM165.507,14.625C164.523,14.629 163.54,14.64 162.557,14.662C160.441,14.709 158.326,14.799 156.214,14.933C150.296,15.308 144.401,16.026 138.568,17.087C131.615,18.351 124.752,20.103 118.045,22.327C111.292,24.565 104.699,27.282 98.328,30.448C90.513,34.332 83.034,38.891 75.999,44.055C68.997,49.193 62.435,54.93 56.404,61.18C46.969,70.959 38.843,81.995 32.32,93.917C27.048,103.552 22.826,113.759 19.76,124.306C17.598,131.741 16.011,139.342 15.01,147.02C13.895,155.576 13.508,164.226 13.839,172.848C14.039,178.056 14.502,183.253 15.232,188.412C15.552,190.683 15.923,192.947 16.348,195.201C16.863,197.931 17.448,200.647 18.111,203.345C18.636,205.477 19.206,207.599 19.807,209.711C20.476,212.061 21.183,214.401 21.919,216.732C23.415,221.473 25.024,226.177 26.7,230.857C29.048,237.412 31.529,243.918 34.089,250.392C36.955,257.636 39.922,264.839 42.957,272.014C45.74,278.595 48.581,285.152 51.464,291.69C54.73,299.093 58.05,306.471 61.412,313.831C68.754,329.904 76.294,345.886 83.961,361.807C94.83,384.379 105.957,406.827 117.262,429.184C125.692,445.857 134.224,462.478 142.848,479.052C149.955,492.707 157.124,506.33 164.368,519.913C166.343,523.616 168.325,527.316 170.311,531.013L171.068,532.42C174.596,524.987 178.129,517.556 181.657,510.123C185.137,502.79 188.614,495.455 192.083,488.116C201.743,467.683 211.348,447.224 220.862,426.722C231.684,403.402 242.393,380.029 252.907,356.568C259.889,340.989 266.785,325.372 273.539,309.694C276.834,302.047 280.094,294.386 283.307,286.705C286.12,279.981 288.897,273.242 291.623,266.483C294.298,259.851 296.924,253.2 299.475,246.52C301.66,240.798 303.791,235.055 305.828,229.278C307.341,224.988 308.804,220.679 310.176,216.341C311.312,212.748 312.39,209.135 313.342,205.488C314.05,202.778 314.683,200.048 315.239,197.302C316.777,189.716 317.73,182.013 318.099,174.282C318.217,171.824 318.276,169.362 318.275,166.901C318.273,164.285 318.209,161.67 318.077,159.057C317.84,154.394 317.392,149.742 316.73,145.12C315.702,137.933 314.157,130.821 312.108,123.856C309.053,113.469 304.877,103.415 299.68,93.917C293.084,81.861 284.848,70.712 275.278,60.851C269.122,54.51 262.418,48.702 255.262,43.515C248.318,38.483 240.95,34.036 233.259,30.243C226.877,27.096 220.273,24.399 213.512,22.18C206.945,20.026 200.231,18.324 193.432,17.087C187.599,16.026 181.704,15.308 175.786,14.933C173.837,14.81 171.886,14.723 169.934,14.674C168.951,14.649 167.969,14.635 166.986,14.627C166.493,14.625 166,14.624 165.507,14.625Z" style="fill:white;fill-rule:nonzero;"/>
        </g>
    </g>
</svg>
